<svg xmlns="http://www.w3.org/2000/svg" xmlns:xlink="http://www.w3.org/1999/xlink" width="500" zoomAndPan="magnify" viewBox="0 0 375 374.999991" height="500" preserveAspectRatio="xMidYMid meet" version="1.0"><defs><clipPath id="533a6a892a"><path d="M 13.828125 155 L 103 155 L 103 242 L 13.828125 242 Z M 13.828125 155 " clip-rule="nonzero"/></clipPath><clipPath id="77881cb2c8"><path d="M 34 66 L 361.078125 66 L 361.078125 359 L 34 359 Z M 34 66 " clip-rule="nonzero"/></clipPath></defs><path fill="#000000" d="M 132.207031 288.203125 C 135.367188 287.085938 138.609375 286.195312 141.898438 285.550781 L 142.296875 287.007812 C 142.339844 287.179688 142.445312 287.332031 142.59375 287.433594 C 142.738281 287.535156 142.917969 287.578125 143.09375 287.558594 L 156.121094 286.042969 C 159.707031 277.867188 166.289062 265.484375 166.382812 265.292969 C 166.289062 262.203125 166.382812 259.605469 166.382812 256.644531 C 158.929688 259.414062 145.140625 264.667969 137.933594 268.023438 C 137.773438 268.128906 137.644531 268.285156 137.574219 268.464844 C 137.503906 268.644531 137.492188 268.84375 137.535156 269.03125 C 137.535156 269.03125 137.667969 269.503906 137.839844 270.1875 C 134.3125 270.1875 123.75 269.675781 121.207031 272.082031 C 120.8125 272.632812 120.617188 273.304688 120.65625 273.980469 C 120.507812 276.597656 121.816406 296.929688 123.902344 302.902344 C 124.980469 306.03125 127.257812 305.691406 128.8125 302.691406 C 130.613281 298.179688 131.769531 293.4375 132.246094 288.601562 C 132.246094 288.355469 132.1875 288.375 132.207031 288.203125 Z M 130.027344 271.230469 C 132.339844 271.039062 133.0625 271.078125 138.03125 270.925781 C 138.921875 274.304688 140.761719 281.242188 141.710938 284.789062 C 138.363281 285.308594 135.058594 286.074219 131.828125 287.085938 C 130.820312 281.855469 130.21875 276.554688 130.027344 271.230469 Z M 130.027344 271.230469 " fill-opacity="1" fill-rule="nonzero"/><path fill="#000000" d="M 306.761719 105.25 C 307.234375 104.585938 306.628906 103.730469 306.117188 103.066406 C 307.566406 101.574219 309.175781 100.246094 310.914062 99.105469 C 313.847656 97.640625 316.53125 95.722656 318.859375 93.414062 C 319.828125 92.410156 321.648438 90.34375 320.964844 89.128906 C 320.285156 87.914062 319.070312 87.839844 317.417969 88.539062 C 318.132812 87.789062 318.71875 86.925781 319.144531 85.980469 C 319.675781 84.5 318.425781 83.304688 315.710938 84.40625 C 316.699219 82.832031 316.925781 81.183594 315.257812 80.386719 C 313.910156 79.742188 311.9375 81.277344 310.800781 82.28125 C 308.566406 84.234375 306.46875 86.339844 304.523438 88.578125 C 303.328125 86.074219 301.433594 83.191406 299.0625 84.101562 C 296.691406 85.011719 298.53125 89.089844 299.746094 91.308594 L 295.4375 94.285156 C 294.789062 93.9375 294.054688 93.773438 293.316406 93.8125 C 288.421875 94.648438 265.949219 111.753906 263.671875 111.753906 C 261.929688 111.753906 237.007812 99.804688 215.464844 96.355469 C 215.421875 96.226562 215.34375 96.109375 215.242188 96.023438 C 215.136719 95.9375 215.011719 95.878906 214.875 95.859375 C 211.117188 95.21875 207.308594 94.933594 203.496094 95.007812 C 203.382812 95.015625 203.269531 95.046875 203.167969 95.105469 C 203.066406 95.160156 202.976562 95.238281 202.910156 95.328125 L 201.316406 95.328125 C 200.9375 93.792969 199.535156 90.246094 199.039062 88.882812 C 200.328125 87.761719 202.113281 87.195312 203.042969 85.390625 C 204.75 82.054688 204.671875 76.25 204.199219 72.535156 C 206.339844 70.902344 206.398438 68.285156 205.90625 65.613281 C 205.714844 64.53125 205.128906 62.085938 204.21875 61.476562 C 203.707031 61.136719 202.625 61.476562 201.695312 61.820312 C 200.765625 59.65625 200.765625 60.644531 201.144531 59.769531 C 201.320312 59.367188 201.425781 58.9375 201.449219 58.5 C 202.453125 58.804688 204.539062 56.792969 203.820312 54.136719 C 203.441406 53.1875 202.976562 52.273438 202.433594 51.40625 C 202.699219 50.761719 203.269531 49.984375 201.488281 47.613281 C 200.71875 46.785156 199.722656 46.203125 198.621094 45.945312 L 197.75 45.945312 C 197.121094 45.03125 196.199219 44.363281 195.132812 44.046875 C 193.527344 43.640625 191.824219 43.878906 190.390625 44.710938 C 190.011719 44.996094 189.710938 45.375 189.332031 45.640625 C 188.472656 45.121094 187.488281 44.847656 186.484375 44.847656 C 185.480469 44.847656 184.496094 45.121094 183.640625 45.640625 C 183.140625 45.839844 182.683594 46.136719 182.296875 46.511719 C 181.910156 46.890625 181.609375 47.34375 181.402344 47.839844 C 180.472656 47.519531 179.488281 47.398438 178.507812 47.480469 C 177.527344 47.5625 176.574219 47.847656 175.714844 48.316406 C 172.4375 50.09375 169.988281 53.082031 168.886719 56.640625 C 168.855469 57.179688 168.855469 57.714844 168.886719 58.253906 L 168.675781 58.253906 C 165.832031 57.835938 162.210938 64.585938 165.113281 69.839844 C 165.453125 70.46875 165.890625 71.054688 166.304688 71.738281 C 167.519531 73.632812 167.046875 74.203125 169.757812 76.515625 C 170.554688 77.199219 170.6875 77.144531 171.179688 77.558594 C 171.671875 77.976562 171.484375 77.769531 171.769531 78.832031 C 171.921875 79.457031 172.199219 80.042969 172.585938 80.5625 C 172.96875 81.078125 173.453125 81.515625 174.007812 81.847656 C 174.207031 83.699219 175 85.441406 176.261719 86.816406 C 176.664062 87.261719 177.132812 87.648438 177.648438 87.953125 C 177.785156 88.03125 177.941406 88.078125 178.101562 88.085938 C 178.671875 91.613281 179.375 96.203125 179.675781 98.15625 L 177.988281 99.066406 C 175.78125 99.953125 173.632812 100.988281 171.558594 102.15625 C 171.398438 102.269531 171.28125 102.4375 171.238281 102.632812 C 169.226562 103.695312 167.332031 104.699219 166.25 105.34375 C 151.191406 114.277344 108.425781 173.164062 107.988281 175.855469 C 107.941406 176.011719 107.941406 176.175781 107.988281 176.328125 C 108.601562 177.308594 109.347656 178.195312 110.207031 178.964844 C 109.945312 179.449219 109.625 179.898438 109.261719 180.3125 C 105.46875 182.796875 99.777344 186.496094 96.722656 189.792969 C 96.511719 189.984375 96.347656 190.230469 96.257812 190.5 C 96.167969 190.773438 96.148438 191.066406 96.203125 191.34375 C 96.257812 191.625 96.386719 191.890625 96.574219 192.105469 C 96.761719 192.324219 97.003906 192.488281 97.273438 192.582031 C 97.84375 192.773438 97.9375 192.714844 101.636719 190.6875 C 100.621094 191.578125 99.789062 192.660156 99.1875 193.871094 C 98.941406 194.914062 99.890625 195.523438 101.085938 195.332031 C 101.757812 195.15625 102.398438 194.875 102.984375 194.5 C 102.640625 195.027344 102.457031 195.640625 102.457031 196.269531 C 102.457031 196.902344 102.640625 197.515625 102.984375 198.042969 C 104.878906 200.433594 109.847656 192.90625 112.464844 191.046875 C 113.527344 192.394531 114.96875 195.542969 117.261719 194.707031 C 119.253906 193.96875 117.074219 189.585938 117.261719 188.316406 C 118.035156 187.574219 118.859375 186.890625 119.730469 186.265625 C 121.191406 187.351562 122.863281 188.121094 124.640625 188.523438 C 127.769531 188.523438 160.425781 155.5625 162.910156 152.925781 C 162.019531 161.308594 157.527344 197.285156 158.472656 204.285156 C 158.910156 207.449219 166.515625 207.90625 169.71875 208.078125 C 168.753906 230.835938 168.109375 265.3125 167.9375 265.671875 C 162.910156 276.503906 161.546875 279.460938 159.859375 282.742188 C 156.785156 288.621094 143.851562 310.316406 142.390625 315.25 C 142.183594 316.027344 142.164062 316.328125 142.980469 317.769531 C 140.535156 320.339844 138.269531 323.070312 136.191406 325.945312 C 135.148438 327.839844 139.621094 345.515625 142.789062 351.773438 C 143.511719 353.179688 144.6875 355.339844 146.261719 355.285156 C 151 355.113281 150.984375 338.082031 150.851562 333.320312 C 150.847656 333.175781 150.796875 333.035156 150.699219 332.921875 C 151.558594 331.640625 152.496094 330.410156 153.503906 329.246094 C 154.109375 329.660156 154.742188 330.027344 155.402344 330.34375 C 156.046875 330.628906 156.765625 330.136719 157.296875 329.699219 C 163.613281 324.730469 197.675781 282.285156 204.976562 262.261719 C 208.296875 253.117188 212.714844 240.488281 213.964844 231.535156 C 214.730469 225.875 214.800781 220.144531 214.175781 214.46875 C 214.175781 214.386719 214.207031 214.3125 214.261719 214.253906 C 214.320312 214.195312 214.398438 214.164062 214.476562 214.164062 C 214.558594 214.164062 214.636719 214.195312 214.691406 214.253906 C 214.75 214.3125 214.78125 214.386719 214.78125 214.46875 C 215.730469 220.175781 215.917969 225.988281 215.332031 231.746094 C 213.925781 244.167969 204.121094 270.054688 198.886719 279.574219 C 203.402344 278.742188 212.582031 276.917969 217.019531 275.59375 C 231.8125 271.097656 245.464844 257.6875 246.660156 242.632812 C 247.046875 235.539062 247.046875 228.425781 246.660156 221.332031 C 246.535156 211.539062 245.257812 201.796875 242.867188 192.296875 C 246.890625 190.117188 250.566406 187.558594 251.761719 185.207031 C 254.324219 180.179688 247.550781 151.257812 246.074219 143.140625 C 254.171875 144.03125 267.957031 145.644531 274.386719 140.617188 C 281.746094 134.703125 297.640625 118.050781 306.761719 105.25 Z M 149.824219 332.277344 C 146.414062 330.210938 141.632812 325.300781 140.914062 321.449219 C 141.691406 320.464844 142.503906 319.554688 143.265625 318.527344 C 145.832031 322.449219 149.039062 325.917969 152.746094 328.789062 C 151.703125 329.894531 150.730469 331.058594 149.824219 332.277344 Z M 300.597656 91.839844 C 300.695312 91.777344 300.765625 91.679688 300.792969 91.566406 C 300.824219 91.453125 300.804688 91.335938 300.75 91.234375 C 300.085938 90 298.09375 85.65625 299.480469 85.164062 C 300.273438 84.863281 300.976562 85.355469 301.566406 86.019531 C 302.464844 87.15625 303.160156 88.441406 303.632812 89.8125 C 303.667969 89.921875 303.730469 90.023438 303.820312 90.101562 C 303.90625 90.179688 304.015625 90.230469 304.128906 90.25 C 304.242188 90.273438 304.363281 90.261719 304.472656 90.222656 C 304.582031 90.179688 304.679688 90.109375 304.75 90.019531 C 306.648438 87.914062 311.085938 83.117188 313.589844 81.828125 C 315.484375 80.839844 315.941406 82.660156 311.292969 86.910156 C 310.226562 87.722656 309.199219 88.589844 308.222656 89.507812 C 308.167969 89.582031 308.136719 89.671875 308.136719 89.765625 C 308.136719 89.855469 308.167969 89.945312 308.222656 90.019531 C 308.222656 90.511719 308.621094 91.0625 309.300781 90.550781 C 310.949219 89.105469 312.695312 87.765625 314.519531 86.550781 C 315.449219 85.886719 316.53125 85.46875 317.667969 85.335938 C 317.097656 87.082031 311.804688 91.820312 311.351562 92.351562 C 311.207031 92.480469 311.117188 92.664062 311.105469 92.855469 C 311.09375 93.050781 311.160156 93.242188 311.285156 93.386719 C 311.410156 93.535156 311.589844 93.625 311.785156 93.640625 C 311.976562 93.65625 312.167969 93.59375 312.316406 93.472656 C 314.421875 92.105469 318.101562 88.917969 319.371094 89.394531 C 320.644531 89.867188 316.871094 93.394531 315.921875 94.230469 C 310.476562 98.953125 311.882812 95.917969 305.585938 102.328125 C 302.84375 99.324219 299.699219 96.722656 296.234375 94.589844 Z M 218.195312 182.550781 C 217.871094 179.933594 217.472656 177.105469 216.980469 174.167969 L 217.796875 173.085938 C 221.589844 168.210938 222.726562 160.457031 222.367188 154.367188 C 224.394531 163.261719 226.007812 172.003906 227.242188 180.691406 Z M 189.992188 117.613281 C 185.007812 113.820312 176.984375 107.277344 172.320312 102.800781 L 179.90625 99.007812 C 186.871094 105.515625 192.832031 113.019531 197.597656 121.273438 C 204.886719 134.660156 210.292969 148.988281 213.664062 163.851562 L 186.617188 125.597656 L 190.144531 118.277344 C 190.191406 118.164062 190.203125 118.039062 190.175781 117.921875 C 190.148438 117.800781 190.085938 117.695312 189.992188 117.613281 Z M 202.8125 96.109375 C 202.929688 96.316406 204.238281 99.105469 206.226562 103.976562 C 206.226562 104.1875 205.867188 108.929688 205.695312 110.597656 C 203.277344 109.636719 200.992188 108.363281 198.90625 106.804688 C 199.324219 105.152344 201.203125 97.664062 201.335938 95.976562 Z M 196.082031 116.476562 C 196.214844 116.132812 196.347656 115.679688 196.5 115.148438 L 197.769531 115.8125 C 198.488281 116.285156 198.207031 114.84375 198.851562 119.015625 C 198.851562 119.71875 199.039062 120.496094 199.078125 121.351562 C 198.207031 119.777344 197.125 118.089844 196.101562 116.476562 Z M 195.019531 114.882812 C 191.4375 109.800781 187.359375 105.085938 182.84375 100.8125 L 197.125 107.011719 C 196.574219 108.320312 195.777344 112.324219 195.039062 114.882812 Z M 209.605469 125.996094 C 207.707031 120.820312 206.246094 115.035156 205.527344 113.515625 C 205.570312 113.042969 205.570312 112.570312 205.527344 112.09375 C 205.800781 112.199219 206.085938 112.261719 206.378906 112.285156 C 206.5625 112.285156 206.738281 112.222656 206.878906 112.105469 C 207.019531 111.984375 207.109375 111.820312 207.136719 111.640625 C 207.289062 111.015625 207.535156 107.847656 207.574219 107.144531 C 213.089844 121.074219 217.695312 135.347656 221.363281 149.875 C 210.648438 127.078125 212.296875 133.675781 209.621094 125.996094 Z M 225.289062 162.199219 C 220.964844 141.472656 213.359375 115.621094 204.710938 96.46875 C 207.886719 96.46875 211.058594 96.722656 214.191406 97.226562 C 215.804688 111.640625 214.457031 111.148438 215.539062 111.714844 C 216.621094 112.285156 223.125 114.902344 224.09375 115.300781 C 224 116.761719 225.363281 158.523438 225.308594 162.199219 Z M 203.460938 62.691406 C 204.445312 64.847656 204.796875 67.246094 204.464844 69.59375 C 204.308594 70.191406 203.992188 70.734375 203.546875 71.164062 C 203.101562 71.59375 202.546875 71.890625 201.945312 72.019531 C 201.339844 72.152344 200.710938 72.113281 200.128906 71.910156 C 199.546875 71.707031 199.03125 71.34375 198.640625 70.863281 C 197.738281 68.960938 197.054688 66.953125 196.613281 64.890625 C 197.125 64.226562 202.585938 62.898438 203.460938 62.691406 Z M 177.363281 81.65625 C 176.671875 81.339844 175.960938 81.0625 175.238281 80.820312 C 174.753906 80.621094 174.320312 80.316406 173.972656 79.921875 C 173.628906 79.53125 173.375 79.0625 173.234375 78.558594 C 173.09375 78.054688 173.074219 77.523438 173.171875 77.007812 C 173.269531 76.492188 173.484375 76.007812 173.796875 75.585938 C 174.992188 74.582031 176.074219 74.640625 177.058594 76.136719 C 177.6875 77.292969 177.667969 77.390625 177.949219 77.503906 C 178.03125 77.539062 178.121094 77.558594 178.210938 77.554688 C 178.300781 77.554688 178.386719 77.535156 178.46875 77.496094 C 178.546875 77.460938 178.621094 77.40625 178.679688 77.335938 C 178.734375 77.269531 178.78125 77.191406 178.804688 77.105469 C 179.085938 75.917969 179.128906 74.6875 178.9375 73.480469 C 178.710938 72.171875 178.671875 66.371094 178.710938 66.179688 C 179.261719 66.472656 179.886719 66.609375 180.511719 66.578125 C 183.945312 66.445312 184.625 64.683594 185.992188 63.242188 C 187.566406 63.394531 187.890625 64.152344 189.671875 63.242188 C 190.507812 62.765625 191.273438 62.179688 191.949219 61.496094 C 192.492188 61.71875 193.019531 61.984375 193.519531 62.292969 C 194.660156 62.839844 195.9375 63.007812 197.179688 62.773438 C 198.417969 62.535156 199.546875 61.910156 200.40625 60.984375 C 200.613281 61.382812 200.804688 61.78125 200.976562 62.199219 C 199.230469 62.738281 197.589844 63.566406 196.121094 64.644531 C 195.796875 65.042969 196.269531 67.203125 196.386719 67.71875 C 194.796875 67.917969 193.257812 68.414062 191.851562 69.175781 C 191.566406 68.191406 190.941406 66.351562 189.957031 65.839844 C 189.660156 65.75 189.34375 65.75 189.046875 65.839844 C 187.339844 66.105469 181.214844 67.945312 180.472656 68.949219 C 179.828125 69.652344 181.667969 75.074219 182.238281 75.96875 C 184.417969 79.34375 190.808594 78.355469 192.003906 74.410156 C 192.300781 73.085938 192.300781 71.714844 192.003906 70.390625 C 192.554688 70.390625 194.203125 69.804688 194.394531 69.746094 C 195.703125 72.6875 196.082031 72.855469 197.597656 76.023438 C 197.390625 76.195312 197.050781 76.480469 196.765625 76.667969 C 195.417969 77.558594 195.132812 77.40625 195.210938 77.789062 C 195.230469 77.863281 195.28125 77.925781 195.347656 77.96875 C 195.414062 78.011719 195.492188 78.027344 195.570312 78.015625 C 196.363281 77.902344 197.144531 77.683594 197.882812 77.371094 C 198.324219 77.203125 198.691406 76.878906 198.90625 76.460938 C 199.4375 75.265625 196.5 70.769531 195.34375 69.425781 C 195.570312 69.425781 196.101562 69.042969 196.5 68.835938 C 197.03125 70.960938 197.390625 72.628906 199.4375 73.464844 C 200.03125 73.6875 200.660156 73.789062 201.292969 73.761719 C 201.925781 73.738281 202.546875 73.582031 203.117188 73.3125 C 203.421875 76.648438 203.363281 82.074219 201.769531 85.03125 C 200.957031 86.566406 198.945312 87.15625 197.65625 88.425781 C 197.277344 88.789062 197.523438 89.300781 197.65625 89.847656 C 199.761719 95.710938 199.796875 95.691406 199.683594 96.449219 C 199.125 99.597656 198.347656 102.703125 197.351562 105.742188 C 196.878906 105.535156 191.550781 102.707031 181.117188 98.648438 C 180.796875 96.507812 179.070312 85.070312 178.519531 82.964844 C 178.558594 82.226562 178.464844 82.054688 177.363281 81.5625 Z M 190.640625 73.917969 C 190.03125 75.984375 187.167969 76.878906 185.121094 76.308594 C 183.070312 75.738281 182.9375 74.695312 181.972656 72.230469 C 181.519531 71.289062 181.207031 70.285156 181.042969 69.253906 C 181.667969 68.570312 188.515625 67.167969 189.367188 67.035156 C 190.566406 69.082031 191.015625 71.480469 190.640625 73.824219 Z M 116.429688 187.785156 C 115.707031 188.484375 116.675781 190.78125 116.828125 192.773438 C 116.828125 192.941406 116.828125 193.683594 116.714844 193.738281 C 115.671875 194.082031 114.703125 192.507812 114.113281 191.558594 C 113.527344 190.609375 112.9375 189.320312 112.011719 189.660156 C 110.113281 190.554688 105.714844 196.394531 103.988281 197 C 103.113281 195.332031 108.101562 190.574219 108.273438 190.308594 C 108.347656 190.183594 108.386719 190.046875 108.382812 189.902344 C 108.382812 189.761719 108.34375 189.621094 108.269531 189.5 C 108.195312 189.378906 108.089844 189.28125 107.964844 189.214844 C 107.835938 189.148438 107.695312 189.121094 107.554688 189.132812 C 107.210938 189.132812 106.984375 189.433594 106.453125 189.910156 C 104.835938 191.484375 102.988281 192.800781 100.972656 193.816406 C 102.800781 191.71875 104.757812 189.734375 106.832031 187.878906 C 106.933594 187.773438 107.007812 187.644531 107.039062 187.5 C 107.039062 187.5 106.644531 186.496094 105.863281 186.894531 C 104.765625 187.5 99.417969 190.589844 97.730469 191.386719 C 97.5 191.234375 97.632812 191.007812 97.730469 190.78125 C 100.402344 187.5 106.28125 183.515625 109.886719 180.996094 C 110.308594 180.558594 110.660156 180.058594 110.929688 179.515625 C 113.425781 181.839844 116.085938 183.972656 118.894531 185.90625 C 118.03125 186.472656 117.207031 187.101562 116.429688 187.785156 Z M 160.558594 205.023438 C 160.144531 204.757812 159.839844 204.511719 159.78125 204.171875 C 158.738281 196.433594 164.542969 152.585938 164.449219 150.859375 C 164.449219 150.757812 164.429688 150.65625 164.386719 150.566406 C 164.347656 150.472656 164.292969 150.386719 164.21875 150.316406 C 164.148438 150.246094 164.0625 150.191406 163.964844 150.152344 C 163.871094 150.117188 163.773438 150.097656 163.671875 150.101562 C 162.703125 150.101562 164.410156 150.101562 140.25 173.238281 C 138.65625 174.738281 126.480469 186.382812 124.449219 187.160156 C 121.664062 186.949219 111.175781 178.585938 109.46875 175.949219 C 112.769531 169.273438 152.785156 114.351562 166.628906 105.949219 C 167.691406 105.304688 169.511719 104.300781 171.503906 103.238281 C 172.191406 103.886719 172.933594 104.476562 173.722656 105.003906 C 178.121094 109.175781 184.246094 114.371094 188.894531 118.277344 L 185.273438 125.464844 C 185.214844 125.558594 185.1875 125.667969 185.1875 125.777344 C 185.1875 125.886719 185.214844 125.996094 185.273438 126.089844 C 214.6875 168.289062 214.25 167.8125 214.441406 167.8125 C 216.324219 177.566406 217.496094 187.441406 217.949219 197.363281 C 217.949219 200.035156 217.949219 199.808594 218.0625 199.617188 C 218.175781 199.429688 218.0625 199.75 218.0625 199.75 C 213.472656 204.757812 168.050781 209.421875 160.558594 205.023438 Z M 265.398438 142.191406 C 256.808594 143.386719 247.097656 141.605469 245.21875 141.527344 C 244.175781 136.472656 242.097656 131.6875 239.113281 127.476562 C 239.066406 127.414062 239 127.371094 238.925781 127.359375 C 238.851562 127.34375 238.773438 127.359375 238.707031 127.398438 C 238.644531 127.441406 238.597656 127.503906 238.578125 127.578125 C 238.554688 127.652344 238.566406 127.730469 238.601562 127.796875 C 239.699219 130.035156 243.378906 139.6875 244.289062 142.039062 C 244.007812 142.953125 252.863281 179.574219 250.359375 184.503906 C 248.121094 188.960938 235.09375 194.574219 230.390625 196.1875 C 229.460938 185.628906 227.941406 175.128906 225.835938 164.742188 C 226.484375 159.28125 225.648438 126.8125 225.402344 114.808594 C 225.394531 114.667969 225.347656 114.53125 225.265625 114.417969 C 225.1875 114.304688 225.074219 114.214844 224.945312 114.164062 L 216.429688 110.578125 C 216.390625 106.070312 216.109375 101.570312 215.578125 97.09375 C 236.835938 100.773438 261.605469 112.929688 263.671875 112.949219 C 266.667969 112.949219 288.933594 95.878906 293.542969 95.199219 C 295.589844 94.875 304.390625 102.554688 305.414062 104.679688 C 296.425781 117.234375 280.628906 133.734375 273.308594 139.441406 C 270.949219 141.019531 268.226562 141.964844 265.398438 142.191406 Z M 265.398438 142.191406 " fill-opacity="1" fill-rule="nonzero"/><path fill="#000000" d="M 188.683594 70.125 C 188.660156 70 188.613281 69.882812 188.542969 69.777344 C 188.476562 69.671875 188.382812 69.578125 188.28125 69.507812 C 188.175781 69.4375 188.058594 69.386719 187.933594 69.359375 C 187.808594 69.335938 187.679688 69.332031 187.558594 69.359375 C 187.433594 69.382812 187.3125 69.429688 187.207031 69.5 C 187.101562 69.566406 187.011719 69.65625 186.941406 69.761719 C 186.867188 69.867188 186.816406 69.984375 186.792969 70.109375 C 186.765625 70.234375 186.765625 70.363281 186.789062 70.484375 C 187.167969 72.382812 187.242188 72.820312 188.078125 72.820312 C 188.234375 72.820312 188.390625 72.78125 188.53125 72.707031 C 188.667969 72.632812 188.789062 72.523438 188.875 72.390625 C 188.960938 72.257812 189.011719 72.109375 189.027344 71.949219 C 189.039062 71.792969 189.015625 71.636719 188.949219 71.492188 C 188.894531 71.1875 188.722656 70.296875 188.683594 70.125 Z M 194.488281 82.679688 C 195.722656 83.039062 196.898438 82.453125 196.859375 82.148438 C 196.820312 81.847656 196.859375 81.996094 195.191406 81.371094 C 194.070312 80.953125 192.839844 79.476562 192.402344 79.703125 C 191.964844 79.929688 192.628906 81.144531 192.78125 81.371094 C 193.1875 81.988281 193.789062 82.449219 194.488281 82.679688 Z M 229.175781 64.664062 C 226.691406 75.074219 224.871094 83.914062 224.566406 85.675781 C 224.367188 86.445312 224.328125 87.246094 224.453125 88.027344 C 225.457031 90.171875 238.449219 94.402344 240.097656 93.566406 C 241.75 92.730469 246.035156 83.078125 251.023438 73.121094 C 254.078125 73.21875 257.136719 72.996094 260.144531 72.457031 C 263.3125 71.878906 266.398438 70.902344 269.324219 69.558594 C 275.734375 66.597656 282.75 53.929688 283.699219 47.558594 C 284.410156 40.640625 282.945312 33.671875 279.507812 27.625 C 263.597656 0.03125 216.925781 14.878906 220.71875 45.527344 C 221.800781 52.539062 224.71875 59.140625 229.175781 64.664062 Z M 240.746094 87.25 C 240.746094 87.554688 240.402344 87.515625 238.847656 87.25 C 235.667969 86.851562 232.585938 85.867188 229.761719 84.347656 C 228.4375 83.628906 228.074219 83.476562 228.207031 83.15625 C 228.339844 82.832031 228.625 82.945312 230.671875 83.515625 C 230.863281 83.515625 236.742188 85.410156 238.429688 86 C 240.613281 86.984375 240.746094 86.984375 240.746094 87.25 Z M 240.402344 56.394531 C 242.429688 56.5 244.445312 56.082031 246.261719 55.179688 C 247.953125 56 249.777344 56.496094 251.648438 56.640625 C 248.464844 62.578125 241.996094 74.675781 239.910156 81.125 L 231.867188 78.90625 C 233.765625 74.242188 237.957031 63.316406 240.363281 56.394531 Z M 239.738281 54.820312 C 238.324219 54.605469 237.015625 53.933594 236.019531 52.90625 C 235.023438 51.878906 234.390625 50.554688 234.21875 49.132812 C 233.6875 45.339844 236.117188 41.089844 239.777344 42.09375 C 242.070312 42.722656 242.355469 44.542969 241.957031 46.835938 C 241.617188 48.503906 240.382812 52.695312 239.699219 54.746094 Z M 244.898438 50.269531 C 245.101562 49.027344 245.566406 47.84375 246.261719 46.796875 C 246.59375 46.226562 247.082031 45.761719 247.664062 45.453125 C 248.246094 45.144531 248.90625 45.007812 249.5625 45.054688 C 250.964844 45.472656 251.574219 48.125 250.417969 49.796875 C 249.304688 51.269531 247.921875 52.519531 246.339844 53.472656 C 245.792969 53.15625 245.359375 52.675781 245.097656 52.105469 C 244.832031 51.53125 244.75 50.890625 244.859375 50.269531 Z M 227.46875 26.164062 C 235.964844 15.941406 251.953125 11.882812 263.503906 16.09375 C 269.777344 18.25 275.054688 22.609375 278.351562 28.363281 C 281.621094 34.117188 283.019531 40.746094 282.351562 47.328125 C 281.480469 53.226562 274.765625 65.480469 268.871094 68.191406 C 263.476562 70.652344 257.59375 71.84375 251.667969 71.679688 C 251.023438 71.679688 250.339844 71.679688 250.09375 72.136719 C 248.976562 74.410156 246.925781 78.8125 244.917969 82.945312 C 243.527344 82.277344 242.089844 81.71875 240.613281 81.277344 C 242.8125 74.980469 249.753906 62.617188 253.050781 56.621094 C 255.910156 56.867188 258.785156 56.371094 261.398438 55.179688 C 262.101562 54.808594 262.6875 54.246094 263.082031 53.554688 C 263.480469 52.859375 263.667969 52.070312 263.632812 51.273438 C 263.59375 50.476562 263.328125 49.707031 262.871094 49.054688 C 262.410156 48.40625 261.773438 47.898438 261.035156 47.59375 C 258.097656 46.152344 255.460938 49.605469 253.925781 52.507812 C 253.507812 53.265625 253.035156 54.15625 252.503906 55.164062 C 250.96875 55.0625 249.457031 54.75 248.007812 54.234375 C 249.449219 53.21875 250.730469 51.992188 251.800781 50.589844 C 252.402344 49.683594 252.707031 48.613281 252.671875 47.527344 C 252.636719 46.441406 252.265625 45.390625 251.609375 44.523438 C 251.097656 43.925781 250.378906 43.535156 249.597656 43.425781 C 248.816406 43.316406 248.019531 43.5 247.363281 43.933594 C 246.035156 44.75 244.96875 45.933594 244.296875 47.339844 C 243.625 48.746094 243.371094 50.316406 243.570312 51.863281 C 243.777344 52.734375 244.246094 53.523438 244.917969 54.121094 C 243.671875 54.632812 242.335938 54.890625 240.992188 54.878906 C 241.75 52.640625 242.980469 48.601562 243.304688 46.949219 C 243.507812 46.007812 243.550781 45.042969 243.4375 44.085938 C 243.289062 43.265625 242.910156 42.507812 242.339844 41.898438 C 241.773438 41.289062 241.039062 40.855469 240.230469 40.652344 C 235.625 39.34375 232.230469 44.445312 232.894531 49.207031 C 233.082031 50.914062 233.8125 52.511719 234.980469 53.769531 C 236.148438 55.027344 237.691406 55.875 239.378906 56.1875 C 236.953125 63.015625 233.15625 74.03125 231.261719 78.734375 L 227.089844 77.65625 C 229.761719 64.226562 230.085938 64.550781 229.707031 64.378906 C 225.398438 58.886719 222.640625 52.335938 221.722656 45.414062 C 221.277344 41.980469 221.554688 38.496094 222.546875 35.175781 C 223.535156 31.859375 225.214844 28.789062 227.46875 26.164062 Z M 253.792969 55.277344 C 255.121094 52.867188 257.773438 47.59375 260.355469 48.886719 C 260.871094 49.09375 261.320312 49.4375 261.652344 49.882812 C 261.988281 50.328125 262.195312 50.855469 262.25 51.40625 C 262.210938 54.746094 257.015625 55.332031 253.714844 55.277344 Z M 326.390625 63.640625 C 328.675781 62.296875 331.375 61.835938 333.976562 62.351562 C 336.832031 62.402344 339.5625 63.542969 341.605469 65.542969 C 343.644531 67.542969 344.847656 70.246094 344.957031 73.101562 C 343.238281 72.105469 341.230469 71.730469 339.265625 72.042969 C 334.507812 72.457031 328.285156 75.039062 329.121094 79.628906 C 329.804688 83.421875 334.808594 82.90625 338.605469 81.882812 C 342.398438 80.859375 345.410156 79 346.191406 75.339844 C 350.796875 78.699219 351.878906 84.578125 352.070312 90.324219 C 352.070312 90.402344 352.101562 90.480469 352.15625 90.539062 C 352.214844 90.59375 352.292969 90.625 352.371094 90.625 C 352.453125 90.625 352.53125 90.59375 352.585938 90.539062 C 352.644531 90.480469 352.675781 90.402344 352.675781 90.324219 C 352.808594 83.894531 351.652344 77.597656 346.398438 73.9375 C 346.453125 72.289062 346.171875 70.652344 345.574219 69.117188 C 344.976562 67.582031 344.070312 66.183594 342.917969 65.007812 C 341.761719 63.832031 340.382812 62.902344 338.859375 62.277344 C 337.332031 61.652344 335.699219 61.339844 334.050781 61.363281 C 331.417969 60.980469 328.734375 61.53125 326.464844 62.917969 C 325.765625 63.261719 326.085938 63.773438 326.390625 63.640625 Z M 343.6875 77.238281 C 341.542969 80.042969 335.472656 81.503906 332.667969 81.03125 C 331.625 80.859375 330.769531 80.421875 330.542969 79.34375 C 329.859375 75.550781 336.402344 73.484375 340.308594 73.351562 C 341.902344 73.226562 343.488281 73.632812 344.824219 74.507812 C 344.679688 75.5 344.289062 76.4375 343.6875 77.238281 Z M 317.703125 41.46875 C 319.734375 38.964844 318.367188 34.605469 312.699219 34.585938 C 310.496094 34.585938 309.433594 36.824219 309.585938 38.964844 C 309.929688 44.066406 315.675781 43.917969 317.703125 41.46875 Z M 310.914062 38.871094 C 310.914062 37.621094 311.503906 35.988281 312.8125 36.007812 C 315.863281 36.007812 317.269531 37.429688 317.269531 39.003906 C 317.191406 42.589844 310.667969 44.445312 310.914062 38.871094 Z M 310.136719 253.878906 C 293.46875 247.222656 285.730469 279.441406 272.113281 307.132812 C 272.027344 308.292969 272.066406 309.464844 272.226562 310.621094 C 272.226562 313.523438 272.546875 332.734375 274.238281 334.914062 C 274.691406 335.789062 276.605469 334.914062 277.5 334.363281 C 285.070312 329.679688 292.203125 324.320312 298.816406 318.359375 C 298.871094 318.292969 298.914062 318.21875 298.941406 318.136719 C 298.964844 318.054688 298.976562 317.96875 298.964844 317.882812 C 302.496094 312.859375 315.710938 286.6875 318.917969 273.5625 C 321.15625 264.269531 318.9375 257.347656 310.136719 253.878906 Z M 316.09375 277.964844 C 307.167969 276.820312 298.539062 274 290.660156 269.65625 C 295.097656 261.253906 300.578125 251.675781 309.625 255.28125 C 319.695312 259.28125 319.488281 267.570312 316.09375 277.90625 Z M 284.535156 327.273438 C 283.953125 326.785156 283.316406 326.363281 282.636719 326.019531 C 280.074219 324.71875 277.113281 324.433594 274.351562 325.222656 C 274.160156 322.96875 273.078125 308.289062 273.078125 308.15625 C 287.285156 313.351562 282.902344 311.09375 296.976562 318.09375 C 295.496094 319.496094 289.9375 323.382812 284.535156 327.234375 Z M 294.320312 272.386719 C 296.171875 273.398438 298.070312 274.316406 300.011719 275.136719 C 295.664062 281.964844 291.820312 289.101562 288.515625 296.492188 C 285.332031 303.148438 285.445312 303.109375 282.203125 310.375 C 280.304688 309.765625 278.410156 309.199219 276.511719 308.628906 C 278.558594 304.550781 293.125 274.738281 294.320312 272.347656 Z M 282.941406 310.5625 C 289.105469 299.507812 295.382812 285.757812 300.769531 275.382812 C 302.664062 276.179688 304.5625 276.824219 306.457031 277.394531 C 305.453125 279.289062 302.511719 284.335938 301.734375 285.796875 C 300.957031 287.253906 293.164062 302.617188 292.613281 303.792969 C 291.742188 305.691406 289.351562 310.980469 288.613281 312.667969 C 286.675781 311.816406 284.820312 311.171875 282.867188 310.527344 Z M 289.292969 312.914062 C 290.453125 310.808594 295.210938 301.972656 295.800781 300.835938 C 296.691406 299.070312 306.628906 278.757812 307.179688 277.582031 C 308.921875 278.078125 310.761719 278.492188 311.9375 278.722656 C 308.46875 288.203125 298.472656 306.46875 294.871094 315.476562 C 291.589844 313.941406 290.851562 313.558594 289.21875 312.878906 Z M 290.453125 270.207031 L 293.847656 272.101562 C 287.003906 283.753906 281.046875 295.898438 276.019531 308.441406 L 273.175781 307.566406 C 284.191406 284.089844 284.703125 281.015625 290.375 270.167969 Z M 298.265625 317.125 L 295.402344 315.761719 C 298.492188 309.691406 308.164062 294.121094 312.582031 278.855469 C 313.644531 279.042969 314.6875 279.214844 315.695312 279.347656 C 310.820312 292.351562 304.96875 304.96875 298.1875 317.085938 Z M 238.847656 329.433594 C 239.601562 328.808594 240.144531 327.960938 240.390625 327.011719 C 240.640625 326.0625 240.585938 325.058594 240.230469 324.144531 C 240.070312 322.820312 239.464844 321.59375 238.515625 320.664062 C 237.5625 319.730469 236.324219 319.152344 234.996094 319.019531 C 233.671875 318.886719 232.34375 319.210938 231.226562 319.933594 C 230.109375 320.660156 229.273438 321.742188 228.851562 323.003906 C 226.425781 321.429688 223.789062 319.761719 221.265625 318.167969 C 223.164062 315.644531 228.738281 316.765625 229.308594 318.832031 C 229.320312 318.914062 229.363281 318.984375 229.429688 319.035156 C 229.496094 319.082031 229.578125 319.101562 229.660156 319.089844 C 229.738281 319.078125 229.8125 319.03125 229.859375 318.964844 C 229.90625 318.898438 229.925781 318.816406 229.914062 318.738281 C 229.628906 315.4375 222.765625 313.503906 219.996094 317.390625 C 217.550781 315.894531 214.515625 314.074219 211.972656 312.6875 C 214.15625 310.792969 219.027344 311.851562 219.558594 313.824219 C 219.585938 313.894531 219.632812 313.949219 219.695312 313.984375 C 219.757812 314.019531 219.832031 314.03125 219.902344 314.019531 C 219.972656 314.003906 220.035156 313.964844 220.082031 313.910156 C 220.125 313.855469 220.148438 313.785156 220.148438 313.710938 C 219.902344 310.640625 213.546875 308.574219 210.664062 311.949219 C 209.457031 311.269531 208.1875 310.710938 206.871094 310.28125 C 206.632812 310.179688 206.367188 310.152344 206.113281 310.199219 C 205.855469 310.246094 205.621094 310.367188 205.429688 310.542969 C 200.632812 316.519531 184.457031 332.03125 176.984375 333.832031 C 176.796875 333.863281 176.617188 333.9375 176.472656 334.058594 C 176.320312 334.175781 176.207031 334.332031 176.136719 334.507812 C 176.070312 334.683594 176.046875 334.878906 176.078125 335.066406 C 176.105469 335.253906 176.183594 335.429688 176.300781 335.578125 C 177.941406 337.242188 179.820312 338.65625 181.875 339.769531 C 179.980469 341.667969 178.5 343.375 177.402344 344.605469 C 176.832031 345.210938 176.527344 356.820312 177.023438 359.378906 C 177.09375 359.628906 177.257812 359.847656 177.476562 359.988281 C 179.867188 361.617188 210.648438 374.929688 213.796875 373.148438 C 215.898438 371.953125 241.027344 345.800781 241.425781 345.003906 C 242.035156 343.753906 241.824219 335.40625 241.789062 332.070312 C 241.636719 331.066406 239.757812 329.984375 238.847656 329.433594 Z M 178.160156 354.488281 L 178.160156 350.257812 C 186.03125 354.050781 204.046875 361.789062 210.875 363.949219 C 212.617188 364.519531 212.769531 364.441406 213.679688 363.949219 C 218.898438 360.613281 237.3125 339.863281 240.6875 336.699219 L 240.6875 340.699219 C 230.445312 350.960938 213.054688 368.9375 212.734375 367.914062 C 210.855469 367.800781 179.789062 355.246094 178.160156 354.488281 Z M 238.375 323.042969 C 239.054688 324.191406 239.421875 325.5 239.4375 326.835938 C 239.429688 327.261719 239.324219 327.679688 239.128906 328.058594 C 238.9375 328.433594 238.65625 328.761719 238.316406 329.015625 C 236.722656 327.953125 233.707031 325.980469 230.144531 323.667969 C 232.097656 319.820312 236.4375 319.761719 238.296875 323.042969 Z M 177.6875 335.179688 C 185.765625 332.789062 201.105469 318 206.265625 311.585938 C 207.507812 311.933594 208.703125 312.421875 209.832031 313.046875 C 207.933594 316.574219 209.964844 320.445312 210.683594 319.894531 C 211.082031 319.589844 210.363281 319.476562 210.25 317.617188 C 210.199219 316.261719 210.507812 314.914062 211.140625 313.710938 C 213.757812 315.078125 216.828125 316.859375 219.425781 318.359375 C 217.835938 321.90625 219.75 325.414062 220.414062 324.902344 C 221.078125 324.390625 220.109375 324.503906 219.996094 322.644531 C 219.949219 321.425781 220.183594 320.210938 220.679688 319.097656 C 223.351562 320.671875 226.085938 322.304688 228.585938 323.839844 C 228.203125 324.785156 228.050781 325.808594 228.140625 326.824219 C 228.234375 327.839844 228.570312 328.820312 229.117188 329.679688 C 229.144531 329.710938 229.175781 329.738281 229.210938 329.761719 C 229.246094 329.78125 229.285156 329.792969 229.324219 329.800781 C 229.363281 329.804688 229.40625 329.800781 229.445312 329.792969 C 229.484375 329.78125 229.523438 329.761719 229.554688 329.738281 C 229.585938 329.710938 229.613281 329.679688 229.632812 329.644531 C 229.65625 329.609375 229.667969 329.570312 229.671875 329.53125 C 229.679688 329.492188 229.675781 329.449219 229.664062 329.410156 C 229.65625 329.371094 229.636719 329.332031 229.613281 329.300781 C 229.269531 328.546875 229.101562 327.726562 229.117188 326.902344 C 229.136719 326.074219 229.335938 325.261719 229.707031 324.523438 C 234.125 327.214844 237.691406 329.472656 238.789062 330.210938 C 238.582031 330.402344 218.800781 348 212.070312 353.234375 C 207.648438 352.078125 184.457031 340.566406 177.6875 335.179688 Z M 178.40625 345.742188 C 186.996094 349.535156 206.511719 358.335938 211.007812 359.191406 C 211.785156 359.339844 212.089844 359.398438 213.566406 358.222656 C 219.882812 353.160156 240.421875 331.671875 240.613281 331.898438 C 240.621094 331.957031 240.621094 332.011719 240.613281 332.070312 L 240.613281 335.863281 C 236.382812 339.257812 212.867188 363.949219 212.488281 362.773438 C 210.589844 362.773438 179.773438 350.199219 178.199219 349.5 C 178.160156 348.703125 178.332031 346.578125 178.40625 345.742188 Z M 212.941406 371.878906 C 211.046875 372.957031 182.160156 361.21875 178.292969 358.828125 C 178.148438 357.621094 178.078125 356.40625 178.082031 355.1875 C 186.390625 359.285156 210.550781 369.488281 212.769531 369.394531 C 216.015625 369.222656 238.941406 343.410156 240.574219 341.609375 C 240.59375 342.578125 240.496094 343.546875 240.289062 344.492188 C 239.964844 345.117188 214.191406 371.175781 212.941406 371.878906 Z M 55.816406 264.972656 C 55.949219 267 56.042969 268.765625 56.042969 270.414062 C 56.042969 270.667969 56.144531 270.90625 56.320312 271.085938 C 56.5 271.261719 56.742188 271.363281 56.992188 271.363281 C 57.242188 271.363281 57.484375 271.261719 57.664062 271.085938 C 57.839844 270.90625 57.941406 270.667969 57.941406 270.414062 C 57.941406 268.652344 57.847656 266.90625 57.714844 264.839844 C 57.695312 264.589844 57.578125 264.355469 57.386719 264.1875 C 57.199219 264.023438 56.949219 263.9375 56.699219 263.957031 C 56.445312 263.976562 56.210938 264.09375 56.046875 264.28125 C 55.882812 264.472656 55.800781 264.71875 55.816406 264.972656 Z M 344.785156 226.945312 C 344.660156 226.953125 344.542969 226.984375 344.429688 227.042969 C 344.320312 227.097656 344.21875 227.171875 344.136719 227.265625 C 344.058594 227.359375 343.996094 227.46875 343.957031 227.585938 C 343.917969 227.703125 343.902344 227.828125 343.914062 227.953125 C 344.027344 229.695312 344.140625 231.574219 344.140625 233.394531 C 344.140625 233.648438 344.242188 233.886719 344.417969 234.066406 C 344.597656 234.242188 344.839844 234.34375 345.089844 234.34375 C 345.339844 234.34375 345.582031 234.242188 345.761719 234.066406 C 345.9375 233.886719 346.039062 233.648438 346.039062 233.394531 C 346.039062 231.5 345.925781 229.601562 345.792969 227.820312 C 345.785156 227.695312 345.753906 227.574219 345.699219 227.464844 C 345.640625 227.351562 345.566406 227.253906 345.472656 227.171875 C 345.378906 227.089844 345.269531 227.027344 345.152344 226.988281 C 345.035156 226.949219 344.910156 226.9375 344.785156 226.945312 Z M 50.90625 260.25 C 51.15625 260.25 51.398438 260.148438 51.574219 259.972656 C 51.753906 259.792969 51.851562 259.550781 51.851562 259.300781 C 51.851562 259.050781 51.753906 258.808594 51.574219 258.632812 C 51.398438 258.453125 51.15625 258.351562 50.90625 258.351562 C 48.609375 258.351562 46.695312 258.523438 44.796875 258.484375 C 44.542969 258.484375 44.300781 258.585938 44.121094 258.761719 C 43.941406 258.941406 43.835938 259.179688 43.832031 259.433594 C 43.832031 259.683594 43.929688 259.925781 44.109375 260.105469 C 44.285156 260.28125 44.527344 260.382812 44.777344 260.382812 C 46.730469 260.421875 48.875 260.34375 50.90625 260.25 Z M 338.90625 221.332031 C 336.632812 221.332031 334.714844 221.464844 332.800781 221.484375 C 332.550781 221.484375 332.308594 221.585938 332.128906 221.761719 C 331.953125 221.941406 331.851562 222.183594 331.851562 222.433594 C 331.851562 222.683594 331.953125 222.925781 332.128906 223.105469 C 332.308594 223.28125 332.550781 223.382812 332.800781 223.382812 C 334.847656 223.382812 336.972656 223.382812 339.019531 223.230469 C 339.273438 223.214844 339.507812 223.101562 339.675781 222.914062 C 339.84375 222.722656 339.925781 222.476562 339.910156 222.226562 C 339.898438 221.972656 339.78125 221.738281 339.59375 221.570312 C 339.40625 221.402344 339.160156 221.316406 338.90625 221.332031 Z M 55.304688 248.53125 C 55.417969 250.273438 55.53125 252.152344 55.53125 253.972656 C 55.535156 254.222656 55.636719 254.460938 55.816406 254.636719 C 55.992188 254.8125 56.230469 254.914062 56.480469 254.921875 C 56.730469 254.921875 56.972656 254.820312 57.152344 254.644531 C 57.328125 254.464844 57.429688 254.222656 57.429688 253.972656 C 57.429688 252.074219 57.316406 250.179688 57.199219 248.398438 C 57.183594 248.144531 57.066406 247.910156 56.875 247.746094 C 56.6875 247.582031 56.4375 247.496094 56.1875 247.515625 C 55.933594 247.53125 55.699219 247.648438 55.535156 247.839844 C 55.371094 248.03125 55.285156 248.277344 55.304688 248.53125 Z M 345.527344 216.953125 C 345.527344 215.054688 345.410156 213.160156 345.277344 211.375 C 345.261719 211.125 345.144531 210.890625 344.953125 210.726562 C 344.765625 210.558594 344.515625 210.476562 344.265625 210.496094 C 344.011719 210.511719 343.777344 210.628906 343.613281 210.820312 C 343.449219 211.011719 343.363281 211.257812 343.382812 211.507812 C 343.496094 213.253906 343.609375 215.132812 343.609375 216.953125 C 343.609375 217.203125 343.710938 217.445312 343.886719 217.621094 C 344.066406 217.800781 344.308594 217.902344 344.558594 217.902344 C 344.8125 217.902344 345.054688 217.800781 345.234375 217.625 C 345.417969 217.445312 345.519531 217.207031 345.527344 216.953125 Z M 69.300781 260.003906 C 69.425781 260 69.546875 259.96875 69.660156 259.917969 C 69.773438 259.863281 69.875 259.789062 69.960938 259.699219 C 70.042969 259.605469 70.109375 259.5 70.152344 259.382812 C 70.195312 259.265625 70.214844 259.140625 70.210938 259.015625 C 70.191406 258.769531 70.078125 258.539062 69.898438 258.367188 C 69.714844 258.199219 69.472656 258.105469 69.226562 258.105469 C 66.929688 258.203125 65.015625 258.277344 63.097656 258.238281 C 62.847656 258.238281 62.605469 258.339844 62.429688 258.515625 C 62.25 258.695312 62.152344 258.9375 62.152344 259.1875 C 62.152344 259.4375 62.25 259.679688 62.429688 259.859375 C 62.605469 260.035156 62.847656 260.136719 63.097656 260.136719 C 65.128906 260.171875 67.253906 260.097656 69.300781 260.003906 Z M 357.304688 221.085938 C 355.40625 221.183594 353.300781 221.238281 351.195312 221.238281 C 351.070312 221.234375 350.945312 221.253906 350.828125 221.296875 C 350.710938 221.34375 350.605469 221.410156 350.515625 221.496094 C 350.425781 221.582031 350.351562 221.6875 350.304688 221.804688 C 350.253906 221.917969 350.230469 222.042969 350.230469 222.167969 C 350.230469 222.421875 350.328125 222.664062 350.507812 222.84375 C 350.683594 223.027344 350.925781 223.128906 351.175781 223.136719 C 353.339844 223.136719 355.085938 223.136719 357.378906 222.984375 C 357.503906 222.980469 357.625 222.949219 357.738281 222.898438 C 357.851562 222.84375 357.953125 222.769531 358.039062 222.679688 C 358.125 222.585938 358.1875 222.480469 358.230469 222.363281 C 358.273438 222.246094 358.292969 222.121094 358.289062 221.996094 C 358.265625 221.75 358.152344 221.519531 357.96875 221.351562 C 357.789062 221.1875 357.550781 221.089844 357.304688 221.085938 Z M 25.71875 203.808594 C 25.964844 204 79.445312 196.070312 81.742188 194.667969 C 81.867188 194.574219 81.96875 194.453125 82.035156 194.308594 C 82.101562 194.167969 82.132812 194.007812 82.121094 193.851562 C 82.121094 191.40625 78.914062 168.441406 77.378906 162.710938 C 77.191406 162.011719 77 161.308594 76.5625 161.0625 C 73.664062 159.316406 22.53125 168.953125 19.480469 170.925781 C 19.398438 170.972656 19.324219 171.039062 19.269531 171.117188 C 19.214844 171.195312 19.175781 171.285156 19.15625 171.378906 C 18.511719 173.675781 24.070312 202.671875 25.71875 203.808594 Z M 20.3125 171.835938 C 23.957031 170.183594 70.363281 161.6875 75.671875 162.351562 C 76.960938 165.671875 80.414062 189.984375 80.640625 193.550781 C 78.003906 194.328125 26.441406 203.183594 26.25 203.222656 C 26.058594 203.261719 26.042969 203.488281 25.644531 202.292969 C 23.972656 197.285156 20.21875 176.121094 20.3125 171.835938 Z M 20.3125 171.835938 " fill-opacity="1" fill-rule="nonzero"/><g clip-path="url(#533a6a892a)"><path fill="#000000" d="M 85.914062 196.355469 C 86.015625 196.164062 86.0625 195.949219 86.046875 195.730469 C 86.046875 192.714844 81.722656 159.242188 80.1875 156.566406 C 80.066406 156.371094 79.894531 156.207031 79.691406 156.101562 C 79.488281 155.988281 79.261719 155.9375 79.03125 155.941406 C 72.675781 155.164062 19.082031 165.632812 15.554688 168.078125 C 15.0625 168.421875 15.136719 169.273438 15.195312 170.183594 C 15.496094 175.171875 20.882812 207.980469 22.78125 207.792969 C 22.988281 207.792969 22.914062 207.640625 22.417969 208.644531 C 19.460938 214.734375 13.847656 234.230469 13.960938 238.15625 C 13.960938 239.804688 14.339844 241.949219 15.972656 241.835938 C 27.671875 240.394531 85.042969 231.289062 101.542969 227.894531 C 102.1875 227.761719 102.601562 227.175781 102.585938 226.207031 C 102.390625 224.597656 101.902344 223.035156 101.144531 221.597656 C 98.828125 217.257812 89.234375 200.054688 85.914062 196.355469 Z M 22.894531 207.203125 C 21.414062 205.308594 15.972656 172.632812 16.386719 169.007812 C 20.5625 166.847656 73.433594 156.625 78.972656 157.460938 C 80.488281 161.632812 84.414062 191.765625 84.664062 195.390625 C 77.949219 197.703125 31.464844 205.214844 22.894531 207.203125 Z M 23.726562 207.773438 C 25.320312 207.375 79.578125 198.292969 84.546875 196.984375 C 87.261719 199.503906 99.511719 221.296875 100.308594 223.152344 C 89.421875 225.050781 24.847656 235.839844 15.34375 237.28125 C 15.476562 231.535156 21.375 211.453125 23.726562 207.773438 Z M 23.726562 207.773438 " fill-opacity="1" fill-rule="nonzero"/></g><path fill="#000000" d="M 30.859375 227.441406 C 32.507812 227.195312 67.519531 222.984375 80.167969 219.550781 C 80.246094 219.53125 80.3125 219.480469 80.351562 219.410156 C 80.394531 219.339844 80.40625 219.257812 80.386719 219.179688 C 80.367188 219.101562 80.316406 219.035156 80.246094 218.996094 C 80.175781 218.953125 80.09375 218.941406 80.015625 218.960938 C 77.53125 219.476562 47.226562 223.515625 30.820312 226.851562 C 30.777344 226.84375 30.730469 226.847656 30.683594 226.859375 C 30.640625 226.871094 30.597656 226.894531 30.566406 226.925781 C 30.53125 226.957031 30.503906 226.992188 30.484375 227.035156 C 30.46875 227.078125 30.460938 227.125 30.464844 227.171875 C 30.46875 227.214844 30.480469 227.261719 30.503906 227.300781 C 30.527344 227.339844 30.558594 227.375 30.597656 227.402344 C 30.632812 227.429688 30.675781 227.445312 30.722656 227.453125 C 30.769531 227.457031 30.816406 227.453125 30.859375 227.441406 Z M 56.441406 95.480469 C 55.734375 97.082031 55.136719 98.730469 54.660156 100.414062 C 54.632812 100.683594 54.707031 100.953125 54.867188 101.171875 C 56.785156 104.054688 76.414062 126.1875 81.53125 129.296875 C 82.234375 129.734375 83.070312 130.035156 83.582031 129.410156 C 87.300781 124.78125 92.15625 121.195312 97.671875 119 C 102.164062 117.410156 106.871094 116.519531 111.628906 116.363281 C 115.421875 116.019531 116.085938 115.640625 117.546875 113.15625 C 119.269531 109.886719 121.554688 106.949219 124.300781 104.472656 C 127.796875 101.414062 131.679688 98.824219 135.847656 96.773438 C 136.035156 96.664062 136.183594 96.5 136.265625 96.300781 C 136.347656 96.101562 136.363281 95.878906 136.304688 95.671875 C 135.664062 94.039062 134.816406 92.496094 133.78125 91.082031 C 134.464844 90.855469 135.222656 90.644531 135.222656 89.964844 C 135.222656 88.066406 118.683594 64.132812 114.097656 59.617188 C 113.621094 59.144531 112.9375 58.519531 112.3125 58.558594 C 102.832031 59.089844 93.59375 68.039062 88.246094 75.851562 C 82.121094 75.625 78.15625 75.074219 71.179688 78.015625 C 66.25 80.105469 61.808594 83.191406 58.128906 87.082031 C 57.5625 87.667969 53.691406 91.765625 53.636719 92.085938 C 53.578125 92.410156 53.691406 92.410156 56.441406 95.480469 Z M 132.300781 94.949219 C 124.394531 96.296875 119.347656 102.878906 115.632812 110.027344 C 113.980469 113.214844 114.132812 113.367188 112.390625 113.328125 C 109.335938 113.15625 106.277344 113.269531 103.246094 113.667969 C 101.027344 114 98.839844 114.546875 96.722656 115.300781 C 91.90625 117.007812 86.386719 122.46875 83.449219 126.527344 C 83.386719 126.609375 83.308594 126.679688 83.214844 126.730469 C 83.125 126.78125 83.023438 126.8125 82.917969 126.820312 C 82.816406 126.828125 82.710938 126.816406 82.613281 126.78125 C 82.515625 126.75 82.425781 126.695312 82.347656 126.621094 C 76.183594 120.269531 65.28125 109.117188 59.800781 102.707031 C 59.535156 102.421875 59.988281 102.003906 60.253906 102.308594 C 63.800781 106.101562 72.960938 115.1875 82.785156 125.066406 C 86.105469 120.839844 91.222656 115.71875 96.289062 113.933594 C 99.050781 112.949219 101.921875 112.3125 104.839844 112.039062 C 107.574219 111.832031 110.320312 111.832031 113.054688 112.039062 C 114.171875 110.75 119.710938 96.109375 132.265625 94.476562 C 132.300781 94.503906 132.332031 94.539062 132.351562 94.578125 C 132.375 94.621094 132.386719 94.664062 132.386719 94.710938 C 132.390625 94.753906 132.382812 94.800781 132.363281 94.84375 C 132.34375 94.882812 132.316406 94.921875 132.285156 94.949219 Z M 112.292969 60.09375 C 116.085938 62.75 131.523438 85.601562 133.535156 89.601562 C 130.046875 90.707031 126.679688 92.164062 123.484375 93.945312 C 120.457031 95.460938 117.808594 97.636719 115.726562 100.304688 C 113.648438 102.976562 112.191406 106.078125 111.460938 109.382812 C 104.652344 98.308594 95.148438 86.113281 88.835938 77.144531 C 89.214844 76.894531 99.871094 60.832031 112.292969 60.09375 Z M 71.59375 79.058594 C 78.519531 76.269531 82.347656 76.914062 88.074219 77.160156 C 93.765625 86.871094 103.988281 100.566406 110.71875 109.535156 C 104.507812 108.0625 97.96875 108.964844 92.382812 112.058594 C 89.023438 113.953125 84.929688 118.503906 82.40625 121.332031 C 78.765625 118.410156 57.75 96.03125 54.375 92.238281 C 59.570312 86.359375 64.371094 81.941406 71.59375 78.980469 Z M 36.890625 127.285156 C 36.421875 126.957031 35.867188 126.769531 35.292969 126.75 C 34.722656 126.730469 34.15625 126.878906 33.664062 127.171875 C 33.308594 127.332031 32.984375 127.558594 32.714844 127.84375 C 32.445312 128.128906 32.238281 128.460938 32.097656 128.828125 C 31.957031 129.191406 31.890625 129.582031 31.902344 129.972656 C 31.910156 130.363281 32 130.75 32.15625 131.109375 C 32.316406 131.464844 32.546875 131.789062 32.828125 132.058594 C 33.113281 132.324219 33.449219 132.535156 33.8125 132.675781 C 34.179688 132.816406 34.566406 132.882812 34.960938 132.871094 C 35.351562 132.863281 35.734375 132.773438 36.09375 132.617188 C 36.664062 132.488281 37.183594 132.195312 37.582031 131.769531 C 37.980469 131.34375 38.242188 130.804688 38.328125 130.226562 C 38.414062 129.648438 38.324219 129.054688 38.066406 128.53125 C 37.808594 128.007812 37.398438 127.574219 36.890625 127.285156 Z M 35.636719 131.078125 C 34.308594 131.496094 33.515625 131.078125 33.191406 130.433594 C 32.585938 129.085938 33.34375 127.019531 35.316406 127.628906 C 36.699219 128.140625 37.820312 130.472656 35.636719 131.175781 Z M 133.328125 40.503906 C 133.875 41.621094 136.4375 41.203125 137.554688 40.84375 C 138.144531 40.652344 138.523438 40.445312 138.578125 39.875 C 138.75 38.453125 138.941406 26.125 138.296875 24.933594 C 138.230469 24.808594 138.125 24.703125 138 24.636719 C 137.878906 24.570312 137.734375 24.539062 137.59375 24.554688 C 135.570312 24.546875 133.558594 24.839844 131.621094 25.425781 C 130.84375 25.898438 132.644531 39.25 133.328125 40.503906 Z M 132.019531 25.878906 C 133.769531 25.628906 135.542969 25.546875 137.308594 25.632812 C 137.421875 27.039062 137.121094 39.195312 137.101562 39.382812 C 136.300781 39.671875 135.445312 39.773438 134.597656 39.6875 C 134.464844 39.25 134.238281 38.074219 133.953125 36.59375 C 133.117188 33.0625 132.472656 29.484375 132.019531 25.878906 Z M 35.050781 111.28125 C 35.230469 111.371094 35.433594 111.421875 35.636719 111.421875 C 35.84375 111.421875 36.042969 111.371094 36.226562 111.28125 C 36.957031 110.828125 37.539062 110.167969 37.894531 109.382812 C 37.941406 109.257812 37.957031 109.121094 37.9375 108.988281 C 37.917969 108.855469 37.863281 108.730469 37.78125 108.625 C 36.871094 107.542969 26.933594 96.03125 25.71875 96.753906 C 24.230469 97.71875 22.816406 98.796875 21.488281 99.976562 C 21.4375 100.023438 21.394531 100.082031 21.363281 100.148438 C 21.335938 100.214844 21.320312 100.285156 21.320312 100.355469 C 21.28125 101.34375 32.320312 110.179688 35.050781 111.28125 Z M 25.945312 97.246094 C 27.332031 98.25 31.996094 104.015625 36.320312 109.117188 C 36.132812 109.410156 35.902344 109.671875 35.636719 109.894531 C 31.089844 106.984375 26.75 103.765625 22.648438 100.261719 C 23.675781 99.179688 24.777344 98.171875 25.945312 97.246094 Z M 55.742188 55.410156 C 56.15625 48.050781 60.445312 44.636719 64.917969 43.765625 C 63.648438 48.429688 63.859375 54.5 68.464844 55.277344 C 70.667969 55.636719 71.746094 54.5 73.339844 53.171875 C 80.148438 47.480469 74.648438 41.792969 66.96875 42.191406 C 69.832031 34.339844 76.449219 27.949219 85.230469 27.738281 C 85.3125 27.738281 85.390625 27.707031 85.445312 27.648438 C 85.503906 27.59375 85.535156 27.515625 85.535156 27.433594 C 85.535156 27.355469 85.503906 27.277344 85.445312 27.222656 C 85.390625 27.164062 85.3125 27.132812 85.230469 27.132812 C 75.75 26.941406 68.296875 33.769531 65.355469 42.304688 C 60.292969 43.175781 55.265625 46.96875 55.132812 55.296875 C 55.125 55.335938 55.125 55.375 55.136719 55.414062 C 55.144531 55.457031 55.160156 55.492188 55.183594 55.527344 C 55.207031 55.558594 55.234375 55.589844 55.269531 55.609375 C 55.300781 55.632812 55.339844 55.648438 55.378906 55.65625 C 55.421875 55.664062 55.460938 55.664062 55.5 55.652344 C 55.539062 55.644531 55.578125 55.628906 55.613281 55.605469 C 55.644531 55.582031 55.671875 55.554688 55.695312 55.519531 C 55.71875 55.488281 55.734375 55.449219 55.742188 55.410156 Z M 66.53125 43.535156 C 69.359375 43.347656 73.566406 44.21875 74.726562 46.78125 C 75.386719 48.238281 74.726562 50.042969 72.371094 52.015625 C 71.734375 52.652344 71.007812 53.195312 70.210938 53.625 C 67.367188 54.839844 64.21875 51.332031 66.53125 43.535156 Z M 71.957031 311.757812 C 70.125 311.265625 68.210938 311.148438 66.332031 311.40625 C 64.453125 311.667969 62.644531 312.300781 61.015625 313.265625 C 59.382812 314.234375 57.960938 315.519531 56.835938 317.046875 C 55.707031 318.570312 54.898438 320.308594 54.449219 322.152344 C 53.609375 325.980469 54.320312 329.988281 56.433594 333.292969 C 58.546875 336.597656 61.886719 338.929688 65.714844 339.769531 C 69.546875 340.613281 73.554688 339.898438 76.859375 337.785156 C 80.164062 335.671875 82.492188 332.335938 83.335938 328.503906 C 83.695312 326.65625 83.683594 324.757812 83.308594 322.914062 C 82.929688 321.070312 82.191406 319.320312 81.132812 317.761719 C 80.074219 316.207031 78.71875 314.875 77.144531 313.84375 C 75.570312 312.8125 73.804688 312.105469 71.957031 311.757812 Z M 77.816406 327.214844 C 77.054688 330.25 75.234375 332.914062 72.679688 334.722656 C 70.128906 336.53125 67.011719 337.363281 63.894531 337.078125 C 61.035156 335.960938 58.660156 333.867188 57.191406 331.175781 C 55.71875 328.476562 55.246094 325.351562 55.855469 322.339844 C 56.5625 319.234375 58.367188 316.484375 60.9375 314.597656 C 63.507812 312.707031 66.671875 311.808594 69.851562 312.0625 C 72.738281 313.253906 75.113281 315.429688 76.554688 318.199219 C 78 320.972656 78.417969 324.164062 77.738281 327.214844 Z M 77.816406 327.214844 " fill-opacity="1" fill-rule="nonzero"/><g clip-path="url(#77881cb2c8)"><path fill="#000000" d="M 97.21875 317.164062 C 95.566406 316.59375 93.796875 316.457031 92.078125 316.765625 C 91.363281 315.132812 90.488281 313.574219 89.460938 312.117188 C 90.691406 311 94.070312 307.890625 93.253906 306.429688 C 90.351562 302.957031 86.90625 299.980469 83.050781 297.609375 C 81.441406 296.707031 79.667969 296.136719 77.835938 295.921875 C 76.621094 296.09375 73.738281 300.816406 73.09375 301.878906 C 72.675781 301.878906 71.195312 301.402344 71.082031 301.347656 C 71.082031 299.980469 70.683594 295.050781 69.453125 294.480469 C 68.074219 293.972656 66.640625 293.625 65.183594 293.4375 C 63.839844 293.230469 51.71875 295.449219 50.828125 297.078125 C 50.242188 298.179688 51.605469 302.332031 52.003906 303.488281 C 50.980469 304.054688 50 304.6875 49.066406 305.386719 C 47.167969 306.734375 47.679688 306.675781 47.339844 306.523438 C 46.925781 306.328125 46.484375 306.199219 46.03125 306.144531 C 44.515625 305.257812 42.738281 304.921875 41.003906 305.195312 C 39.261719 305.765625 35.144531 315.132812 34.480469 317.542969 C 34.261719 318.148438 34.203125 318.804688 34.308594 319.4375 C 34.765625 320.691406 37.800781 321.695312 39.070312 322.09375 C 38.71875 324.535156 38.71875 327.011719 39.070312 329.453125 C 37.402344 329.90625 33.929688 330.933594 34.121094 332.640625 C 34.308594 334.347656 38.746094 345.609375 40.585938 346.503906 C 41.59375 347.066406 42.710938 347.414062 43.859375 347.519531 C 45.007812 347.628906 46.167969 347.496094 47.261719 347.128906 C 47.878906 346.820312 48.476562 346.472656 49.046875 346.085938 C 49.804688 346.652344 50.601562 347.167969 51.417969 347.660156 C 50.828125 349.121094 49.519531 352.382812 49.9375 353.859375 C 50.144531 354.636719 50.773438 354.886719 51.644531 355.207031 C 54.054688 356.078125 67.023438 359.191406 68.996094 358.847656 C 69.738281 358.734375 70.136719 357.957031 70.363281 357.21875 C 70.785156 355.535156 71.03125 353.8125 71.101562 352.078125 C 72.078125 351.980469 73.042969 351.835938 74.003906 351.640625 C 74.589844 352.671875 75.339844 353.601562 76.222656 354.390625 C 77.191406 355.074219 78.003906 354.734375 79.105469 354.03125 C 79.636719 354.714844 80.433594 355.664062 81.285156 355.757812 C 83.429688 356.003906 92.285156 347.660156 93.195312 345.953125 C 93.957031 344.53125 91.1875 341.988281 89.953125 340.871094 C 91.285156 338.863281 92.332031 336.679688 93.0625 334.382812 C 94.429688 334.589844 95.816406 334.667969 97.199219 334.613281 C 97.824219 334.613281 98.542969 334.382812 98.808594 333.796875 C 99.96875 331.160156 99.625 321.164062 98.808594 318.625 C 98.695312 317.882812 97.84375 317.390625 97.21875 317.164062 Z M 97.671875 318.910156 C 98.316406 321.375 98.527344 330.6875 97.578125 333.09375 C 95.9375 333.253906 94.28125 333.179688 92.664062 332.867188 C 92.492188 332.835938 92.316406 332.875 92.167969 332.96875 C 92.019531 333.0625 91.914062 333.207031 91.867188 333.378906 C 91.113281 335.941406 89.941406 338.363281 88.398438 340.546875 C 88.289062 340.691406 88.238281 340.875 88.261719 341.054688 C 88.28125 341.234375 88.371094 341.398438 88.511719 341.515625 C 89.84375 342.570312 90.972656 343.855469 91.851562 345.308594 C 90.902344 346.863281 83.488281 353.652344 81.4375 354.222656 C 81.136719 354.222656 80.300781 353.082031 80.089844 352.78125 C 79.390625 351.726562 78.757812 350.632812 78.195312 349.5 C 78.113281 349.332031 77.972656 349.203125 77.800781 349.136719 C 77.628906 349.070312 77.4375 349.070312 77.265625 349.136719 C 71.765625 351.207031 69.679688 349.992188 69.679688 351.359375 C 69.683594 353.402344 69.347656 355.433594 68.695312 357.371094 C 64.238281 356.886719 59.847656 355.90625 55.609375 354.449219 C 55.8125 352.425781 56.378906 350.453125 57.277344 348.625 C 57.847656 347.355469 55.570312 347.714844 51.320312 343.390625 C 51.183594 343.265625 51.003906 343.195312 50.820312 343.195312 C 50.632812 343.195312 50.453125 343.265625 50.316406 343.390625 C 48.421875 344.949219 45.953125 346.464844 45.460938 346.21875 C 44.496094 345.742188 40.039062 335.636719 39.773438 333.585938 C 41.121094 332.648438 42.652344 332 44.265625 331.691406 C 44.4375 331.640625 44.585938 331.53125 44.683594 331.382812 C 44.78125 331.234375 44.824219 331.050781 44.796875 330.875 C 44.332031 328.191406 44.332031 325.445312 44.796875 322.757812 C 44.828125 322.59375 44.792969 322.421875 44.699219 322.28125 C 44.609375 322.140625 44.46875 322.039062 44.304688 322 C 42.875 321.625 41.5 321.070312 40.207031 320.351562 C 39.792969 320.046875 39.828125 320.066406 39.867188 319.742188 C 41.09375 315.316406 43.0625 311.128906 45.6875 307.359375 C 46.714844 307.074219 49.480469 309.101562 50.429688 309.824219 C 50.53125 309.921875 50.664062 309.972656 50.800781 309.972656 C 50.9375 309.972656 51.070312 309.921875 51.171875 309.824219 C 52.042969 308.921875 52.980469 308.082031 53.976562 307.320312 C 56.859375 305.140625 57.636719 305.425781 57.390625 304.664062 C 56.519531 302.761719 56.027344 300.707031 55.949219 298.617188 C 56.242188 298.371094 56.578125 298.179688 56.933594 298.046875 C 58.707031 297.347656 60.523438 296.777344 62.378906 296.339844 C 64.625 295.714844 66.933594 295.339844 69.261719 295.222656 C 69.660156 295.390625 70.019531 297.117188 70.117188 297.648438 C 70.816406 301.441406 70.34375 302.21875 70.894531 302.277344 C 76.296875 302.808594 77.398438 304.304688 77.777344 303.640625 C 78.828125 301.804688 80.054688 300.070312 81.4375 298.464844 C 81.835938 298.066406 81.816406 297.875 83.011719 298.558594 C 86.582031 300.890625 89.777344 303.75 92.496094 307.035156 C 92.777344 307.53125 90.3125 310.148438 88.511719 311.683594 C 87.886719 312.234375 88.777344 312.480469 90.410156 315.589844 C 92.039062 318.699219 91.660156 319.570312 92.53125 319.382812 C 94.214844 318.980469 95.945312 318.820312 97.671875 318.910156 Z M 360.886719 160.4375 C 356.910156 158.8125 352.742188 157.710938 348.484375 157.15625 C 345.375 156.664062 341.714844 156.167969 338.621094 155.773438 C 341.601562 151.5625 350.417969 140.902344 351.898438 138.304688 C 352.316406 137.601562 351.519531 136.617188 350.929688 136.027344 C 347.628906 132.5 341.257812 131.175781 336.367188 130.414062 C 333.558594 129.960938 321.839844 128.519531 319.847656 129.46875 C 317.457031 130.605469 299.78125 157.15625 299.25 161.195312 C 299.25 161.878906 299.480469 162.144531 300.140625 162.390625 C 302.929688 163.414062 315.503906 165.007812 318.3125 165.671875 C 314.519531 172.308594 297.65625 194.746094 296.007812 197.910156 C 295.609375 198.707031 295.855469 199.183594 296.332031 199.335938 C 298.039062 200.011719 299.792969 200.554688 301.582031 200.964844 C 302.265625 201.171875 303.765625 200.246094 305.945312 198.917969 C 315.730469 193.039062 357.71875 165.3125 360.945312 161.726562 C 361.035156 161.640625 361.101562 161.539062 361.148438 161.425781 C 361.195312 161.3125 361.214844 161.191406 361.210938 161.070312 C 361.203125 160.945312 361.171875 160.828125 361.117188 160.71875 C 361.0625 160.609375 360.984375 160.511719 360.886719 160.4375 Z M 320.132812 183.195312 C 304.011719 193.835938 298.570312 196.945312 298.378906 197.078125 C 300.976562 193.113281 317.117188 171 319.886719 165.710938 C 319.933594 165.605469 319.957031 165.496094 319.957031 165.382812 C 319.957031 165.269531 319.929688 165.160156 319.882812 165.054688 C 319.832031 164.953125 319.761719 164.863281 319.671875 164.792969 C 319.585938 164.722656 319.484375 164.671875 319.371094 164.648438 C 317.476562 163.964844 303.671875 162.484375 300.40625 161.328125 C 300.824219 157.800781 318.046875 131.136719 320.132812 130.074219 C 322.21875 129.011719 342.453125 131.421875 346.246094 134.132812 C 344.253906 138.019531 333.253906 151.636719 331.472656 154.804688 C 331.113281 155.449219 331 156.074219 331.699219 156.246094 C 332.402344 156.417969 350.230469 158.503906 354.117188 159.773438 C 349.375 163.738281 325.441406 179.628906 320.132812 183.117188 Z M 198.472656 67.242188 C 198.472656 67.414062 198.585938 67.621094 198.871094 68.722656 C 198.945312 68.960938 199.109375 69.160156 199.328125 69.28125 C 199.546875 69.402344 199.804688 69.433594 200.046875 69.367188 C 200.289062 69.296875 200.488281 69.132812 200.613281 68.914062 C 200.730469 68.691406 200.761719 68.433594 200.691406 68.191406 C 200.5 67.453125 200.328125 66.824219 200.214844 66.523438 C 200.105469 66.3125 199.921875 66.15625 199.699219 66.074219 C 199.476562 65.996094 199.234375 66 199.015625 66.089844 C 198.796875 66.179688 198.621094 66.347656 198.523438 66.5625 C 198.421875 66.773438 198.402344 67.015625 198.472656 67.242188 Z M 198.472656 67.242188 " fill-opacity="1" fill-rule="nonzero"/></g></svg>