<svg xmlns="http://www.w3.org/2000/svg" xmlns:xlink="http://www.w3.org/1999/xlink" width="500" zoomAndPan="magnify" viewBox="0 0 375 374.999991" height="500" preserveAspectRatio="xMidYMid meet" version="1.0"><defs><clipPath id="d0dafe9bd2"><path d="M 13.828125 155 L 103 155 L 103 242 L 13.828125 242 Z M 13.828125 155 " clip-rule="nonzero"/></clipPath><clipPath id="3ef7c914f6"><path d="M 34 66 L 361.078125 66 L 361.078125 359 L 34 359 Z M 34 66 " clip-rule="nonzero"/></clipPath></defs><path fill="#ffffff" d="M 132.175781 288.203125 C 135.335938 287.085938 138.574219 286.195312 141.863281 285.550781 L 142.261719 287.007812 C 142.308594 287.179688 142.410156 287.332031 142.558594 287.433594 C 142.703125 287.535156 142.882812 287.578125 143.058594 287.558594 L 156.085938 286.042969 C 159.667969 277.867188 166.246094 265.484375 166.339844 265.292969 C 166.246094 262.203125 166.339844 259.605469 166.339844 256.644531 C 158.890625 259.414062 145.105469 264.667969 137.902344 268.023438 C 137.738281 268.128906 137.613281 268.285156 137.542969 268.464844 C 137.46875 268.644531 137.457031 268.84375 137.503906 269.03125 C 137.503906 269.03125 137.636719 269.503906 137.808594 270.1875 C 134.28125 270.1875 123.71875 269.675781 121.179688 272.082031 C 120.785156 272.632812 120.589844 273.304688 120.628906 273.980469 C 120.476562 276.597656 121.785156 296.929688 123.871094 302.902344 C 124.953125 306.03125 127.226562 305.691406 128.78125 302.691406 C 130.582031 298.179688 131.738281 293.4375 132.214844 288.601562 C 132.214844 288.355469 132.15625 288.375 132.175781 288.203125 Z M 129.996094 271.230469 C 132.308594 271.039062 133.027344 271.078125 137.996094 270.925781 C 138.886719 274.304688 140.726562 281.242188 141.675781 284.789062 C 138.328125 285.308594 135.027344 286.074219 131.796875 287.085938 C 130.789062 281.855469 130.1875 276.554688 129.996094 271.230469 Z M 129.996094 271.230469 " fill-opacity="1" fill-rule="nonzero"/><path fill="#ffffff" d="M 306.683594 105.25 C 307.15625 104.585938 306.550781 103.730469 306.039062 103.066406 C 307.488281 101.574219 309.097656 100.246094 310.835938 99.105469 C 313.765625 97.640625 316.449219 95.722656 318.777344 93.414062 C 319.746094 92.410156 321.566406 90.34375 320.882812 89.128906 C 320.199219 87.914062 318.988281 87.839844 317.335938 88.539062 C 318.050781 87.789062 318.636719 86.925781 319.0625 85.980469 C 319.59375 84.5 318.34375 83.304688 315.632812 84.40625 C 316.617188 82.832031 316.84375 81.183594 315.175781 80.386719 C 313.832031 79.742188 311.859375 81.277344 310.722656 82.28125 C 308.488281 84.234375 306.390625 86.339844 304.445312 88.578125 C 303.25 86.074219 301.355469 83.191406 298.984375 84.101562 C 296.613281 85.011719 298.453125 89.089844 299.667969 91.308594 L 295.363281 94.285156 C 294.714844 93.9375 293.976562 93.773438 293.238281 93.8125 C 288.347656 94.648438 265.878906 111.753906 263.605469 111.753906 C 261.859375 111.753906 236.949219 99.804688 215.410156 96.355469 C 215.367188 96.226562 215.289062 96.109375 215.1875 96.023438 C 215.082031 95.9375 214.957031 95.878906 214.820312 95.859375 C 211.066406 95.21875 207.253906 94.933594 203.445312 95.007812 C 203.332031 95.015625 203.21875 95.046875 203.117188 95.105469 C 203.015625 95.160156 202.925781 95.238281 202.859375 95.328125 L 201.265625 95.328125 C 200.886719 93.792969 199.484375 90.246094 198.988281 88.882812 C 200.28125 87.761719 202.0625 87.195312 202.992188 85.390625 C 204.695312 82.054688 204.621094 76.25 204.148438 72.535156 C 206.289062 70.902344 206.347656 68.285156 205.855469 65.613281 C 205.664062 64.53125 205.078125 62.085938 204.167969 61.476562 C 203.65625 61.136719 202.574219 61.476562 201.644531 61.820312 C 200.714844 59.65625 200.714844 60.644531 201.09375 59.769531 C 201.269531 59.367188 201.375 58.9375 201.398438 58.5 C 202.402344 58.804688 204.488281 56.792969 203.769531 54.136719 C 203.390625 53.1875 202.925781 52.273438 202.382812 51.40625 C 202.648438 50.761719 203.21875 49.984375 201.4375 47.613281 C 200.667969 46.785156 199.671875 46.203125 198.574219 45.945312 L 197.699219 45.945312 C 197.074219 45.03125 196.148438 44.363281 195.085938 44.046875 C 193.480469 43.640625 191.777344 43.878906 190.34375 44.710938 C 189.964844 44.996094 189.660156 45.375 189.28125 45.640625 C 188.425781 45.121094 187.441406 44.847656 186.4375 44.847656 C 185.4375 44.847656 184.453125 45.121094 183.59375 45.640625 C 183.09375 45.839844 182.636719 46.136719 182.25 46.511719 C 181.867188 46.890625 181.5625 47.34375 181.359375 47.839844 C 180.429688 47.519531 179.441406 47.398438 178.464844 47.480469 C 177.484375 47.5625 176.53125 47.847656 175.667969 48.316406 C 172.394531 50.09375 169.945312 53.082031 168.84375 56.640625 C 168.8125 57.179688 168.8125 57.714844 168.84375 58.253906 L 168.636719 58.253906 C 165.792969 57.835938 162.171875 64.585938 165.070312 69.839844 C 165.414062 70.46875 165.847656 71.054688 166.265625 71.738281 C 167.480469 73.632812 167.003906 74.203125 169.714844 76.515625 C 170.511719 77.199219 170.644531 77.144531 171.136719 77.558594 C 171.632812 77.976562 171.441406 77.769531 171.726562 78.832031 C 171.878906 79.457031 172.160156 80.042969 172.542969 80.5625 C 172.925781 81.078125 173.410156 81.515625 173.964844 81.847656 C 174.164062 83.699219 174.957031 85.441406 176.21875 86.816406 C 176.621094 87.261719 177.085938 87.648438 177.601562 87.953125 C 177.742188 88.03125 177.898438 88.078125 178.058594 88.085938 C 178.628906 91.613281 179.328125 96.203125 179.632812 98.15625 L 177.945312 99.066406 C 175.738281 99.953125 173.589844 100.988281 171.515625 102.15625 C 171.355469 102.269531 171.238281 102.4375 171.195312 102.632812 C 169.183594 103.695312 167.289062 104.699219 166.207031 105.34375 C 151.15625 114.277344 108.398438 173.164062 107.964844 175.855469 C 107.914062 176.011719 107.914062 176.175781 107.964844 176.328125 C 108.578125 177.308594 109.324219 178.195312 110.183594 178.964844 C 109.917969 179.449219 109.597656 179.898438 109.234375 180.3125 C 105.441406 182.796875 99.753906 186.496094 96.703125 189.792969 C 96.488281 189.984375 96.328125 190.230469 96.234375 190.5 C 96.144531 190.773438 96.125 191.066406 96.179688 191.34375 C 96.238281 191.625 96.363281 191.890625 96.550781 192.105469 C 96.738281 192.324219 96.980469 192.488281 97.25 192.582031 C 97.820312 192.773438 97.914062 192.714844 101.613281 190.6875 C 100.597656 191.578125 99.765625 192.660156 99.167969 193.871094 C 98.921875 194.914062 99.867188 195.523438 101.0625 195.332031 C 101.734375 195.15625 102.375 194.875 102.957031 194.5 C 102.617188 195.027344 102.433594 195.640625 102.433594 196.269531 C 102.433594 196.902344 102.617188 197.515625 102.957031 198.042969 C 104.855469 200.433594 109.820312 192.90625 112.4375 191.046875 C 113.5 192.394531 114.941406 195.542969 117.234375 194.707031 C 119.226562 193.96875 117.046875 189.585938 117.234375 188.316406 C 118.007812 187.574219 118.832031 186.890625 119.699219 186.265625 C 121.164062 187.351562 122.835938 188.121094 124.609375 188.523438 C 127.738281 188.523438 160.386719 155.5625 162.871094 152.925781 C 161.980469 161.308594 157.488281 197.285156 158.433594 204.285156 C 158.871094 207.449219 166.472656 207.90625 169.679688 208.078125 C 168.710938 230.835938 168.066406 265.3125 167.894531 265.671875 C 162.871094 276.503906 161.507812 279.460938 159.820312 282.742188 C 156.746094 288.621094 143.816406 310.316406 142.355469 315.25 C 142.148438 316.027344 142.128906 316.328125 142.945312 317.769531 C 140.5 320.339844 138.234375 323.070312 136.15625 325.945312 C 135.113281 327.839844 139.589844 345.515625 142.753906 351.773438 C 143.476562 353.179688 144.652344 355.339844 146.226562 355.285156 C 150.964844 355.113281 150.945312 338.082031 150.8125 333.320312 C 150.8125 333.175781 150.757812 333.035156 150.660156 332.921875 C 151.519531 331.640625 152.457031 330.410156 153.46875 329.246094 C 154.070312 329.660156 154.703125 330.027344 155.363281 330.34375 C 156.007812 330.628906 156.730469 330.136719 157.257812 329.699219 C 163.574219 324.730469 197.625 282.285156 204.925781 262.261719 C 208.242188 253.117188 212.660156 240.488281 213.910156 231.535156 C 214.675781 225.875 214.746094 220.144531 214.121094 214.46875 C 214.121094 214.386719 214.152344 214.3125 214.210938 214.253906 C 214.265625 214.195312 214.34375 214.164062 214.421875 214.164062 C 214.503906 214.164062 214.582031 214.195312 214.636719 214.253906 C 214.695312 214.3125 214.726562 214.386719 214.726562 214.46875 C 215.675781 220.175781 215.863281 225.988281 215.277344 231.746094 C 213.875 244.167969 204.070312 270.054688 198.839844 279.574219 C 203.351562 278.742188 212.527344 276.917969 216.964844 275.59375 C 231.753906 271.097656 245.402344 257.6875 246.597656 242.632812 C 246.984375 235.539062 246.984375 228.425781 246.597656 221.332031 C 246.46875 211.539062 245.199219 201.796875 242.804688 192.296875 C 246.824219 190.117188 250.503906 187.558594 251.699219 185.207031 C 254.257812 180.179688 247.488281 151.257812 246.011719 143.140625 C 254.105469 144.03125 267.890625 145.644531 274.316406 140.617188 C 281.675781 134.703125 297.5625 118.050781 306.683594 105.25 Z M 149.789062 332.277344 C 146.375 330.210938 141.597656 325.300781 140.878906 321.449219 C 141.65625 320.464844 142.472656 319.554688 143.230469 318.527344 C 145.796875 322.449219 149.003906 325.917969 152.710938 328.789062 C 151.667969 329.894531 150.691406 331.058594 149.789062 332.277344 Z M 300.519531 91.839844 C 300.617188 91.777344 300.6875 91.679688 300.714844 91.566406 C 300.746094 91.453125 300.730469 91.335938 300.671875 91.234375 C 300.007812 90 298.019531 85.65625 299.402344 85.164062 C 300.199219 84.863281 300.898438 85.355469 301.488281 86.019531 C 302.386719 87.15625 303.082031 88.441406 303.554688 89.8125 C 303.589844 89.921875 303.652344 90.023438 303.742188 90.101562 C 303.828125 90.179688 303.9375 90.230469 304.050781 90.25 C 304.164062 90.273438 304.285156 90.261719 304.394531 90.222656 C 304.503906 90.179688 304.597656 90.109375 304.671875 90.019531 C 306.570312 87.914062 311.003906 83.117188 313.507812 81.828125 C 315.402344 80.839844 315.859375 82.660156 311.214844 86.910156 C 310.144531 87.722656 309.121094 88.589844 308.140625 89.507812 C 308.089844 89.582031 308.058594 89.671875 308.058594 89.765625 C 308.058594 89.855469 308.089844 89.945312 308.140625 90.019531 C 308.140625 90.511719 308.539062 91.0625 309.222656 90.550781 C 310.871094 89.105469 312.613281 87.765625 314.4375 86.550781 C 315.367188 85.886719 316.449219 85.46875 317.585938 85.335938 C 317.015625 87.082031 311.726562 91.820312 311.269531 92.351562 C 311.125 92.480469 311.039062 92.664062 311.027344 92.855469 C 311.011719 93.050781 311.078125 93.242188 311.207031 93.386719 C 311.332031 93.535156 311.511719 93.625 311.703125 93.640625 C 311.898438 93.65625 312.089844 93.59375 312.238281 93.472656 C 314.34375 92.105469 318.019531 88.917969 319.289062 89.394531 C 320.5625 89.867188 316.789062 93.394531 315.839844 94.230469 C 310.398438 98.953125 311.800781 95.917969 305.507812 102.328125 C 302.765625 99.324219 299.621094 96.722656 296.160156 94.589844 Z M 218.140625 182.550781 C 217.816406 179.933594 217.417969 177.105469 216.925781 174.167969 L 217.742188 173.085938 C 221.535156 168.210938 222.671875 160.457031 222.3125 154.367188 C 224.339844 163.261719 225.949219 172.003906 227.183594 180.691406 Z M 189.945312 117.613281 C 184.960938 113.820312 176.941406 107.277344 172.277344 102.800781 L 179.859375 99.007812 C 186.824219 105.515625 192.785156 113.019531 197.550781 121.273438 C 204.832031 134.660156 210.238281 148.988281 213.609375 163.851562 L 186.570312 125.597656 L 190.097656 118.277344 C 190.144531 118.164062 190.15625 118.039062 190.128906 117.921875 C 190.101562 117.800781 190.039062 117.695312 189.945312 117.613281 Z M 202.761719 96.109375 C 202.878906 96.316406 204.183594 99.105469 206.175781 103.976562 C 206.175781 104.1875 205.816406 108.929688 205.644531 110.597656 C 203.226562 109.636719 200.941406 108.363281 198.859375 106.804688 C 199.273438 105.152344 201.152344 97.664062 201.285156 95.976562 Z M 196.03125 116.476562 C 196.164062 116.132812 196.296875 115.679688 196.449219 115.148438 L 197.71875 115.8125 C 198.441406 116.285156 198.15625 114.84375 198.800781 119.015625 C 198.800781 119.71875 198.988281 120.496094 199.027344 121.351562 C 198.15625 119.777344 197.074219 118.089844 196.050781 116.476562 Z M 194.972656 114.882812 C 191.386719 109.800781 187.3125 105.085938 182.796875 100.8125 L 197.074219 107.011719 C 196.527344 108.320312 195.730469 112.324219 194.988281 114.882812 Z M 209.550781 125.996094 C 207.65625 120.820312 206.195312 115.035156 205.472656 113.515625 C 205.515625 113.042969 205.515625 112.570312 205.472656 112.09375 C 205.75 112.199219 206.035156 112.261719 206.328125 112.285156 C 206.511719 112.285156 206.6875 112.222656 206.828125 112.105469 C 206.964844 111.984375 207.058594 111.820312 207.085938 111.640625 C 207.238281 111.015625 207.484375 107.847656 207.523438 107.144531 C 213.039062 121.074219 217.640625 135.347656 221.304688 149.875 C 210.59375 127.078125 212.242188 133.675781 209.570312 125.996094 Z M 225.230469 162.199219 C 220.90625 141.472656 213.304688 115.621094 204.660156 96.46875 C 207.835938 96.46875 211.003906 96.722656 214.140625 97.226562 C 215.75 111.640625 214.40625 111.148438 215.484375 111.714844 C 216.566406 112.285156 223.070312 114.902344 224.035156 115.300781 C 223.941406 116.761719 225.304688 158.523438 225.25 162.199219 Z M 203.40625 62.691406 C 204.394531 64.847656 204.746094 67.246094 204.414062 69.59375 C 204.257812 70.191406 203.941406 70.734375 203.496094 71.164062 C 203.050781 71.59375 202.496094 71.890625 201.894531 72.019531 C 201.289062 72.152344 200.660156 72.113281 200.078125 71.910156 C 199.496094 71.707031 198.980469 71.34375 198.59375 70.863281 C 197.6875 68.960938 197.007812 66.953125 196.5625 64.890625 C 197.074219 64.226562 202.535156 62.898438 203.40625 62.691406 Z M 177.320312 81.65625 C 176.625 81.339844 175.917969 81.0625 175.195312 80.820312 C 174.710938 80.621094 174.277344 80.316406 173.929688 79.921875 C 173.585938 79.53125 173.332031 79.0625 173.191406 78.558594 C 173.050781 78.054688 173.03125 77.523438 173.128906 77.007812 C 173.226562 76.492188 173.441406 76.007812 173.753906 75.585938 C 174.949219 74.582031 176.03125 74.640625 177.015625 76.136719 C 177.640625 77.292969 177.621094 77.390625 177.90625 77.503906 C 177.988281 77.539062 178.078125 77.558594 178.164062 77.554688 C 178.253906 77.554688 178.34375 77.535156 178.421875 77.496094 C 178.503906 77.460938 178.574219 77.40625 178.632812 77.335938 C 178.691406 77.269531 178.734375 77.191406 178.761719 77.105469 C 179.039062 75.917969 179.085938 74.6875 178.894531 73.480469 C 178.664062 72.171875 178.628906 66.371094 178.664062 66.179688 C 179.21875 66.472656 179.839844 66.609375 180.464844 66.578125 C 183.898438 66.445312 184.582031 64.683594 185.945312 63.242188 C 187.519531 63.394531 187.84375 64.152344 189.625 63.242188 C 190.457031 62.765625 191.222656 62.179688 191.898438 61.496094 C 192.445312 61.71875 192.96875 61.984375 193.472656 62.292969 C 194.609375 62.839844 195.890625 63.007812 197.128906 62.773438 C 198.367188 62.535156 199.5 61.910156 200.355469 60.984375 C 200.5625 61.382812 200.753906 61.78125 200.925781 62.199219 C 199.183594 62.738281 197.542969 63.566406 196.070312 64.644531 C 195.75 65.042969 196.222656 67.203125 196.335938 67.71875 C 194.746094 67.917969 193.210938 68.414062 191.804688 69.175781 C 191.519531 68.191406 190.894531 66.351562 189.910156 65.839844 C 189.613281 65.75 189.296875 65.75 189 65.839844 C 187.292969 66.105469 181.167969 67.945312 180.429688 68.949219 C 179.785156 69.652344 181.621094 75.074219 182.191406 75.96875 C 184.371094 79.34375 190.761719 78.355469 191.957031 74.410156 C 192.25 73.085938 192.25 71.714844 191.957031 70.390625 C 192.507812 70.390625 194.15625 69.804688 194.34375 69.746094 C 195.652344 72.6875 196.03125 72.855469 197.550781 76.023438 C 197.339844 76.195312 197 76.480469 196.714844 76.667969 C 195.367188 77.558594 195.085938 77.40625 195.160156 77.789062 C 195.183594 77.863281 195.230469 77.925781 195.296875 77.96875 C 195.363281 78.011719 195.441406 78.027344 195.519531 78.015625 C 196.316406 77.902344 197.09375 77.683594 197.832031 77.371094 C 198.277344 77.203125 198.640625 76.878906 198.859375 76.460938 C 199.386719 75.265625 196.449219 70.769531 195.292969 69.425781 C 195.519531 69.425781 196.050781 69.042969 196.449219 68.835938 C 196.980469 70.960938 197.339844 72.628906 199.386719 73.464844 C 199.980469 73.6875 200.609375 73.789062 201.242188 73.761719 C 201.875 73.738281 202.496094 73.582031 203.066406 73.3125 C 203.371094 76.648438 203.3125 82.074219 201.71875 85.03125 C 200.90625 86.566406 198.894531 87.15625 197.605469 88.425781 C 197.226562 88.789062 197.472656 89.300781 197.605469 89.847656 C 199.710938 95.710938 199.75 95.691406 199.636719 96.449219 C 199.078125 99.597656 198.296875 102.703125 197.304688 105.742188 C 196.828125 105.535156 191.5 102.707031 181.074219 98.648438 C 180.75 96.507812 179.027344 85.070312 178.476562 82.964844 C 178.511719 82.226562 178.417969 82.054688 177.320312 81.5625 Z M 190.589844 73.917969 C 189.984375 75.984375 187.121094 76.878906 185.074219 76.308594 C 183.027344 75.738281 182.894531 74.695312 181.925781 72.230469 C 181.472656 71.289062 181.160156 70.285156 180.996094 69.253906 C 181.621094 68.570312 188.46875 67.167969 189.320312 67.035156 C 190.515625 69.082031 190.964844 71.480469 190.589844 73.824219 Z M 116.402344 187.785156 C 115.679688 188.484375 116.648438 190.78125 116.800781 192.773438 C 116.800781 192.941406 116.800781 193.683594 116.683594 193.738281 C 115.644531 194.082031 114.675781 192.507812 114.089844 191.558594 C 113.5 190.609375 112.914062 189.320312 111.984375 189.660156 C 110.085938 190.554688 105.6875 196.394531 103.964844 197 C 103.089844 195.332031 108.078125 190.574219 108.25 190.308594 C 108.320312 190.183594 108.359375 190.046875 108.359375 189.902344 C 108.359375 189.761719 108.320312 189.621094 108.246094 189.5 C 108.171875 189.378906 108.0625 189.28125 107.9375 189.214844 C 107.8125 189.148438 107.667969 189.121094 107.527344 189.132812 C 107.1875 189.132812 106.957031 189.433594 106.429688 189.910156 C 104.8125 191.484375 102.964844 192.800781 100.949219 193.816406 C 102.777344 191.71875 104.734375 189.734375 106.808594 187.878906 C 106.910156 187.773438 106.980469 187.644531 107.015625 187.5 C 107.015625 187.5 106.617188 186.496094 105.839844 186.894531 C 104.742188 187.5 99.394531 190.589844 97.707031 191.386719 C 97.480469 191.234375 97.613281 191.007812 97.707031 190.78125 C 100.378906 187.5 106.257812 183.515625 109.859375 180.996094 C 110.28125 180.558594 110.632812 180.058594 110.902344 179.515625 C 113.398438 181.839844 116.058594 183.972656 118.867188 185.90625 C 118 186.472656 117.175781 187.101562 116.402344 187.785156 Z M 160.519531 205.023438 C 160.105469 204.757812 159.800781 204.511719 159.742188 204.171875 C 158.699219 196.433594 164.503906 152.585938 164.40625 150.859375 C 164.40625 150.757812 164.386719 150.65625 164.347656 150.566406 C 164.308594 150.472656 164.25 150.386719 164.179688 150.316406 C 164.105469 150.246094 164.019531 150.191406 163.925781 150.152344 C 163.832031 150.117188 163.730469 150.097656 163.628906 150.101562 C 162.664062 150.101562 164.371094 150.101562 140.214844 173.238281 C 138.621094 174.738281 126.449219 186.382812 124.421875 187.160156 C 121.632812 186.949219 111.148438 178.585938 109.441406 175.949219 C 112.742188 169.273438 152.746094 114.351562 166.585938 105.949219 C 167.648438 105.304688 169.46875 104.300781 171.460938 103.238281 C 172.148438 103.886719 172.890625 104.476562 173.679688 105.003906 C 178.078125 109.175781 184.203125 114.371094 188.847656 118.277344 L 185.226562 125.464844 C 185.171875 125.558594 185.140625 125.667969 185.140625 125.777344 C 185.140625 125.886719 185.171875 125.996094 185.226562 126.089844 C 214.632812 168.289062 214.195312 167.8125 214.386719 167.8125 C 216.269531 177.566406 217.441406 187.441406 217.894531 197.363281 C 217.894531 200.035156 217.894531 199.808594 218.007812 199.617188 C 218.121094 199.429688 218.007812 199.75 218.007812 199.75 C 213.417969 204.757812 168.011719 209.421875 160.519531 205.023438 Z M 265.332031 142.191406 C 256.742188 143.386719 247.035156 141.605469 245.15625 141.527344 C 244.113281 136.472656 242.035156 131.6875 239.050781 127.476562 C 239.007812 127.414062 238.941406 127.371094 238.863281 127.359375 C 238.789062 127.34375 238.710938 127.359375 238.648438 127.398438 C 238.582031 127.441406 238.535156 127.503906 238.515625 127.578125 C 238.496094 127.652344 238.503906 127.730469 238.539062 127.796875 C 239.640625 130.035156 243.320312 139.6875 244.226562 142.039062 C 243.945312 142.953125 252.796875 179.574219 250.296875 184.503906 C 248.058594 188.960938 235.03125 194.574219 230.332031 196.1875 C 229.402344 185.628906 227.882812 175.128906 225.78125 164.742188 C 226.425781 159.28125 225.589844 126.8125 225.34375 114.808594 C 225.335938 114.667969 225.289062 114.53125 225.210938 114.417969 C 225.128906 114.304688 225.019531 114.214844 224.890625 114.164062 L 216.375 110.578125 C 216.335938 106.070312 216.054688 101.570312 215.523438 97.09375 C 236.777344 100.773438 261.539062 112.929688 263.605469 112.949219 C 266.601562 112.949219 288.859375 95.878906 293.46875 95.199219 C 295.515625 94.875 304.3125 102.554688 305.335938 104.679688 C 296.347656 117.234375 280.554688 133.734375 273.238281 139.441406 C 270.878906 141.019531 268.15625 141.964844 265.332031 142.191406 Z M 265.332031 142.191406 " fill-opacity="1" fill-rule="nonzero"/><path fill="#ffffff" d="M 188.636719 70.125 C 188.613281 70 188.566406 69.882812 188.496094 69.777344 C 188.425781 69.671875 188.335938 69.578125 188.234375 69.507812 C 188.128906 69.4375 188.011719 69.386719 187.886719 69.359375 C 187.761719 69.335938 187.632812 69.332031 187.511719 69.359375 C 187.386719 69.382812 187.265625 69.429688 187.160156 69.5 C 187.054688 69.566406 186.964844 69.65625 186.894531 69.761719 C 186.820312 69.867188 186.773438 69.984375 186.746094 70.109375 C 186.71875 70.234375 186.71875 70.363281 186.742188 70.484375 C 187.121094 72.382812 187.195312 72.820312 188.03125 72.820312 C 188.1875 72.820312 188.34375 72.78125 188.484375 72.707031 C 188.621094 72.632812 188.742188 72.523438 188.828125 72.390625 C 188.914062 72.257812 188.964844 72.109375 188.980469 71.949219 C 188.992188 71.792969 188.96875 71.636719 188.902344 71.492188 C 188.847656 71.1875 188.675781 70.296875 188.636719 70.125 Z M 194.441406 82.679688 C 195.671875 83.039062 196.847656 82.453125 196.808594 82.148438 C 196.773438 81.847656 196.808594 81.996094 195.140625 81.371094 C 194.023438 80.953125 192.789062 79.476562 192.355469 79.703125 C 191.917969 79.929688 192.582031 81.144531 192.734375 81.371094 C 193.140625 81.988281 193.738281 82.449219 194.441406 82.679688 Z M 229.117188 64.664062 C 226.632812 75.074219 224.8125 83.914062 224.511719 85.675781 C 224.308594 86.445312 224.269531 87.246094 224.394531 88.027344 C 225.402344 90.171875 238.390625 94.402344 240.039062 93.566406 C 241.6875 92.730469 245.972656 83.078125 250.960938 73.121094 C 254.011719 73.21875 257.070312 72.996094 260.078125 72.457031 C 263.246094 71.878906 266.328125 70.902344 269.253906 69.558594 C 275.664062 66.597656 282.679688 53.929688 283.628906 47.558594 C 284.339844 40.640625 282.875 33.671875 279.4375 27.625 C 263.53125 0.03125 216.871094 14.878906 220.660156 45.527344 C 221.742188 52.539062 224.660156 59.140625 229.117188 64.664062 Z M 240.683594 87.25 C 240.683594 87.554688 240.339844 87.515625 238.785156 87.25 C 235.605469 86.851562 232.527344 85.867188 229.707031 84.347656 C 228.378906 83.628906 228.019531 83.476562 228.152344 83.15625 C 228.285156 82.832031 228.566406 82.945312 230.617188 83.515625 C 230.804688 83.515625 236.683594 85.410156 238.371094 86 C 240.550781 86.984375 240.683594 86.984375 240.683594 87.25 Z M 240.339844 56.394531 C 242.367188 56.5 244.382812 56.082031 246.199219 55.179688 C 247.886719 56 249.714844 56.496094 251.585938 56.640625 C 248.398438 62.578125 241.933594 74.675781 239.847656 81.125 L 231.808594 78.90625 C 233.707031 74.242188 237.894531 63.316406 240.304688 56.394531 Z M 239.679688 54.820312 C 238.261719 54.605469 236.957031 53.933594 235.960938 52.90625 C 234.964844 51.878906 234.332031 50.554688 234.160156 49.132812 C 233.628906 45.339844 236.058594 41.089844 239.714844 42.09375 C 242.011719 42.722656 242.292969 44.542969 241.894531 46.835938 C 241.554688 48.503906 240.324219 52.695312 239.640625 54.746094 Z M 244.835938 50.269531 C 245.039062 49.027344 245.503906 47.84375 246.199219 46.796875 C 246.53125 46.226562 247.015625 45.761719 247.601562 45.453125 C 248.183594 45.144531 248.839844 45.007812 249.5 45.054688 C 250.902344 45.472656 251.507812 48.125 250.351562 49.796875 C 249.242188 51.269531 247.855469 52.519531 246.277344 53.472656 C 245.730469 53.15625 245.296875 52.675781 245.035156 52.105469 C 244.769531 51.53125 244.6875 50.890625 244.796875 50.269531 Z M 227.410156 26.164062 C 235.90625 15.941406 251.886719 11.882812 263.433594 16.09375 C 269.707031 18.25 274.984375 22.609375 278.28125 28.363281 C 281.550781 34.117188 282.949219 40.746094 282.28125 47.328125 C 281.410156 53.226562 274.695312 65.480469 268.800781 68.191406 C 263.410156 70.652344 257.527344 71.84375 251.605469 71.679688 C 250.960938 71.679688 250.277344 71.679688 250.03125 72.136719 C 248.910156 74.410156 246.863281 78.8125 244.855469 82.945312 C 243.464844 82.277344 242.027344 81.71875 240.550781 81.277344 C 242.75 74.980469 249.6875 62.617188 252.988281 56.621094 C 255.847656 56.867188 258.71875 56.371094 261.332031 55.179688 C 262.035156 54.808594 262.621094 54.246094 263.015625 53.554688 C 263.410156 52.859375 263.601562 52.070312 263.5625 51.273438 C 263.527344 50.476562 263.261719 49.707031 262.800781 49.054688 C 262.34375 48.40625 261.707031 47.898438 260.96875 47.59375 C 258.03125 46.152344 255.394531 49.605469 253.859375 52.507812 C 253.441406 53.265625 252.96875 54.15625 252.4375 55.164062 C 250.902344 55.0625 249.390625 54.75 247.945312 54.234375 C 249.386719 53.21875 250.664062 51.992188 251.738281 50.589844 C 252.335938 49.683594 252.640625 48.613281 252.605469 47.527344 C 252.574219 46.441406 252.203125 45.390625 251.546875 44.523438 C 251.03125 43.925781 250.316406 43.535156 249.535156 43.425781 C 248.753906 43.316406 247.957031 43.5 247.300781 43.933594 C 245.972656 44.75 244.90625 45.933594 244.234375 47.339844 C 243.5625 48.746094 243.308594 50.316406 243.507812 51.863281 C 243.714844 52.734375 244.183594 53.523438 244.855469 54.121094 C 243.609375 54.632812 242.277344 54.890625 240.929688 54.878906 C 241.6875 52.640625 242.921875 48.601562 243.242188 46.949219 C 243.445312 46.007812 243.488281 45.042969 243.375 44.085938 C 243.226562 43.265625 242.847656 42.507812 242.28125 41.898438 C 241.710938 41.289062 240.980469 40.855469 240.171875 40.652344 C 235.5625 39.34375 232.171875 44.445312 232.832031 49.207031 C 233.019531 50.914062 233.753906 52.511719 234.921875 53.769531 C 236.089844 55.027344 237.628906 55.875 239.316406 56.1875 C 236.890625 63.015625 233.097656 74.03125 231.203125 78.734375 L 227.03125 77.65625 C 229.707031 64.226562 230.027344 64.550781 229.648438 64.378906 C 225.339844 58.886719 222.582031 52.335938 221.667969 45.414062 C 221.21875 41.980469 221.5 38.496094 222.488281 35.175781 C 223.480469 31.859375 225.15625 28.789062 227.410156 26.164062 Z M 253.726562 55.277344 C 255.054688 52.867188 257.707031 47.59375 260.289062 48.886719 C 260.804688 49.09375 261.253906 49.4375 261.585938 49.882812 C 261.921875 50.328125 262.125 50.855469 262.183594 51.40625 C 262.144531 54.746094 256.949219 55.332031 253.652344 55.277344 Z M 326.304688 63.640625 C 328.589844 62.296875 331.289062 61.835938 333.890625 62.351562 C 336.746094 62.402344 339.476562 63.542969 341.515625 65.542969 C 343.558594 67.542969 344.757812 70.246094 344.867188 73.101562 C 343.148438 72.105469 341.140625 71.730469 339.179688 72.042969 C 334.421875 72.457031 328.203125 75.039062 329.035156 79.628906 C 329.71875 83.421875 334.722656 82.90625 338.515625 81.882812 C 342.308594 80.859375 345.324219 79 346.101562 75.339844 C 350.707031 78.699219 351.789062 84.578125 351.976562 90.324219 C 351.976562 90.402344 352.007812 90.480469 352.066406 90.539062 C 352.125 90.59375 352.199219 90.625 352.28125 90.625 C 352.363281 90.625 352.4375 90.59375 352.496094 90.539062 C 352.550781 90.480469 352.585938 90.402344 352.585938 90.324219 C 352.71875 83.894531 351.558594 77.597656 346.308594 73.9375 C 346.363281 72.289062 346.082031 70.652344 345.484375 69.117188 C 344.886719 67.582031 343.980469 66.183594 342.828125 65.007812 C 341.671875 63.832031 340.292969 62.902344 338.769531 62.277344 C 337.246094 61.652344 335.613281 61.339844 333.964844 61.363281 C 331.332031 60.980469 328.648438 61.53125 326.382812 62.917969 C 325.679688 63.261719 326.003906 63.773438 326.304688 63.640625 Z M 343.597656 77.238281 C 341.453125 80.042969 335.386719 81.503906 332.582031 81.03125 C 331.539062 80.859375 330.683594 80.421875 330.457031 79.34375 C 329.777344 75.550781 336.316406 73.484375 340.222656 73.351562 C 341.8125 73.226562 343.398438 73.632812 344.734375 74.507812 C 344.589844 75.5 344.199219 76.4375 343.597656 77.238281 Z M 317.621094 41.46875 C 319.652344 38.964844 318.285156 34.605469 312.617188 34.585938 C 310.417969 34.585938 309.355469 36.824219 309.507812 38.964844 C 309.847656 44.066406 315.59375 43.917969 317.621094 41.46875 Z M 310.835938 38.871094 C 310.835938 37.621094 311.421875 35.988281 312.730469 36.007812 C 315.78125 36.007812 317.1875 37.429688 317.1875 39.003906 C 317.109375 42.589844 310.589844 44.445312 310.835938 38.871094 Z M 310.058594 253.878906 C 293.390625 247.222656 285.65625 279.441406 272.042969 307.132812 C 271.957031 308.292969 271.996094 309.464844 272.15625 310.621094 C 272.15625 313.523438 272.480469 332.734375 274.167969 334.914062 C 274.621094 335.789062 276.535156 334.914062 277.425781 334.363281 C 284.996094 329.679688 292.128906 324.320312 298.738281 318.359375 C 298.792969 318.292969 298.835938 318.21875 298.863281 318.136719 C 298.890625 318.054688 298.898438 317.96875 298.890625 317.882812 C 302.417969 312.859375 315.632812 286.6875 318.835938 273.5625 C 321.074219 264.269531 318.855469 257.347656 310.058594 253.878906 Z M 316.011719 277.964844 C 307.089844 276.820312 298.460938 274 290.585938 269.65625 C 295.023438 261.253906 300.5 251.675781 309.546875 255.28125 C 319.613281 259.28125 319.40625 267.570312 316.011719 277.90625 Z M 284.460938 327.273438 C 283.878906 326.785156 283.242188 326.363281 282.566406 326.019531 C 280.003906 324.71875 277.042969 324.433594 274.28125 325.222656 C 274.089844 322.96875 273.007812 308.289062 273.007812 308.15625 C 287.210938 313.351562 282.832031 311.09375 296.898438 318.09375 C 295.421875 319.496094 289.863281 323.382812 284.460938 327.234375 Z M 294.246094 272.386719 C 296.09375 273.398438 297.992188 274.316406 299.933594 275.136719 C 295.585938 281.964844 291.746094 289.101562 288.441406 296.492188 C 285.257812 303.148438 285.371094 303.109375 282.128906 310.375 C 280.234375 309.765625 278.335938 309.199219 276.441406 308.628906 C 278.488281 304.550781 293.050781 274.738281 294.246094 272.347656 Z M 282.867188 310.5625 C 289.03125 299.507812 295.304688 285.757812 300.691406 275.382812 C 302.585938 276.179688 304.484375 276.824219 306.378906 277.394531 C 305.375 279.289062 302.433594 284.335938 301.65625 285.796875 C 300.878906 287.253906 293.089844 302.617188 292.539062 303.792969 C 291.667969 305.691406 289.277344 310.980469 288.539062 312.667969 C 286.605469 311.816406 284.746094 311.171875 282.792969 310.527344 Z M 289.21875 312.914062 C 290.375 310.808594 295.136719 301.972656 295.722656 300.835938 C 296.613281 299.070312 306.550781 278.757812 307.097656 277.582031 C 308.84375 278.078125 310.683594 278.492188 311.859375 278.722656 C 308.390625 288.203125 298.398438 306.46875 294.792969 315.476562 C 291.515625 313.941406 290.773438 313.558594 289.144531 312.878906 Z M 290.375 270.207031 L 293.769531 272.101562 C 286.929688 283.753906 280.972656 295.898438 275.949219 308.441406 L 273.105469 307.566406 C 284.121094 284.089844 284.632812 281.015625 290.300781 270.167969 Z M 298.1875 317.125 L 295.324219 315.761719 C 298.414062 309.691406 308.085938 294.121094 312.503906 278.855469 C 313.566406 279.042969 314.609375 279.214844 315.613281 279.347656 C 310.738281 292.351562 304.890625 304.96875 298.113281 317.085938 Z M 238.785156 329.433594 C 239.542969 328.808594 240.082031 327.960938 240.332031 327.011719 C 240.578125 326.0625 240.523438 325.058594 240.171875 324.144531 C 240.011719 322.820312 239.402344 321.59375 238.453125 320.664062 C 237.503906 319.730469 236.261719 319.152344 234.9375 319.019531 C 233.613281 318.886719 232.285156 319.210938 231.167969 319.933594 C 230.050781 320.660156 229.214844 321.742188 228.796875 323.003906 C 226.367188 321.429688 223.734375 319.761719 221.210938 318.167969 C 223.105469 315.644531 228.679688 316.765625 229.25 318.832031 C 229.261719 318.914062 229.308594 318.984375 229.371094 319.035156 C 229.4375 319.082031 229.519531 319.101562 229.601562 319.089844 C 229.679688 319.078125 229.753906 319.03125 229.800781 318.964844 C 229.847656 318.898438 229.871094 318.816406 229.855469 318.738281 C 229.574219 315.4375 222.710938 313.503906 219.941406 317.390625 C 217.496094 315.894531 214.460938 314.074219 211.921875 312.6875 C 214.101562 310.792969 218.972656 311.851562 219.503906 313.824219 C 219.53125 313.894531 219.578125 313.949219 219.640625 313.984375 C 219.703125 314.019531 219.777344 314.03125 219.847656 314.019531 C 219.917969 314.003906 219.980469 313.964844 220.027344 313.910156 C 220.070312 313.855469 220.09375 313.785156 220.09375 313.710938 C 219.847656 310.640625 213.496094 308.574219 210.613281 311.949219 C 209.40625 311.269531 208.136719 310.710938 206.820312 310.28125 C 206.582031 310.179688 206.316406 310.152344 206.0625 310.199219 C 205.804688 310.246094 205.566406 310.367188 205.378906 310.542969 C 200.582031 316.519531 184.410156 332.03125 176.941406 333.832031 C 176.753906 333.863281 176.574219 333.9375 176.425781 334.058594 C 176.277344 334.175781 176.164062 334.332031 176.09375 334.507812 C 176.023438 334.683594 176.003906 334.878906 176.03125 335.066406 C 176.0625 335.253906 176.140625 335.429688 176.257812 335.578125 C 177.898438 337.242188 179.777344 338.65625 181.832031 339.769531 C 179.933594 341.667969 178.457031 343.375 177.355469 344.605469 C 176.789062 345.210938 176.484375 356.820312 176.976562 359.378906 C 177.050781 359.628906 177.214844 359.847656 177.433594 359.988281 C 179.820312 361.617188 210.59375 374.929688 213.742188 373.148438 C 215.84375 371.953125 240.96875 345.800781 241.367188 345.003906 C 241.972656 343.753906 241.765625 335.40625 241.726562 332.070312 C 241.574219 331.066406 239.695312 329.984375 238.785156 329.433594 Z M 178.117188 354.488281 L 178.117188 350.257812 C 185.984375 354.050781 203.996094 361.789062 210.820312 363.949219 C 212.566406 364.519531 212.71875 364.441406 213.628906 363.949219 C 218.839844 360.613281 237.25 339.863281 240.625 336.699219 L 240.625 340.699219 C 230.386719 350.960938 213 368.9375 212.679688 367.914062 C 210.800781 367.800781 179.746094 355.246094 178.117188 354.488281 Z M 238.3125 323.042969 C 238.996094 324.191406 239.359375 325.5 239.375 326.835938 C 239.367188 327.261719 239.265625 327.679688 239.070312 328.058594 C 238.875 328.433594 238.597656 328.761719 238.257812 329.015625 C 236.664062 327.953125 233.648438 325.980469 230.085938 323.667969 C 232.039062 319.820312 236.378906 319.761719 238.238281 323.042969 Z M 177.640625 335.179688 C 185.71875 332.789062 201.058594 318 206.214844 311.585938 C 207.453125 311.933594 208.652344 312.421875 209.777344 313.046875 C 207.882812 316.574219 209.910156 320.445312 210.632812 319.894531 C 211.03125 319.589844 210.308594 319.476562 210.195312 317.617188 C 210.148438 316.261719 210.453125 314.914062 211.085938 313.710938 C 213.703125 315.078125 216.773438 316.859375 219.371094 318.359375 C 217.78125 321.90625 219.695312 325.414062 220.359375 324.902344 C 221.023438 324.390625 220.054688 324.503906 219.941406 322.644531 C 219.894531 321.425781 220.128906 320.210938 220.625 319.097656 C 223.296875 320.671875 226.027344 322.304688 228.53125 323.839844 C 228.144531 324.785156 227.992188 325.808594 228.082031 326.824219 C 228.175781 327.839844 228.511719 328.820312 229.0625 329.679688 C 229.085938 329.710938 229.117188 329.738281 229.152344 329.761719 C 229.1875 329.78125 229.226562 329.792969 229.265625 329.800781 C 229.308594 329.804688 229.347656 329.800781 229.386719 329.792969 C 229.425781 329.78125 229.464844 329.761719 229.496094 329.738281 C 229.527344 329.710938 229.554688 329.679688 229.578125 329.644531 C 229.597656 329.609375 229.609375 329.570312 229.613281 329.53125 C 229.621094 329.492188 229.617188 329.449219 229.609375 329.410156 C 229.597656 329.371094 229.578125 329.332031 229.554688 329.300781 C 229.214844 328.546875 229.042969 327.726562 229.0625 326.902344 C 229.078125 326.074219 229.277344 325.261719 229.648438 324.523438 C 234.066406 327.214844 237.628906 329.472656 238.730469 330.210938 C 238.523438 330.402344 218.746094 348 212.015625 353.234375 C 207.597656 352.078125 184.410156 340.566406 177.640625 335.179688 Z M 178.363281 345.742188 C 186.949219 349.535156 206.460938 358.335938 210.953125 359.191406 C 211.730469 359.339844 212.035156 359.398438 213.511719 358.222656 C 219.828125 353.160156 240.359375 331.671875 240.550781 331.898438 C 240.558594 331.957031 240.558594 332.011719 240.550781 332.070312 L 240.550781 335.863281 C 236.320312 339.257812 212.8125 363.949219 212.433594 362.773438 C 210.535156 362.773438 179.726562 350.199219 178.152344 349.5 C 178.117188 348.703125 178.285156 346.578125 178.363281 345.742188 Z M 212.886719 371.878906 C 210.992188 372.957031 182.117188 361.21875 178.25 358.828125 C 178.101562 357.621094 178.03125 356.40625 178.039062 355.1875 C 186.34375 359.285156 210.5 369.488281 212.71875 369.394531 C 215.960938 369.222656 238.882812 343.410156 240.511719 341.609375 C 240.53125 342.578125 240.433594 343.546875 240.226562 344.492188 C 239.90625 345.117188 214.140625 371.175781 212.886719 371.878906 Z M 55.804688 264.972656 C 55.9375 267 56.03125 268.765625 56.03125 270.414062 C 56.03125 270.667969 56.132812 270.90625 56.308594 271.085938 C 56.488281 271.261719 56.730469 271.363281 56.980469 271.363281 C 57.230469 271.363281 57.472656 271.261719 57.652344 271.085938 C 57.828125 270.90625 57.929688 270.667969 57.929688 270.414062 C 57.929688 268.652344 57.835938 266.90625 57.703125 264.839844 C 57.683594 264.589844 57.566406 264.355469 57.375 264.1875 C 57.1875 264.023438 56.9375 263.9375 56.6875 263.957031 C 56.433594 263.976562 56.203125 264.09375 56.035156 264.28125 C 55.871094 264.472656 55.789062 264.71875 55.804688 264.972656 Z M 344.695312 226.945312 C 344.574219 226.953125 344.453125 226.984375 344.339844 227.042969 C 344.230469 227.097656 344.128906 227.171875 344.046875 227.265625 C 343.96875 227.359375 343.90625 227.46875 343.867188 227.585938 C 343.828125 227.703125 343.8125 227.828125 343.824219 227.953125 C 343.9375 229.695312 344.050781 231.574219 344.050781 233.394531 C 344.050781 233.648438 344.152344 233.886719 344.328125 234.066406 C 344.507812 234.242188 344.75 234.34375 345 234.34375 C 345.25 234.34375 345.492188 234.242188 345.671875 234.066406 C 345.847656 233.886719 345.949219 233.648438 345.949219 233.394531 C 345.949219 231.5 345.835938 229.601562 345.703125 227.820312 C 345.695312 227.695312 345.664062 227.574219 345.609375 227.464844 C 345.554688 227.351562 345.476562 227.253906 345.382812 227.171875 C 345.289062 227.089844 345.179688 227.027344 345.0625 226.988281 C 344.945312 226.949219 344.820312 226.9375 344.695312 226.945312 Z M 50.894531 260.25 C 51.144531 260.25 51.386719 260.148438 51.566406 259.972656 C 51.742188 259.792969 51.84375 259.550781 51.84375 259.300781 C 51.84375 259.050781 51.742188 258.808594 51.566406 258.632812 C 51.386719 258.453125 51.144531 258.351562 50.894531 258.351562 C 48.601562 258.351562 46.6875 258.523438 44.789062 258.484375 C 44.535156 258.484375 44.292969 258.585938 44.113281 258.761719 C 43.933594 258.941406 43.828125 259.179688 43.824219 259.433594 C 43.824219 259.683594 43.921875 259.925781 44.101562 260.105469 C 44.277344 260.28125 44.519531 260.382812 44.769531 260.382812 C 46.722656 260.421875 48.867188 260.34375 50.894531 260.25 Z M 338.820312 221.332031 C 336.542969 221.332031 334.628906 221.464844 332.714844 221.484375 C 332.464844 221.484375 332.222656 221.585938 332.042969 221.761719 C 331.867188 221.941406 331.765625 222.183594 331.765625 222.433594 C 331.765625 222.683594 331.867188 222.925781 332.042969 223.105469 C 332.222656 223.28125 332.464844 223.382812 332.714844 223.382812 C 334.761719 223.382812 336.886719 223.382812 338.933594 223.230469 C 339.183594 223.214844 339.417969 223.101562 339.585938 222.914062 C 339.753906 222.722656 339.839844 222.476562 339.824219 222.226562 C 339.808594 221.972656 339.695312 221.738281 339.507812 221.570312 C 339.316406 221.402344 339.070312 221.316406 338.820312 221.332031 Z M 55.292969 248.53125 C 55.40625 250.273438 55.519531 252.152344 55.519531 253.972656 C 55.527344 254.222656 55.628906 254.460938 55.804688 254.636719 C 55.980469 254.8125 56.21875 254.914062 56.46875 254.921875 C 56.71875 254.921875 56.960938 254.820312 57.140625 254.644531 C 57.316406 254.464844 57.417969 254.222656 57.417969 253.972656 C 57.417969 252.074219 57.304688 250.179688 57.1875 248.398438 C 57.171875 248.144531 57.054688 247.910156 56.863281 247.746094 C 56.675781 247.582031 56.425781 247.496094 56.175781 247.515625 C 55.921875 247.53125 55.6875 247.648438 55.523438 247.839844 C 55.359375 248.03125 55.277344 248.277344 55.292969 248.53125 Z M 345.4375 216.953125 C 345.4375 215.054688 345.324219 213.160156 345.191406 211.375 C 345.171875 211.125 345.054688 210.890625 344.867188 210.726562 C 344.675781 210.558594 344.425781 210.476562 344.175781 210.496094 C 343.925781 210.511719 343.691406 210.628906 343.523438 210.820312 C 343.359375 211.011719 343.277344 211.257812 343.292969 211.507812 C 343.40625 213.253906 343.519531 215.132812 343.519531 216.953125 C 343.519531 217.203125 343.621094 217.445312 343.800781 217.621094 C 343.976562 217.800781 344.21875 217.902344 344.46875 217.902344 C 344.722656 217.902344 344.964844 217.800781 345.144531 217.625 C 345.328125 217.445312 345.429688 217.207031 345.4375 216.953125 Z M 69.285156 260.003906 C 69.410156 260 69.53125 259.96875 69.644531 259.917969 C 69.757812 259.863281 69.859375 259.789062 69.945312 259.699219 C 70.03125 259.605469 70.09375 259.5 70.136719 259.382812 C 70.179688 259.265625 70.199219 259.140625 70.195312 259.015625 C 70.175781 258.769531 70.0625 258.539062 69.882812 258.367188 C 69.699219 258.199219 69.457031 258.105469 69.210938 258.105469 C 66.914062 258.203125 65 258.277344 63.085938 258.238281 C 62.835938 258.238281 62.59375 258.339844 62.414062 258.515625 C 62.238281 258.695312 62.136719 258.9375 62.136719 259.1875 C 62.136719 259.4375 62.238281 259.679688 62.414062 259.859375 C 62.59375 260.035156 62.835938 260.136719 63.085938 260.136719 C 65.113281 260.171875 67.238281 260.097656 69.285156 260.003906 Z M 357.210938 221.085938 C 355.3125 221.183594 353.210938 221.238281 351.105469 221.238281 C 350.980469 221.234375 350.855469 221.253906 350.738281 221.296875 C 350.621094 221.34375 350.515625 221.410156 350.421875 221.496094 C 350.332031 221.582031 350.261719 221.6875 350.210938 221.804688 C 350.164062 221.917969 350.136719 222.042969 350.136719 222.167969 C 350.136719 222.421875 350.238281 222.664062 350.414062 222.84375 C 350.59375 223.027344 350.832031 223.128906 351.085938 223.136719 C 353.246094 223.136719 354.992188 223.136719 357.285156 222.984375 C 357.410156 222.980469 357.53125 222.949219 357.644531 222.898438 C 357.757812 222.84375 357.859375 222.769531 357.945312 222.679688 C 358.03125 222.585938 358.097656 222.480469 358.136719 222.363281 C 358.183594 222.246094 358.199219 222.121094 358.195312 221.996094 C 358.171875 221.75 358.058594 221.519531 357.878906 221.351562 C 357.695312 221.1875 357.457031 221.089844 357.210938 221.085938 Z M 25.714844 203.808594 C 25.960938 204 79.429688 196.070312 81.722656 194.667969 C 81.851562 194.574219 81.953125 194.453125 82.019531 194.308594 C 82.085938 194.167969 82.113281 194.007812 82.101562 193.851562 C 82.101562 191.40625 78.898438 168.441406 77.363281 162.710938 C 77.171875 162.011719 76.984375 161.308594 76.546875 161.0625 C 73.648438 159.316406 22.53125 168.953125 19.476562 170.925781 C 19.394531 170.972656 19.324219 171.039062 19.269531 171.117188 C 19.214844 171.195312 19.175781 171.285156 19.15625 171.378906 C 18.511719 173.675781 24.066406 202.671875 25.714844 203.808594 Z M 20.3125 171.835938 C 23.953125 170.183594 70.347656 161.6875 75.65625 162.351562 C 76.945312 165.671875 80.394531 189.984375 80.625 193.550781 C 77.988281 194.328125 26.4375 203.183594 26.246094 203.222656 C 26.058594 203.261719 26.039062 203.488281 25.640625 202.292969 C 23.972656 197.285156 20.21875 176.121094 20.3125 171.835938 Z M 20.3125 171.835938 " fill-opacity="1" fill-rule="nonzero"/><g clip-path="url(#d0dafe9bd2)"><path fill="#ffffff" d="M 85.894531 196.355469 C 85.996094 196.164062 86.042969 195.949219 86.027344 195.730469 C 86.027344 192.714844 81.703125 159.242188 80.167969 156.566406 C 80.046875 156.371094 79.878906 156.207031 79.675781 156.101562 C 79.472656 155.988281 79.242188 155.9375 79.011719 155.941406 C 72.660156 155.164062 19.078125 165.632812 15.554688 168.078125 C 15.058594 168.421875 15.136719 169.273438 15.191406 170.183594 C 15.496094 175.171875 20.882812 207.980469 22.777344 207.792969 C 22.984375 207.792969 22.910156 207.640625 22.417969 208.644531 C 19.460938 214.734375 13.847656 234.230469 13.960938 238.15625 C 13.960938 239.804688 14.339844 241.949219 15.96875 241.835938 C 27.667969 240.394531 85.023438 231.289062 101.515625 227.894531 C 102.160156 227.761719 102.578125 227.175781 102.558594 226.207031 C 102.367188 224.597656 101.878906 223.035156 101.121094 221.597656 C 98.804688 217.257812 89.210938 200.054688 85.894531 196.355469 Z M 22.890625 207.203125 C 21.410156 205.308594 15.96875 172.632812 16.386719 169.007812 C 20.558594 166.847656 73.417969 156.625 78.957031 157.460938 C 80.472656 161.632812 84.398438 191.765625 84.644531 195.390625 C 77.929688 197.703125 31.460938 205.214844 22.890625 207.203125 Z M 23.726562 207.773438 C 25.316406 207.375 79.5625 198.292969 84.53125 196.984375 C 87.242188 199.503906 99.488281 221.296875 100.285156 223.152344 C 89.402344 225.050781 24.84375 235.839844 15.34375 237.28125 C 15.476562 231.535156 21.375 211.453125 23.726562 207.773438 Z M 23.726562 207.773438 " fill-opacity="1" fill-rule="nonzero"/></g><path fill="#ffffff" d="M 30.855469 227.441406 C 32.503906 227.195312 67.503906 222.984375 80.148438 219.550781 C 80.226562 219.53125 80.292969 219.480469 80.335938 219.410156 C 80.375 219.339844 80.386719 219.257812 80.367188 219.179688 C 80.347656 219.101562 80.296875 219.035156 80.226562 218.996094 C 80.160156 218.953125 80.074219 218.941406 80 218.960938 C 77.515625 219.476562 47.214844 223.515625 30.816406 226.851562 C 30.769531 226.84375 30.722656 226.847656 30.679688 226.859375 C 30.636719 226.871094 30.59375 226.894531 30.558594 226.925781 C 30.527344 226.957031 30.5 226.992188 30.480469 227.035156 C 30.464844 227.078125 30.457031 227.125 30.460938 227.171875 C 30.460938 227.214844 30.476562 227.261719 30.5 227.300781 C 30.523438 227.339844 30.554688 227.375 30.589844 227.402344 C 30.628906 227.429688 30.671875 227.445312 30.71875 227.453125 C 30.761719 227.457031 30.808594 227.453125 30.855469 227.441406 Z M 56.429688 95.480469 C 55.722656 97.082031 55.128906 98.730469 54.648438 100.414062 C 54.621094 100.683594 54.695312 100.953125 54.855469 101.171875 C 56.773438 104.054688 76.394531 126.1875 81.515625 129.296875 C 82.214844 129.734375 83.050781 130.035156 83.5625 129.410156 C 87.28125 124.78125 92.132812 121.195312 97.648438 119 C 102.136719 117.410156 106.84375 116.519531 111.605469 116.363281 C 115.394531 116.019531 116.058594 115.640625 117.519531 113.15625 C 119.242188 109.886719 121.527344 106.949219 124.269531 104.472656 C 127.765625 101.414062 131.648438 98.824219 135.816406 96.773438 C 136.003906 96.664062 136.152344 96.5 136.234375 96.300781 C 136.316406 96.101562 136.328125 95.878906 136.269531 95.671875 C 135.628906 94.039062 134.78125 92.496094 133.75 91.082031 C 134.433594 90.855469 135.191406 90.644531 135.191406 89.964844 C 135.191406 88.066406 118.65625 64.132812 114.070312 59.617188 C 113.59375 59.144531 112.914062 58.519531 112.285156 58.558594 C 102.808594 59.089844 93.574219 68.039062 88.226562 75.851562 C 82.101562 75.625 78.140625 75.074219 71.164062 78.015625 C 66.238281 80.105469 61.796875 83.191406 58.117188 87.082031 C 57.550781 87.667969 53.683594 91.765625 53.625 92.085938 C 53.566406 92.410156 53.683594 92.410156 56.429688 95.480469 Z M 132.269531 94.949219 C 124.363281 96.296875 119.320312 102.878906 115.605469 110.027344 C 113.957031 113.214844 114.105469 113.367188 112.363281 113.328125 C 109.3125 113.15625 106.253906 113.269531 103.222656 113.667969 C 101.003906 114 98.816406 114.546875 96.703125 115.300781 C 91.886719 117.007812 86.367188 122.46875 83.429688 126.527344 C 83.367188 126.609375 83.289062 126.679688 83.195312 126.730469 C 83.105469 126.78125 83.003906 126.8125 82.902344 126.820312 C 82.796875 126.828125 82.691406 126.816406 82.59375 126.78125 C 82.496094 126.75 82.40625 126.695312 82.332031 126.621094 C 76.167969 120.269531 65.265625 109.117188 59.785156 102.707031 C 59.519531 102.421875 59.976562 102.003906 60.242188 102.308594 C 63.789062 106.101562 72.945312 115.1875 82.765625 125.066406 C 86.085938 120.839844 91.203125 115.71875 96.265625 113.933594 C 99.027344 112.949219 101.898438 112.3125 104.816406 112.039062 C 107.550781 111.832031 110.292969 111.832031 113.027344 112.039062 C 114.144531 110.75 119.679688 96.109375 132.234375 94.476562 C 132.269531 94.503906 132.300781 94.539062 132.320312 94.578125 C 132.34375 94.621094 132.355469 94.664062 132.355469 94.710938 C 132.359375 94.753906 132.347656 94.800781 132.332031 94.84375 C 132.3125 94.882812 132.285156 94.921875 132.25 94.949219 Z M 112.269531 60.09375 C 116.058594 62.75 131.492188 85.601562 133.503906 89.601562 C 130.015625 90.707031 126.648438 92.164062 123.453125 93.945312 C 120.429688 95.460938 117.78125 97.636719 115.699219 100.304688 C 113.621094 102.976562 112.164062 106.078125 111.433594 109.382812 C 104.625 98.308594 95.128906 86.113281 88.8125 77.144531 C 89.195312 76.894531 99.847656 60.832031 112.269531 60.09375 Z M 71.578125 79.058594 C 78.5 76.269531 82.332031 76.914062 88.054688 77.160156 C 93.742188 86.871094 103.964844 100.566406 110.695312 109.535156 C 104.480469 108.0625 97.945312 108.964844 92.359375 112.058594 C 89.003906 113.953125 84.910156 118.503906 82.386719 121.332031 C 78.746094 118.410156 57.738281 96.03125 54.363281 92.238281 C 59.558594 86.359375 64.355469 81.941406 71.578125 78.980469 Z M 36.882812 127.285156 C 36.414062 126.957031 35.859375 126.769531 35.289062 126.75 C 34.714844 126.730469 34.152344 126.878906 33.660156 127.171875 C 33.304688 127.332031 32.980469 127.558594 32.710938 127.84375 C 32.441406 128.128906 32.230469 128.460938 32.089844 128.828125 C 31.953125 129.191406 31.886719 129.582031 31.894531 129.972656 C 31.90625 130.363281 31.992188 130.75 32.152344 131.109375 C 32.3125 131.464844 32.539062 131.789062 32.824219 132.058594 C 33.109375 132.324219 33.441406 132.535156 33.808594 132.675781 C 34.171875 132.816406 34.5625 132.882812 34.953125 132.871094 C 35.34375 132.863281 35.730469 132.773438 36.085938 132.617188 C 36.65625 132.488281 37.175781 132.195312 37.578125 131.769531 C 37.976562 131.34375 38.234375 130.804688 38.320312 130.226562 C 38.40625 129.648438 38.316406 129.054688 38.058594 128.53125 C 37.804688 128.007812 37.394531 127.574219 36.882812 127.285156 Z M 35.632812 131.078125 C 34.304688 131.496094 33.507812 131.078125 33.1875 130.433594 C 32.578125 129.085938 33.335938 127.019531 35.308594 127.628906 C 36.695312 128.140625 37.8125 130.472656 35.632812 131.175781 Z M 133.292969 40.503906 C 133.84375 41.621094 136.402344 41.203125 137.523438 40.84375 C 138.109375 40.652344 138.488281 40.445312 138.546875 39.875 C 138.714844 38.453125 138.90625 26.125 138.261719 24.933594 C 138.195312 24.808594 138.09375 24.703125 137.96875 24.636719 C 137.84375 24.570312 137.703125 24.539062 137.558594 24.554688 C 135.539062 24.546875 133.523438 24.839844 131.585938 25.425781 C 130.808594 25.898438 132.613281 39.25 133.292969 40.503906 Z M 131.984375 25.878906 C 133.738281 25.628906 135.507812 25.546875 137.277344 25.632812 C 137.390625 27.039062 137.085938 39.195312 137.066406 39.382812 C 136.265625 39.671875 135.410156 39.773438 134.566406 39.6875 C 134.433594 39.25 134.203125 38.074219 133.921875 36.59375 C 133.085938 33.0625 132.4375 29.484375 131.984375 25.878906 Z M 35.042969 111.28125 C 35.226562 111.371094 35.425781 111.421875 35.632812 111.421875 C 35.835938 111.421875 36.039062 111.371094 36.21875 111.28125 C 36.953125 110.828125 37.53125 110.167969 37.886719 109.382812 C 37.9375 109.257812 37.953125 109.121094 37.929688 108.988281 C 37.910156 108.855469 37.855469 108.730469 37.773438 108.625 C 36.863281 107.542969 26.929688 96.03125 25.714844 96.753906 C 24.226562 97.71875 22.8125 98.796875 21.488281 99.976562 C 21.433594 100.023438 21.390625 100.082031 21.363281 100.148438 C 21.332031 100.214844 21.316406 100.285156 21.316406 100.355469 C 21.28125 101.34375 32.3125 110.179688 35.042969 111.28125 Z M 25.945312 97.246094 C 27.328125 98.25 31.992188 104.015625 36.316406 109.117188 C 36.128906 109.410156 35.898438 109.671875 35.632812 109.894531 C 31.085938 106.984375 26.746094 103.765625 22.644531 100.261719 C 23.671875 99.179688 24.773438 98.171875 25.945312 97.246094 Z M 55.730469 55.410156 C 56.148438 48.050781 60.429688 44.636719 64.90625 43.765625 C 63.636719 48.429688 63.84375 54.5 68.453125 55.277344 C 70.652344 55.636719 71.730469 54.5 73.324219 53.171875 C 80.128906 47.480469 74.632812 41.792969 66.953125 42.191406 C 69.816406 34.339844 76.433594 27.949219 85.210938 27.738281 C 85.292969 27.738281 85.371094 27.707031 85.425781 27.648438 C 85.484375 27.59375 85.515625 27.515625 85.515625 27.433594 C 85.515625 27.355469 85.484375 27.277344 85.425781 27.222656 C 85.371094 27.164062 85.292969 27.132812 85.210938 27.132812 C 75.730469 26.941406 68.28125 33.769531 65.34375 42.304688 C 60.28125 43.175781 55.253906 46.96875 55.121094 55.296875 C 55.113281 55.335938 55.117188 55.375 55.125 55.414062 C 55.132812 55.457031 55.148438 55.492188 55.171875 55.527344 C 55.195312 55.558594 55.222656 55.589844 55.257812 55.609375 C 55.292969 55.632812 55.328125 55.648438 55.371094 55.65625 C 55.410156 55.664062 55.449219 55.664062 55.488281 55.652344 C 55.527344 55.644531 55.566406 55.628906 55.601562 55.605469 C 55.632812 55.582031 55.664062 55.554688 55.683594 55.519531 C 55.707031 55.488281 55.722656 55.449219 55.730469 55.410156 Z M 66.519531 43.535156 C 69.34375 43.347656 73.550781 44.21875 74.707031 46.78125 C 75.371094 48.238281 74.707031 50.042969 72.355469 52.015625 C 71.71875 52.652344 70.992188 53.195312 70.195312 53.625 C 67.351562 54.839844 64.203125 51.332031 66.519531 43.535156 Z M 71.941406 311.757812 C 70.109375 311.265625 68.195312 311.148438 66.316406 311.40625 C 64.441406 311.667969 62.632812 312.300781 61 313.265625 C 59.371094 314.234375 57.949219 315.519531 56.824219 317.046875 C 55.695312 318.570312 54.886719 320.308594 54.441406 322.152344 C 53.597656 325.980469 54.3125 329.988281 56.421875 333.292969 C 58.535156 336.597656 61.875 338.929688 65.703125 339.769531 C 69.53125 340.613281 73.539062 339.898438 76.839844 337.785156 C 80.144531 335.671875 82.472656 332.335938 83.316406 328.503906 C 83.675781 326.65625 83.667969 324.757812 83.289062 322.914062 C 82.910156 321.070312 82.171875 319.320312 81.113281 317.761719 C 80.058594 316.207031 78.703125 314.875 77.128906 313.84375 C 75.550781 312.8125 73.789062 312.105469 71.941406 311.757812 Z M 77.796875 327.214844 C 77.039062 330.25 75.214844 332.914062 72.664062 334.722656 C 70.113281 336.53125 66.996094 337.363281 63.882812 337.078125 C 61.023438 335.960938 58.648438 333.867188 57.179688 331.175781 C 55.707031 328.476562 55.234375 325.351562 55.84375 322.339844 C 56.550781 319.234375 58.355469 316.484375 60.925781 314.597656 C 63.496094 312.707031 66.65625 311.808594 69.835938 312.0625 C 72.722656 313.253906 75.097656 315.429688 76.539062 318.199219 C 77.984375 320.972656 78.402344 324.164062 77.722656 327.214844 Z M 77.796875 327.214844 " fill-opacity="1" fill-rule="nonzero"/><g clip-path="url(#3ef7c914f6)"><path fill="#ffffff" d="M 97.195312 317.164062 C 95.542969 316.59375 93.773438 316.457031 92.054688 316.765625 C 91.34375 315.132812 90.46875 313.574219 89.441406 312.117188 C 90.671875 311 94.046875 307.890625 93.230469 306.429688 C 90.332031 302.957031 86.886719 299.980469 83.03125 297.609375 C 81.421875 296.707031 79.648438 296.136719 77.816406 295.921875 C 76.605469 296.09375 73.722656 300.816406 73.078125 301.878906 C 72.660156 301.878906 71.183594 301.402344 71.066406 301.347656 C 71.066406 299.980469 70.667969 295.050781 69.4375 294.480469 C 68.058594 293.972656 66.628906 293.625 65.171875 293.4375 C 63.824219 293.230469 51.710938 295.449219 50.820312 297.078125 C 50.230469 298.179688 51.597656 302.332031 51.996094 303.488281 C 50.972656 304.054688 49.988281 304.6875 49.054688 305.386719 C 47.160156 306.734375 47.671875 306.675781 47.332031 306.523438 C 46.917969 306.328125 46.476562 306.199219 46.023438 306.144531 C 44.507812 305.257812 42.730469 304.921875 40.996094 305.195312 C 39.253906 305.765625 35.140625 315.132812 34.476562 317.542969 C 34.257812 318.148438 34.199219 318.804688 34.304688 319.4375 C 34.757812 320.691406 37.792969 321.695312 39.0625 322.09375 C 38.710938 324.535156 38.710938 327.011719 39.0625 329.453125 C 37.394531 329.90625 33.925781 330.933594 34.113281 332.640625 C 34.304688 334.347656 38.742188 345.609375 40.582031 346.503906 C 41.589844 347.066406 42.703125 347.414062 43.851562 347.519531 C 45 347.628906 46.160156 347.496094 47.253906 347.128906 C 47.871094 346.820312 48.464844 346.472656 49.035156 346.085938 C 49.792969 346.652344 50.589844 347.167969 51.40625 347.660156 C 50.820312 349.121094 49.511719 352.382812 49.925781 353.859375 C 50.136719 354.636719 50.761719 354.886719 51.632812 355.207031 C 54.042969 356.078125 67.011719 359.191406 68.980469 358.847656 C 69.722656 358.734375 70.121094 357.957031 70.347656 357.21875 C 70.769531 355.535156 71.015625 353.8125 71.085938 352.078125 C 72.058594 351.980469 73.027344 351.835938 73.988281 351.640625 C 74.574219 352.671875 75.324219 353.601562 76.207031 354.390625 C 77.171875 355.074219 77.988281 354.734375 79.089844 354.03125 C 79.617188 354.714844 80.414062 355.664062 81.269531 355.757812 C 83.410156 356.003906 92.265625 347.660156 93.175781 345.953125 C 93.933594 344.53125 91.164062 341.988281 89.933594 340.871094 C 91.265625 338.863281 92.3125 336.679688 93.042969 334.382812 C 94.410156 334.589844 95.792969 334.667969 97.175781 334.613281 C 97.800781 334.613281 98.523438 334.382812 98.789062 333.796875 C 99.945312 331.160156 99.601562 321.164062 98.789062 318.625 C 98.671875 317.882812 97.820312 317.390625 97.195312 317.164062 Z M 97.648438 318.910156 C 98.292969 321.375 98.503906 330.6875 97.554688 333.09375 C 95.914062 333.253906 94.261719 333.179688 92.644531 332.867188 C 92.472656 332.835938 92.292969 332.875 92.148438 332.96875 C 92 333.0625 91.894531 333.207031 91.847656 333.378906 C 91.09375 335.941406 89.921875 338.363281 88.378906 340.546875 C 88.269531 340.691406 88.21875 340.875 88.238281 341.054688 C 88.261719 341.234375 88.351562 341.398438 88.492188 341.515625 C 89.824219 342.570312 90.953125 343.855469 91.828125 345.308594 C 90.882812 346.863281 83.46875 353.652344 81.421875 354.222656 C 81.117188 354.222656 80.28125 353.082031 80.074219 352.78125 C 79.375 351.726562 78.738281 350.632812 78.179688 349.5 C 78.097656 349.332031 77.953125 349.203125 77.78125 349.136719 C 77.609375 349.070312 77.421875 349.070312 77.25 349.136719 C 71.75 351.207031 69.664062 349.992188 69.664062 351.359375 C 69.667969 353.402344 69.335938 355.433594 68.679688 357.371094 C 64.222656 356.886719 59.835938 355.90625 55.597656 354.449219 C 55.800781 352.425781 56.367188 350.453125 57.265625 348.625 C 57.832031 347.355469 55.558594 347.714844 51.3125 343.390625 C 51.175781 343.265625 50.996094 343.195312 50.808594 343.195312 C 50.621094 343.195312 50.445312 343.265625 50.308594 343.390625 C 48.410156 344.949219 45.945312 346.464844 45.453125 346.21875 C 44.484375 345.742188 40.03125 335.636719 39.765625 333.585938 C 41.113281 332.648438 42.644531 332 44.257812 331.691406 C 44.429688 331.640625 44.578125 331.53125 44.675781 331.382812 C 44.773438 331.234375 44.816406 331.050781 44.789062 330.875 C 44.324219 328.191406 44.324219 325.445312 44.789062 322.757812 C 44.820312 322.59375 44.785156 322.421875 44.691406 322.28125 C 44.601562 322.140625 44.460938 322.039062 44.296875 322 C 42.867188 321.625 41.492188 321.070312 40.203125 320.351562 C 39.785156 320.046875 39.820312 320.066406 39.859375 319.742188 C 41.085938 315.316406 43.054688 311.128906 45.679688 307.359375 C 46.703125 307.074219 49.472656 309.101562 50.421875 309.824219 C 50.519531 309.921875 50.652344 309.972656 50.789062 309.972656 C 50.929688 309.972656 51.0625 309.921875 51.160156 309.824219 C 52.03125 308.921875 52.96875 308.082031 53.964844 307.320312 C 56.847656 305.140625 57.625 305.425781 57.378906 304.664062 C 56.507812 302.761719 56.019531 300.707031 55.9375 298.617188 C 56.230469 298.371094 56.566406 298.179688 56.921875 298.046875 C 58.695312 297.347656 60.511719 296.777344 62.367188 296.339844 C 64.609375 295.714844 66.917969 295.339844 69.246094 295.222656 C 69.644531 295.390625 70.007812 297.117188 70.101562 297.648438 C 70.800781 301.441406 70.328125 302.21875 70.878906 302.277344 C 76.28125 302.808594 77.382812 304.304688 77.761719 303.640625 C 78.8125 301.804688 80.039062 300.070312 81.421875 298.464844 C 81.816406 298.066406 81.800781 297.875 82.992188 298.558594 C 86.5625 300.890625 89.757812 303.75 92.472656 307.035156 C 92.757812 307.53125 90.292969 310.148438 88.492188 311.683594 C 87.867188 312.234375 88.757812 312.480469 90.386719 315.589844 C 92.019531 318.699219 91.640625 319.570312 92.511719 319.382812 C 94.191406 318.980469 95.921875 318.820312 97.648438 318.910156 Z M 360.792969 160.4375 C 356.820312 158.8125 352.652344 157.710938 348.394531 157.15625 C 345.285156 156.664062 341.625 156.167969 338.535156 155.773438 C 341.511719 151.5625 350.328125 140.902344 351.808594 138.304688 C 352.222656 137.601562 351.425781 136.617188 350.839844 136.027344 C 347.539062 132.5 341.171875 131.175781 336.277344 130.414062 C 333.472656 129.960938 321.753906 128.519531 319.765625 129.46875 C 317.375 130.605469 299.703125 157.15625 299.175781 161.195312 C 299.175781 161.878906 299.402344 162.144531 300.066406 162.390625 C 302.851562 163.414062 315.421875 165.007812 318.230469 165.671875 C 314.4375 172.308594 297.582031 194.746094 295.933594 197.910156 C 295.535156 198.707031 295.78125 199.183594 296.253906 199.335938 C 297.960938 200.011719 299.714844 200.554688 301.507812 200.964844 C 302.1875 201.171875 303.6875 200.246094 305.867188 198.917969 C 315.648438 193.039062 357.628906 165.3125 360.851562 161.726562 C 360.941406 161.640625 361.007812 161.539062 361.054688 161.425781 C 361.101562 161.3125 361.121094 161.191406 361.117188 161.070312 C 361.109375 160.945312 361.078125 160.828125 361.023438 160.71875 C 360.96875 160.609375 360.890625 160.511719 360.792969 160.4375 Z M 320.050781 183.195312 C 303.933594 193.835938 298.492188 196.945312 298.300781 197.078125 C 300.898438 193.113281 317.035156 171 319.800781 165.710938 C 319.851562 165.605469 319.875 165.496094 319.875 165.382812 C 319.875 165.269531 319.847656 165.160156 319.800781 165.054688 C 319.75 164.953125 319.679688 164.863281 319.589844 164.792969 C 319.503906 164.722656 319.402344 164.671875 319.289062 164.648438 C 317.394531 163.964844 303.59375 162.484375 300.332031 161.328125 C 300.746094 157.800781 317.964844 131.136719 320.050781 130.074219 C 322.132812 129.011719 342.363281 131.421875 346.15625 134.132812 C 344.164062 138.019531 333.167969 151.636719 331.386719 154.804688 C 331.027344 155.449219 330.914062 156.074219 331.613281 156.246094 C 332.316406 156.417969 350.136719 158.503906 354.023438 159.773438 C 349.285156 163.738281 325.359375 179.628906 320.050781 183.117188 Z M 198.421875 67.242188 C 198.421875 67.414062 198.535156 67.621094 198.820312 68.722656 C 198.894531 68.960938 199.058594 69.160156 199.277344 69.28125 C 199.496094 69.402344 199.753906 69.433594 199.996094 69.367188 C 200.238281 69.296875 200.441406 69.132812 200.5625 68.914062 C 200.679688 68.691406 200.710938 68.433594 200.640625 68.191406 C 200.449219 67.453125 200.28125 66.824219 200.164062 66.523438 C 200.054688 66.3125 199.871094 66.15625 199.648438 66.074219 C 199.425781 65.996094 199.183594 66 198.964844 66.089844 C 198.75 66.179688 198.570312 66.347656 198.472656 66.5625 C 198.371094 66.773438 198.351562 67.015625 198.421875 67.242188 Z M 198.421875 67.242188 " fill-opacity="1" fill-rule="nonzero"/></g></svg>