<svg xmlns="http://www.w3.org/2000/svg" xmlns:xlink="http://www.w3.org/1999/xlink" width="500" zoomAndPan="magnify" viewBox="0 0 375 374.999991" height="500" preserveAspectRatio="xMidYMid meet" version="1.0"><path fill="#000000" d="M 250.195312 211.433594 L 250.078125 211.433594 Z M 86.085938 268.765625 C 86.835938 268.882812 90.921875 269.078125 90.921875 268.371094 C 90.921875 267.957031 90.175781 267.976562 90.175781 267.976562 C 90.273438 264.832031 94.261719 264.046875 97.113281 265.699219 C 97.898438 266.148438 98.625 266.695312 99.273438 267.328125 C 95.246094 267.546875 89.898438 270.296875 90.253906 274.285156 C 90.457031 275.328125 90.894531 276.308594 91.53125 277.15625 C 92.167969 278.003906 92.988281 278.695312 93.929688 279.179688 C 95.105469 280.0625 96.449219 280.699219 97.875 281.058594 C 99.304688 281.414062 100.789062 281.484375 102.242188 281.261719 C 104.832031 280.601562 107.113281 279.058594 108.6875 276.898438 C 112.25 277.011719 115.738281 275.851562 118.515625 273.617188 C 118.632812 273.523438 118.730469 273.410156 118.800781 273.277344 C 118.871094 273.144531 118.914062 273 118.929688 272.851562 C 118.929688 272.164062 118.929688 272.203125 114.996094 267.839844 C 114.886719 267.714844 114.746094 267.621094 114.589844 267.5625 C 114.433594 267.503906 114.269531 267.480469 114.101562 267.5 C 113.9375 267.519531 113.777344 267.578125 113.640625 267.671875 C 113.5 267.765625 113.386719 267.890625 113.308594 268.035156 C 113.238281 268.121094 113.179688 268.214844 113.128906 268.3125 C 112.816406 268.898438 112.3125 269.359375 111.703125 269.617188 C 111.089844 269.875 110.40625 269.914062 109.769531 269.726562 C 107.804688 269.15625 105.269531 263.949219 100.652344 260.84375 C 96.621094 258.132812 91.21875 257.324219 87.402344 260.546875 C 85.761719 261.957031 84.597656 263.835938 84.0625 265.933594 C 83.851562 266.582031 83.894531 267.28125 84.179688 267.898438 C 84.695312 268.398438 85.371094 268.703125 86.085938 268.765625 Z M 93.476562 276.054688 C 92.9375 275.671875 92.5625 275.097656 92.429688 274.449219 C 92.292969 273.800781 92.410156 273.125 92.75 272.558594 C 93.621094 271.351562 94.832031 270.433594 96.230469 269.921875 C 95.101562 271.832031 94.179688 273.855469 93.476562 275.957031 Z M 111.992188 272.949219 C 112.460938 271.535156 111.992188 272.027344 112.777344 271.671875 C 113.371094 271.375 113.910156 270.976562 114.367188 270.492188 L 116.15625 272.617188 C 114.675781 273.554688 113.039062 274.21875 111.324219 274.582031 C 111.519531 274.070312 111.832031 273.285156 111.992188 272.851562 Z M 104.875 267.9375 C 106.742188 270.277344 108.296875 272.359375 111.144531 272.125 C 110.738281 272.96875 110.410156 273.851562 110.164062 274.757812 C 108.726562 274.855469 108.53125 274.523438 107.960938 274.757812 C 106.839844 275.191406 104.996094 279.21875 100.511719 279.199219 C 100.792969 278.578125 100.972656 277.914062 101.042969 277.234375 C 102.3125 276.976562 103.5 276.417969 104.503906 275.601562 C 104.933594 275.230469 105.210938 274.710938 105.289062 274.148438 C 105.289062 273.460938 105.054688 272.578125 103.597656 271.417969 C 104.140625 270.269531 104.570312 269.070312 104.875 267.839844 Z M 98.273438 275.367188 C 96.542969 274.445312 99.492188 272.8125 101.398438 272.871094 C 101.835938 272.875 102.261719 273.003906 102.632812 273.238281 C 103 273.476562 103.296875 273.8125 103.480469 274.207031 C 103.21875 274.628906 102.871094 274.996094 102.464844 275.277344 C 102.054688 275.5625 101.59375 275.761719 101.105469 275.859375 C 100.617188 275.960938 100.113281 275.957031 99.628906 275.855469 C 99.140625 275.753906 98.679688 275.554688 98.273438 275.269531 Z M 100.59375 263.339844 C 101.925781 264.472656 103.136719 265.746094 104.207031 267.132812 C 103.585938 268.265625 103.109375 269.476562 102.792969 270.730469 C 101.964844 270.492188 101.101562 270.425781 100.25 270.539062 C 99.398438 270.652344 98.578125 270.933594 97.839844 271.378906 C 94.242188 273.34375 95.089844 277.648438 100.082031 277.15625 C 99.785156 277.722656 99.570312 278.320312 99.433594 278.945312 C 97.4375 278.546875 95.574219 277.664062 94.007812 276.371094 C 95.402344 274.203125 96.484375 271.855469 97.230469 269.394531 C 97.996094 269.042969 98.820312 268.847656 99.664062 268.820312 C 100.503906 268.792969 101.339844 268.933594 102.125 269.234375 L 102.539062 267.683594 L 102.105469 267.484375 C 101.179688 266.855469 100.769531 266.367188 99.707031 265.519531 C 100.101562 264.804688 100.398438 264.035156 100.59375 263.242188 Z M 92.964844 260.195312 C 95.425781 260.238281 97.808594 261.066406 99.765625 262.554688 C 99.414062 263.355469 99.152344 264.191406 98.980469 265.050781 C 98.039062 264.308594 96.925781 263.816406 95.746094 263.613281 C 94.566406 263.410156 93.355469 263.507812 92.21875 263.890625 C 92.632812 262.699219 92.886719 261.453125 92.964844 260.195312 Z M 88.464844 261.726562 C 89.554688 260.878906 90.863281 260.363281 92.238281 260.234375 C 91.628906 261.554688 91.25 262.972656 91.117188 264.421875 C 90.53125 264.769531 90.054688 265.273438 89.730469 265.878906 C 89.410156 266.480469 89.257812 267.15625 89.289062 267.839844 C 87.914062 267.914062 86.535156 267.707031 85.242188 267.230469 C 85.535156 265.046875 86.679688 263.070312 88.425781 261.726562 Z M 59.101562 258.445312 C 55.566406 256.914062 47.703125 261.453125 46.269531 263.890625 C 46.0625 264.425781 46.0625 265.023438 46.269531 265.558594 C 47.507812 270.257812 59.0625 286.84375 61.207031 289.417969 C 61.578125 289.890625 62.089844 289.242188 61.757812 288.691406 C 60.734375 287.003906 60.851562 290.402344 66.078125 273.480469 C 66.5625 273.289062 67.015625 273.027344 67.417969 272.695312 C 67.597656 272.492188 67.699219 272.230469 67.699219 271.957031 C 67.699219 271.683594 67.597656 271.421875 67.417969 271.21875 C 67.238281 271 67.035156 270.800781 66.808594 270.628906 L 68.046875 266.050781 L 72.957031 268.765625 C 71.964844 271.246094 71.242188 273.832031 70.796875 276.46875 C 68.816406 277.183594 66.957031 278.203125 65.292969 279.496094 C 64.132812 280.773438 65.960938 283.128906 67.101562 284.546875 C 68.242188 285.960938 69.203125 286.921875 69.421875 287.140625 C 69.636719 287.355469 70.324219 287.140625 70.265625 286.785156 C 70.140625 286.5 69.976562 286.238281 69.773438 286 C 68.710938 284.34375 67.796875 282.59375 67.042969 280.773438 C 68.570312 279.859375 70.183594 279.09375 71.859375 278.492188 C 72.46875 278.277344 74.355469 277.6875 74.863281 278 C 77.386719 279.328125 80.015625 280.441406 82.726562 281.324219 C 82.835938 281.375 82.960938 281.382812 83.074219 281.339844 C 83.191406 281.300781 83.285156 281.214844 83.335938 281.105469 C 83.386719 280.996094 83.394531 280.871094 83.355469 280.757812 C 83.3125 280.640625 83.230469 280.550781 83.121094 280.496094 L 79.71875 278.433594 C 80.445312 276.792969 80.90625 275.046875 81.09375 273.265625 L 89.488281 277.804688 C 90 278.097656 90.390625 277.292969 90.019531 277.078125 C 89.644531 276.859375 64.171875 260.667969 59.101562 258.445312 Z M 56.117188 260.527344 C 56.800781 260.324219 57.53125 260.324219 58.21875 260.527344 C 58.671875 260.726562 59.769531 261.316406 61.265625 262.140625 C 60.761719 263.53125 60.417969 264.976562 60.242188 266.445312 C 58.925781 265.699219 58.140625 265.128906 57.097656 265.304688 C 56.53125 265.429688 56 265.6875 55.546875 266.050781 C 55.742188 264.519531 55.917969 263.339844 56.117188 260.527344 Z M 48.253906 264.851562 C 50.292969 262.910156 52.765625 261.480469 55.46875 260.6875 C 54.417969 265.324219 53.683594 270.023438 53.265625 274.757812 C 51.285156 271.621094 49.613281 268.296875 48.273438 264.832031 Z M 57.175781 281.382812 C 56.097656 279.59375 54.917969 277.609375 53.796875 275.664062 C 54.464844 272.851562 54.679688 271.554688 55.09375 268.902344 C 56.167969 270.765625 57.414062 272.53125 58.808594 274.167969 C 58.015625 276.507812 57.476562 278.925781 57.195312 281.382812 Z M 60.617188 287.042969 C 59.910156 285.921875 59.003906 284.40625 57.824219 282.460938 C 58.570312 279.996094 59.066406 277.460938 59.300781 274.894531 C 59.730469 275.9375 63.582031 274.445312 64.625 274.050781 C 63.859375 276.46875 61.1875 284.878906 60.636719 287.042969 Z M 60.027344 274.285156 C 58.808594 272.179688 57.730469 269.992188 56.804688 267.742188 L 57.414062 267.40625 C 57.6875 267.566406 64.410156 271.535156 64.902344 271.847656 C 63.367188 272.824219 61.742188 273.640625 60.046875 274.285156 Z M 65.921875 269.960938 C 64.449219 268.980469 62.445312 267.78125 60.910156 266.898438 C 61.4375 265.503906 61.777344 264.050781 61.933594 262.574219 L 67.515625 265.71875 C 67.417969 266.464844 66.75 267.996094 66.039062 269.960938 Z M 78.933594 277.824219 L 75.90625 275.996094 C 74.5625 275.464844 73.066406 275.464844 71.71875 275.996094 C 72.480469 273.699219 73.035156 271.335938 73.371094 268.941406 L 80.484375 272.871094 C 79.757812 274.472656 79.277344 276.175781 79.050781 277.921875 Z M 78.933594 277.824219 " fill-opacity="1" fill-rule="nonzero"/><path fill="#000000" d="M 372.734375 284.820312 C 369.550781 255.183594 342.113281 209.605469 325.722656 184.707031 C 334.875 185.4375 344.0625 185.667969 353.238281 185.394531 C 355.851562 185.394531 362.691406 184.921875 364.007812 184.664062 C 364.777344 184.507812 364.894531 183.78125 363.734375 183.742188 C 362.574219 183.703125 354.320312 183.308594 353.199219 183.289062 L 333.210938 183.289062 C 330.144531 183.40625 325.351562 183.683594 325.074219 183.683594 C 319.179688 174.703125 315.070312 169.082031 315.03125 169.0625 C 314.988281 169.015625 314.933594 168.980469 314.871094 168.957031 C 314.8125 168.933594 314.75 168.921875 314.683594 168.925781 C 314.621094 168.929688 314.554688 168.949219 314.5 168.976562 C 314.441406 169.007812 314.394531 169.050781 314.351562 169.101562 C 314.3125 169.152344 314.285156 169.210938 314.269531 169.273438 C 314.257812 169.335938 314.253906 169.402344 314.265625 169.464844 C 314.277344 169.527344 314.304688 169.585938 314.339844 169.640625 C 314.378906 169.691406 314.425781 169.734375 314.480469 169.769531 C 315.386719 170.496094 355.105469 228.53125 367.25 268.507812 C 372.066406 284.367188 374.917969 304.277344 359.390625 309.78125 C 322.519531 322.949219 33.75 327.234375 6.449219 311.746094 C 2.65625 309.605469 1.773438 305.140625 2.519531 299.128906 C 3.679688 290.777344 8.179688 279.476562 13.605469 266.816406 C 19.71875 272.714844 70.421875 319.273438 78.636719 317.523438 C 86.855469 315.773438 133.058594 294.3125 134.964844 290.207031 C 136.074219 287.351562 136.660156 284.324219 136.695312 281.261719 C 136.929688 280.941406 137.035156 280.550781 137 280.15625 C 136.964844 279.761719 136.785156 279.394531 136.5 279.121094 C 133.453125 276.09375 73.019531 228.179688 69.125 228.316406 C 66.414062 228.433594 61.5 231.226562 59.160156 232.601562 C 58.402344 231.359375 57.273438 230.390625 55.933594 229.824219 C 54.59375 229.261719 53.109375 229.132812 51.695312 229.457031 C 50.355469 229.996094 49.160156 230.832031 48.195312 231.902344 C 47.226562 232.96875 46.515625 234.242188 46.113281 235.628906 C 46.132812 235.734375 46.191406 235.828125 46.277344 235.898438 C 46.359375 235.964844 46.464844 236.003906 46.574219 236.003906 C 46.683594 236.003906 46.789062 235.964844 46.871094 235.898438 C 46.957031 235.828125 47.011719 235.734375 47.035156 235.628906 C 48.21875 233.628906 50.089844 232.132812 52.304688 231.421875 C 53.222656 231.28125 54.164062 231.402344 55.015625 231.777344 C 55.867188 232.148438 56.597656 232.753906 57.117188 233.523438 L 35.261719 242.859375 C 34.101562 241.667969 32.652344 240.792969 31.058594 240.324219 C 27.324219 239.34375 24.808594 241.800781 23.3125 245.394531 C 23.28125 245.5 23.285156 245.609375 23.324219 245.710938 C 23.363281 245.8125 23.4375 245.898438 23.53125 245.949219 C 23.628906 246.003906 23.738281 246.023438 23.84375 246.003906 C 23.953125 245.984375 24.046875 245.929688 24.121094 245.847656 C 26.636719 242.210938 29.542969 240.972656 33.023438 243.882812 C 28.816406 245.75 22.941406 248.402344 18.8125 250.445312 C 19.109375 249.976562 61.519531 173.167969 61.519531 172.972656 C 63.386719 169.511719 67.140625 163.320312 71.011719 162.515625 C 72.761719 162.136719 74.546875 161.9375 76.339844 161.925781 C 73.605469 166.445312 51.4375 203.199219 51.398438 208.386719 C 51.398438 214.285156 52.421875 213.359375 55.566406 214.285156 C 58.710938 215.207031 234.667969 214.125 234.984375 214.125 C 238.03125 214.125 249.941406 213.734375 251.039062 212.929688 C 254.460938 210.414062 253.691406 206.660156 252.199219 202.707031 C 251.847656 201.765625 250.058594 197.855469 247.660156 192.625 C 257.976562 189.519531 265.742188 193.472656 266.449219 210.3125 C 267.15625 224.878906 261.417969 229.320312 250.429688 228.691406 C 241.605469 228.179688 235.515625 225.585938 233.585938 229.023438 C 231.425781 232.855469 237.402344 241.464844 239.996094 245.042969 C 239.621094 245.042969 223.171875 244.707031 219.023438 244.53125 C 213.179688 244.304688 207.328125 244.375 201.492188 244.746094 C 197.472656 244.835938 193.480469 245.382812 189.582031 246.378906 C 188.109375 247.105469 186.203125 250.898438 185.398438 252.492188 C 183.804688 255.617188 176.554688 275.230469 174.546875 280.890625 C 173.367188 284.152344 169.378906 294.960938 172.050781 296.867188 C 171.953125 298.972656 172.289062 301.78125 174.136719 302.765625 C 175.984375 303.746094 201.375 304.453125 203.320312 304.492188 C 206.761719 304.59375 241.527344 305.042969 263.714844 304.0625 C 285.90625 303.078125 295.59375 300.957031 295.023438 301.015625 C 295.589844 300.847656 296.09375 300.53125 296.488281 300.09375 C 296.878906 299.65625 297.140625 299.117188 297.246094 298.539062 C 297.546875 297.085938 297.453125 295.578125 296.96875 294.175781 C 299.445312 289.359375 280.71875 249.386719 275.527344 246.574219 C 275.222656 246.402344 274.878906 246.308594 274.527344 246.300781 C 273.484375 246.300781 250.175781 245.316406 241.113281 245.023438 C 239.148438 242.25 232.761719 231.816406 235.21875 229.59375 C 238.953125 226.332031 270.144531 242.683594 268.472656 210.136719 C 267.609375 195.417969 260.828125 186.789062 247.070312 191.78125 C 245.871094 189.1875 235.808594 167.683594 233.117188 161.964844 C 243.546875 162.589844 254.011719 162.359375 264.40625 161.277344 C 264.554688 163.113281 265.082031 164.894531 265.953125 166.515625 C 266.828125 168.136719 268.027344 169.558594 269.476562 170.691406 C 277.335938 176.589844 308.625 175.703125 314.304688 168.492188 C 315.898438 166.3125 316.996094 163.820312 317.527344 161.175781 C 318.0625 158.53125 318.015625 155.804688 317.390625 153.179688 C 317.914062 152.847656 318.316406 152.359375 318.550781 151.785156 C 318.863281 151.175781 318.550781 150.410156 317.195312 150.132812 C 315.445312 149.871094 313.675781 149.765625 311.90625 149.820312 C 311.90625 148.207031 312.003906 145.203125 311.90625 141.78125 C 312.085938 141.664062 313.363281 140.132812 313.5 139.953125 C 315.066406 138.125 316.300781 136.035156 317.15625 133.78125 C 317.804688 131.953125 318.058594 129.851562 316.347656 128.832031 C 313.714844 127.394531 311.867188 130.027344 310.984375 132.976562 C 310.15625 128.4375 308.25 121.773438 303.691406 122.441406 C 295.949219 123.621094 301.292969 142.390625 303.808594 149.820312 C 301.601562 149.507812 299.359375 149.507812 297.148438 149.820312 C 299.605469 143.648438 300.863281 135.667969 294.554688 134.46875 C 293.597656 134.257812 292.597656 134.332031 291.683594 134.683594 C 290.769531 135.03125 289.976562 135.640625 289.402344 136.4375 C 289.277344 135.992188 289.039062 135.585938 288.714844 135.257812 C 288.390625 134.929688 287.984375 134.6875 287.542969 134.558594 C 287.097656 134.429688 286.628906 134.414062 286.175781 134.515625 C 285.726562 134.617188 285.308594 134.832031 284.960938 135.140625 C 282.074219 137.222656 283.722656 141.996094 287.085938 143.570312 C 286.90625 145.589844 286.90625 147.621094 287.085938 149.644531 C 284.992188 149.390625 282.875 149.4375 280.796875 149.78125 C 280.679688 144.984375 280.152344 140.203125 279.222656 135.492188 C 280.417969 134.644531 281.421875 133.554688 282.171875 132.296875 C 282.925781 131.039062 283.40625 129.636719 283.585938 128.179688 C 283.863281 125.566406 282.9375 123.386719 280.757812 122.816406 C 278.023438 122.109375 276.414062 124.015625 275.941406 126.746094 C 273.523438 123.40625 268.789062 122.207031 266.488281 126.039062 C 259.117188 118.375 255.558594 122.660156 257.425781 126.039062 C 258.824219 128.632812 262.457031 130.085938 265.289062 130.894531 C 265.289062 135.296875 267.253906 139.011719 269.691406 142.804688 C 271.324219 145.359375 273.148438 147.816406 274.566406 149.625 C 271.507812 149.523438 268.445312 149.722656 265.425781 150.214844 C 263.578125 150.703125 263.285156 152.039062 264.992188 153.003906 C 264.453125 155.308594 264.253906 157.679688 264.40625 160.039062 C 253.847656 159.476562 243.261719 159.726562 232.742188 160.785156 C 232.074219 159.351562 230.089844 155.164062 229.851562 154.675781 C 229.617188 154.183594 231.503906 148.484375 234.15625 95.496094 C 246.34375 94.476562 301.136719 95.695312 306.167969 93.75 C 306.457031 93.644531 306.710938 93.464844 306.910156 93.230469 C 307.105469 92.996094 307.238281 92.714844 307.289062 92.410156 C 308.960938 86.929688 310.097656 39.800781 307.289062 35.417969 C 306.601562 34.335938 304.144531 34 302.789062 33.804688 C 285.277344 31.25 212.203125 32.351562 208.449219 34.335938 C 204.695312 36.320312 206.289062 55.699219 206.996094 59.550781 C 169.046875 58.332031 81.410156 60.710938 73.15625 63.796875 C 71.191406 64.503906 70.460938 67.195312 70.070312 69.21875 C 66.808594 86.0625 75.964844 140.269531 79.03125 157.011719 C 78.835938 157.011719 79.03125 157.011719 76.632812 160.746094 C 74.605469 160.597656 72.5625 160.703125 70.5625 161.0625 C 66.078125 161.75 61.953125 167.941406 59.671875 171.792969 C 59.574219 171.988281 53.777344 181.621094 52.910156 183.191406 C 47.980469 182.425781 25.042969 182.71875 22.132812 182.878906 C 19.226562 183.035156 16.238281 183.25 13.605469 183.449219 C 13.132812 183.449219 13.09375 184.351562 13.605469 184.371094 C 19.109375 184.707031 21.132812 184.824219 25.398438 184.882812 C 35.832031 185.039062 51.222656 185.472656 51.714844 185.414062 C 50.691406 187.203125 35.558594 214.125 33.535156 217.941406 C 24.730469 234.449219 17.8125 249.5625 17.398438 250.839844 C 15.113281 251.878906 12.96875 253.199219 11.011719 254.769531 C 10.378906 256.5 10.003906 258.316406 9.890625 260.15625 C 9.792969 263.320312 10.933594 264.085938 12.679688 265.855469 C 7.988281 275.910156 4.128906 286.335938 1.144531 297.027344 C 0.171875 301.351562 0.128906 305.832031 1.027344 310.175781 C 1.828125 314.511719 3.328125 318.695312 5.46875 322.554688 C 6.429688 323.53125 7.675781 324.179688 9.027344 324.402344 C 14.195312 325.859375 30.210938 327.722656 35.578125 328.332031 C 35.171875 330.734375 35.0625 333.175781 35.242188 335.605469 C 35.25 338.109375 35.613281 340.597656 36.324219 342.996094 C 36.332031 343.054688 36.347656 343.113281 36.378906 343.164062 C 36.40625 343.214844 36.445312 343.261719 36.492188 343.300781 C 36.539062 343.339844 36.589844 343.367188 36.648438 343.382812 C 36.707031 343.398438 36.765625 343.40625 36.824219 343.398438 C 36.886719 343.390625 36.941406 343.375 36.996094 343.34375 C 37.046875 343.316406 37.09375 343.277344 37.132812 343.230469 C 37.167969 343.183594 37.195312 343.132812 37.214844 343.074219 C 37.230469 343.015625 37.234375 342.957031 37.226562 342.898438 C 37.542969 340.445312 37.628906 337.972656 37.484375 335.507812 C 37.472656 333.132812 37.199219 330.769531 36.679688 328.453125 C 39.390625 328.6875 42.003906 328.882812 44.285156 328.960938 C 43.921875 331.257812 43.824219 333.585938 43.988281 335.902344 C 43.996094 338.402344 44.359375 340.890625 45.070312 343.289062 C 45.070312 343.410156 45.117188 343.523438 45.203125 343.609375 C 45.289062 343.695312 45.402344 343.742188 45.523438 343.742188 C 45.640625 343.742188 45.757812 343.695312 45.84375 343.609375 C 45.925781 343.523438 45.972656 343.410156 45.972656 343.289062 C 46.300781 340.839844 46.390625 338.367188 46.25 335.902344 C 46.234375 333.605469 45.972656 331.316406 45.464844 329.082031 C 49.847656 329.179688 114.347656 334.976562 225.746094 332.777344 C 255.601562 332.1875 291.488281 330.808594 321.046875 327.566406 C 320.65625 329.9375 320.542969 332.34375 320.710938 334.742188 C 320.722656 337.238281 321.09375 339.71875 321.8125 342.109375 C 321.800781 342.175781 321.800781 342.246094 321.816406 342.308594 C 321.832031 342.375 321.859375 342.4375 321.902344 342.488281 C 321.945312 342.542969 322 342.582031 322.058594 342.613281 C 322.121094 342.640625 322.1875 342.65625 322.253906 342.65625 C 322.320312 342.65625 322.386719 342.640625 322.449219 342.613281 C 322.511719 342.582031 322.5625 342.542969 322.605469 342.488281 C 322.648438 342.4375 322.679688 342.375 322.695312 342.308594 C 322.710938 342.246094 322.710938 342.175781 322.695312 342.109375 C 323.039062 339.664062 323.132812 337.1875 322.972656 334.722656 C 322.949219 332.292969 322.667969 329.875 322.128906 327.507812 C 324.308594 327.273438 329.359375 326.644531 329.792969 326.585938 C 329.40625 328.941406 329.300781 331.335938 329.476562 333.71875 C 329.480469 336.222656 329.84375 338.710938 330.558594 341.109375 C 330.570312 341.226562 330.632812 341.339844 330.726562 341.414062 C 330.820312 341.488281 330.941406 341.523438 331.058594 341.511719 C 331.179688 341.5 331.289062 341.4375 331.367188 341.34375 C 331.441406 341.25 331.476562 341.128906 331.460938 341.011719 C 331.785156 338.566406 331.871094 336.097656 331.71875 333.640625 C 331.707031 331.21875 331.421875 328.804688 330.871094 326.445312 C 339.738281 325.25 366.839844 321.59375 370.535156 314.027344 C 374.898438 305.398438 374.542969 294.175781 372.734375 284.820312 Z M 193.886719 253.179688 C 194.105469 252.648438 200.6875 251.214844 207.878906 253.179688 C 207.945312 253.164062 208.015625 253.164062 208.082031 253.179688 C 208.144531 253.195312 208.207031 253.226562 208.257812 253.269531 C 208.3125 253.3125 208.351562 253.363281 208.382812 253.425781 C 208.410156 253.488281 208.425781 253.554688 208.425781 253.621094 C 208.425781 253.6875 208.410156 253.753906 208.382812 253.816406 C 208.351562 253.875 208.3125 253.929688 208.257812 253.972656 C 208.207031 254.015625 208.144531 254.042969 208.082031 254.058594 C 208.015625 254.074219 207.945312 254.078125 207.878906 254.0625 C 204.300781 254.699219 200.640625 254.792969 197.03125 254.339844 C 195.339844 254.0625 193.199219 254.042969 193.828125 253.179688 Z M 294.925781 299.914062 C 276.746094 303.375 176.316406 302.585938 174.804688 301.878906 C 173.289062 301.171875 173.152344 298.894531 173.113281 297.398438 C 184 300.9375 290.386719 298.203125 296.300781 295.078125 C 296.617188 296.808594 296.695312 299.582031 294.867188 299.914062 Z M 256.777344 253.394531 C 256.777344 252.726562 261.101562 252.351562 261.300781 252.332031 C 263.871094 252.136719 266.453125 252.136719 269.023438 252.332031 C 270.457031 252.492188 272.441406 252.6875 272.285156 253.296875 C 272.128906 253.90625 269.160156 254.160156 268.648438 254.238281 C 266.730469 254.417969 264.800781 254.496094 262.871094 254.476562 C 261.574219 254.4375 256.640625 254.199219 256.71875 253.394531 Z M 282.035156 259.9375 C 286.949219 269.308594 291.078125 279.070312 294.375 289.125 C 294.792969 290.394531 295.027344 291.71875 295.0625 293.054688 C 286.199219 295.808594 184.039062 298.636719 173.703125 295.667969 C 173.210938 295.53125 173.074219 295.667969 172.957031 294.84375 C 172.210938 289.5 180.957031 268.253906 182.980469 263.300781 C 220.164062 262.0625 281.640625 260.15625 281.976562 259.9375 Z M 265.484375 130.007812 C 263.335938 128.828125 261.386719 127.316406 259.707031 125.527344 C 258.941406 124.367188 259.117188 123.5625 261.378906 124.664062 C 262.792969 125.3125 264.777344 126.472656 266.113281 127.277344 C 265.769531 128.152344 265.558594 129.074219 265.484375 130.007812 Z M 312.652344 133.527344 C 314.226562 130.695312 315.777344 129.890625 315.621094 131.5625 C 314.777344 134.550781 313.574219 137.429688 312.042969 140.132812 C 311.925781 138.164062 311.789062 136.847656 311.632812 135.550781 C 311.710938 135.277344 312.105469 134.449219 312.59375 133.527344 Z M 304.300781 150.625 C 304.695312 151.746094 304.949219 152.414062 304.96875 152.453125 C 304.992188 152.507812 305.023438 152.558594 305.066406 152.601562 C 305.105469 152.644531 305.15625 152.679688 305.210938 152.703125 C 305.265625 152.726562 305.324219 152.742188 305.382812 152.742188 C 305.445312 152.742188 305.503906 152.730469 305.558594 152.710938 C 306.425781 152.375 305.144531 151.570312 303.101562 139.71875 C 302.492188 136.179688 300.683594 125.273438 304.261719 124.761719 C 307.171875 124.328125 308.742188 131.542969 309.292969 134.390625 C 310.3125 139.886719 310.96875 145.4375 311.257812 151.019531 C 311.257812 151.128906 311.296875 151.234375 311.367188 151.316406 C 311.4375 151.398438 311.535156 151.453125 311.640625 151.472656 C 311.75 151.488281 311.859375 151.464844 311.949219 151.40625 C 312.042969 151.351562 312.113281 151.261719 312.144531 151.15625 C 312.148438 151.046875 312.148438 150.933594 312.144531 150.824219 C 313.917969 150.875 315.6875 151.117188 317.410156 151.550781 C 317.191406 151.804688 316.914062 152.007812 316.605469 152.140625 C 312.476562 154.261719 299.996094 153.847656 295.691406 153.769531 C 296.28125 152.589844 296.695312 151.6875 297.148438 150.605469 C 299.496094 150.992188 301.890625 151 304.242188 150.625 Z M 288.972656 146.320312 C 289.421875 142.390625 290.425781 136.121094 294.394531 136.867188 C 298.367188 137.617188 297.363281 143.375 296.5 147.226562 C 295.964844 149.4375 295.308594 151.613281 294.535156 153.75 L 288.636719 153.75 C 288.589844 151.273438 288.683594 148.792969 288.914062 146.320312 Z M 286.476562 137.085938 C 286.566406 136.996094 286.675781 136.929688 286.792969 136.886719 C 286.914062 136.847656 287.039062 136.828125 287.164062 136.835938 C 287.292969 136.847656 287.414062 136.882812 287.523438 136.941406 C 287.636719 137 287.734375 137.082031 287.8125 137.183594 C 288.125 137.496094 288.40625 137.839844 288.65625 138.203125 C 288.097656 139.457031 287.707031 140.78125 287.496094 142.136719 C 286.476562 140.71875 285.160156 138.144531 286.476562 137.085938 Z M 280.285156 125.136719 C 282.839844 125.941406 280.835938 132.664062 279.125 134.707031 C 278.652344 132.589844 277.945312 130.535156 277.023438 128.574219 C 277.59375 126.84375 278.554688 124.585938 280.285156 125.117188 Z M 275.449219 150.84375 C 276.414062 152.0625 277.042969 152.808594 277.042969 152.808594 C 277.121094 152.882812 277.222656 152.929688 277.332031 152.9375 C 277.441406 152.941406 277.550781 152.910156 277.636719 152.84375 C 277.722656 152.773438 277.78125 152.679688 277.804688 152.570312 C 277.824219 152.464844 277.804688 152.351562 277.75 152.257812 C 277.75 152.257812 274.269531 147.304688 271.402344 142.175781 C 269.238281 138.246094 267.175781 134.3125 267.746094 129.96875 C 268.199219 126.550781 270.003906 125.097656 273.050781 127.082031 C 277.453125 129.910156 279.460938 147.363281 280.089844 152.628906 C 280.09375 152.769531 280.144531 152.902344 280.226562 153.011719 C 280.3125 153.117188 280.429688 153.199219 280.558594 153.238281 C 281.089844 153.238281 281.011719 152.671875 280.992188 152.394531 C 280.972656 152.121094 280.992188 150.742188 280.992188 150.605469 C 283.082031 150.871094 285.191406 150.871094 287.28125 150.605469 C 287.398438 152.039062 287.535156 153.160156 287.636719 153.75 C 280.65625 153.75 272.226562 154.222656 266.449219 151.960938 C 269.417969 151.375 272.425781 151 275.449219 150.84375 Z M 266.035156 153.730469 C 268.910156 154.84375 271.941406 155.507812 275.015625 155.695312 C 278.496094 156.011719 302.179688 156.050781 304.871094 155.914062 C 308.933594 155.847656 312.949219 155.09375 316.761719 153.691406 C 317.128906 156.105469 316.988281 158.566406 316.355469 160.925781 C 315.726562 163.28125 314.609375 165.484375 313.085938 167.390625 C 308.3125 172.992188 278.101562 174.269531 270.851562 169.160156 C 266.074219 165.878906 265.210938 159.3125 266.035156 153.710938 Z M 250.195312 211.433594 C 250.609375 212.75 63.210938 212.808594 63.015625 212.789062 C 55.152344 212.789062 57.117188 212.789062 54.484375 212.140625 C 53.777344 211.984375 53.640625 211.984375 53.5 211.296875 C 53.335938 210.21875 53.289062 209.121094 53.363281 208.035156 C 53.40625 208.113281 53.472656 208.179688 53.554688 208.21875 C 53.636719 208.257812 53.726562 208.269531 53.816406 208.25 C 53.816406 208.25 250.136719 205.578125 251.414062 205.539062 C 251.945312 207.835938 252.023438 209.980469 250.195312 211.433594 Z M 305.480469 92.15625 C 305.480469 92.15625 305.597656 91.960938 305.636719 92.019531 C 305.675781 92.078125 305.480469 92.136719 305.382812 92.15625 Z M 207.742188 42.589844 C 207.742188 41.3125 208.253906 36.476562 209.394531 35.886719 C 211.988281 34.589844 294.433594 33.492188 305.695312 37.007812 C 307.660156 41.136719 307.03125 87.5 305.382812 92.15625 C 295.710938 93.667969 247.050781 93.550781 234.394531 94.847656 C 235.160156 79.382812 235.492188 66.351562 234.863281 63.816406 C 234.746094 63.484375 234.546875 63.1875 234.292969 62.945312 C 234.035156 62.703125 233.726562 62.523438 233.390625 62.421875 C 229.085938 60.554688 212.890625 60.023438 208.175781 59.867188 C 207.5625 54.128906 207.417969 48.351562 207.742188 42.589844 Z M 71.839844 92.078125 C 71.542969 87.949219 70.089844 67.117188 74.019531 65.664062 C 75.984375 64.976562 82.902344 64.289062 92.945312 63.699219 C 112.1875 62.5 142.511719 61.535156 170.105469 61.339844 C 176.238281 61.339844 228.046875 60.886719 233.117188 64.367188 C 234.609375 71.167969 229.832031 146.714844 228.773438 154.007812 C 182.332031 155.519531 127.300781 157.800781 80.464844 156.660156 C 79.679688 152.160156 73.667969 117.429688 71.839844 92.078125 Z M 79.855469 157.976562 C 79.859375 157.929688 79.859375 157.886719 79.855469 157.839844 C 112.972656 158.859375 216.605469 155.460938 229.222656 155.382812 C 230.621094 158.625 250.214844 202.097656 251.039062 204.515625 C 250.824219 204.515625 53.660156 207.1875 53.402344 207.386719 C 55.878906 199.089844 76.359375 164.03125 79.855469 157.976562 Z M 133.886719 289.65625 C 132.429688 292.484375 88.367188 312.179688 79.308594 314.910156 C 79.484375 314.003906 79.546875 313.082031 79.503906 312.160156 C 92.886719 307.519531 121.9375 295.277344 134.964844 286.609375 C 134.71875 287.667969 134.355469 288.695312 133.886719 289.675781 Z M 135.242188 285.3125 C 131.308594 287.632812 127.554688 289.242188 79.484375 311.097656 C 79.484375 310.207031 79.367188 309.320312 79.128906 308.464844 C 85.417969 305.515625 128.066406 288.988281 135.671875 282.402344 C 135.574219 283.25 135.4375 284.269531 135.242188 285.332031 Z M 34.003906 244.984375 C 34.949219 246.097656 35.535156 247.46875 35.683594 248.921875 C 35.832031 250.375 35.53125 251.839844 34.832031 253.121094 C 34.515625 253.609375 35.261719 254.121094 35.578125 253.609375 C 36.765625 252.316406 37.464844 250.652344 37.5625 248.902344 C 37.660156 247.148438 37.144531 245.417969 36.109375 244 C 45.660156 239.617188 55.054688 235.488281 57.628906 234.371094 C 58.273438 235.679688 58.617188 237.113281 58.636719 238.570312 C 58.660156 240.03125 58.355469 241.476562 57.746094 242.800781 C 57.511719 243.429688 58.21875 243.667969 58.550781 243.253906 C 59.632812 241.878906 60.304688 240.230469 60.492188 238.492188 C 60.683594 236.753906 60.375 235 59.613281 233.425781 C 61.738281 232.226562 66.6875 229.496094 69.105469 229.496094 C 72.132812 229.496094 133.550781 279.457031 134.691406 280.59375 C 129.5625 285.882812 81.941406 304.730469 77.929688 306.65625 C 69.480469 304.691406 17.910156 260.332031 13.074219 255.773438 C 16.082031 253.277344 30.625 246.554688 34.003906 244.984375 Z M 11.582031 256.675781 C 17.710938 262.671875 68.871094 307.324219 77.441406 308.738281 C 77.269531 309.480469 77.1875 310.238281 77.203125 311 C 63.445312 304.277344 24.140625 270.238281 11.128906 259.289062 C 11.1875 259.289062 11.480469 257.363281 11.640625 256.675781 Z M 11.875 263.417969 C 11.320312 262.574219 11.046875 261.578125 11.089844 260.566406 C 23.941406 273.539062 60.222656 305.4375 77.183594 312.082031 C 77.148438 313.128906 77.253906 314.183594 77.5 315.207031 C 67.417969 312.945312 13.210938 265.03125 11.933594 263.417969 Z M 369.570312 313.378906 C 356.875 338.574219 12.347656 331.988281 6.765625 322.164062 C 4.398438 318.050781 2.800781 313.542969 2.046875 308.855469 C 2.808594 310.519531 4.074219 311.894531 5.664062 312.789062 C 34.59375 329.632812 322.421875 325.226562 360 311.726562 C 367.960938 308.855469 371.96875 302.667969 372.871094 294.039062 C 373.40625 300.664062 372.257812 307.316406 369.53125 313.378906 Z M 369.570312 313.378906 " fill-opacity="1" fill-rule="nonzero"/><path fill="#000000" d="M 75.277344 179.714844 C 214.25 181.679688 227.515625 180.480469 231.40625 179.871094 C 232.328125 179.734375 232.917969 179.417969 232.878906 178.335938 C 232.878906 175.488281 226.199219 162.417969 224.429688 161.515625 C 223.644531 161.101562 82.921875 163.085938 82.433594 163.242188 C 82.339844 163.265625 82.253906 163.304688 82.179688 163.363281 C 82.105469 163.421875 82.042969 163.496094 82 163.578125 C 80.664062 165.757812 74.136719 176.53125 74.433594 178.964844 C 74.464844 179.167969 74.566406 179.355469 74.722656 179.492188 C 74.875 179.628906 75.070312 179.707031 75.277344 179.714844 Z M 83 164.601562 C 84.417969 164.421875 222.855469 163.046875 223.703125 163.125 C 225.167969 165.238281 226.484375 167.449219 227.632812 169.75 C 224.410156 169.75 80.347656 170.515625 79.601562 170.535156 C 80.464844 168.804688 81.605469 166.839844 83 164.601562 Z M 79.070312 171.476562 C 79.835938 171.476562 225.609375 170.730469 228.105469 170.671875 C 229.398438 173.082031 230.417969 175.625 231.152344 178.257812 C 224.152344 179.378906 160.398438 178.828125 75.984375 178.257812 C 76.773438 175.878906 77.792969 173.582031 79.03125 171.398438 Z M 183.746094 186.394531 C 183.355469 185.527344 182.714844 184.796875 181.90625 184.292969 C 181.097656 183.789062 180.160156 183.535156 179.207031 183.566406 C 174.214844 183.566406 132.292969 182.40625 128.519531 183.9375 C 126.109375 186.855469 124.246094 190.1875 123.015625 193.765625 C 122.898438 194.628906 123.332031 195.023438 123.863281 195.082031 C 135.652344 196.359375 174.746094 197.578125 184.886719 195.710938 C 186.144531 195.476562 186.300781 194.140625 186.046875 192.863281 C 185.4375 190.652344 184.667969 188.492188 183.746094 186.394531 Z M 124.410156 193.765625 C 125.542969 190.578125 127.074219 187.546875 128.972656 184.746094 C 131.957031 183.761719 170.8125 185.804688 179.265625 185.785156 C 179.769531 185.769531 180.265625 185.894531 180.699219 186.152344 C 181.128906 186.414062 181.480469 186.789062 181.703125 187.242188 C 182.65625 189.28125 183.402344 191.414062 183.921875 193.609375 C 173.957031 195.160156 131.644531 194.277344 124.410156 193.765625 Z M 320.242188 188.910156 C 317.46875 185.097656 303.574219 185.273438 298.917969 185.414062 C 294.984375 185.414062 280.699219 186.0625 280.699219 189.914062 C 280.714844 190.226562 280.804688 190.527344 280.960938 190.800781 C 281.117188 191.070312 281.339844 191.296875 281.601562 191.464844 C 281.976562 191.761719 279.398438 217.664062 282.9375 231.558594 C 284.097656 236.160156 285.589844 238.4375 289.972656 240.34375 C 298.386719 244 312.339844 243.195312 317.941406 235.390625 C 319.0625 233.113281 318.824219 226.46875 318.921875 224.445312 C 327.628906 226.175781 334.765625 222.636719 336.613281 213.261719 C 337.769531 207.226562 336.277344 203.277344 333.703125 200.878906 C 331.984375 199.480469 329.949219 198.515625 327.777344 198.070312 C 325.605469 197.625 323.355469 197.714844 321.222656 198.324219 C 321.148438 198.351562 321.070312 198.359375 320.992188 198.347656 C 320.914062 198.332031 320.839844 198.304688 320.777344 198.257812 C 320.714844 198.210938 320.660156 198.148438 320.625 198.078125 C 320.589844 198.011719 320.574219 197.933594 320.574219 197.855469 C 320.574219 196.8125 320.949219 189.757812 320.242188 188.910156 Z M 282.898438 189.324219 C 288.203125 186.21875 309.824219 185.984375 316.800781 189.148438 C 317.035156 189.265625 317.921875 189.71875 317.921875 189.914062 C 317.921875 190.109375 317.015625 190.582031 316.800781 190.679688 C 311.535156 193.058594 292.726562 194.140625 282.839844 190.523438 C 282.152344 190.148438 282.839844 189.402344 282.839844 189.324219 Z M 321.773438 200.328125 C 323.558594 199.816406 325.445312 199.742188 327.265625 200.113281 C 329.085938 200.488281 330.789062 201.296875 332.230469 202.472656 C 334.351562 204.4375 335.414062 207.816406 334.429688 212.828125 C 334.234375 214.570312 333.632812 216.242188 332.667969 217.707031 C 331.707031 219.171875 330.410156 220.390625 328.886719 221.261719 C 325.664062 222.710938 322.035156 222.988281 318.628906 222.046875 C 318.460938 221.984375 318.28125 221.960938 318.105469 221.972656 C 317.929688 221.984375 317.753906 222.03125 317.59375 222.113281 C 317.4375 222.191406 317.296875 222.304688 317.183594 222.441406 C 317.070312 222.582031 316.988281 222.742188 316.9375 222.910156 C 316.40625 224.40625 317.15625 230.4375 316.074219 234.253906 C 311.101562 240.992188 298.386719 241.601562 290.859375 238.4375 C 287.046875 236.808594 285.984375 235.117188 284.960938 231.046875 C 282.328125 221.398438 282.171875 201.746094 282.761719 192.074219 C 288.953125 195.003906 310.394531 195.847656 318.824219 191.523438 C 318.824219 197.617188 318.078125 198.640625 319.613281 199.878906 C 319.910156 200.101562 320.25 200.257812 320.613281 200.335938 C 320.976562 200.414062 321.351562 200.410156 321.714844 200.328125 Z M 130.859375 241.976562 C 125.695312 237.597656 120.144531 233.703125 114.269531 230.339844 C 112.007812 229.003906 109.601562 227.929688 107.097656 227.136719 C 104.996094 226.585938 104.109375 227.667969 104.542969 229.101562 C 105.429688 231.164062 106.597656 233.085938 108.019531 234.820312 C 112.542969 240.546875 117.742188 245.699219 123.507812 250.171875 C 132.273438 257.503906 143.632812 266.386719 151.925781 272.695312 C 152.347656 273.003906 152.828125 273.222656 153.339844 273.34375 C 153.847656 273.464844 154.375 273.484375 154.894531 273.398438 C 155.410156 273.3125 155.902344 273.125 156.34375 272.84375 C 156.789062 272.566406 157.167969 272.199219 157.46875 271.769531 C 158.921875 270.179688 159.828125 267.386719 158.195312 265.875 C 156.308594 264.183594 144.773438 253.316406 130.859375 241.976562 Z M 112.03125 237.613281 L 109.335938 233.269531 C 110.296875 232.871094 111.105469 232.183594 111.65625 231.304688 L 115.921875 233.035156 C 114.851562 233.246094 113.882812 233.8125 113.179688 234.644531 C 112.472656 235.476562 112.066406 236.523438 112.03125 237.613281 Z M 118.0625 242.625 C 116.644531 241.429688 115.328125 240.113281 114.132812 238.695312 C 114.269531 236.316406 115.015625 235.253906 117.394531 235.175781 C 118.980469 235.933594 120.476562 236.863281 121.855469 237.945312 C 120.800781 238.203125 119.855469 238.800781 119.171875 239.644531 C 118.488281 240.492188 118.097656 241.539062 118.0625 242.625 Z M 151.671875 271.21875 C 149.488281 269.394531 120.480469 244.785156 118.691406 243.214844 C 118.84375 242.113281 119.324219 241.085938 120.070312 240.265625 C 120.816406 239.441406 121.796875 238.867188 122.878906 238.613281 C 129.660156 243.644531 139.40625 251.980469 156.40625 266.128906 C 155.746094 266.097656 155.085938 266.207031 154.472656 266.457031 C 153.855469 266.707031 153.304688 267.085938 152.855469 267.570312 C 152.402344 268.054688 152.0625 268.636719 151.859375 269.265625 C 151.652344 269.894531 151.589844 270.5625 151.671875 271.21875 Z M 307.40625 292.996094 C 309.863281 294.667969 311.574219 293.902344 313.164062 291.582031 C 317.097656 286 330.851562 261.296875 330.851562 261.097656 C 330.851562 260.902344 331.011719 261.277344 330.363281 253.335938 C 330.332031 253.035156 330.226562 252.75 330.050781 252.507812 C 329.875 252.265625 329.636719 252.074219 329.359375 251.957031 C 329.085938 251.839844 328.78125 251.796875 328.484375 251.835938 C 328.1875 251.875 327.90625 251.992188 327.667969 252.175781 L 320.949219 257.070312 C 320.949219 257.070312 306.03125 287.90625 305.875 288.179688 C 305.601562 289.042969 305.605469 289.96875 305.878906 290.832031 C 306.15625 291.691406 306.6875 292.449219 307.40625 292.996094 Z M 328.21875 254.574219 C 328.335938 256.007812 328.496094 257.914062 328.613281 259.230469 C 327.152344 258.53125 325.625 257.988281 324.054688 257.601562 Z M 322.597656 258.9375 C 324.300781 260.144531 326.269531 260.925781 328.335938 261.214844 C 328.042969 261.726562 313.027344 289.125 312.871094 289.398438 C 312.414062 288.472656 311.664062 287.71875 310.734375 287.261719 C 309.808594 286.804688 308.753906 286.664062 307.742188 286.863281 C 309.273438 284.015625 322.046875 259.917969 322.597656 258.9375 Z M 322.597656 258.9375 " fill-opacity="1" fill-rule="nonzero"/><path fill="#000000" d="M 313.558594 219.964844 C 313.347656 219.667969 313.078125 219.414062 312.765625 219.222656 C 312.457031 219.03125 312.109375 218.902344 311.75 218.84375 C 310.585938 218.53125 309.40625 218.296875 308.210938 218.136719 C 308.878906 222.8125 309.273438 227.960938 309.253906 228.414062 C 309.222656 228.714844 309.078125 228.988281 308.84375 229.179688 C 308.613281 229.371094 308.316406 229.464844 308.015625 229.4375 C 307.714844 229.402344 307.441406 229.25 307.25 229.015625 C 307.058594 228.78125 306.964844 228.480469 306.992188 228.179688 C 306.992188 227.84375 306.875 226.488281 306.777344 217.941406 C 302.847656 217.449219 283.921875 215.972656 284.667969 219.746094 C 284.667969 219.945312 283.113281 229.574219 289.128906 234.191406 C 295.144531 238.8125 307.171875 237.90625 311.375 233.210938 C 312.570312 231.78125 313.359375 230.054688 313.65625 228.21875 C 314.121094 225.484375 314.085938 222.6875 313.558594 219.964844 Z M 318.273438 202.175781 C 318.273438 203.0625 317.097656 209.824219 316.308594 218.902344 L 317.253906 219.097656 C 320.710938 219.832031 324.3125 219.441406 327.53125 217.980469 C 328.652344 217.355469 329.582031 216.433594 330.21875 215.320312 C 330.851562 214.203125 331.167969 212.933594 331.128906 211.648438 C 331.261719 210.054688 330.984375 208.453125 330.324219 206.996094 C 329.660156 205.539062 328.636719 204.273438 327.347656 203.324219 C 326.058594 202.371094 324.546875 201.769531 322.960938 201.570312 C 321.371094 201.367188 319.757812 201.578125 318.273438 202.175781 Z M 319.160156 202.84375 C 320.414062 202.648438 321.695312 202.71875 322.921875 203.058594 C 324.144531 203.398438 325.28125 203.996094 326.253906 204.8125 C 327.1875 205.667969 327.914062 206.730469 328.367188 207.914062 C 328.824219 209.09375 329.003906 210.367188 328.886719 211.628906 C 328.710938 216.683594 323.523438 217.644531 318.550781 217.132812 C 318.785156 213.558594 318.984375 209.449219 319.160156 202.84375 Z M 128.933594 184.746094 C 128.933594 184.746094 128.953125 184.765625 128.933594 184.746094 Z M 298.109375 87.480469 C 298.105469 87.828125 298.167969 88.175781 298.300781 88.5 C 298.429688 88.828125 298.621094 89.125 298.867188 89.375 C 299.113281 89.625 299.402344 89.824219 299.726562 89.960938 C 300.046875 90.097656 300.394531 90.167969 300.742188 90.171875 C 301.277344 90.183594 301.804688 90.035156 302.253906 89.746094 C 302.707031 89.457031 303.058594 89.042969 303.273438 88.550781 C 303.484375 88.058594 303.546875 87.515625 303.449219 86.992188 C 303.355469 86.464844 303.101562 85.980469 302.726562 85.597656 C 302.355469 85.214844 301.875 84.953125 301.351562 84.84375 C 300.828125 84.734375 300.28125 84.785156 299.785156 84.984375 C 299.292969 85.1875 298.867188 85.53125 298.570312 85.976562 C 298.269531 86.421875 298.109375 86.945312 298.109375 87.480469 Z M 83 152.316406 C 83.453125 153.199219 84.042969 153.300781 84.417969 153.023438 C 84.789062 152.75 209.257812 151.667969 218.511719 151.175781 C 220.503906 151.207031 222.488281 150.957031 224.410156 150.429688 C 228.832031 146.5 230.5625 73.015625 228.832031 69.613281 C 224.410156 60.789062 86.007812 66.46875 77.5 69.042969 C 70.71875 71.085938 79.875 146.046875 83 152.316406 Z M 77.125 72.226562 C 77.125 71.875 77.558594 70.5 77.890625 70.398438 C 87.304688 67.570312 223.996094 62.910156 227.710938 70.300781 C 228.027344 71.78125 228.171875 73.289062 228.144531 74.800781 C 228.476562 83.371094 228.144531 101.726562 227.257812 118.179688 C 227.082031 121.324219 225.6875 147.089844 223.644531 149.425781 C 215.488281 151.15625 89.800781 151.550781 84.21875 151.765625 C 81.035156 144.375 74.15625 85.199219 77.125 72.226562 Z M 301 44.144531 C 301.53125 44.15625 302.058594 44.007812 302.507812 43.71875 C 302.960938 43.429688 303.3125 43.015625 303.527344 42.527344 C 303.738281 42.035156 303.804688 41.496094 303.707031 40.96875 C 303.613281 40.445312 303.363281 39.957031 302.992188 39.574219 C 302.617188 39.191406 302.140625 38.929688 301.617188 38.816406 C 301.09375 38.707031 300.550781 38.753906 300.054688 38.953125 C 299.558594 39.152344 299.132812 39.492188 298.832031 39.933594 C 298.53125 40.375 298.371094 40.894531 298.367188 41.429688 C 298.359375 41.78125 298.421875 42.132812 298.546875 42.460938 C 298.675781 42.785156 298.871094 43.085938 299.113281 43.335938 C 299.359375 43.589844 299.652344 43.792969 299.976562 43.929688 C 300.300781 44.066406 300.648438 44.140625 301 44.144531 Z M 301 44.144531 " fill-opacity="1" fill-rule="nonzero"/><path fill="#000000" d="M 115.585938 121.753906 L 138.9375 121.753906 C 141.636719 121.746094 144.226562 120.664062 146.128906 118.746094 C 148.035156 116.832031 149.101562 114.238281 149.097656 111.535156 L 149.097656 92.589844 C 149.097656 89.882812 148.03125 87.28125 146.128906 85.355469 C 144.226562 83.425781 141.644531 82.328125 138.9375 82.289062 L 115.585938 82.289062 C 114.234375 82.285156 112.890625 82.546875 111.640625 83.0625 C 110.386719 83.578125 109.25 84.335938 108.292969 85.296875 C 107.335938 86.253906 106.578125 87.390625 106.0625 88.640625 C 105.546875 89.894531 105.285156 91.234375 105.289062 92.589844 L 105.289062 111.535156 C 105.292969 112.882812 105.5625 114.214844 106.085938 115.457031 C 106.605469 116.699219 107.367188 117.828125 108.320312 118.777344 C 109.277344 119.726562 110.410156 120.476562 111.660156 120.988281 C 112.90625 121.5 114.242188 121.761719 115.585938 121.753906 Z M 106.960938 92.589844 C 106.996094 90.316406 107.917969 88.148438 109.527344 86.546875 C 111.140625 84.949219 113.316406 84.039062 115.585938 84.019531 L 138.9375 84.019531 C 140.082031 84.007812 141.222656 84.222656 142.285156 84.652344 C 143.351562 85.082031 144.316406 85.714844 145.132812 86.523438 C 145.953125 87.328125 146.601562 88.289062 147.046875 89.347656 C 147.488281 90.402344 147.71875 91.539062 147.722656 92.6875 L 147.722656 111.535156 C 147.714844 112.683594 147.484375 113.820312 147.039062 114.878906 C 146.597656 115.9375 145.949219 116.898438 145.132812 117.707031 C 144.316406 118.515625 143.347656 119.15625 142.285156 119.589844 C 141.222656 120.027344 140.085938 120.246094 138.9375 120.242188 L 115.585938 120.242188 C 114.449219 120.234375 113.324219 120.007812 112.273438 119.566406 C 111.222656 119.125 110.269531 118.484375 109.46875 117.675781 C 108.667969 116.867188 108.035156 115.910156 107.605469 114.855469 C 107.171875 113.800781 106.953125 112.671875 106.960938 111.535156 Z M 178.714844 135.789062 C 179.109375 136.945312 180.089844 136.691406 180.367188 135.964844 C 180.738281 134.921875 182.921875 127.433594 183.195312 126.136719 C 184.710938 125.664062 180.445312 127.140625 193.632812 122.34375 C 193.769531 122.292969 193.886719 122.199219 193.96875 122.078125 C 194.050781 121.957031 194.097656 121.8125 194.097656 121.667969 C 194.097656 121.519531 194.050781 121.375 193.96875 121.253906 C 193.886719 121.132812 193.769531 121.042969 193.632812 120.988281 L 173.429688 112.910156 C 173.304688 112.851562 173.167969 112.828125 173.03125 112.835938 C 172.890625 112.847656 172.761719 112.894531 172.648438 112.972656 C 172.535156 113.050781 172.445312 113.15625 172.382812 113.28125 C 172.324219 113.402344 172.296875 113.539062 172.308594 113.675781 C 172.308594 113.675781 177.632812 132.664062 178.714844 135.789062 Z M 174.332031 115.011719 L 191.351562 121.714844 C 189.074219 122.5625 185.21875 124.015625 183.371094 124.761719 C 182.546875 125.078125 182.214844 125.214844 182.015625 125.46875 C 181.820312 125.726562 182.507812 124.191406 179.617188 133.09375 Z M 220.714844 57.390625 C 220.738281 57.507812 220.800781 57.613281 220.894531 57.6875 C 220.988281 57.765625 221.105469 57.804688 221.226562 57.800781 C 221.636719 57.800781 234.355469 59.019531 236.949219 58.332031 C 238.617188 57.878906 238.914062 54.933594 239.070312 53.203125 C 239.269531 50.589844 239.070312 44.183594 237.96875 42 C 236.476562 39.050781 225.449219 40.035156 222.246094 40.605469 C 221.398438 40.726562 220.585938 41.035156 219.871094 41.507812 C 219.453125 41.992188 219.210938 42.601562 219.179688 43.238281 C 219.160156 47.996094 219.675781 52.746094 220.714844 57.390625 Z M 221.285156 43.023438 C 224.390625 42.058594 233.234375 41.6875 236.042969 43.023438 C 237.007812 45.578125 237.519531 54.363281 236.359375 56.40625 C 234.53125 56.878906 223.367188 56.878906 221.5 56.898438 C 221.441406 55.363281 220.539062 47.089844 221.285156 43.023438 Z M 247.089844 57.3125 C 247.117188 57.425781 247.179688 57.53125 247.273438 57.605469 C 247.367188 57.679688 247.480469 57.722656 247.601562 57.722656 C 248.011719 57.722656 260.730469 58.941406 263.324219 58.253906 C 264.992188 57.800781 265.289062 54.855469 265.464844 53.125 C 265.644531 50.511719 265.464844 44.101562 264.34375 41.921875 C 262.851562 38.953125 251.828125 39.957031 248.621094 40.527344 C 247.773438 40.652344 246.964844 40.960938 246.246094 41.429688 C 245.835938 41.917969 245.597656 42.523438 245.558594 43.160156 C 245.539062 47.917969 246.054688 52.664062 247.089844 57.3125 Z M 247.660156 42.945312 C 250.765625 41.960938 259.609375 41.609375 262.417969 42.945312 C 263.382812 45.5 263.894531 54.285156 262.734375 56.308594 C 260.90625 56.800781 249.742188 56.800781 247.875 56.820312 C 247.816406 55.285156 246.914062 47.011719 247.660156 42.945312 Z M 274.683594 58.175781 C 274.707031 58.292969 274.769531 58.398438 274.863281 58.476562 C 274.957031 58.550781 275.074219 58.589844 275.195312 58.589844 C 275.605469 58.589844 288.324219 59.808594 290.917969 59.117188 C 292.585938 58.667969 292.882812 55.71875 293.039062 53.988281 C 293.238281 51.375 293.039062 44.96875 291.9375 42.785156 C 290.445312 39.839844 279.417969 40.820312 276.214844 41.390625 C 275.367188 41.515625 274.554688 41.824219 273.839844 42.296875 C 273.421875 42.777344 273.179688 43.386719 273.148438 44.023438 C 273.128906 48.785156 273.644531 53.53125 274.683594 58.175781 Z M 275.253906 43.808594 C 278.359375 42.84375 287.203125 42.472656 290.011719 43.808594 C 290.976562 46.363281 291.488281 55.148438 290.328125 57.191406 C 288.5 57.664062 277.335938 57.664062 275.46875 57.683594 C 275.410156 56.152344 274.507812 47.875 275.253906 43.808594 Z M 247.265625 87.539062 C 247.402344 87.929688 247.71875 87.96875 247.777344 87.949219 C 248.210938 87.949219 260.90625 89.167969 263.5 88.480469 C 265.171875 88.027344 265.464844 85.082031 265.644531 83.351562 C 265.820312 80.738281 265.644531 74.332031 264.542969 72.167969 C 263.027344 69.199219 252.003906 70.203125 248.820312 70.753906 C 247.964844 70.875 247.144531 71.183594 246.421875 71.65625 C 246.007812 72.152344 245.769531 72.765625 245.734375 73.40625 C 245.714844 78.160156 246.230469 82.898438 247.265625 87.539062 Z M 247.855469 73.171875 C 250.960938 72.207031 259.785156 71.835938 262.597656 73.171875 C 263.558594 75.726562 264.070312 84.511719 262.910156 86.554688 C 261.082031 87.027344 249.941406 87.027344 248.074219 87.046875 C 247.992188 85.511719 247.089844 77.238281 247.855469 73.171875 Z M 293.214844 71.363281 C 296.359375 66.726562 299.113281 62.539062 299.210938 62.34375 C 299.308594 62.144531 297.875 60.375 297.03125 61.632812 C 291.015625 70.890625 291.839844 70.007812 291.410156 69.851562 C 287.949219 68.59375 276.785156 69.023438 275.039062 70.65625 C 273.859375 71.757812 274.308594 75.746094 274.449219 77.457031 C 273.191406 76.75 272.226562 76.238281 271.871094 76.097656 C 270.96875 75.746094 271.027344 76.628906 271.519531 76.945312 L 274.585938 78.910156 C 274.832031 81.492188 275.234375 84.058594 275.785156 86.59375 C 275.804688 86.714844 275.867188 86.824219 275.960938 86.898438 C 276.054688 86.976562 276.175781 87.011719 276.296875 87.007812 C 276.707031 87.007812 289.421875 88.226562 292.019531 87.539062 C 295.398438 86.59375 294.355469 74.191406 293.214844 71.363281 Z M 276.355469 72.167969 C 280.976562 71.117188 285.769531 71.03125 290.425781 71.914062 L 283.605469 82.664062 C 282.917969 82.269531 279.242188 80.109375 276.175781 78.378906 C 276.046875 76.328125 276.105469 74.269531 276.355469 72.226562 Z M 291.429688 85.535156 C 289.582031 86.023438 278.4375 86.023438 276.570312 86.042969 C 276.570312 85.257812 276.273438 82.683594 276.136719 79.832031 L 283.605469 84.472656 C 283.792969 84.492188 283.984375 84.460938 284.15625 84.375 C 284.328125 84.292969 284.46875 84.160156 284.570312 84 C 285.199219 83.195312 288.363281 78.59375 291.585938 73.859375 C 292.195312 77.398438 292.390625 83.84375 291.46875 85.535156 Z M 213.285156 43.496094 C 213.820312 43.503906 214.34375 43.351562 214.789062 43.0625 C 215.238281 42.769531 215.589844 42.355469 215.800781 41.863281 C 216.007812 41.375 216.070312 40.832031 215.972656 40.308594 C 215.875 39.785156 215.621094 39.300781 215.25 38.917969 C 214.875 38.539062 214.398438 38.277344 213.878906 38.167969 C 213.355469 38.058594 212.8125 38.105469 212.316406 38.304688 C 211.824219 38.503906 211.398438 38.847656 211.097656 39.289062 C 210.796875 39.726562 210.636719 40.25 210.632812 40.78125 C 210.632812 41.492188 210.910156 42.171875 211.40625 42.679688 C 211.902344 43.1875 212.574219 43.480469 213.285156 43.496094 Z M 213.285156 43.496094 " fill-opacity="1" fill-rule="nonzero"/></svg>