<svg xmlns="http://www.w3.org/2000/svg" xmlns:xlink="http://www.w3.org/1999/xlink" width="500" zoomAndPan="magnify" viewBox="0 0 375 374.999991" height="500" preserveAspectRatio="xMidYMid meet" version="1.0"><path fill="#ffffff" d="M 250.195312 211.582031 L 250.078125 211.582031 Z M 86.085938 268.960938 C 86.835938 269.078125 90.921875 269.273438 90.921875 268.566406 C 90.921875 268.152344 90.175781 268.171875 90.175781 268.171875 C 90.273438 265.027344 94.261719 264.238281 97.113281 265.890625 C 97.898438 266.34375 98.625 266.890625 99.273438 267.523438 C 95.246094 267.738281 89.898438 270.492188 90.253906 274.488281 C 90.457031 275.527344 90.894531 276.511719 91.53125 277.359375 C 92.167969 278.207031 92.988281 278.898438 93.929688 279.382812 C 95.105469 280.265625 96.449219 280.90625 97.875 281.265625 C 99.304688 281.621094 100.789062 281.691406 102.242188 281.46875 C 104.832031 280.808594 107.113281 279.265625 108.6875 277.101562 C 112.25 277.214844 115.738281 276.050781 118.515625 273.816406 C 118.632812 273.726562 118.730469 273.609375 118.800781 273.476562 C 118.871094 273.34375 118.914062 273.199219 118.929688 273.050781 C 118.929688 272.363281 118.929688 272.402344 114.996094 268.035156 C 114.886719 267.910156 114.746094 267.816406 114.589844 267.757812 C 114.433594 267.695312 114.269531 267.675781 114.101562 267.695312 C 113.9375 267.714844 113.777344 267.773438 113.640625 267.867188 C 113.5 267.960938 113.386719 268.085938 113.308594 268.230469 C 113.238281 268.316406 113.179688 268.410156 113.128906 268.507812 C 112.816406 269.09375 112.3125 269.554688 111.703125 269.8125 C 111.089844 270.070312 110.40625 270.109375 109.769531 269.921875 C 107.804688 269.351562 105.269531 264.140625 100.652344 261.03125 C 96.621094 258.316406 91.21875 257.511719 87.402344 260.738281 C 85.761719 262.148438 84.597656 264.03125 84.0625 266.128906 C 83.851562 266.773438 83.894531 267.476562 84.179688 268.09375 C 84.695312 268.59375 85.371094 268.902344 86.085938 268.960938 Z M 93.476562 276.257812 C 92.9375 275.871094 92.5625 275.296875 92.429688 274.648438 C 92.292969 274 92.410156 273.324219 92.75 272.757812 C 93.621094 271.550781 94.832031 270.632812 96.230469 270.121094 C 95.101562 272.03125 94.179688 274.054688 93.476562 276.160156 Z M 111.992188 273.148438 C 112.460938 271.734375 111.992188 272.226562 112.777344 271.871094 C 113.371094 271.574219 113.910156 271.175781 114.367188 270.691406 L 116.15625 272.816406 C 114.675781 273.753906 113.039062 274.421875 111.324219 274.78125 C 111.519531 274.269531 111.832031 273.484375 111.992188 273.050781 Z M 104.875 268.132812 C 106.742188 270.472656 108.296875 272.558594 111.144531 272.324219 C 110.738281 273.171875 110.410156 274.050781 110.164062 274.957031 C 108.726562 275.058594 108.53125 274.722656 107.960938 274.957031 C 106.839844 275.390625 104.996094 279.425781 100.511719 279.40625 C 100.792969 278.78125 100.972656 278.117188 101.042969 277.4375 C 102.3125 277.179688 103.5 276.621094 104.503906 275.804688 C 104.933594 275.429688 105.210938 274.914062 105.289062 274.347656 C 105.289062 273.660156 105.054688 272.777344 103.597656 271.613281 C 104.140625 270.464844 104.570312 269.265625 104.875 268.035156 Z M 98.273438 275.570312 C 96.542969 274.644531 99.492188 273.011719 101.398438 273.070312 C 101.835938 273.074219 102.261719 273.203125 102.632812 273.4375 C 103 273.675781 103.296875 274.011719 103.480469 274.40625 C 103.21875 274.832031 102.871094 275.195312 102.464844 275.480469 C 102.054688 275.765625 101.59375 275.964844 101.105469 276.0625 C 100.617188 276.160156 100.113281 276.160156 99.628906 276.058594 C 99.140625 275.957031 98.679688 275.757812 98.273438 275.46875 Z M 100.59375 263.53125 C 101.925781 264.667969 103.136719 265.9375 104.207031 267.328125 C 103.585938 268.460938 103.109375 269.671875 102.792969 270.925781 C 101.964844 270.691406 101.101562 270.625 100.25 270.734375 C 99.398438 270.847656 98.578125 271.132812 97.839844 271.574219 C 94.242188 273.542969 95.089844 277.851562 100.082031 277.359375 C 99.785156 277.925781 99.570312 278.527344 99.433594 279.148438 C 97.4375 278.75 95.574219 277.867188 94.007812 276.570312 C 95.402344 274.40625 96.484375 272.054688 97.230469 269.589844 C 97.996094 269.238281 98.820312 269.042969 99.664062 269.015625 C 100.503906 268.988281 101.339844 269.128906 102.125 269.433594 L 102.539062 267.878906 L 102.105469 267.679688 C 101.179688 267.050781 100.769531 266.558594 99.707031 265.714844 C 100.101562 264.996094 100.398438 264.230469 100.59375 263.433594 Z M 92.964844 260.382812 C 95.425781 260.429688 97.808594 261.253906 99.765625 262.742188 C 99.414062 263.546875 99.152344 264.382812 98.980469 265.242188 C 98.039062 264.503906 96.925781 264.007812 95.746094 263.804688 C 94.566406 263.605469 93.355469 263.699219 92.21875 264.082031 C 92.632812 262.886719 92.886719 261.644531 92.964844 260.382812 Z M 88.464844 261.917969 C 89.554688 261.070312 90.863281 260.550781 92.238281 260.421875 C 91.628906 261.746094 91.25 263.160156 91.117188 264.613281 C 90.53125 264.964844 90.054688 265.46875 89.730469 266.070312 C 89.410156 266.675781 89.257812 267.351562 89.289062 268.035156 C 87.914062 268.109375 86.535156 267.902344 85.242188 267.425781 C 85.535156 265.238281 86.679688 263.261719 88.425781 261.917969 Z M 59.101562 258.632812 C 55.566406 257.097656 47.703125 261.640625 46.269531 264.082031 C 46.0625 264.621094 46.0625 265.214844 46.269531 265.753906 C 47.507812 270.453125 59.0625 287.054688 61.207031 289.632812 C 61.578125 290.105469 62.089844 289.457031 61.757812 288.90625 C 60.734375 287.214844 60.851562 290.617188 66.078125 273.679688 C 66.5625 273.492188 67.015625 273.226562 67.417969 272.894531 C 67.597656 272.691406 67.699219 272.429688 67.699219 272.15625 C 67.699219 271.882812 67.597656 271.621094 67.417969 271.417969 C 67.238281 271.199219 67.035156 271 66.808594 270.828125 L 68.046875 266.246094 L 72.957031 268.960938 C 71.964844 271.445312 71.242188 274.03125 70.796875 276.671875 C 68.816406 277.386719 66.957031 278.40625 65.292969 279.699219 C 64.132812 280.976562 65.960938 283.339844 67.101562 284.753906 C 68.242188 286.171875 69.203125 287.132812 69.421875 287.351562 C 69.636719 287.566406 70.324219 287.351562 70.265625 286.996094 C 70.140625 286.710938 69.976562 286.445312 69.773438 286.210938 C 68.710938 284.550781 67.796875 282.800781 67.042969 280.976562 C 68.570312 280.0625 70.183594 279.300781 71.859375 278.695312 C 72.46875 278.480469 74.355469 277.890625 74.863281 278.203125 C 77.386719 279.535156 80.015625 280.644531 82.726562 281.527344 C 82.835938 281.582031 82.960938 281.585938 83.074219 281.546875 C 83.191406 281.507812 83.285156 281.421875 83.335938 281.3125 C 83.386719 281.203125 83.394531 281.078125 83.355469 280.960938 C 83.3125 280.847656 83.230469 280.753906 83.121094 280.703125 L 79.71875 278.636719 C 80.445312 276.996094 80.90625 275.25 81.09375 273.464844 L 89.488281 278.007812 C 90 278.304688 90.390625 277.496094 90.019531 277.28125 C 89.644531 277.0625 64.171875 260.855469 59.101562 258.632812 Z M 56.117188 260.71875 C 56.800781 260.511719 57.53125 260.511719 58.21875 260.71875 C 58.671875 260.914062 59.769531 261.503906 61.265625 262.332031 C 60.761719 263.722656 60.417969 265.167969 60.242188 266.636719 C 58.925781 265.890625 58.140625 265.320312 57.097656 265.496094 C 56.53125 265.625 56 265.878906 55.546875 266.246094 C 55.742188 264.710938 55.917969 263.53125 56.117188 260.71875 Z M 48.253906 265.046875 C 50.292969 263.101562 52.765625 261.671875 55.46875 260.875 C 54.417969 265.515625 53.683594 270.21875 53.265625 274.957031 C 51.285156 271.816406 49.613281 268.492188 48.273438 265.027344 Z M 57.175781 281.585938 C 56.097656 279.796875 54.917969 277.8125 53.796875 275.863281 C 54.464844 273.050781 54.679688 271.753906 55.09375 269.097656 C 56.167969 270.964844 57.414062 272.726562 58.808594 274.367188 C 58.015625 276.710938 57.476562 279.132812 57.195312 281.585938 Z M 60.617188 287.253906 C 59.910156 286.132812 59.003906 284.617188 57.824219 282.667969 C 58.570312 280.203125 59.066406 277.664062 59.300781 275.097656 C 59.730469 276.140625 63.582031 274.644531 64.625 274.25 C 63.859375 276.671875 61.1875 285.089844 60.636719 287.253906 Z M 60.027344 274.488281 C 58.808594 272.378906 57.730469 270.1875 56.804688 267.9375 L 57.414062 267.601562 C 57.6875 267.761719 64.410156 271.734375 64.902344 272.046875 C 63.367188 273.023438 61.742188 273.839844 60.046875 274.488281 Z M 65.921875 270.160156 C 64.449219 269.175781 62.445312 267.976562 60.910156 267.089844 C 61.4375 265.699219 61.777344 264.242188 61.933594 262.765625 L 67.515625 265.910156 C 67.417969 266.660156 66.75 268.191406 66.039062 270.160156 Z M 78.933594 278.027344 L 75.90625 276.199219 C 74.5625 275.667969 73.066406 275.667969 71.71875 276.199219 C 72.480469 273.898438 73.035156 271.535156 73.371094 269.136719 L 80.484375 273.070312 C 79.757812 274.675781 79.277344 276.378906 79.050781 278.125 Z M 78.933594 278.027344 " fill-opacity="1" fill-rule="nonzero"/><path fill="#ffffff" d="M 372.734375 285.03125 C 369.550781 255.367188 342.113281 209.753906 325.722656 184.832031 C 334.875 185.566406 344.0625 185.792969 353.238281 185.519531 C 355.851562 185.519531 362.691406 185.046875 364.007812 184.792969 C 364.777344 184.636719 364.894531 183.90625 363.734375 183.867188 C 362.574219 183.828125 354.320312 183.433594 353.199219 183.414062 L 333.210938 183.414062 C 330.144531 183.535156 325.351562 183.808594 325.074219 183.808594 C 319.179688 174.820312 315.070312 169.195312 315.03125 169.175781 C 314.988281 169.128906 314.933594 169.09375 314.871094 169.070312 C 314.8125 169.046875 314.75 169.035156 314.683594 169.039062 C 314.621094 169.042969 314.554688 169.0625 314.5 169.09375 C 314.441406 169.121094 314.394531 169.164062 314.351562 169.214844 C 314.3125 169.265625 314.285156 169.324219 314.269531 169.386719 C 314.257812 169.449219 314.253906 169.515625 314.265625 169.578125 C 314.277344 169.640625 314.304688 169.699219 314.339844 169.753906 C 314.378906 169.804688 314.425781 169.851562 314.480469 169.882812 C 315.386719 170.609375 355.105469 228.695312 367.25 268.703125 C 372.066406 284.578125 374.917969 304.503906 359.390625 310.011719 C 322.519531 323.1875 33.75 327.476562 6.449219 311.976562 C 2.65625 309.832031 1.773438 305.367188 2.519531 299.347656 C 3.679688 290.988281 8.179688 279.679688 13.605469 267.011719 C 19.71875 272.914062 70.421875 319.511719 78.636719 317.761719 C 86.855469 316.011719 133.058594 294.53125 134.964844 290.417969 C 136.074219 287.5625 136.660156 284.53125 136.695312 281.46875 C 136.929688 281.148438 137.035156 280.753906 137 280.359375 C 136.964844 279.964844 136.785156 279.597656 136.5 279.324219 C 133.453125 276.296875 73.019531 228.339844 69.125 228.480469 C 66.414062 228.597656 61.5 231.390625 59.160156 232.765625 C 58.402344 231.523438 57.273438 230.554688 55.933594 229.988281 C 54.59375 229.425781 53.109375 229.296875 51.695312 229.621094 C 50.355469 230.160156 49.160156 230.996094 48.195312 232.066406 C 47.226562 233.136719 46.515625 234.410156 46.113281 235.796875 C 46.132812 235.902344 46.191406 235.996094 46.277344 236.066406 C 46.359375 236.132812 46.464844 236.171875 46.574219 236.171875 C 46.683594 236.171875 46.789062 236.132812 46.871094 236.066406 C 46.957031 235.996094 47.011719 235.902344 47.035156 235.796875 C 48.21875 233.796875 50.089844 232.296875 52.304688 231.585938 C 53.222656 231.445312 54.164062 231.566406 55.015625 231.941406 C 55.867188 232.3125 56.597656 232.921875 57.117188 233.691406 L 35.261719 243.035156 C 34.101562 241.839844 32.652344 240.964844 31.058594 240.496094 C 27.324219 239.515625 24.808594 241.972656 23.3125 245.570312 C 23.28125 245.675781 23.285156 245.789062 23.324219 245.890625 C 23.363281 245.988281 23.4375 246.074219 23.53125 246.125 C 23.628906 246.179688 23.738281 246.199219 23.84375 246.179688 C 23.953125 246.160156 24.046875 246.105469 24.121094 246.023438 C 26.636719 242.386719 29.542969 241.148438 33.023438 244.058594 C 28.816406 245.925781 22.941406 248.582031 18.8125 250.628906 C 19.109375 250.15625 61.519531 173.285156 61.519531 173.089844 C 63.386719 169.628906 67.140625 163.429688 71.011719 162.625 C 72.761719 162.242188 74.546875 162.046875 76.339844 162.035156 C 73.605469 166.558594 51.4375 203.339844 51.398438 208.535156 C 51.398438 214.433594 52.421875 213.511719 55.566406 214.433594 C 58.710938 215.359375 234.667969 214.277344 234.984375 214.277344 C 238.03125 214.277344 249.941406 213.882812 251.039062 213.078125 C 254.460938 210.558594 253.691406 206.804688 252.199219 202.847656 C 251.847656 201.90625 250.058594 197.992188 247.660156 192.757812 C 257.976562 189.652344 265.742188 193.605469 266.449219 210.460938 C 267.15625 225.035156 261.417969 229.480469 250.429688 228.851562 C 241.605469 228.339844 235.515625 225.746094 233.585938 229.1875 C 231.425781 233.023438 237.402344 241.636719 239.996094 245.21875 C 239.621094 245.21875 223.171875 244.882812 219.023438 244.707031 C 213.179688 244.480469 207.328125 244.550781 201.492188 244.921875 C 197.472656 245.011719 193.480469 245.558594 189.582031 246.554688 C 188.109375 247.285156 186.203125 251.078125 185.398438 252.671875 C 183.804688 255.800781 176.554688 275.429688 174.546875 281.097656 C 173.367188 284.359375 169.378906 295.179688 172.050781 297.085938 C 171.953125 299.191406 172.289062 302.003906 174.136719 302.988281 C 175.984375 303.972656 201.375 304.679688 203.320312 304.71875 C 206.761719 304.816406 241.527344 305.269531 263.714844 304.285156 C 285.90625 303.304688 295.59375 301.179688 295.023438 301.238281 C 295.589844 301.070312 296.09375 300.753906 296.488281 300.3125 C 296.878906 299.875 297.140625 299.335938 297.246094 298.757812 C 297.546875 297.304688 297.453125 295.796875 296.96875 294.394531 C 299.445312 289.574219 280.71875 249.566406 275.527344 246.753906 C 275.222656 246.578125 274.878906 246.484375 274.527344 246.476562 C 273.484375 246.476562 250.175781 245.492188 241.113281 245.199219 C 239.148438 242.425781 232.761719 231.980469 235.21875 229.757812 C 238.953125 226.492188 270.144531 242.859375 268.472656 210.285156 C 267.609375 195.550781 260.828125 186.917969 247.070312 191.914062 C 245.871094 189.316406 235.808594 167.796875 233.117188 162.074219 C 243.546875 162.699219 254.011719 162.46875 264.40625 161.386719 C 264.554688 163.222656 265.082031 165.003906 265.953125 166.628906 C 266.828125 168.25 268.027344 169.671875 269.476562 170.808594 C 277.335938 176.707031 308.625 175.824219 314.304688 168.605469 C 315.898438 166.425781 316.996094 163.929688 317.527344 161.28125 C 318.0625 158.636719 318.015625 155.90625 317.390625 153.28125 C 317.914062 152.949219 318.316406 152.460938 318.550781 151.886719 C 318.863281 151.273438 318.550781 150.507812 317.195312 150.234375 C 315.445312 149.96875 313.675781 149.863281 311.90625 149.917969 C 311.90625 148.304688 312.003906 145.296875 311.90625 141.871094 C 312.085938 141.753906 313.363281 140.222656 313.5 140.042969 C 315.066406 138.210938 316.300781 136.121094 317.15625 133.867188 C 317.804688 132.039062 318.058594 129.933594 316.347656 128.910156 C 313.714844 127.476562 311.867188 130.109375 310.984375 133.0625 C 310.15625 128.515625 308.25 121.847656 303.691406 122.519531 C 295.949219 123.699219 301.292969 142.484375 303.808594 149.917969 C 301.601562 149.605469 299.359375 149.605469 297.148438 149.917969 C 299.605469 143.742188 300.863281 135.753906 294.554688 134.554688 C 293.597656 134.34375 292.597656 134.417969 291.683594 134.765625 C 290.769531 135.117188 289.976562 135.726562 289.402344 136.523438 C 289.277344 136.078125 289.039062 135.671875 288.714844 135.34375 C 288.390625 135.015625 287.984375 134.773438 287.542969 134.644531 C 287.097656 134.515625 286.628906 134.5 286.175781 134.601562 C 285.726562 134.703125 285.308594 134.917969 284.960938 135.226562 C 282.074219 137.308594 283.722656 142.089844 287.085938 143.664062 C 286.90625 145.683594 286.90625 147.71875 287.085938 149.742188 C 284.992188 149.488281 282.875 149.535156 280.796875 149.878906 C 280.679688 145.078125 280.152344 140.292969 279.222656 135.578125 C 280.417969 134.726562 281.421875 133.636719 282.171875 132.378906 C 282.925781 131.121094 283.40625 129.71875 283.585938 128.261719 C 283.863281 125.644531 282.9375 123.460938 280.757812 122.890625 C 278.023438 122.183594 276.414062 124.089844 275.941406 126.824219 C 273.523438 123.480469 268.789062 122.28125 266.488281 126.117188 C 259.117188 118.445312 255.558594 122.734375 257.425781 126.117188 C 258.824219 128.714844 262.457031 130.167969 265.289062 130.976562 C 265.289062 135.382812 267.253906 139.097656 269.691406 142.894531 C 271.324219 145.453125 273.148438 147.910156 274.566406 149.722656 C 271.507812 149.621094 268.445312 149.820312 265.425781 150.3125 C 263.578125 150.804688 263.285156 152.140625 264.992188 153.105469 C 264.453125 155.410156 264.253906 157.78125 264.40625 160.144531 C 253.847656 159.582031 243.261719 159.832031 232.742188 160.894531 C 232.074219 159.457031 230.089844 155.269531 229.851562 154.777344 C 229.617188 154.285156 231.503906 148.582031 234.15625 95.550781 C 246.34375 94.527344 301.136719 95.746094 306.167969 93.800781 C 306.457031 93.695312 306.710938 93.519531 306.910156 93.28125 C 307.105469 93.046875 307.238281 92.765625 307.289062 92.460938 C 308.960938 86.972656 310.097656 39.804688 307.289062 35.421875 C 306.601562 34.339844 304.144531 34.003906 302.789062 33.808594 C 285.277344 31.25 212.203125 32.351562 208.449219 34.339844 C 204.695312 36.324219 206.289062 55.71875 206.996094 59.574219 C 169.046875 58.355469 81.410156 60.734375 73.15625 63.824219 C 71.191406 64.53125 70.460938 67.226562 70.070312 69.253906 C 66.808594 86.109375 75.964844 140.359375 79.03125 157.117188 C 78.835938 157.117188 79.03125 157.117188 76.632812 160.855469 C 74.605469 160.703125 72.5625 160.808594 70.5625 161.167969 C 66.078125 161.859375 61.953125 168.054688 59.671875 171.910156 C 59.574219 172.105469 53.777344 181.742188 52.910156 183.316406 C 47.980469 182.550781 25.042969 182.84375 22.132812 183.003906 C 19.226562 183.160156 16.238281 183.375 13.605469 183.574219 C 13.132812 183.574219 13.09375 184.476562 13.605469 184.496094 C 19.109375 184.832031 21.132812 184.949219 25.398438 185.007812 C 35.832031 185.167969 51.222656 185.597656 51.714844 185.539062 C 50.691406 187.328125 35.558594 214.277344 33.535156 218.09375 C 24.730469 234.617188 17.8125 249.742188 17.398438 251.019531 C 15.113281 252.058594 12.96875 253.382812 11.011719 254.953125 C 10.378906 256.6875 10.003906 258.503906 9.890625 260.34375 C 9.792969 263.511719 10.933594 264.277344 12.679688 266.046875 C 7.988281 276.113281 4.128906 286.546875 1.144531 297.246094 C 0.171875 301.574219 0.128906 306.058594 1.027344 310.402344 C 1.828125 314.746094 3.328125 318.933594 5.46875 322.796875 C 6.429688 323.773438 7.675781 324.417969 9.027344 324.644531 C 14.195312 326.101562 30.210938 327.96875 35.578125 328.578125 C 35.171875 330.984375 35.0625 333.425781 35.242188 335.855469 C 35.25 338.359375 35.613281 340.851562 36.324219 343.253906 C 36.332031 343.3125 36.347656 343.371094 36.378906 343.421875 C 36.40625 343.472656 36.445312 343.519531 36.492188 343.558594 C 36.539062 343.597656 36.589844 343.625 36.648438 343.640625 C 36.707031 343.65625 36.765625 343.664062 36.824219 343.65625 C 36.886719 343.648438 36.941406 343.632812 36.996094 343.601562 C 37.046875 343.574219 37.09375 343.535156 37.132812 343.488281 C 37.167969 343.441406 37.195312 343.386719 37.214844 343.332031 C 37.230469 343.273438 37.234375 343.214844 37.226562 343.152344 C 37.542969 340.703125 37.628906 338.226562 37.484375 335.757812 C 37.472656 333.382812 37.199219 331.015625 36.679688 328.695312 C 39.390625 328.933594 42.003906 329.128906 44.285156 329.207031 C 43.921875 331.503906 43.824219 333.832031 43.988281 336.152344 C 43.996094 338.65625 44.359375 341.144531 45.070312 343.546875 C 45.070312 343.667969 45.117188 343.78125 45.203125 343.867188 C 45.289062 343.953125 45.402344 344 45.523438 344 C 45.640625 344 45.757812 343.953125 45.84375 343.867188 C 45.925781 343.78125 45.972656 343.667969 45.972656 343.546875 C 46.300781 341.097656 46.390625 338.621094 46.25 336.152344 C 46.234375 333.855469 45.972656 331.566406 45.464844 329.328125 C 49.847656 329.425781 114.347656 335.226562 225.746094 333.023438 C 255.601562 332.433594 291.488281 331.058594 321.046875 327.8125 C 320.65625 330.183594 320.542969 332.59375 320.710938 334.992188 C 320.722656 337.492188 321.09375 339.972656 321.8125 342.367188 C 321.800781 342.433594 321.800781 342.5 321.816406 342.566406 C 321.832031 342.632812 321.859375 342.695312 321.902344 342.746094 C 321.945312 342.796875 322 342.839844 322.058594 342.871094 C 322.121094 342.898438 322.1875 342.914062 322.253906 342.914062 C 322.320312 342.914062 322.386719 342.898438 322.449219 342.871094 C 322.511719 342.839844 322.5625 342.796875 322.605469 342.746094 C 322.648438 342.695312 322.679688 342.632812 322.695312 342.566406 C 322.710938 342.5 322.710938 342.433594 322.695312 342.367188 C 323.039062 339.917969 323.132812 337.441406 322.972656 334.972656 C 322.949219 332.542969 322.667969 330.121094 322.128906 327.753906 C 324.308594 327.515625 329.359375 326.886719 329.792969 326.828125 C 329.40625 329.1875 329.300781 331.585938 329.476562 333.96875 C 329.480469 336.472656 329.84375 338.964844 330.558594 341.363281 C 330.570312 341.484375 330.632812 341.59375 330.726562 341.671875 C 330.820312 341.746094 330.941406 341.78125 331.058594 341.765625 C 331.179688 341.753906 331.289062 341.695312 331.367188 341.601562 C 331.441406 341.507812 331.476562 341.386719 331.460938 341.265625 C 331.785156 338.820312 331.871094 336.351562 331.71875 333.890625 C 331.707031 331.464844 331.421875 329.050781 330.871094 326.691406 C 339.738281 325.492188 366.839844 321.832031 370.535156 314.257812 C 374.898438 305.625 374.542969 294.394531 372.734375 285.03125 Z M 193.886719 253.363281 C 194.105469 252.832031 200.6875 251.394531 207.878906 253.363281 C 207.945312 253.347656 208.015625 253.347656 208.082031 253.363281 C 208.144531 253.378906 208.207031 253.410156 208.257812 253.453125 C 208.3125 253.496094 208.351562 253.546875 208.382812 253.609375 C 208.410156 253.671875 208.425781 253.734375 208.425781 253.804688 C 208.425781 253.871094 208.410156 253.9375 208.382812 254 C 208.351562 254.058594 208.3125 254.113281 208.257812 254.15625 C 208.207031 254.199219 208.144531 254.226562 208.082031 254.242188 C 208.015625 254.257812 207.945312 254.261719 207.878906 254.246094 C 204.300781 254.882812 200.640625 254.976562 197.03125 254.523438 C 195.339844 254.246094 193.199219 254.226562 193.828125 253.363281 Z M 294.925781 300.136719 C 276.746094 303.597656 176.316406 302.8125 174.804688 302.101562 C 173.289062 301.394531 173.152344 299.113281 173.113281 297.617188 C 184 301.160156 290.386719 298.425781 296.300781 295.296875 C 296.617188 297.027344 296.695312 299.800781 294.867188 300.136719 Z M 256.777344 253.578125 C 256.777344 252.910156 261.101562 252.535156 261.300781 252.515625 C 263.871094 252.316406 266.453125 252.316406 269.023438 252.515625 C 270.457031 252.671875 272.441406 252.871094 272.285156 253.480469 C 272.128906 254.089844 269.160156 254.34375 268.648438 254.421875 C 266.730469 254.601562 264.800781 254.679688 262.871094 254.660156 C 261.574219 254.621094 256.640625 254.382812 256.71875 253.578125 Z M 282.035156 260.128906 C 286.949219 269.503906 291.078125 279.277344 294.375 289.335938 C 294.792969 290.609375 295.027344 291.933594 295.0625 293.273438 C 286.199219 296.023438 184.039062 298.859375 173.703125 295.886719 C 173.210938 295.75 173.074219 295.886719 172.957031 295.0625 C 172.210938 289.710938 180.957031 268.449219 182.980469 263.492188 C 220.164062 262.253906 281.640625 260.34375 281.976562 260.128906 Z M 265.484375 130.089844 C 263.335938 128.910156 261.386719 127.394531 259.707031 125.605469 C 258.941406 124.445312 259.117188 123.640625 261.378906 124.742188 C 262.792969 125.390625 264.777344 126.550781 266.113281 127.355469 C 265.769531 128.230469 265.558594 129.152344 265.484375 130.089844 Z M 312.652344 133.613281 C 314.226562 130.777344 315.777344 129.972656 315.621094 131.644531 C 314.777344 134.636719 313.574219 137.515625 312.042969 140.222656 C 311.925781 138.253906 311.789062 136.9375 311.632812 135.636719 C 311.710938 135.363281 312.105469 134.535156 312.59375 133.613281 Z M 304.300781 150.722656 C 304.695312 151.84375 304.949219 152.515625 304.96875 152.554688 C 304.992188 152.609375 305.023438 152.660156 305.066406 152.703125 C 305.105469 152.746094 305.15625 152.78125 305.210938 152.804688 C 305.265625 152.828125 305.324219 152.839844 305.382812 152.84375 C 305.445312 152.84375 305.503906 152.832031 305.558594 152.808594 C 306.425781 152.476562 305.144531 151.667969 303.101562 139.808594 C 302.492188 136.265625 300.683594 125.351562 304.261719 124.839844 C 307.171875 124.40625 308.742188 131.625 309.292969 134.476562 C 310.3125 139.976562 310.96875 145.535156 311.257812 151.117188 C 311.257812 151.226562 311.296875 151.332031 311.367188 151.414062 C 311.4375 151.5 311.535156 151.554688 311.640625 151.570312 C 311.75 151.585938 311.859375 151.5625 311.949219 151.507812 C 312.042969 151.449219 312.113281 151.359375 312.144531 151.253906 C 312.148438 151.144531 312.148438 151.03125 312.144531 150.921875 C 313.917969 150.972656 315.6875 151.21875 317.410156 151.648438 C 317.191406 151.90625 316.914062 152.105469 316.605469 152.238281 C 312.476562 154.363281 299.996094 153.949219 295.691406 153.871094 C 296.28125 152.691406 296.695312 151.785156 297.148438 150.703125 C 299.496094 151.089844 301.890625 151.097656 304.242188 150.722656 Z M 288.972656 146.417969 C 289.421875 142.484375 290.425781 136.207031 294.394531 136.957031 C 298.367188 137.703125 297.363281 143.464844 296.5 147.320312 C 295.964844 149.535156 295.308594 151.714844 294.535156 153.851562 L 288.636719 153.851562 C 288.589844 151.371094 288.683594 148.886719 288.914062 146.417969 Z M 286.476562 137.171875 C 286.566406 137.085938 286.675781 137.015625 286.792969 136.976562 C 286.914062 136.933594 287.039062 136.914062 287.164062 136.925781 C 287.292969 136.933594 287.414062 136.96875 287.523438 137.03125 C 287.636719 137.089844 287.734375 137.171875 287.8125 137.269531 C 288.125 137.585938 288.40625 137.925781 288.65625 138.292969 C 288.097656 139.546875 287.707031 140.871094 287.496094 142.226562 C 286.476562 140.8125 285.160156 138.234375 286.476562 137.171875 Z M 280.285156 125.210938 C 282.839844 126.019531 280.835938 132.746094 279.125 134.792969 C 278.652344 132.675781 277.945312 130.617188 277.023438 128.65625 C 277.59375 126.925781 278.554688 124.660156 280.285156 125.191406 Z M 275.449219 150.941406 C 276.414062 152.160156 277.042969 152.90625 277.042969 152.90625 C 277.121094 152.984375 277.222656 153.03125 277.332031 153.039062 C 277.441406 153.042969 277.550781 153.011719 277.636719 152.941406 C 277.722656 152.875 277.78125 152.777344 277.804688 152.671875 C 277.824219 152.5625 277.804688 152.453125 277.75 152.355469 C 277.75 152.355469 274.269531 147.398438 271.402344 142.265625 C 269.238281 138.332031 267.175781 134.398438 267.746094 130.050781 C 268.199219 126.628906 270.003906 125.171875 273.050781 127.160156 C 277.453125 129.992188 279.460938 147.460938 280.089844 152.730469 C 280.09375 152.867188 280.144531 153 280.226562 153.109375 C 280.3125 153.21875 280.429688 153.300781 280.558594 153.339844 C 281.089844 153.339844 281.011719 152.769531 280.992188 152.496094 C 280.972656 152.21875 280.992188 150.84375 280.992188 150.703125 C 283.082031 150.96875 285.191406 150.96875 287.28125 150.703125 C 287.398438 152.140625 287.535156 153.261719 287.636719 153.851562 C 280.65625 153.851562 272.226562 154.324219 266.449219 152.0625 C 269.417969 151.472656 272.425781 151.097656 275.449219 150.941406 Z M 266.035156 153.832031 C 268.910156 154.949219 271.941406 155.609375 275.015625 155.800781 C 278.496094 156.113281 302.179688 156.152344 304.871094 156.015625 C 308.933594 155.949219 312.949219 155.199219 316.761719 153.792969 C 317.128906 156.207031 316.988281 158.671875 316.355469 161.03125 C 315.726562 163.390625 314.609375 165.59375 313.085938 167.503906 C 308.3125 173.109375 278.101562 174.386719 270.851562 169.273438 C 266.074219 165.988281 265.210938 159.417969 266.035156 153.8125 Z M 250.195312 211.582031 C 250.609375 212.902344 63.210938 212.960938 63.015625 212.941406 C 55.152344 212.941406 57.117188 212.941406 54.484375 212.289062 C 53.777344 212.132812 53.640625 212.132812 53.5 211.445312 C 53.335938 210.367188 53.289062 209.269531 53.363281 208.179688 C 53.40625 208.261719 53.472656 208.324219 53.554688 208.363281 C 53.636719 208.402344 53.726562 208.414062 53.816406 208.394531 C 53.816406 208.394531 250.136719 205.722656 251.414062 205.683594 C 251.945312 207.984375 252.023438 210.128906 250.195312 211.582031 Z M 305.480469 92.207031 C 305.480469 92.207031 305.597656 92.011719 305.636719 92.070312 C 305.675781 92.128906 305.480469 92.1875 305.382812 92.207031 Z M 207.742188 42.597656 C 207.742188 41.320312 208.253906 36.480469 209.394531 35.890625 C 211.988281 34.59375 294.433594 33.492188 305.695312 37.011719 C 307.660156 41.144531 307.03125 87.542969 305.382812 92.207031 C 295.710938 93.722656 247.050781 93.601562 234.394531 94.902344 C 235.160156 79.421875 235.492188 66.378906 234.863281 63.84375 C 234.746094 63.511719 234.546875 63.214844 234.292969 62.972656 C 234.035156 62.730469 233.726562 62.550781 233.390625 62.445312 C 229.085938 60.578125 212.890625 60.046875 208.175781 59.890625 C 207.5625 54.148438 207.417969 48.363281 207.742188 42.597656 Z M 71.839844 92.128906 C 71.542969 87.996094 70.089844 67.148438 74.019531 65.691406 C 75.984375 65.003906 82.902344 64.316406 92.945312 63.726562 C 112.1875 62.523438 142.511719 61.5625 170.105469 61.363281 C 176.238281 61.363281 228.046875 60.910156 233.117188 64.394531 C 234.609375 71.199219 229.832031 146.808594 228.773438 154.109375 C 182.332031 155.621094 127.300781 157.902344 80.464844 156.761719 C 79.679688 152.257812 73.667969 117.503906 71.839844 92.128906 Z M 79.855469 158.082031 C 79.859375 158.035156 79.859375 157.988281 79.855469 157.941406 C 112.972656 158.964844 216.605469 155.5625 229.222656 155.484375 C 230.621094 158.730469 250.214844 202.238281 251.039062 204.660156 C 250.824219 204.660156 53.660156 207.335938 53.402344 207.53125 C 55.878906 199.230469 76.359375 164.140625 79.855469 158.082031 Z M 133.886719 289.867188 C 132.429688 292.699219 88.367188 312.410156 79.308594 315.144531 C 79.484375 314.238281 79.546875 313.3125 79.503906 312.390625 C 92.886719 307.75 121.9375 295.496094 134.964844 286.820312 C 134.71875 287.878906 134.355469 288.90625 133.886719 289.886719 Z M 135.242188 285.523438 C 131.308594 287.84375 127.554688 289.457031 79.484375 311.328125 C 79.484375 310.4375 79.367188 309.550781 79.128906 308.691406 C 85.417969 305.742188 128.066406 289.199219 135.671875 282.609375 C 135.574219 283.457031 135.4375 284.480469 135.242188 285.542969 Z M 34.003906 245.160156 C 34.949219 246.273438 35.535156 247.648438 35.683594 249.101562 C 35.832031 250.554688 35.53125 252.019531 34.832031 253.300781 C 34.515625 253.792969 35.261719 254.304688 35.578125 253.792969 C 36.765625 252.5 37.464844 250.832031 37.5625 249.082031 C 37.660156 247.324219 37.144531 245.59375 36.109375 244.175781 C 45.660156 239.789062 55.054688 235.660156 57.628906 234.539062 C 58.273438 235.847656 58.617188 237.285156 58.636719 238.742188 C 58.660156 240.203125 58.355469 241.648438 57.746094 242.976562 C 57.511719 243.605469 58.21875 243.839844 58.550781 243.429688 C 59.632812 242.054688 60.304688 240.402344 60.492188 238.664062 C 60.683594 236.925781 60.375 235.167969 59.613281 233.59375 C 61.738281 232.394531 66.6875 229.660156 69.105469 229.660156 C 72.132812 229.660156 133.550781 279.660156 134.691406 280.800781 C 129.5625 286.09375 81.941406 304.957031 77.929688 306.882812 C 69.480469 304.917969 17.910156 260.519531 13.074219 255.957031 C 16.082031 253.460938 30.625 246.734375 34.003906 245.160156 Z M 11.582031 256.863281 C 17.710938 262.863281 68.871094 307.550781 77.441406 308.96875 C 77.269531 309.710938 77.1875 310.46875 77.203125 311.230469 C 63.445312 304.503906 24.140625 270.433594 11.128906 259.480469 C 11.1875 259.480469 11.480469 257.550781 11.640625 256.863281 Z M 11.875 263.609375 C 11.320312 262.765625 11.046875 261.765625 11.089844 260.757812 C 23.941406 273.738281 60.222656 305.664062 77.183594 312.3125 C 77.148438 313.363281 77.253906 314.414062 77.5 315.4375 C 67.417969 313.175781 13.210938 265.222656 11.933594 263.609375 Z M 369.570312 313.609375 C 356.875 338.828125 12.347656 332.238281 6.765625 322.402344 C 4.398438 318.285156 2.800781 313.773438 2.046875 309.085938 C 2.808594 310.75 4.074219 312.125 5.664062 313.019531 C 34.59375 329.878906 322.421875 325.472656 360 311.957031 C 367.960938 309.085938 371.96875 302.890625 372.871094 294.253906 C 373.40625 300.886719 372.257812 307.542969 369.53125 313.609375 Z M 369.570312 313.609375 " fill-opacity="1" fill-rule="nonzero"/><path fill="#ffffff" d="M 75.277344 179.835938 C 214.25 181.804688 227.515625 180.601562 231.40625 179.992188 C 232.328125 179.855469 232.917969 179.539062 232.878906 178.457031 C 232.878906 175.605469 226.199219 162.527344 224.429688 161.621094 C 223.644531 161.207031 82.921875 163.195312 82.433594 163.351562 C 82.339844 163.375 82.253906 163.414062 82.179688 163.472656 C 82.105469 163.53125 82.042969 163.601562 82 163.6875 C 80.664062 165.871094 74.136719 176.648438 74.433594 179.089844 C 74.464844 179.292969 74.566406 179.476562 74.722656 179.613281 C 74.875 179.75 75.070312 179.828125 75.277344 179.835938 Z M 83 164.710938 C 84.417969 164.53125 222.855469 163.15625 223.703125 163.234375 C 225.167969 165.347656 226.484375 167.5625 227.632812 169.863281 C 224.410156 169.863281 80.347656 170.628906 79.601562 170.648438 C 80.464844 168.917969 81.605469 166.953125 83 164.710938 Z M 79.070312 171.59375 C 79.835938 171.59375 225.609375 170.847656 228.105469 170.789062 C 229.398438 173.195312 230.417969 175.746094 231.152344 178.378906 C 224.152344 179.5 160.398438 178.949219 75.984375 178.378906 C 76.773438 175.996094 77.792969 173.699219 79.03125 171.515625 Z M 183.746094 186.523438 C 183.355469 185.65625 182.714844 184.921875 181.90625 184.417969 C 181.097656 183.914062 180.160156 183.660156 179.207031 183.691406 C 174.214844 183.691406 132.292969 182.53125 128.519531 184.066406 C 126.109375 186.984375 124.246094 190.316406 123.015625 193.898438 C 122.898438 194.765625 123.332031 195.160156 123.863281 195.21875 C 135.652344 196.496094 174.746094 197.714844 184.886719 195.847656 C 186.144531 195.609375 186.300781 194.273438 186.046875 192.996094 C 185.4375 190.785156 184.667969 188.621094 183.746094 186.523438 Z M 124.410156 193.898438 C 125.542969 190.707031 127.074219 187.675781 128.972656 184.871094 C 131.957031 183.886719 170.8125 185.933594 179.265625 185.914062 C 179.769531 185.894531 180.265625 186.023438 180.699219 186.28125 C 181.128906 186.539062 181.480469 186.917969 181.703125 187.371094 C 182.65625 189.410156 183.402344 191.546875 183.921875 193.742188 C 173.957031 195.296875 131.644531 194.410156 124.410156 193.898438 Z M 320.242188 189.042969 C 317.46875 185.226562 303.574219 185.402344 298.917969 185.539062 C 294.984375 185.539062 280.699219 186.1875 280.699219 190.042969 C 280.714844 190.355469 280.804688 190.660156 280.960938 190.929688 C 281.117188 191.199219 281.339844 191.429688 281.601562 191.597656 C 281.976562 191.894531 279.398438 217.816406 282.9375 231.726562 C 284.097656 236.328125 285.589844 238.609375 289.972656 240.515625 C 298.386719 244.175781 312.339844 243.371094 317.941406 235.558594 C 319.0625 233.277344 318.824219 226.628906 318.921875 224.605469 C 327.628906 226.335938 334.765625 222.792969 336.613281 213.414062 C 337.769531 207.375 336.277344 203.417969 333.703125 201.019531 C 331.984375 199.617188 329.949219 198.652344 327.777344 198.207031 C 325.605469 197.765625 323.355469 197.851562 321.222656 198.464844 C 321.148438 198.488281 321.070312 198.496094 320.992188 198.484375 C 320.914062 198.472656 320.839844 198.441406 320.777344 198.394531 C 320.714844 198.347656 320.660156 198.289062 320.625 198.21875 C 320.589844 198.148438 320.574219 198.070312 320.574219 197.992188 C 320.574219 196.949219 320.949219 189.886719 320.242188 189.042969 Z M 282.898438 189.453125 C 288.203125 186.347656 309.824219 186.109375 316.800781 189.277344 C 317.035156 189.394531 317.921875 189.847656 317.921875 190.042969 C 317.921875 190.242188 317.015625 190.714844 316.800781 190.8125 C 311.535156 193.191406 292.726562 194.273438 282.839844 190.652344 C 282.152344 190.28125 282.839844 189.53125 282.839844 189.453125 Z M 321.773438 200.46875 C 323.558594 199.953125 325.445312 199.878906 327.265625 200.253906 C 329.085938 200.625 330.789062 201.4375 332.230469 202.613281 C 334.351562 204.582031 335.414062 207.964844 334.429688 212.980469 C 334.234375 214.722656 333.632812 216.394531 332.667969 217.863281 C 331.707031 219.328125 330.410156 220.546875 328.886719 221.417969 C 325.664062 222.871094 322.035156 223.148438 318.628906 222.203125 C 318.460938 222.144531 318.28125 222.117188 318.105469 222.128906 C 317.929688 222.140625 317.753906 222.1875 317.59375 222.269531 C 317.4375 222.351562 317.296875 222.464844 317.183594 222.601562 C 317.070312 222.738281 316.988281 222.898438 316.9375 223.070312 C 316.40625 224.566406 317.15625 230.605469 316.074219 234.417969 C 311.101562 241.167969 298.386719 241.777344 290.859375 238.609375 C 287.046875 236.976562 285.984375 235.285156 284.960938 231.214844 C 282.328125 221.554688 282.171875 201.886719 282.761719 192.207031 C 288.953125 195.140625 310.394531 195.984375 318.824219 191.65625 C 318.824219 197.753906 318.078125 198.777344 319.613281 200.015625 C 319.910156 200.242188 320.25 200.398438 320.613281 200.476562 C 320.976562 200.554688 321.351562 200.550781 321.714844 200.46875 Z M 130.859375 242.148438 C 125.695312 237.769531 120.144531 233.871094 114.269531 230.503906 C 112.007812 229.167969 109.601562 228.09375 107.097656 227.300781 C 104.996094 226.75 104.109375 227.832031 104.542969 229.265625 C 105.429688 231.328125 106.597656 233.253906 108.019531 234.988281 C 112.542969 240.71875 117.742188 245.878906 123.507812 250.351562 C 132.273438 257.6875 143.632812 266.578125 151.925781 272.894531 C 152.347656 273.203125 152.828125 273.421875 153.339844 273.542969 C 153.847656 273.664062 154.375 273.683594 154.894531 273.597656 C 155.410156 273.511719 155.902344 273.324219 156.34375 273.042969 C 156.789062 272.765625 157.167969 272.398438 157.46875 271.96875 C 158.921875 270.375 159.828125 267.582031 158.195312 266.066406 C 156.308594 264.375 144.773438 253.5 130.859375 242.148438 Z M 112.03125 237.78125 L 109.335938 233.4375 C 110.296875 233.039062 111.105469 232.351562 111.65625 231.46875 L 115.921875 233.199219 C 114.851562 233.414062 113.882812 233.980469 113.179688 234.8125 C 112.472656 235.644531 112.066406 236.691406 112.03125 237.78125 Z M 118.0625 242.796875 C 116.644531 241.601562 115.328125 240.285156 114.132812 238.863281 C 114.269531 236.484375 115.015625 235.421875 117.394531 235.34375 C 118.980469 236.101562 120.476562 237.03125 121.855469 238.117188 C 120.800781 238.375 119.855469 238.972656 119.171875 239.816406 C 118.488281 240.664062 118.097656 241.710938 118.0625 242.796875 Z M 151.671875 271.417969 C 149.488281 269.589844 120.480469 244.960938 118.691406 243.390625 C 118.84375 242.289062 119.324219 241.257812 120.070312 240.4375 C 120.816406 239.613281 121.796875 239.039062 122.878906 238.785156 C 129.660156 243.820312 139.40625 252.160156 156.40625 266.324219 C 155.746094 266.289062 155.085938 266.402344 154.472656 266.652344 C 153.855469 266.898438 153.304688 267.28125 152.855469 267.765625 C 152.402344 268.25 152.0625 268.832031 151.859375 269.460938 C 151.652344 270.09375 151.589844 270.761719 151.671875 271.417969 Z M 307.40625 293.210938 C 309.863281 294.882812 311.574219 294.117188 313.164062 291.796875 C 317.097656 286.210938 330.851562 261.484375 330.851562 261.289062 C 330.851562 261.089844 331.011719 261.464844 330.363281 253.519531 C 330.332031 253.21875 330.226562 252.933594 330.050781 252.691406 C 329.875 252.449219 329.636719 252.257812 329.359375 252.140625 C 329.085938 252.019531 328.78125 251.980469 328.484375 252.015625 C 328.1875 252.054688 327.90625 252.171875 327.667969 252.359375 L 320.949219 257.257812 C 320.949219 257.257812 306.03125 288.117188 305.875 288.394531 C 305.601562 289.257812 305.605469 290.183594 305.878906 291.042969 C 306.15625 291.90625 306.6875 292.664062 307.40625 293.210938 Z M 328.21875 254.757812 C 328.335938 256.195312 328.496094 258.101562 328.613281 259.417969 C 327.152344 258.71875 325.625 258.171875 324.054688 257.789062 Z M 322.597656 259.125 C 324.300781 260.332031 326.269531 261.117188 328.335938 261.40625 C 328.042969 261.917969 313.027344 289.335938 312.871094 289.613281 C 312.414062 288.683594 311.664062 287.929688 310.734375 287.472656 C 309.808594 287.011719 308.753906 286.875 307.742188 287.074219 C 309.273438 284.222656 322.046875 260.109375 322.597656 259.125 Z M 322.597656 259.125 " fill-opacity="1" fill-rule="nonzero"/><path fill="#ffffff" d="M 313.558594 220.121094 C 313.347656 219.820312 313.078125 219.570312 312.765625 219.378906 C 312.457031 219.183594 312.109375 219.054688 311.75 219 C 310.585938 218.6875 309.40625 218.449219 308.210938 218.289062 C 308.878906 222.972656 309.273438 228.125 309.253906 228.578125 C 309.222656 228.875 309.078125 229.152344 308.84375 229.34375 C 308.613281 229.535156 308.316406 229.628906 308.015625 229.601562 C 307.714844 229.566406 307.441406 229.414062 307.25 229.179688 C 307.058594 228.945312 306.964844 228.644531 306.992188 228.339844 C 306.992188 228.007812 306.875 226.648438 306.777344 218.09375 C 302.847656 217.601562 283.921875 216.125 284.667969 219.902344 C 284.667969 220.101562 283.113281 229.738281 289.128906 234.359375 C 295.144531 238.984375 307.171875 238.078125 311.375 233.378906 C 312.570312 231.945312 313.359375 230.21875 313.65625 228.378906 C 314.121094 225.644531 314.085938 222.84375 313.558594 220.121094 Z M 318.273438 202.316406 C 318.273438 203.203125 317.097656 209.96875 316.308594 219.058594 L 317.253906 219.253906 C 320.710938 219.988281 324.3125 219.59375 327.53125 218.132812 C 328.652344 217.507812 329.582031 216.585938 330.21875 215.46875 C 330.851562 214.351562 331.167969 213.082031 331.128906 211.800781 C 331.261719 210.203125 330.984375 208.597656 330.324219 207.140625 C 329.660156 205.679688 328.636719 204.414062 327.347656 203.464844 C 326.058594 202.515625 324.546875 201.910156 322.960938 201.710938 C 321.371094 201.507812 319.757812 201.71875 318.273438 202.316406 Z M 319.160156 202.988281 C 320.414062 202.789062 321.695312 202.859375 322.921875 203.199219 C 324.144531 203.539062 325.28125 204.136719 326.253906 204.953125 C 327.1875 205.8125 327.914062 206.875 328.367188 208.058594 C 328.824219 209.242188 329.003906 210.515625 328.886719 211.78125 C 328.710938 216.835938 323.523438 217.796875 318.550781 217.285156 C 318.785156 213.707031 318.984375 209.597656 319.160156 202.988281 Z M 128.933594 184.871094 C 128.933594 184.871094 128.953125 184.890625 128.933594 184.871094 Z M 298.109375 87.523438 C 298.105469 87.875 298.167969 88.222656 298.300781 88.550781 C 298.429688 88.875 298.621094 89.171875 298.867188 89.421875 C 299.113281 89.671875 299.402344 89.871094 299.726562 90.007812 C 300.046875 90.144531 300.394531 90.21875 300.742188 90.21875 C 301.277344 90.230469 301.804688 90.082031 302.253906 89.792969 C 302.707031 89.507812 303.058594 89.089844 303.273438 88.597656 C 303.484375 88.105469 303.546875 87.5625 303.449219 87.035156 C 303.355469 86.511719 303.101562 86.023438 302.726562 85.640625 C 302.355469 85.257812 301.875 84.996094 301.351562 84.886719 C 300.828125 84.777344 300.28125 84.828125 299.785156 85.03125 C 299.292969 85.234375 298.867188 85.578125 298.570312 86.023438 C 298.269531 86.464844 298.109375 86.988281 298.109375 87.523438 Z M 83 152.417969 C 83.453125 153.300781 84.042969 153.398438 84.417969 153.125 C 84.789062 152.847656 209.257812 151.765625 218.511719 151.273438 C 220.503906 151.304688 222.488281 151.054688 224.410156 150.527344 C 228.832031 146.59375 230.5625 73.046875 228.832031 69.644531 C 224.410156 60.8125 86.007812 66.5 77.5 69.074219 C 70.71875 71.121094 79.875 146.140625 83 152.417969 Z M 77.125 72.261719 C 77.125 71.90625 77.558594 70.53125 77.890625 70.433594 C 87.304688 67.601562 223.996094 62.9375 227.710938 70.332031 C 228.027344 71.8125 228.171875 73.324219 228.144531 74.839844 C 228.476562 83.414062 228.144531 101.785156 227.257812 118.25 C 227.082031 121.398438 225.6875 147.183594 223.644531 149.523438 C 215.488281 151.253906 89.800781 151.648438 84.21875 151.867188 C 81.035156 144.46875 74.15625 85.242188 77.125 72.261719 Z M 301 44.152344 C 301.53125 44.164062 302.058594 44.015625 302.507812 43.730469 C 302.960938 43.441406 303.3125 43.027344 303.527344 42.535156 C 303.738281 42.046875 303.804688 41.503906 303.707031 40.976562 C 303.613281 40.449219 303.363281 39.964844 302.992188 39.582031 C 302.617188 39.199219 302.140625 38.933594 301.617188 38.824219 C 301.09375 38.710938 300.550781 38.757812 300.054688 38.957031 C 299.558594 39.15625 299.132812 39.5 298.832031 39.941406 C 298.53125 40.382812 298.371094 40.902344 298.367188 41.4375 C 298.359375 41.789062 298.421875 42.140625 298.546875 42.46875 C 298.675781 42.796875 298.871094 43.09375 299.113281 43.347656 C 299.359375 43.601562 299.652344 43.800781 299.976562 43.941406 C 300.300781 44.078125 300.648438 44.152344 301 44.152344 Z M 301 44.152344 " fill-opacity="1" fill-rule="nonzero"/><path fill="#ffffff" d="M 115.585938 121.828125 L 138.9375 121.828125 C 141.636719 121.820312 144.226562 120.734375 146.128906 118.820312 C 148.035156 116.902344 149.101562 114.304688 149.097656 111.601562 L 149.097656 92.640625 C 149.097656 89.929688 148.03125 87.328125 146.128906 85.398438 C 144.226562 83.46875 141.644531 82.367188 138.9375 82.332031 L 115.585938 82.332031 C 114.234375 82.328125 112.890625 82.589844 111.640625 83.105469 C 110.386719 83.621094 109.25 84.382812 108.292969 85.339844 C 107.335938 86.296875 106.578125 87.4375 106.0625 88.6875 C 105.546875 89.941406 105.285156 91.285156 105.289062 92.640625 L 105.289062 111.601562 C 105.292969 112.949219 105.5625 114.285156 106.085938 115.527344 C 106.605469 116.769531 107.367188 117.898438 108.320312 118.851562 C 109.277344 119.800781 110.410156 120.550781 111.660156 121.0625 C 112.90625 121.574219 114.242188 121.835938 115.585938 121.828125 Z M 106.960938 92.640625 C 106.996094 90.367188 107.917969 88.195312 109.527344 86.59375 C 111.140625 84.992188 113.316406 84.082031 115.585938 84.0625 L 138.9375 84.0625 C 140.082031 84.050781 141.222656 84.265625 142.285156 84.695312 C 143.351562 85.125 144.316406 85.761719 145.132812 86.566406 C 145.953125 87.375 146.601562 88.335938 147.046875 89.394531 C 147.488281 90.453125 147.71875 91.589844 147.722656 92.738281 L 147.722656 111.601562 C 147.714844 112.75 147.484375 113.886719 147.039062 114.949219 C 146.597656 116.007812 145.949219 116.96875 145.132812 117.777344 C 144.316406 118.589844 143.347656 119.230469 142.285156 119.664062 C 141.222656 120.097656 140.085938 120.320312 138.9375 120.316406 L 115.585938 120.316406 C 114.449219 120.308594 113.324219 120.082031 112.273438 119.640625 C 111.222656 119.199219 110.269531 118.554688 109.46875 117.746094 C 108.667969 116.9375 108.035156 115.976562 107.605469 114.921875 C 107.171875 113.871094 106.953125 112.742188 106.960938 111.601562 Z M 178.714844 135.875 C 179.109375 137.035156 180.089844 136.777344 180.367188 136.050781 C 180.738281 135.007812 182.921875 127.515625 183.195312 126.214844 C 184.710938 125.742188 180.445312 127.21875 193.632812 122.417969 C 193.769531 122.367188 193.886719 122.273438 193.96875 122.152344 C 194.050781 122.03125 194.097656 121.886719 194.097656 121.742188 C 194.097656 121.59375 194.050781 121.449219 193.96875 121.328125 C 193.886719 121.207031 193.769531 121.117188 193.632812 121.0625 L 173.429688 112.976562 C 173.304688 112.917969 173.167969 112.894531 173.03125 112.90625 C 172.890625 112.914062 172.761719 112.960938 172.648438 113.039062 C 172.535156 113.117188 172.445312 113.222656 172.382812 113.347656 C 172.324219 113.472656 172.296875 113.609375 172.308594 113.746094 C 172.308594 113.746094 177.632812 132.746094 178.714844 135.875 Z M 174.332031 115.082031 L 191.351562 121.789062 C 189.074219 122.636719 185.21875 124.089844 183.371094 124.839844 C 182.546875 125.152344 182.214844 125.292969 182.015625 125.546875 C 181.820312 125.804688 182.507812 124.269531 179.617188 133.179688 Z M 220.714844 57.410156 C 220.738281 57.527344 220.800781 57.636719 220.894531 57.710938 C 220.988281 57.785156 221.105469 57.828125 221.226562 57.824219 C 221.636719 57.824219 234.355469 59.042969 236.949219 58.355469 C 238.617188 57.902344 238.914062 54.953125 239.070312 53.222656 C 239.269531 50.605469 239.070312 44.191406 237.96875 42.007812 C 236.476562 39.058594 225.449219 40.042969 222.246094 40.613281 C 221.398438 40.734375 220.585938 41.042969 219.871094 41.519531 C 219.453125 42 219.210938 42.609375 219.179688 43.25 C 219.160156 48.011719 219.675781 52.761719 220.714844 57.410156 Z M 221.285156 43.03125 C 224.390625 42.070312 233.234375 41.695312 236.042969 43.03125 C 237.007812 45.589844 237.519531 54.382812 236.359375 56.425781 C 234.53125 56.898438 223.367188 56.898438 221.5 56.917969 C 221.441406 55.386719 220.539062 47.105469 221.285156 43.03125 Z M 247.089844 57.332031 C 247.117188 57.449219 247.179688 57.550781 247.273438 57.628906 C 247.367188 57.703125 247.480469 57.742188 247.601562 57.746094 C 248.011719 57.746094 260.730469 58.964844 263.324219 58.277344 C 264.992188 57.824219 265.289062 54.875 265.464844 53.140625 C 265.644531 50.527344 265.464844 44.113281 264.34375 41.929688 C 262.851562 38.960938 251.828125 39.964844 248.621094 40.535156 C 247.773438 40.660156 246.964844 40.96875 246.246094 41.4375 C 245.835938 41.929688 245.597656 42.535156 245.558594 43.167969 C 245.539062 47.933594 246.054688 52.683594 247.089844 57.332031 Z M 247.660156 42.953125 C 250.765625 41.96875 259.609375 41.617188 262.417969 42.953125 C 263.382812 45.511719 263.894531 54.304688 262.734375 56.328125 C 260.90625 56.820312 249.742188 56.820312 247.875 56.839844 C 247.816406 55.304688 246.914062 47.023438 247.660156 42.953125 Z M 274.683594 58.199219 C 274.707031 58.316406 274.769531 58.421875 274.863281 58.496094 C 274.957031 58.574219 275.074219 58.613281 275.195312 58.609375 C 275.605469 58.609375 288.324219 59.832031 290.917969 59.140625 C 292.585938 58.6875 292.882812 55.738281 293.039062 54.007812 C 293.238281 51.390625 293.039062 44.980469 291.9375 42.796875 C 290.445312 39.84375 279.417969 40.828125 276.214844 41.398438 C 275.367188 41.523438 274.554688 41.832031 273.839844 42.304688 C 273.421875 42.789062 273.179688 43.398438 273.148438 44.035156 C 273.128906 48.796875 273.644531 53.550781 274.683594 58.199219 Z M 275.253906 43.820312 C 278.359375 42.855469 287.203125 42.480469 290.011719 43.820312 C 290.976562 46.375 291.488281 55.167969 290.328125 57.214844 C 288.5 57.6875 277.335938 57.6875 275.46875 57.707031 C 275.410156 56.171875 274.507812 47.890625 275.253906 43.820312 Z M 247.265625 87.585938 C 247.402344 87.976562 247.71875 88.015625 247.777344 87.996094 C 248.210938 87.996094 260.90625 89.21875 263.5 88.527344 C 265.171875 88.074219 265.464844 85.125 265.644531 83.394531 C 265.820312 80.777344 265.644531 74.367188 264.542969 72.203125 C 263.027344 69.230469 252.003906 70.234375 248.820312 70.785156 C 247.964844 70.910156 247.144531 71.21875 246.421875 71.691406 C 246.007812 72.183594 245.769531 72.800781 245.734375 73.441406 C 245.714844 78.199219 246.230469 82.941406 247.265625 87.585938 Z M 247.855469 73.207031 C 250.960938 72.242188 259.785156 71.867188 262.597656 73.207031 C 263.558594 75.761719 264.070312 84.554688 262.910156 86.601562 C 261.082031 87.074219 249.941406 87.074219 248.074219 87.09375 C 247.992188 85.558594 247.089844 77.277344 247.855469 73.207031 Z M 293.214844 71.394531 C 296.359375 66.753906 299.113281 62.5625 299.210938 62.367188 C 299.308594 62.171875 297.875 60.402344 297.03125 61.660156 C 291.015625 70.925781 291.839844 70.039062 291.410156 69.882812 C 287.949219 68.621094 276.785156 69.054688 275.039062 70.6875 C 273.859375 71.789062 274.308594 75.78125 274.449219 77.492188 C 273.191406 76.785156 272.226562 76.273438 271.871094 76.136719 C 270.96875 75.78125 271.027344 76.667969 271.519531 76.980469 L 274.585938 78.949219 C 274.832031 81.535156 275.234375 84.101562 275.785156 86.640625 C 275.804688 86.761719 275.867188 86.867188 275.960938 86.945312 C 276.054688 87.019531 276.175781 87.058594 276.296875 87.054688 C 276.707031 87.054688 289.421875 88.273438 292.019531 87.585938 C 295.398438 86.640625 294.355469 74.230469 293.214844 71.394531 Z M 276.355469 72.203125 C 280.976562 71.148438 285.769531 71.0625 290.425781 71.945312 L 283.605469 82.707031 C 282.917969 82.3125 279.242188 80.148438 276.175781 78.417969 C 276.046875 76.363281 276.105469 74.304688 276.355469 72.261719 Z M 291.429688 85.578125 C 289.582031 86.070312 278.4375 86.070312 276.570312 86.089844 C 276.570312 85.300781 276.273438 82.726562 276.136719 79.875 L 283.605469 84.515625 C 283.792969 84.535156 283.984375 84.503906 284.15625 84.417969 C 284.328125 84.335938 284.46875 84.207031 284.570312 84.042969 C 285.199219 83.238281 288.363281 78.632812 291.585938 73.894531 C 292.195312 77.433594 292.390625 83.886719 291.46875 85.578125 Z M 213.285156 43.503906 C 213.820312 43.511719 214.34375 43.359375 214.789062 43.070312 C 215.238281 42.78125 215.589844 42.363281 215.800781 41.871094 C 216.007812 41.382812 216.070312 40.839844 215.972656 40.316406 C 215.875 39.789062 215.621094 39.308594 215.25 38.925781 C 214.875 38.542969 214.398438 38.28125 213.878906 38.171875 C 213.355469 38.0625 212.8125 38.109375 212.316406 38.3125 C 211.824219 38.511719 211.398438 38.851562 211.097656 39.292969 C 210.796875 39.734375 210.636719 40.257812 210.632812 40.789062 C 210.632812 41.5 210.910156 42.179688 211.40625 42.6875 C 211.902344 43.195312 212.574219 43.488281 213.285156 43.503906 Z M 213.285156 43.503906 " fill-opacity="1" fill-rule="nonzero"/></svg>