<svg xmlns="http://www.w3.org/2000/svg" xmlns:xlink="http://www.w3.org/1999/xlink" width="500" zoomAndPan="magnify" viewBox="0 0 375 374.999991" height="500" preserveAspectRatio="xMidYMid meet" version="1.0"><path fill="#ffffff" d="M 177.800781 59.945312 C 178.25 59.574219 178.289062 58.539062 178.367188 57.523438 C 178.992188 45.867188 179.03125 34.191406 178.484375 22.535156 C 178.230469 19.933594 178.132812 19.835938 175.359375 19.621094 C 167.855469 18.976562 135.699219 19.621094 134.214844 20.988281 C 133.199219 21.96875 133.707031 56.425781 134.625 59.535156 C 134.691406 59.679688 134.796875 59.804688 134.925781 59.894531 C 135.058594 59.988281 135.210938 60.046875 135.367188 60.0625 C 137.847656 60.472656 175.671875 61.703125 177.800781 59.945312 Z M 134.644531 21.417969 C 136.304688 20.34375 172.976562 20.148438 176.863281 21.222656 C 177.859375 25.992188 177.273438 55.917969 176.707031 58.871094 C 169.808594 59.808594 139.703125 59.183594 135.816406 58.773438 C 134.753906 46.351562 134.363281 33.882812 134.644531 21.417969 Z M 179.597656 71.066406 C 179.566406 70.855469 179.480469 70.65625 179.347656 70.492188 C 179.210938 70.328125 179.035156 70.203125 178.835938 70.128906 C 175.476562 68.917969 137.125 69.71875 135.601562 71.183594 C 134.644531 72.085938 134.996094 106.367188 135.992188 109.730469 C 136.0625 109.875 136.164062 110 136.296875 110.089844 C 136.425781 110.183594 136.578125 110.242188 136.734375 110.257812 C 139.9375 110.785156 174.011719 111.605469 178.503906 110.433594 C 179.167969 110.257812 179.382812 110.003906 179.5 109.574219 C 180.28125 106.621094 180.613281 75.054688 179.597656 71.066406 Z M 178.074219 109.046875 C 171.15625 109.984375 141.207031 109.398438 137.183594 109.046875 C 136.265625 104.453125 135.523438 74.546875 136.011719 71.691406 C 137.75 70.519531 174.65625 70.5 178.230469 71.476562 C 179.148438 75.816406 178.660156 105.742188 178.074219 109.046875 Z M 230.234375 59.515625 C 230.664062 59.164062 230.703125 58.109375 230.800781 57.09375 C 231.386719 45.4375 231.386719 33.757812 230.800781 22.105469 C 230.546875 19.503906 230.429688 19.425781 227.695312 19.191406 C 220.175781 18.566406 188.039062 19.191406 186.550781 20.558594 C 185.535156 21.515625 186.023438 55.996094 186.960938 59.105469 C 187.019531 59.253906 187.117188 59.382812 187.246094 59.476562 C 187.375 59.570312 187.527344 59.625 187.6875 59.632812 C 190.382812 60.0625 228.085938 61.273438 230.234375 59.515625 Z M 187.078125 20.988281 C 190.988281 19.796875 225.800781 19.816406 229.277344 20.792969 C 230.195312 25.171875 229.785156 55.019531 229.121094 58.441406 C 222.207031 59.378906 192.238281 58.773438 188.234375 58.441406 C 187.167969 45.988281 186.785156 33.484375 187.078125 20.988281 Z M 61.832031 135.921875 C 62.105469 136.683594 63.121094 137.015625 63.960938 137.210938 C 71.113281 138.953125 97.367188 138.015625 105.476562 136.46875 C 106.335938 136.3125 108.054688 136 108.523438 135.277344 C 110.320312 132.386719 109.597656 85.882812 107.449219 83.304688 C 105.300781 80.722656 67.539062 81.171875 64.214844 83.714844 C 61.714844 85.648438 61.128906 133.890625 61.832031 135.921875 Z M 65.054688 84.710938 C 68.222656 82.503906 105.476562 81.855469 106.980469 83.675781 C 108.933594 86.019531 108.699219 131.738281 107.351562 134.496094 C 103.699219 136.449219 67.890625 137.683594 63.257812 135.433594 C 62.632812 135.0625 63.21875 88.71875 65.054688 84.710938 Z M 14.085938 149.78125 C 14.242188 150.015625 14.449219 150.207031 14.695312 150.34375 C 14.9375 150.480469 15.210938 150.554688 15.492188 150.5625 C 22.511719 151.136719 29.574219 151.019531 36.570312 150.210938 C 37.210938 150.1875 37.828125 149.960938 38.332031 149.566406 C 39.386719 148.179688 38.839844 128.730469 37.648438 127.558594 C 36.453125 126.382812 17.386719 126.324219 15.472656 127.558594 C 15.179688 127.808594 14.988281 128.152344 14.925781 128.535156 C 14.042969 135.578125 13.761719 142.6875 14.085938 149.78125 Z M 37.195312 148.746094 C 33.726562 149.230469 30.230469 149.476562 26.726562 149.488281 C 26.988281 148.957031 27.28125 148.441406 27.605469 147.945312 C 28.765625 146.425781 30.273438 145.210938 32.007812 144.402344 C 33.738281 143.597656 35.640625 143.222656 37.550781 143.3125 C 37.539062 145.128906 37.421875 146.941406 37.195312 148.746094 Z M 16.3125 128.59375 C 18.65625 127.675781 36.648438 127.421875 37.234375 127.988281 C 37.414062 128.578125 37.519531 129.1875 37.550781 129.804688 C 34.558594 130.195312 34.089844 135.84375 34.011719 138.855469 C 32.800781 136.886719 31.457031 135.007812 29.988281 133.226562 C 29.472656 132.8125 28.863281 132.539062 28.214844 132.425781 C 27.566406 132.3125 26.898438 132.367188 26.277344 132.582031 C 24.851562 133.207031 25.125 134.964844 25.320312 136.351562 C 25.820312 138.128906 26.527344 139.84375 27.429688 141.453125 C 26.257812 140.515625 21.566406 136.722656 20.238281 136.488281 C 18.910156 136.253906 17.621094 136.332031 16.957031 137.507812 C 15.003906 140.945312 19.710938 146.652344 22.507812 149.449219 C 20.15625 149.480469 17.804688 149.347656 15.472656 149.058594 C 15.238281 142.222656 15.519531 135.382812 16.3125 128.59375 Z M 16.3125 128.59375 " fill-opacity="1" fill-rule="nonzero"/><path fill="#ffffff" d="M 7.128906 156.972656 C 7.402344 157.621094 8.304688 157.855469 9.085938 157.992188 C 14.945312 159.203125 36.042969 158.519531 42.589844 157.464844 C 43.332031 157.324219 44.738281 157.109375 45.148438 156.5625 C 46.671875 154.492188 46.027344 122.121094 44.25 120.246094 C 42.746094 118.683594 12.074219 118.546875 9.203125 120.421875 C 8.824219 120.785156 8.582031 121.269531 8.519531 121.789062 C 7.011719 127.695312 6.542969 155.527344 7.128906 156.972656 Z M 9.945312 121.496094 C 12.640625 120.03125 42.550781 119.542969 43.742188 120.675781 C 44.933594 121.808594 45.109375 152.398438 43.976562 155.683594 C 40.207031 156.894531 16.996094 157.875 8.519531 156.386719 C 8.128906 155.058594 8.480469 125.679688 9.945312 121.496094 Z M 304.726562 117.078125 C 305.484375 117.949219 306.292969 118.769531 307.148438 119.542969 C 307.167969 119.574219 307.195312 119.605469 307.226562 119.625 C 307.257812 119.648438 307.296875 119.664062 307.332031 119.671875 C 307.371094 119.679688 307.410156 119.675781 307.449219 119.667969 C 307.484375 119.660156 307.519531 119.640625 307.550781 119.617188 C 307.582031 119.59375 307.609375 119.566406 307.625 119.53125 C 307.644531 119.496094 307.65625 119.460938 307.65625 119.421875 C 307.660156 119.382812 307.65625 119.34375 307.640625 119.308594 C 307.628906 119.269531 307.609375 119.238281 307.582031 119.210938 C 306.074219 116.257812 303.949219 113.664062 301.347656 111.605469 C 301.296875 111.550781 301.230469 111.519531 301.15625 111.515625 C 301.082031 111.511719 301.011719 111.539062 300.957031 111.585938 C 300.902344 111.636719 300.871094 111.707031 300.867188 111.777344 C 300.863281 111.851562 300.886719 111.921875 300.9375 111.976562 C 302.035156 113.796875 303.300781 115.503906 304.726562 117.078125 Z M 284.898438 124.410156 C 285.675781 121.441406 285.800781 118.339844 285.269531 115.320312 C 285.269531 115.25 285.242188 115.179688 285.191406 115.128906 C 285.136719 115.074219 285.066406 115.046875 284.996094 115.046875 C 284.921875 115.046875 284.851562 115.074219 284.800781 115.128906 C 284.75 115.179688 284.722656 115.25 284.722656 115.320312 C 284.472656 116.453125 284.3125 117.605469 284.234375 118.761719 C 284.03125 120.628906 284.070312 122.515625 284.351562 124.371094 C 284.3125 124.742188 284.859375 124.78125 284.898438 124.410156 Z M 259.441406 122.199219 C 260.324219 120.929688 261.0625 119.566406 261.648438 118.136719 C 262.320312 116.730469 262.8125 115.246094 263.117188 113.71875 C 263.105469 113.671875 263.085938 113.625 263.054688 113.589844 C 263.023438 113.554688 262.980469 113.523438 262.9375 113.507812 C 262.890625 113.492188 262.839844 113.488281 262.792969 113.5 C 262.746094 113.507812 262.703125 113.53125 262.667969 113.5625 C 262.46875 113.875 261.863281 114.773438 261.492188 115.515625 C 260.34375 117.578125 259.503906 119.796875 258.992188 122.101562 C 258.957031 122.136719 258.933594 122.179688 258.921875 122.230469 C 258.910156 122.277344 258.910156 122.328125 258.925781 122.375 C 258.9375 122.421875 258.964844 122.464844 259 122.496094 C 259.035156 122.53125 259.082031 122.554688 259.128906 122.566406 C 259.175781 122.574219 259.226562 122.574219 259.273438 122.558594 C 259.320312 122.542969 259.359375 122.511719 259.394531 122.476562 C 259.425781 122.4375 259.445312 122.394531 259.457031 122.347656 C 259.464844 122.296875 259.460938 122.246094 259.441406 122.199219 Z M 138.453125 257.03125 C 148.789062 257.695312 148.925781 246.515625 138.453125 248.296875 C 131.773438 248.648438 133.824219 256.679688 138.453125 257.03125 Z M 138.453125 248.882812 C 147.1875 248.433594 146.484375 256.035156 138.453125 255.546875 C 135.679688 255.410156 133.238281 249.761719 138.53125 248.882812 Z M 176.238281 250.972656 C 186.609375 251.636719 186.707031 240.457031 176.238281 242.234375 C 169.632812 242.566406 171.625 250.621094 176.238281 250.972656 Z M 176.238281 242.820312 C 184.96875 242.371094 184.285156 249.976562 176.238281 249.488281 C 173.503906 249.351562 171.039062 243.703125 176.316406 242.820312 Z M 198.429688 255.742188 C 208.785156 256.40625 208.902344 245.226562 198.429688 246.984375 C 191.808594 247.355469 193.800781 255.390625 198.429688 255.742188 Z M 198.429688 247.589844 C 207.164062 247.140625 206.480469 254.746094 198.429688 254.257812 C 195.695312 254.121094 193.214844 248.433594 198.507812 247.589844 Z M 204.46875 239.753906 C 214.800781 240.417969 214.957031 229.238281 204.46875 231.015625 C 197.84375 231.367188 199.855469 239.421875 204.46875 239.753906 Z M 204.46875 231.621094 C 213.199219 231.171875 212.496094 238.757812 204.46875 238.289062 C 201.730469 238.132812 199.25 232.480469 204.546875 231.621094 Z M 126.554688 215.515625 C 129.234375 216.164062 132.058594 215.84375 134.527344 214.617188 C 138.433594 212.503906 138.609375 207.695312 136.304688 203.945312 C 132.730469 198.082031 125.285156 198.6875 122.628906 202.890625 C 121.492188 204.910156 121.109375 207.273438 121.554688 209.554688 C 121.820312 210.890625 122.414062 212.136719 123.289062 213.179688 C 124.164062 214.21875 125.289062 215.023438 126.554688 215.515625 Z M 123.019531 209.339844 C 122.621094 207.40625 122.890625 205.394531 123.78125 203.632812 C 124.71875 202.285156 126.09375 201.304688 127.671875 200.855469 C 129.246094 200.40625 130.929688 200.519531 132.4375 201.167969 C 136.460938 203.4375 138.589844 211.058594 133.84375 213.386719 C 131.726562 214.398438 129.335938 214.671875 127.042969 214.167969 C 126.027344 213.757812 125.128906 213.101562 124.425781 212.257812 C 123.722656 211.417969 123.242188 210.414062 123.019531 209.339844 Z M 123.019531 209.339844 " fill-opacity="1" fill-rule="nonzero"/><path fill="#ffffff" d="M 127.121094 204.433594 C 126.886719 204.042969 125.636719 203.691406 125.734375 204.882812 C 125.832031 206.074219 127.867188 205.625 127.121094 204.433594 Z M 131.480469 204.472656 C 131.910156 203.789062 130.210938 202.515625 130.035156 204.140625 C 129.976562 204.667969 130.71875 205.625 131.480469 204.472656 Z M 126.613281 209.339844 C 125.890625 209.828125 128.140625 212.074219 130.914062 210.824219 C 131.339844 210.648438 131.710938 210.359375 131.984375 209.988281 C 132.253906 209.613281 132.417969 209.175781 132.457031 208.714844 C 132.46875 208.675781 132.472656 208.636719 132.46875 208.597656 C 132.464844 208.558594 132.453125 208.523438 132.4375 208.488281 C 132.417969 208.453125 132.394531 208.421875 132.363281 208.398438 C 132.332031 208.371094 132.296875 208.355469 132.261719 208.34375 C 132.222656 208.332031 132.183594 208.328125 132.144531 208.332031 C 132.105469 208.332031 132.070312 208.34375 132.035156 208.363281 C 132 208.382812 131.96875 208.40625 131.945312 208.4375 C 131.921875 208.464844 131.902344 208.5 131.890625 208.539062 C 131.222656 209.082031 130.429688 209.449219 129.582031 209.605469 C 128.734375 209.761719 127.863281 209.707031 127.042969 209.4375 C 126.996094 209.371094 126.925781 209.324219 126.847656 209.304688 C 126.769531 209.289062 126.6875 209.300781 126.613281 209.339844 Z M 150.195312 219.386719 C 151.972656 220.128906 160.394531 219.914062 161.78125 218.15625 C 162.132812 217.722656 161.898438 217.292969 161.644531 216.804688 C 160.785156 215.164062 155.996094 207.148438 154.277344 207.441406 C 152.558594 207.738281 150.839844 212.328125 150.371094 213.835938 C 149.902344 215.339844 148.769531 218.78125 150.195312 219.386719 Z M 152.148438 211.917969 C 152.402344 211.15625 153.496094 208.1875 154.277344 208.011719 C 155.058594 207.835938 160.140625 217.195312 160.257812 217.390625 C 157.167969 218.207031 153.953125 218.433594 150.78125 218.058594 C 150.96875 215.953125 151.457031 213.886719 152.226562 211.917969 Z M 200.910156 117.667969 C 200.882812 117.488281 200.792969 117.324219 200.652344 117.207031 C 200.515625 117.089844 200.339844 117.027344 200.160156 117.027344 C 199.980469 117.027344 199.804688 117.089844 199.664062 117.207031 C 199.527344 117.324219 199.4375 117.488281 199.40625 117.667969 C 199.425781 118.125 199.503906 118.578125 199.640625 119.015625 C 199.65625 119.125 199.695312 119.226562 199.757812 119.316406 C 199.816406 119.410156 199.894531 119.488281 199.984375 119.546875 C 200.078125 119.605469 200.179688 119.644531 200.289062 119.660156 C 200.398438 119.675781 200.507812 119.664062 200.613281 119.632812 C 200.71875 119.605469 200.8125 119.550781 200.898438 119.476562 C 200.980469 119.40625 201.042969 119.316406 201.089844 119.21875 C 201.132812 119.117188 201.15625 119.011719 201.15625 118.902344 C 201.15625 118.792969 201.132812 118.683594 201.085938 118.585938 C 201 118.285156 200.941406 117.976562 200.910156 117.667969 Z M 205.09375 124.292969 C 205.59375 124.070312 206.050781 123.757812 206.441406 123.375 C 206.753906 123.082031 206.617188 122.75 206.167969 122.828125 L 204.859375 123.101562 C 204.597656 122.148438 204.433594 121.171875 204.371094 120.1875 C 204.371094 119.445312 204.039062 117.058594 203.648438 116.902344 C 203.257812 116.746094 203.160156 117.511719 203.042969 118.175781 C 202.691406 120.402344 202.984375 125.113281 205.09375 124.292969 Z M 208.316406 117.136719 C 208.34375 117.316406 208.4375 117.480469 208.574219 117.597656 C 208.710938 117.714844 208.886719 117.78125 209.066406 117.78125 C 209.25 117.78125 209.425781 117.714844 209.5625 117.597656 C 209.699219 117.480469 209.789062 117.316406 209.820312 117.136719 L 209.820312 116.0625 C 209.796875 115.863281 209.699219 115.683594 209.546875 115.550781 C 209.394531 115.421875 209.199219 115.351562 209 115.359375 C 208.800781 115.378906 208.613281 115.476562 208.484375 115.628906 C 208.351562 115.78125 208.285156 115.980469 208.296875 116.179688 C 208.21875 116.316406 208.316406 117.136719 208.316406 117.136719 Z M 209.078125 125.523438 C 208.804688 125.523438 209.078125 125.523438 207.613281 126.675781 C 207.472656 126.792969 207.320312 126.898438 207.164062 126.988281 C 205.71875 127.832031 205.054688 127.363281 204.917969 127.792969 C 204.78125 128.222656 205.933594 128.90625 207.203125 128.59375 C 209.273438 128.085938 209.605469 125.679688 209.078125 125.523438 Z M 67.636719 129.472656 C 67.851562 130.136719 68.671875 130.429688 69.355469 130.585938 C 74.921875 131.992188 94.886719 131.191406 100.828125 130.019531 C 101.570312 129.863281 102.78125 129.609375 103.230469 129.003906 C 104.636719 126.675781 103.953125 90.574219 102.332031 88.542969 C 100.710938 86.507812 72.109375 86.761719 69.492188 88.796875 C 67.539062 90.359375 67.085938 127.871094 67.636719 129.472656 Z M 99.089844 111.878906 C 99.671875 111.671875 100.292969 111.597656 100.90625 111.660156 C 101.523438 111.726562 102.117188 111.925781 102.644531 112.253906 C 102.726562 117.589844 102.523438 122.925781 102.039062 128.242188 L 101.648438 128.378906 C 100.316406 123.402344 97.605469 118.902344 93.832031 115.398438 C 95.445312 114.011719 97.207031 112.8125 99.089844 111.820312 Z M 91.917969 96.242188 C 95.140625 98.316406 95.042969 103.632812 89.417969 103.691406 C 86 103.691406 84.535156 102.046875 84.535156 100.09375 C 84.511719 99.226562 84.734375 98.371094 85.171875 97.621094 C 85.613281 96.871094 86.25 96.261719 87.019531 95.855469 C 87.785156 95.449219 88.648438 95.265625 89.515625 95.324219 C 90.378906 95.382812 91.214844 95.679688 91.917969 96.183594 Z M 72.65625 112.664062 C 78.378906 109.242188 82.621094 109.046875 88.285156 112.664062 C 93.34375 115.925781 98.894531 122.4375 100.222656 128.710938 C 94.359375 129.765625 71.855469 130.664062 68.964844 129.082031 C 68.710938 128.027344 68.613281 116.960938 68.613281 115.75 C 69.855469 114.574219 71.207031 113.519531 72.65625 112.605469 Z M 259.617188 330.957031 C 258.710938 331.027344 257.816406 331.183594 256.941406 331.425781 C 256.023438 331.777344 255.222656 332.34375 255.671875 333.222656 C 256.238281 334.480469 257.101562 335.582031 258.191406 336.429688 C 258.464844 336.722656 258.894531 336.292969 258.621094 336 C 258.347656 335.707031 258.308594 335.101562 257.214844 332.929688 C 258.144531 332.527344 259.039062 332.050781 259.890625 331.503906 C 259.949219 331.460938 259.988281 331.398438 260.003906 331.328125 C 260.019531 331.257812 260.007812 331.183594 259.976562 331.121094 C 259.945312 331.054688 259.890625 331.003906 259.828125 330.976562 C 259.761719 330.945312 259.6875 330.9375 259.617188 330.957031 Z M 255.652344 325.347656 C 255.28125 325.3125 254.90625 325.390625 254.574219 325.5625 C 254.242188 325.734375 253.96875 326 253.78125 326.328125 C 253.597656 326.652344 253.507812 327.023438 253.527344 327.398438 C 253.550781 327.769531 253.675781 328.132812 253.894531 328.433594 C 253.910156 328.503906 253.949219 328.5625 254.003906 328.605469 C 254.058594 328.648438 254.128906 328.671875 254.195312 328.671875 C 254.265625 328.671875 254.332031 328.648438 254.386719 328.605469 C 254.441406 328.5625 254.480469 328.503906 254.5 328.433594 C 254.5 327.9375 254.632812 327.449219 254.878906 327.019531 C 255.125 326.585938 255.480469 326.226562 255.90625 325.972656 C 256.199219 325.757812 256.140625 325.25 255.652344 325.347656 Z M 205.386719 130.996094 C 205.179688 130.988281 204.980469 131.050781 204.8125 131.167969 C 204.648438 131.285156 204.523438 131.457031 204.460938 131.648438 C 204.402344 131.84375 204.402344 132.054688 204.472656 132.246094 C 204.539062 132.441406 204.667969 132.605469 204.839844 132.71875 C 205.042969 132.847656 205.289062 132.890625 205.523438 132.84375 C 205.761719 132.796875 205.96875 132.660156 206.109375 132.464844 C 206.195312 132.324219 206.246094 132.164062 206.253906 132 C 206.261719 131.835938 206.230469 131.675781 206.15625 131.527344 C 206.085938 131.378906 205.976562 131.253906 205.839844 131.160156 C 205.707031 131.070312 205.546875 131.011719 205.386719 130.996094 Z M 208.824219 132.289062 C 208.578125 132.3125 208.351562 132.421875 208.179688 132.601562 C 208.011719 132.78125 207.914062 133.019531 207.90625 133.265625 C 207.902344 133.445312 207.957031 133.625 208.054688 133.777344 C 208.15625 133.929688 208.296875 134.050781 208.464844 134.121094 C 208.632812 134.191406 208.816406 134.210938 208.996094 134.175781 C 209.175781 134.144531 209.339844 134.058594 209.46875 133.929688 C 209.613281 133.800781 209.714844 133.632812 209.761719 133.445312 C 209.804688 133.257812 209.792969 133.0625 209.722656 132.882812 C 209.652344 132.703125 209.527344 132.550781 209.367188 132.441406 C 209.207031 132.335938 209.015625 132.28125 208.824219 132.289062 Z M 208.765625 129.335938 C 208.726562 129.472656 208.71875 129.621094 208.746094 129.761719 C 208.773438 129.90625 208.832031 130.039062 208.917969 130.15625 C 209.007812 130.269531 209.117188 130.363281 209.246094 130.429688 C 209.375 130.492188 209.519531 130.527344 209.664062 130.527344 C 209.800781 130.523438 209.9375 130.492188 210.0625 130.429688 C 210.1875 130.371094 210.296875 130.285156 210.386719 130.179688 C 210.476562 130.078125 210.546875 129.953125 210.585938 129.824219 C 210.625 129.691406 210.636719 129.550781 210.621094 129.414062 C 210.578125 129.203125 210.46875 129.015625 210.304688 128.878906 C 210.140625 128.738281 209.9375 128.660156 209.722656 128.648438 C 209.511719 128.640625 209.300781 128.703125 209.125 128.828125 C 208.953125 128.953125 208.824219 129.128906 208.765625 129.335938 Z M 214.078125 133.363281 C 214.28125 133.367188 214.480469 133.304688 214.644531 133.1875 C 214.808594 133.070312 214.925781 132.902344 214.984375 132.707031 C 215.042969 132.511719 215.035156 132.304688 214.964844 132.117188 C 214.890625 131.925781 214.757812 131.769531 214.585938 131.660156 C 214.445312 131.574219 214.285156 131.527344 214.121094 131.523438 C 213.957031 131.519531 213.792969 131.558594 213.648438 131.640625 C 213.503906 131.71875 213.382812 131.835938 213.296875 131.976562 C 213.210938 132.117188 213.164062 132.277344 213.160156 132.445312 C 213.164062 132.6875 213.265625 132.917969 213.433594 133.085938 C 213.605469 133.257812 213.835938 133.355469 214.078125 133.363281 Z M 215.777344 129.003906 C 215.910156 128.976562 216.03125 128.921875 216.140625 128.84375 C 216.25 128.765625 216.339844 128.664062 216.40625 128.550781 C 216.472656 128.433594 216.511719 128.304688 216.523438 128.171875 C 216.535156 128.039062 216.519531 127.90625 216.476562 127.777344 C 216.433594 127.652344 216.363281 127.539062 216.273438 127.441406 C 216.179688 127.34375 216.070312 127.265625 215.945312 127.214844 C 215.824219 127.164062 215.691406 127.140625 215.558594 127.144531 C 215.421875 127.152344 215.292969 127.183594 215.171875 127.242188 C 214.96875 127.347656 214.808594 127.519531 214.722656 127.730469 C 214.636719 127.9375 214.628906 128.175781 214.703125 128.390625 C 214.777344 128.605469 214.929688 128.785156 215.125 128.898438 C 215.324219 129.011719 215.554688 129.050781 215.777344 129.003906 Z M 215.777344 129.003906 " fill-opacity="1" fill-rule="nonzero"/><path fill="#ffffff" d="M 362.046875 224.332031 C 358.324219 223.207031 354.324219 223.4375 350.753906 224.976562 C 358.824219 214.617188 363.160156 204.257812 363.160156 190.300781 C 363.160156 182.382812 362.378906 174.9375 354.898438 172.453125 C 350.285156 170.910156 342.21875 173.316406 337.84375 175.542969 C 337.84375 167.253906 338.527344 58.011719 335.554688 50.113281 C 335.320312 49.429688 333.992188 49.136719 333.210938 48.941406 C 324.792969 46.890625 284.371094 43.214844 282.417969 44.914062 C 281.148438 46.007812 281.578125 54.277344 281.65625 55.917969 C 279.019531 55.917969 266.457031 55.742188 264.777344 57.757812 C 262.175781 60.824219 248.347656 96.515625 249.148438 100.484375 C 249.183594 100.710938 249.296875 100.914062 249.460938 101.070312 C 257.742188 109.144531 312.523438 107.679688 315.023438 102.65625 C 316.644531 99.722656 305.644531 61.039062 303.691406 58.832031 C 301.738281 56.621094 285.464844 56.035156 282.359375 55.996094 C 282.152344 52.734375 282.273438 49.460938 282.710938 46.222656 C 282.90625 45.402344 283.042969 45.480469 283.355469 45.421875 C 288.589844 44.464844 331.316406 48.6875 334.519531 50.699219 C 335.964844 55.15625 335.984375 83.597656 336.628906 176.324219 C 331.0625 179.511719 326.652344 184.394531 324.050781 190.261719 C 321.46875 189.871094 317.953125 192.804688 316.117188 194.640625 C 313.613281 197.195312 311.4375 200.050781 309.632812 203.144531 C 309.296875 197.488281 308.359375 191.886719 306.835938 186.429688 C 302.402344 174.488281 289.039062 153.203125 279.722656 162.191406 C 276.1875 166.179688 273.785156 171.039062 272.765625 176.265625 C 269.367188 173.035156 265.625 170.1875 261.609375 167.765625 C 259.246094 159.453125 254.023438 152.246094 246.859375 147.417969 C 243.949219 145.371094 240.863281 143.582031 237.640625 142.078125 C 237.613281 142.015625 237.582031 141.957031 237.542969 141.902344 C 235.589844 139.695312 230.566406 139.03125 227.578125 138.914062 C 227.851562 136.664062 225.917969 126.890625 225.449219 124.507812 C 226.03125 124.519531 226.605469 124.371094 227.109375 124.078125 C 229.0625 123.960938 236.722656 123.589844 238.109375 122.359375 C 238.363281 122.066406 238.527344 121.707031 238.578125 121.320312 C 238.902344 119.308594 239.113281 117.28125 239.203125 115.242188 C 240.160156 100.796875 239.515625 101.558594 239.964844 101.558594 C 246.136719 103.847656 248.171875 97.886719 239.964844 94.992188 L 239.964844 94.40625 C 242.367188 93.878906 245.160156 92.765625 244.046875 90.496094 C 243.59375 89.859375 242.988281 89.34375 242.285156 89.003906 C 241.582031 88.660156 240.804688 88.503906 240.023438 88.542969 C 240.023438 83.578125 241.332031 14.089844 238.207031 10.355469 C 234.710938 6.191406 127.867188 8.246094 124.210938 12.117188 C 122.003906 14.34375 123.371094 112.507812 125.910156 121.847656 C 126.046875 122.339844 126.574219 122.4375 127.082031 122.515625 C 135.542969 123.882812 185.691406 124.46875 197.414062 124.585938 C 197.664062 125.847656 197.980469 127.09375 198.371094 128.320312 C 199.269531 130.554688 200.597656 132.59375 202.277344 134.320312 C 203.75 135.351562 205.484375 135.9375 207.28125 136.019531 C 206.695312 137.351562 205.5625 139.8125 204.976562 141.042969 C 199.464844 142.667969 194.203125 145.050781 189.347656 148.121094 C 176.21875 157.167969 166.507812 174.019531 159.125 187.839844 C 157.742188 190.574219 156.546875 193.402344 155.546875 196.300781 C 147.421875 196.085938 114.015625 197.257812 113.136719 198.257812 C 112.6875 198.6875 113.136719 199.585938 113.253906 200.386719 C 114.777344 206.035156 120.460938 224.449219 122.804688 231.054688 C 119.269531 231.621094 115.734375 232.34375 112.195312 233.011719 C 112.101562 232.75 111.992188 232.492188 111.863281 232.246094 C 111.816406 232.132812 111.746094 232.03125 111.65625 231.945312 C 111.566406 231.859375 111.460938 231.792969 111.347656 231.75 C 111.230469 231.707031 111.109375 231.6875 110.984375 231.691406 C 110.863281 231.695312 110.742188 231.726562 110.628906 231.777344 C 110.519531 231.832031 110.417969 231.90625 110.335938 231.996094 C 110.253906 232.089844 110.191406 232.195312 110.152344 232.3125 C 110.113281 232.429688 110.097656 232.554688 110.105469 232.675781 C 110.113281 232.800781 110.148438 232.921875 110.203125 233.03125 C 110.242188 233.113281 110.273438 233.195312 110.300781 233.285156 C 106.121094 233.851562 103.640625 233.792969 94.417969 235.101562 C 94.355469 234.890625 94.21875 234.710938 94.035156 234.59375 C 93.851562 234.472656 93.628906 234.425781 93.410156 234.457031 C 93.195312 234.488281 92.996094 234.59375 92.851562 234.757812 C 92.707031 234.925781 92.625 235.136719 92.621094 235.355469 C 87.269531 236.15625 82.484375 236.996094 76.796875 238.054688 C 76.71875 237.804688 76.628906 237.566406 76.523438 237.328125 C 76.425781 237.105469 76.242188 236.929688 76.015625 236.839844 C 75.792969 236.75 75.539062 236.75 75.3125 236.839844 C 75.199219 236.886719 75.097656 236.957031 75.011719 237.042969 C 74.929688 237.128906 74.859375 237.230469 74.816406 237.34375 C 74.769531 237.457031 74.746094 237.578125 74.75 237.699219 C 74.75 237.820312 74.777344 237.941406 74.824219 238.054688 C 74.824219 238.171875 74.824219 238.269531 74.960938 238.386719 C 70.117188 239.285156 65.191406 240.222656 60.445312 241.101562 L 60.445312 240.28125 C 60.40625 240.042969 60.28125 239.828125 60.09375 239.675781 C 59.90625 239.523438 59.671875 239.449219 59.429688 239.460938 C 59.308594 239.472656 59.191406 239.507812 59.085938 239.566406 C 58.976562 239.625 58.882812 239.703125 58.808594 239.796875 C 58.730469 239.890625 58.675781 240 58.640625 240.117188 C 58.605469 240.234375 58.59375 240.355469 58.609375 240.476562 C 58.628906 240.796875 58.628906 241.117188 58.609375 241.433594 C 56.207031 241.863281 53.785156 242.253906 51.359375 242.644531 C 51.289062 242.449219 51.148438 242.28125 50.964844 242.175781 C 50.785156 242.066406 50.570312 242.027344 50.359375 242.058594 C 50.152344 242.089844 49.960938 242.195312 49.820312 242.351562 C 49.675781 242.507812 49.59375 242.707031 49.582031 242.917969 C 33.523438 245.402344 36.882812 244.601562 32.390625 235.648438 C 31.628906 233.597656 30.335938 231.789062 28.640625 230.410156 C 28.371094 230.253906 28.074219 230.15625 27.765625 230.117188 C 27.460938 230.078125 27.148438 230.101562 26.847656 230.183594 C 26.550781 230.269531 26.273438 230.410156 26.027344 230.605469 C 25.785156 230.796875 25.585938 231.035156 25.4375 231.308594 C 24.1875 233.070312 25.066406 238.992188 25.4375 241.257812 C 25.808594 243.527344 27.800781 254.042969 29.167969 255.410156 C 29.675781 255.917969 31.335938 255.957031 32.820312 256.035156 L 32.820312 256.484375 C 19.261719 257.753906 2.070312 262.542969 0.859375 276.1875 C -0.0390625 286.410156 8.246094 290.457031 18.226562 292.625 C 17.601562 296.046875 9.242188 340.710938 9.691406 343.308594 C 10.238281 346.261719 17.308594 347.980469 18.5 344.796875 C 20.335938 339.8125 27.039062 299.3125 27.917969 293.976562 C 37.910156 294.882812 47.972656 294.6875 57.925781 293.390625 C 58.824219 298.707031 65.484375 338.972656 67.324219 343.957031 C 68.496094 347.121094 75.585938 345.402344 76.113281 342.46875 C 76.582031 339.871094 68.300781 295.675781 67.5 291.296875 C 78.613281 287.972656 89.945312 281.171875 88.402344 269.621094 C 102.625 268.976562 118.898438 267.214844 132.964844 265.378906 C 132.949219 267.898438 133.539062 270.382812 134.683594 272.628906 C 136.070312 275.230469 141.050781 277.007812 143.847656 277.90625 C 143.339844 280.625 133.824219 331.230469 134.3125 333.988281 C 134.800781 336.742188 141.929688 338.640625 143.105469 335.472656 C 145.058594 330.292969 152.167969 286.839844 153.28125 280.351562 C 174.929688 284.828125 184.96875 283.519531 192.726562 282.636719 C 192.921875 284.964844 196.632812 333.046875 197.863281 335.414062 C 199.152344 338.109375 206.441406 337.914062 206.753906 334.554688 C 207.242188 329.140625 202.847656 286.664062 202.433594 281.367188 C 214.34375 279.855469 226.042969 276.996094 237.308594 272.84375 C 239.652344 281.777344 245.609375 304.121094 246.117188 305.9375 C 240.449219 308.164062 235.648438 312.171875 232.441406 317.351562 C 229 318.886719 225.648438 320.617188 222.402344 322.53125 C 220.609375 323.320312 218.882812 324.253906 217.242188 325.328125 C 215.695312 326.308594 214.363281 327.601562 213.335938 329.121094 C 213.222656 329.371094 213.164062 329.644531 213.164062 329.921875 C 213.164062 330.199219 213.222656 330.46875 213.335938 330.722656 C 213.8125 331.691406 214.476562 332.554688 215.289062 333.261719 C 218.867188 336.371094 220.683594 334.90625 227.480469 344.621094 C 230.957031 349.566406 232.226562 355.878906 236.585938 361.214844 C 239.652344 364.96875 241.175781 369.035156 248.308594 367.214844 C 252.214844 366.238281 254.363281 364.539062 259.695312 363.089844 C 262.410156 362.367188 265.207031 361.839844 267.921875 361.019531 C 284.761719 355.976562 280.796875 357.34375 292.320312 355.703125 C 294.277344 355.410156 296.367188 354.960938 298.378906 354.648438 C 301.90625 354.359375 305.449219 354.253906 308.988281 354.335938 C 309.433594 354.21875 309.832031 353.96875 310.132812 353.621094 C 310.429688 353.269531 310.617188 352.839844 310.667969 352.378906 C 310.835938 351.355469 310.882812 350.308594 310.804688 349.273438 C 311.003906 346.894531 310.414062 344.515625 309.125 342.507812 C 318.148438 344.074219 341.925781 342.195312 343.917969 341.023438 C 344.101562 340.929688 344.253906 340.777344 344.347656 340.59375 C 345.519531 338.070312 347.179688 315.515625 347.199219 306.875 C 347.855469 306.769531 348.503906 306.648438 349.152344 306.503906 C 350.519531 306.171875 350.714844 299.78125 349.855469 298.039062 C 349.785156 297.871094 349.679688 297.71875 349.546875 297.59375 C 349.410156 297.46875 349.25 297.375 349.074219 297.316406 C 343.488281 296.046875 328.191406 296.359375 322.171875 296.59375 C 321.953125 289.3125 321.164062 282.058594 319.808594 274.898438 C 327.054688 273.234375 334.09375 270.789062 340.8125 267.605469 C 353.335938 261.410156 360.601562 258.96875 368.984375 246.867188 C 374.980469 238.269531 371.953125 227.613281 362.046875 224.332031 Z M 303.222656 59.144531 C 305.175781 61.097656 314.300781 96.28125 314.144531 101.714844 C 314.027344 106.210938 258.640625 107.582031 250.652344 100.171875 C 250.75 94.054688 263.78125 60.824219 265.714844 58.480469 C 267.648438 56.132812 300.683594 56.40625 303.222656 59.144531 Z M 342.570312 175.113281 C 345.832031 174.039062 351.164062 172.769531 354.429688 173.863281 C 361.1875 176.109375 361.65625 183.207031 361.65625 190.300781 C 361.65625 205.039062 356.695312 215.554688 347.765625 226.324219 C 343.664062 228.589844 339.921875 231.453125 336.667969 234.828125 C 338.425781 227.507812 338.855469 219.9375 337.941406 212.464844 C 337.789062 211.140625 337.507812 209.828125 337.097656 208.558594 C 338.460938 204.4375 340.144531 200.429688 342.140625 196.574219 C 345.285156 190.710938 346.554688 190.808594 346.046875 190.320312 C 346.023438 190.292969 345.988281 190.269531 345.953125 190.253906 C 345.917969 190.238281 345.882812 190.226562 345.84375 190.226562 C 345.804688 190.226562 345.765625 190.238281 345.730469 190.253906 C 345.695312 190.269531 345.664062 190.292969 345.636719 190.320312 C 341.503906 194.988281 338.347656 200.4375 336.355469 206.347656 C 334.539062 201.5 329.851562 192.804688 325.261719 190.710938 C 326.902344 187.050781 329.289062 183.769531 332.269531 181.085938 C 335.25 178.398438 338.757812 176.367188 342.570312 175.113281 Z M 317.054688 195.65625 C 318.714844 193.78125 320.878906 192.421875 323.289062 191.746094 C 327 191.160156 335.710938 204.726562 336.433594 212.738281 C 337.46875 220.945312 336.804688 229.277344 334.480469 237.210938 C 332.527344 239.34375 330.707031 241.597656 329.03125 243.957031 C 325.339844 249.195312 323.367188 250.25 320.277344 258.636719 C 320.804688 237.875 322.445312 211.214844 322.445312 210.335938 C 322.464844 210.292969 322.472656 210.242188 322.46875 210.191406 C 322.464844 210.144531 322.449219 210.097656 322.421875 210.054688 C 322.394531 210.015625 322.359375 209.980469 322.3125 209.957031 C 322.269531 209.9375 322.222656 209.925781 322.171875 209.925781 C 321.839844 209.925781 321.839844 210.335938 321.800781 210.648438 C 321.273438 215.632812 319.320312 248.433594 318.929688 261.15625 C 315.472656 244.484375 307.207031 238.191406 304.414062 234.144531 C 303.339844 220.675781 307.402344 205.175781 317.054688 195.65625 Z M 277.984375 210.648438 C 279.9375 216.023438 283.433594 223.667969 287.75 227.359375 C 283.292969 226.421875 278.671875 226.652344 274.328125 228.027344 C 275.324219 224.527344 277.453125 214.851562 278.023438 210.589844 Z M 271.632812 232.792969 C 271.597656 232.265625 271.726562 231.742188 272.003906 231.289062 C 275.910156 226.128906 296.992188 225.992188 309.125 242.273438 C 314.992188 250.570312 318.230469 260.4375 318.421875 270.597656 C 313.011719 261.449219 294.257812 243.507812 282.164062 239.324219 C 282.125 239.3125 282.085938 239.304688 282.046875 239.308594 C 282.007812 239.308594 281.96875 239.320312 281.933594 239.335938 C 281.898438 239.355469 281.867188 239.378906 281.839844 239.410156 C 281.816406 239.4375 281.796875 239.472656 281.78125 239.507812 C 281.769531 239.546875 281.765625 239.585938 281.765625 239.625 C 281.769531 239.664062 281.78125 239.703125 281.796875 239.738281 C 281.8125 239.773438 281.839844 239.804688 281.867188 239.832031 C 281.898438 239.855469 281.929688 239.878906 281.96875 239.890625 C 296.210938 245.109375 318.597656 269.386719 318.304688 274.332031 C 317.097656 274.308594 315.886719 274.386719 314.691406 274.566406 C 312.996094 274.566406 311.304688 274.433594 309.632812 274.175781 C 304.277344 273.257812 300.839844 270.792969 292.695312 263.132812 C 286.960938 257.882812 281.636719 252.207031 276.769531 246.144531 C 274.914062 242.917969 271.574219 236.566406 271.632812 232.792969 Z M 273.976562 177.027344 C 274.878906 171.875 277.191406 167.070312 280.660156 163.152344 C 288.746094 155.332031 301.464844 176.382812 305.351562 186.859375 C 307 192.980469 307.984375 199.257812 308.285156 205.585938 C 304.496094 213.796875 302.730469 222.800781 303.144531 231.835938 C 297.558594 223.394531 289.78125 205.039062 286.949219 190.789062 C 286.421875 188.269531 284.292969 174.957031 284.292969 173.414062 C 284.527344 173.023438 283.707031 172.574219 283.667969 173.414062 C 284.140625 182.046875 285.402344 190.617188 287.4375 199.019531 C 290.425781 209.492188 294.609375 219.585938 299.902344 229.101562 C 304.121094 236.917969 304.960938 233.910156 295.644531 229.628906 C 293.753906 228.800781 291.789062 228.148438 289.78125 227.671875 C 288.738281 226.90625 287.769531 226.042969 286.890625 225.09375 C 279.175781 216.160156 272.101562 191.277344 273.976562 177.046875 Z M 127.082031 237.621094 C 129.957031 237.777344 133.160156 236.976562 134.351562 234.398438 L 148.320312 234.75 C 148.191406 236.007812 148.554688 237.269531 149.332031 238.269531 C 150.113281 239.265625 151.246094 239.925781 152.5 240.105469 C 153.644531 240.253906 154.808594 240.167969 155.917969 239.847656 C 157.027344 239.53125 158.058594 238.984375 158.949219 238.25 C 159.410156 237.839844 159.769531 237.328125 160 236.753906 C 160.226562 236.179688 160.316406 235.558594 160.257812 234.945312 L 169.457031 235.082031 C 169.945312 235.785156 197.277344 232.597656 199.71875 231.445312 C 200.929688 230.878906 200.578125 228.886719 199.875 227.75 C 200.109375 227.75 199.992188 227.75 200.265625 228.203125 C 200.433594 228.609375 200.710938 228.960938 201.066406 229.21875 C 204.414062 229.625 207.808594 229.230469 210.972656 228.066406 C 211.597656 227.632812 211.519531 227.125 211.382812 226.324219 C 228.730469 223.863281 227.285156 224.371094 237.132812 222.101562 C 237.679688 221.984375 230.292969 224.546875 225.898438 226.910156 C 223.777344 228.03125 221.808594 229.414062 220.039062 231.035156 C 215.582031 235.316406 205.777344 266.0625 197.941406 267.546875 C 188.375 269.152344 178.632812 269.429688 168.988281 268.371094 C 169.265625 267.6875 169.335938 266.9375 169.191406 266.210938 C 169.046875 265.488281 168.6875 264.824219 168.167969 264.304688 C 167.355469 263.554688 166.398438 262.976562 165.359375 262.597656 C 164.320312 262.21875 163.21875 262.046875 162.113281 262.09375 C 158.714844 262.09375 157.011719 264.1875 157.621094 266.902344 C 148.675781 265.457031 139.851562 263.375 131.207031 260.667969 C 130.347656 258.207031 127.535156 240.613281 127.082031 237.621094 Z M 126.769531 234.105469 L 132.632812 234.359375 C 131.925781 235.050781 131.074219 235.578125 130.136719 235.894531 C 129.199219 236.214844 128.203125 236.316406 127.21875 236.195312 C 127.140625 235.980469 126.984375 235.121094 126.769531 234.105469 Z M 158.8125 234.925781 C 158.820312 235.054688 158.820312 235.1875 158.8125 235.316406 C 158.753906 235.796875 158.585938 236.253906 158.316406 236.65625 C 158.050781 237.054688 157.6875 237.386719 157.265625 237.621094 C 155.832031 238.449219 154.167969 238.800781 152.519531 238.621094 C 151.722656 238.457031 151 238.046875 150.445312 237.453125 C 149.890625 236.855469 149.539062 236.101562 149.433594 235.296875 C 149.421875 235.121094 149.421875 234.945312 149.433594 234.769531 Z M 176.960938 220.5 L 172.25 221.085938 C 186.609375 201.851562 178.464844 210.53125 176.960938 220.5 Z M 171.3125 222.453125 L 177.175781 221.789062 C 177.664062 222.648438 182.351562 224.175781 183.25 224.46875 C 183.078125 224.792969 182.933594 225.132812 182.820312 225.484375 C 178.621094 225.171875 174.207031 224.878906 169.632812 224.722656 Z M 210.015625 226.929688 C 207.355469 227.6875 204.59375 228.019531 201.828125 227.910156 C 199.726562 223.0625 197.921875 218.085938 196.4375 213.015625 C 198.675781 211.054688 201.359375 209.671875 204.253906 208.988281 C 205.113281 211.039062 209.917969 224.859375 210.015625 226.929688 Z M 199.445312 226.402344 C 188.46875 227.085938 185.769531 227.476562 184.03125 227.046875 C 183.914062 222.296875 192.0625 219.835938 196.789062 219.074219 C 197.726562 221.945312 198.703125 224.566406 199.445312 226.382812 Z M 176.882812 230.683594 C 179.109375 230.371094 196.417969 228.066406 198.644531 228.59375 C 198.917969 229.058594 199.046875 229.597656 199.015625 230.136719 C 196.320312 230.957031 170.238281 234.4375 170.003906 234.457031 C 169.757812 233.699219 169.625 232.910156 169.613281 232.109375 L 169.613281 231.953125 C 170.589844 231.933594 166.9375 232.050781 176.882812 230.664062 Z M 168.5 226.03125 C 172.40625 226.1875 176.492188 226.402344 182.566406 226.890625 C 182.566406 227.417969 182.566406 227.910156 183.113281 228.300781 C 183.660156 228.691406 185.066406 228.125 176.433594 229.746094 C 173.996094 230.074219 171.597656 230.660156 169.28125 231.484375 C 168.109375 225.5625 168.050781 226.558594 168.5 226.011719 Z M 167.640625 267.761719 C 157.582031 266.707031 158.265625 267.058594 158.246094 266.628906 C 158.1875 266.113281 158.269531 265.59375 158.488281 265.121094 C 158.703125 264.648438 159.046875 264.242188 159.476562 263.953125 C 161.664062 262.523438 168.890625 264.246094 167.640625 267.742188 Z M 236.214844 142.15625 C 235.6875 142.570312 217.515625 156.386719 214.839844 158.070312 C 213.488281 155.957031 211.992188 153.941406 210.367188 152.027344 C 212.554688 149.605469 227.285156 139.460938 227.285156 139.460938 C 227.910156 139.460938 233.910156 140.105469 236.214844 142.136719 Z M 197.570312 144.835938 C 199.960938 143.871094 202.414062 143.074219 204.917969 142.453125 C 208.824219 151.929688 207.808594 149.859375 208.472656 151.539062 C 205.621094 152.824219 202.839844 154.265625 200.148438 155.859375 C 198.957031 153.027344 197.179688 147.828125 197.570312 144.835938 Z M 238.597656 86.3125 L 238.597656 88.777344 C 232.738281 89.539062 232.738281 90.730469 232.738281 89.96875 C 235.921875 88.152344 237.972656 87.664062 238.617188 86.195312 Z M 230.9375 101.480469 C 230.539062 101.128906 230.09375 100.832031 229.609375 100.601562 C 229.316406 100.445312 229.609375 100.601562 229.609375 100.152344 C 229.683594 99.792969 229.683594 99.417969 229.609375 99.058594 C 230.097656 99.1875 230.59375 99.265625 231.09375 99.292969 C 230.996094 99.878906 230.976562 100.699219 230.957031 101.402344 Z M 224.570312 90.984375 C 223.945312 91.824219 223.203125 92.6875 222.617188 93.566406 C 223.480469 90.136719 225.28125 87.019531 227.8125 84.554688 C 228.648438 84.019531 229.445312 83.421875 230.195312 82.777344 C 232.621094 79.980469 228.242188 77.128906 224.6875 80.3125 C 222.046875 82.585938 220.238281 85.671875 219.550781 89.089844 C 219.042969 91.6875 219.804688 91.375 218.867188 91.140625 C 218.007812 90.832031 217.066406 90.832031 216.207031 91.140625 C 215.582031 89.304688 211.480469 89.324219 210.09375 90.320312 C 209.527344 90.730469 209.917969 90.652344 209.46875 90.320312 C 208.59375 90.074219 207.675781 90.027344 206.78125 90.179688 C 205.886719 90.332031 205.035156 90.679688 204.292969 91.199219 C 204.117188 91.316406 203.492188 92.101562 203.140625 92.472656 C 202.371094 92.433594 201.601562 92.566406 200.890625 92.863281 C 200.15625 93.199219 199.582031 93.808594 199.289062 94.5625 L 199.289062 95.011719 C 198.941406 94.949219 198.582031 94.949219 198.234375 95.011719 C 196.917969 95.5625 195.875 96.609375 195.324219 97.925781 C 195.003906 98.523438 194.914062 99.21875 195.070312 99.878906 C 193.371094 100.796875 191.59375 102.128906 191.886719 104.042969 C 192.050781 104.523438 192.292969 104.972656 192.609375 105.371094 C 192.121094 105.722656 190.792969 105.878906 191.066406 108.851562 L 189.601562 108.734375 C 188.585938 103.59375 187.960938 71.710938 188.46875 71.359375 C 190.792969 70.285156 226.914062 70.148438 230.644531 71.183594 C 231.085938 75.601562 231.269531 80.039062 231.191406 84.476562 C 228.570312 86.140625 226.324219 88.328125 224.589844 90.90625 Z M 236.9375 121.28125 C 234.535156 121.921875 232.074219 122.296875 229.589844 122.398438 C 229.933594 122.144531 230.195312 121.796875 230.34375 121.398438 C 230.488281 120.996094 230.511719 120.5625 230.410156 120.148438 C 230.792969 120.078125 231.15625 119.914062 231.460938 119.671875 C 231.765625 119.429688 232.007812 119.117188 232.167969 118.761719 C 232.386719 118.179688 232.386719 117.542969 232.167969 116.960938 C 232.050781 116.6875 231.933594 116.960938 232.539062 116.628906 C 232.90625 116.457031 233.226562 116.210938 233.488281 115.902344 C 233.746094 115.597656 233.9375 115.238281 234.046875 114.851562 C 234.15625 114.460938 234.179688 114.058594 234.121094 113.660156 C 234.058594 113.261719 233.914062 112.882812 233.695312 112.546875 C 233.996094 112.199219 234.1875 111.773438 234.25 111.316406 C 234.3125 110.863281 234.242188 110.398438 234.046875 109.984375 C 233.726562 109.417969 233.230469 108.964844 232.640625 108.695312 C 232.929688 108.207031 233.054688 107.636719 232.988281 107.070312 C 232.925781 106.507812 232.679688 105.980469 232.285156 105.566406 C 232.285156 103.886719 232.441406 101.773438 232.519531 99.410156 C 234.535156 99.429688 236.511719 99.960938 238.265625 100.953125 C 238.148438 104.140625 237.71875 118.3125 236.957031 121.203125 Z M 127.160156 121.28125 C 124.542969 110.042969 122.941406 14.382812 124.621094 12.664062 C 127.867188 9.105469 230.019531 7.796875 237.269531 11.332031 C 237.625 12.609375 237.855469 13.921875 237.953125 15.242188 C 239.359375 29.609375 238.949219 69.972656 238.695312 84.769531 C 237.777344 82.601562 234.886719 82.816406 232.699219 83.65625 C 232.746094 79.332031 232.53125 75.011719 232.050781 70.714844 C 232.03125 70.5 231.949219 70.296875 231.8125 70.132812 C 231.675781 69.964844 231.496094 69.84375 231.289062 69.777344 C 227.871094 68.546875 189.582031 69.367188 188.058594 70.8125 C 187.117188 71.730469 187.449219 105.996094 188.46875 109.378906 C 188.527344 109.523438 188.628906 109.644531 188.757812 109.734375 C 188.882812 109.824219 189.035156 109.878906 189.191406 109.886719 C 189.738281 109.886719 191.007812 110.0625 191.4375 110.082031 C 191.769531 110.6875 192.296875 110.804688 192.589844 111.058594 C 192.417969 111.203125 192.28125 111.386719 192.195312 111.59375 C 192.109375 111.800781 192.078125 112.027344 192.101562 112.253906 C 192.207031 113.265625 192.601562 114.230469 193.234375 115.027344 C 194.171875 116.140625 195.03125 115.808594 195.988281 115.808594 C 196.183594 117.433594 196.59375 120.109375 197.199219 123.082031 C 183.210938 123.101562 133.492188 122.359375 127.179688 121.144531 Z M 208.960938 134.964844 C 208.742188 134.78125 208.464844 134.6875 208.179688 134.691406 C 206.484375 134.660156 204.828125 134.1875 203.375 133.324219 C 201.824219 131.75 200.585938 129.902344 199.71875 127.871094 C 198.203125 122.710938 197.246094 117.402344 196.867188 112.035156 C 197.042969 109.613281 199.484375 106.621094 203.902344 105.703125 C 207.382812 105.089844 210.96875 105.535156 214.195312 106.972656 C 216.792969 108.011719 220.390625 112.152344 221.835938 114.402344 C 221.902344 114.496094 222.003906 114.558594 222.113281 114.582031 C 222.226562 114.601562 222.34375 114.582031 222.441406 114.519531 C 223.054688 114.125 223.710938 113.796875 224.394531 113.542969 C 224.976562 113.40625 225.589844 113.503906 226.101562 113.8125 C 226.613281 114.125 226.980469 114.625 227.128906 115.203125 C 228.144531 117.511719 224.335938 121.359375 223.808594 122.101562 C 223.734375 122.300781 223.734375 122.515625 223.808594 122.710938 C 224.886719 127.96875 225.65625 133.289062 226.113281 138.640625 C 225.46875 139.011719 224.667969 139.617188 218.007812 144.621094 C 215.140625 146.449219 212.398438 148.46875 209.800781 150.660156 C 209.078125 148.355469 207.242188 144.289062 206.304688 142.234375 C 209.390625 135.316406 209.429688 135.355469 208.980469 134.90625 Z M 160.414062 188.523438 C 168.226562 173.707031 180.457031 152.007812 196.867188 145.34375 C 196.792969 149.503906 197.632812 153.625 199.328125 157.421875 C 199.394531 157.515625 199.480469 157.59375 199.582031 157.644531 C 199.679688 157.695312 199.792969 157.722656 199.90625 157.722656 C 200.019531 157.722656 200.128906 157.695312 200.230469 157.644531 C 200.332031 157.59375 200.417969 157.515625 200.480469 157.421875 C 201.234375 156.78125 202.066406 156.242188 202.964844 155.820312 C 203.328125 157.226562 203.949219 158.550781 204.800781 159.730469 C 204.371094 162.191406 196.535156 194.445312 196.984375 196.339844 C 198.371094 199.929688 200.203125 203.332031 202.433594 206.464844 C 202.867188 207.050781 203.335938 207.5 203.941406 207.011719 C 206.886719 204.027344 209.339844 200.589844 211.207031 196.828125 C 211.324219 196.417969 211.363281 196.691406 210.015625 160.433594 C 210.660156 159.691406 211.96875 158.128906 212.574219 157.226562 C 214.175781 159.476562 213.277344 159.183594 213.84375 159.632812 C 214.410156 160.082031 214.742188 159.828125 215.230469 159.632812 C 218.4375 157.796875 234.769531 145.167969 237.328125 142.726562 C 240.507812 144.175781 243.546875 145.917969 246.410156 147.925781 C 259.246094 156.132812 262.039062 170.5 263.390625 185.628906 C 264.289062 196.261719 262.941406 205.292969 255.085938 212.054688 C 249.898438 216.261719 243.796875 219.1875 237.269531 220.597656 C 233.011719 221.652344 214.488281 224.371094 210.972656 224.859375 C 209.429688 220.023438 207.644531 215.265625 205.621094 210.609375 C 212.007812 207.835938 223.476562 203.75 230 201.539062 C 230.113281 201.507812 230.214844 201.441406 230.28125 201.34375 C 230.347656 201.246094 230.382812 201.128906 230.371094 201.011719 C 229.941406 195.539062 229.375 181.25 231.484375 176.167969 C 231.640625 175.816406 231.074219 175.582031 230.917969 175.933594 C 228.652344 181.113281 228.964844 195.011719 229.277344 200.660156 C 222.578125 202.8125 211.5 206.523438 205.054688 209.320312 C 204.78125 208.734375 204.761719 208.460938 204.214844 208.402344 C 202.554688 208.265625 196.164062 210.980469 195.285156 212.640625 C 194.894531 213.367188 196.085938 217.019531 196.496094 218.332031 C 192.433594 218.683594 186.726562 220.03125 184.03125 223.160156 C 182.074219 222.601562 180.175781 221.847656 178.367188 220.910156 C 179.226562 215.046875 183.953125 205.722656 186.921875 200.777344 C 188.058594 198.824219 189.484375 186.136719 189.621094 184.046875 C 189.726562 182.175781 189.726562 180.304688 189.621094 178.4375 C 189.601562 178.367188 189.5625 178.308594 189.507812 178.265625 C 189.453125 178.222656 189.386719 178.199219 189.316406 178.199219 C 189.246094 178.199219 189.179688 178.222656 189.125 178.265625 C 189.070312 178.308594 189.03125 178.367188 189.015625 178.4375 C 188.898438 179.648438 188.683594 181.054688 188.429688 182.660156 C 188.3125 183.539062 186.921875 197.828125 185.496094 200.25 C 180.964844 206.679688 172.585938 218.449219 167.738281 224.664062 C 167.5625 223.882812 161.742188 197.808594 160.609375 197.101562 C 159.445312 196.734375 158.234375 196.558594 157.011719 196.574219 C 157.96875 193.820312 159.105469 191.128906 160.414062 188.523438 Z M 114.601562 199.351562 C 120.714844 198.726562 157.582031 196.867188 159.984375 198.0625 C 160.101562 198.980469 162.660156 205.722656 164.867188 216.21875 C 166.527344 224.039062 168.773438 231.855469 169.203125 234.457031 C 168.1875 234.457031 126.847656 232.8125 124.933594 232.5 C 123.449219 229.160156 115.597656 203.261719 114.601562 199.351562 Z M 30.183594 254.160156 C 29.011719 252.203125 24.988281 234.417969 26.6875 232.03125 C 28.875 228.984375 32.546875 240.046875 33.757812 242.214844 C 36.101562 246.808594 40.167969 245.753906 50.109375 244.171875 C 50.460938 245.207031 50.578125 246.125 51.476562 246.125 C 51.628906 246.121094 51.777344 246.082031 51.910156 246.011719 C 52.039062 245.941406 52.152344 245.839844 52.238281 245.714844 C 52.320312 245.589844 52.375 245.445312 52.390625 245.296875 C 52.410156 245.148438 52.390625 244.996094 52.339844 244.855469 C 52.183594 244.464844 52.0625 244.09375 51.964844 243.78125 C 59.449219 242.585938 58.648438 242.527344 58.667969 242.839844 C 58.667969 243.085938 58.765625 243.320312 58.9375 243.492188 C 59.109375 243.664062 59.34375 243.761719 59.585938 243.761719 C 59.828125 243.761719 60.0625 243.664062 60.234375 243.492188 C 60.40625 243.320312 60.503906 243.085938 60.503906 242.839844 L 60.503906 242.390625 C 65.503906 241.492188 70.488281 240.4375 75.488281 239.597656 C 75.488281 239.871094 75.625 240.125 75.722656 240.378906 C 75.804688 240.609375 75.972656 240.800781 76.191406 240.90625 C 76.410156 241.011719 76.664062 241.027344 76.894531 240.945312 C 77.125 240.867188 77.316406 240.695312 77.421875 240.476562 C 77.527344 240.257812 77.542969 240.003906 77.460938 239.773438 C 77.460938 239.597656 77.460938 239.421875 77.304688 239.265625 C 82.757812 238.25 87.484375 237.308594 92.796875 236.605469 L 92.796875 237.9375 C 92.808594 238.054688 92.84375 238.175781 92.898438 238.28125 C 92.953125 238.390625 93.03125 238.484375 93.121094 238.5625 C 93.214844 238.640625 93.320312 238.699219 93.4375 238.734375 C 93.550781 238.773438 93.671875 238.785156 93.792969 238.777344 C 93.914062 238.765625 94.03125 238.730469 94.140625 238.675781 C 94.246094 238.621094 94.34375 238.542969 94.421875 238.453125 C 94.5 238.359375 94.558594 238.253906 94.59375 238.136719 C 94.628906 238.023438 94.644531 237.898438 94.632812 237.777344 L 94.632812 236.351562 C 104.402344 234.925781 106.179688 235.101562 110.886719 234.398438 L 111.21875 235.316406 C 111.335938 235.511719 111.515625 235.660156 111.730469 235.734375 C 111.941406 235.804688 112.175781 235.796875 112.386719 235.714844 C 112.597656 235.628906 112.765625 235.46875 112.867188 235.265625 C 112.96875 235.0625 112.996094 234.832031 112.941406 234.613281 C 112.867188 234.445312 112.800781 234.277344 112.746094 234.105469 C 116.28125 233.519531 119.796875 232.773438 123.351562 232.148438 C 123.976562 233.792969 123.898438 233.773438 125.8125 233.929688 C 126.027344 233.929688 126.730469 241.921875 129.3125 256.269531 C 107.351562 257.480469 65.25 258.226562 44.523438 254.941406 C 43.273438 254.746094 41.320312 254.667969 41.515625 254.667969 C 39.269531 251.675781 35.144531 245.988281 33.386719 249.234375 C 32.574219 250.789062 32.304688 252.570312 32.625 254.296875 C 31.808594 254.308594 30.992188 254.265625 30.183594 254.160156 Z M 51.925781 257.363281 C 49.644531 257.929688 47.398438 258.644531 45.207031 259.496094 C 44.28125 258.464844 43.414062 257.378906 42.609375 256.25 C 44.640625 256.445312 45.910156 256.816406 51.886719 257.363281 Z M 17.171875 344.210938 C 16.742188 345.382812 13.578125 345.03125 11.996094 343.898438 C 10.765625 342.996094 10.355469 347.082031 19.066406 292.742188 C 21.773438 293.285156 24.503906 293.679688 27.253906 293.917969 C 21.527344 323.195312 18.109375 341.609375 17.171875 344.210938 Z M 74.667969 341.277344 C 74.667969 342.15625 74.921875 342.449219 74.023438 343.113281 C 72.480469 344.230469 69.277344 344.640625 68.828125 343.445312 C 67.851562 340.828125 64.039062 320.304688 58.785156 293.292969 C 61.503906 292.851562 64.199219 292.257812 66.851562 291.511719 C 69.082031 305.449219 74.53125 339.753906 74.667969 341.179688 Z M 43.410156 284.164062 C 32.234375 284.164062 8.441406 283.753906 2.8125 274.039062 C 5.703125 262.679688 21.585938 259.007812 33.230469 257.8125 C 34.210938 261.59375 35.410156 265.316406 36.824219 268.957031 C 37.515625 270.660156 38.808594 272.054688 40.460938 272.863281 C 41.789062 273.214844 43.179688 273.265625 44.527344 273.015625 C 45.878906 272.765625 47.160156 272.21875 48.273438 271.417969 C 75.449219 268.605469 65.113281 270.480469 85.003906 269.796875 C 77.792969 280.957031 56.910156 284.085938 43.429688 284.066406 Z M 61.207031 268.78125 C 60.71875 268.78125 48 269.816406 47.53125 270.089844 C 46.59375 270.769531 45.523438 271.246094 44.386719 271.484375 C 43.253906 271.722656 42.082031 271.71875 40.949219 271.476562 C 39.679688 270.816406 38.6875 269.71875 38.15625 268.390625 C 36.960938 265.398438 31.960938 251.714844 34.734375 249.996094 C 36.824219 250.269531 43.078125 260.375 44.601562 261.097656 C 44.726562 261.160156 44.863281 261.195312 45.003906 261.195312 C 45.140625 261.195312 45.277344 261.160156 45.402344 261.097656 C 48.953125 259.707031 52.613281 258.609375 56.34375 257.8125 C 80.660156 259.085938 105.035156 258.890625 129.332031 257.226562 C 129.554688 258.613281 129.867188 259.984375 130.269531 261.332031 C 130.300781 261.414062 130.351562 261.484375 130.414062 261.542969 C 130.480469 261.597656 130.554688 261.640625 130.640625 261.664062 C 132.59375 262.289062 134.996094 263.074219 137.984375 263.914062 C 86.332031 270.304688 75.273438 267.625 61.226562 268.683594 Z M 141.773438 334.964844 C 141.34375 336.136719 138.160156 335.765625 136.597656 334.632812 C 135.386719 333.773438 134.78125 338.816406 144.53125 278.121094 C 146.992188 278.886719 149.765625 279.609375 152.714844 280.234375 C 146.054688 314.304688 142.773438 332.265625 141.792969 334.867188 Z M 205.328125 334.476562 C 205.210938 335.707031 202.0625 336.195312 200.246094 335.511719 C 198.800781 334.964844 199.503906 339.207031 193.527344 282.578125 C 196.261719 282.265625 199.015625 281.914062 201.789062 281.523438 C 204.058594 313.738281 205.601562 331.679688 205.347656 334.4375 Z M 238.089844 272.628906 C 240.6875 271.613281 243.265625 270.519531 245.765625 269.328125 L 254.382812 303.398438 C 252.039062 303.816406 249.738281 304.472656 247.523438 305.351562 C 245.082031 296.632812 240.53125 280.976562 238.109375 272.53125 Z M 262.195312 304.199219 C 266.898438 304.371094 271.554688 305.199219 276.027344 306.660156 C 277.617188 307.101562 279.183594 307.625 280.71875 308.222656 C 285.507812 310.414062 289.8125 313.535156 293.378906 317.410156 C 296.855469 321.515625 297.636719 326.851562 297.285156 332.265625 C 297.03125 335.53125 294.921875 337.660156 292.359375 339.734375 C 292.085938 337.523438 288.453125 335.824219 286.34375 335.492188 C 286.03125 335.492188 285.992188 335.609375 286.832031 335.140625 C 288.335938 334.304688 289.539062 333.019531 290.269531 331.464844 C 290.542969 331.171875 290.09375 330.761719 289.839844 331.054688 C 287.710938 332.519531 286.578125 333.695312 283.707031 335.492188 C 283.511719 335.492188 283.550781 335.960938 282.300781 335.902344 C 280.558594 335.492188 278.773438 335.292969 276.984375 335.316406 C 276.101562 333.089844 275.769531 330.683594 276.015625 328.300781 C 276.257812 325.921875 277.074219 323.632812 278.394531 321.632812 C 281.753906 317.117188 283.023438 318.761719 283.023438 317.917969 C 283.023438 316.609375 274.464844 318.976562 274.5625 329.414062 C 274.636719 331.476562 275.210938 333.488281 276.242188 335.277344 C 273.921875 335.390625 271.632812 335.90625 269.484375 336.800781 C 269.035156 336.390625 267.160156 337.367188 265.949219 336.800781 C 266.980469 333.304688 267.367188 329.648438 267.082031 326.011719 C 266.789062 323.84375 265.871094 321.804688 264.445312 320.148438 C 262.847656 318.328125 260.839844 316.917969 258.582031 316.042969 C 253.933594 314.363281 252.351562 316.726562 249.597656 317.605469 C 249.140625 317.761719 248.644531 317.761719 248.191406 317.605469 C 246.429688 317.039062 241.683594 315.652344 240.648438 317.234375 C 239.847656 318.429688 241.019531 320.1875 241.78125 321.515625 C 242.542969 322.84375 242.796875 322.921875 241.527344 326.148438 C 241.148438 327.21875 240.652344 328.242188 240.042969 329.199219 C 239.046875 330.234375 235.707031 330.996094 235.082031 332.207031 C 233.8125 334.554688 238.636719 336.917969 239.535156 338.070312 C 240.433594 339.226562 241.996094 341.355469 242.835938 342.253906 C 246.019531 345.734375 253.816406 346.535156 257.859375 345.246094 C 259.8125 344.628906 261.574219 343.527344 262.980469 342.039062 C 264.210938 343.074219 263.976562 344.699219 263.644531 346.320312 C 263.449219 347.257812 262.449219 347.804688 261.6875 348.273438 C 259.179688 349.898438 256.210938 350.652344 253.230469 350.425781 C 252.453125 350.175781 251.703125 349.855469 250.984375 349.46875 C 249.035156 349.003906 247.171875 348.222656 245.472656 347.160156 C 244 345.667969 242.273438 344.441406 240.375 343.546875 C 231.132812 341.179688 229.375 330.078125 232.285156 321.359375 C 235.882812 310.296875 250.28125 303.886719 262.214844 304.101562 Z M 255.828125 344.71875 C 257.78125 341.355469 256.667969 336.898438 254.558594 333.773438 C 252.019531 329.863281 249.753906 331.230469 248.015625 330.332031 C 245.550781 329.042969 245.179688 327.59375 244.203125 326.890625 C 243.734375 326.585938 243.222656 326.355469 242.679688 326.207031 C 243.136719 325.214844 243.421875 324.148438 243.519531 323.058594 C 243.382812 321.730469 241.234375 318.878906 241.566406 318.230469 C 242.601562 317.742188 246.449219 318.820312 247.542969 319.191406 C 249.636719 319.894531 252.039062 317.917969 253.875 317.234375 C 256.902344 316.238281 261.140625 318.800781 263.195312 321.144531 C 266.535156 325.054688 265.792969 329.84375 264.796875 334.828125 C 264.53125 337.195312 263.519531 339.417969 261.914062 341.179688 C 260.304688 342.9375 258.183594 344.144531 255.847656 344.621094 Z M 252.039062 338.660156 C 252.195312 338.933594 251.824219 339.304688 251.492188 338.953125 C 251.238281 338.699219 251.050781 338.390625 250.941406 338.050781 C 250.835938 337.710938 250.816406 337.347656 250.886719 336.996094 C 250.917969 336.648438 251.050781 336.316406 251.269531 336.042969 C 251.488281 335.765625 251.785156 335.5625 252.117188 335.453125 C 252.644531 335.277344 252.703125 335.765625 252.507812 335.921875 C 252.234375 336.296875 252.050781 336.730469 251.972656 337.1875 C 251.894531 337.644531 251.925781 338.117188 252.058594 338.5625 Z M 309.515625 349.410156 C 309.515625 350.503906 309.75 352.222656 309.027344 352.925781 C 308.65625 353.296875 303.535156 352.496094 298.300781 353.257812 C 296.347656 353.550781 294.257812 354.003906 292.242188 354.277344 C 280.972656 355.878906 284.429688 354.570312 267.609375 359.652344 C 264.914062 360.453125 262.15625 360.980469 259.441406 361.703125 C 254.167969 363.128906 251.882812 364.871094 248.074219 365.808594 C 241.996094 367.332031 240.941406 364.011719 237.914062 360.335938 C 233.65625 355.136719 232.421875 348.921875 228.847656 343.859375 C 221.816406 333.910156 219.980469 335.394531 216.363281 332.304688 C 215.652344 331.71875 215.070312 330.996094 214.644531 330.175781 C 214.585938 330.070312 214.550781 329.953125 214.550781 329.832031 C 214.550781 329.714844 214.585938 329.59375 214.644531 329.492188 C 215.597656 328.3125 216.71875 327.277344 217.96875 326.421875 C 219.550781 325.371094 221.214844 324.449219 222.949219 323.667969 C 225.644531 322.199219 229.257812 319.953125 231.601562 318.9375 C 227.167969 328.316406 228.75 342.390625 239.808594 345.050781 C 240.515625 345.289062 241.175781 345.648438 241.761719 346.105469 C 243.132812 347.371094 244.640625 348.476562 246.253906 349.410156 C 247.585938 349.996094 249.089844 350.308594 250.417969 350.796875 C 251.5 351.4375 252.71875 351.816406 253.972656 351.902344 C 255.230469 351.984375 256.484375 351.773438 257.644531 351.285156 C 259.792969 350.636719 261.785156 349.558594 263.507812 348.117188 C 263.867188 347.746094 264.117188 347.277344 264.230469 346.769531 C 264.582031 344.816406 264.738281 342.996094 263.253906 341.785156 C 264.300781 340.5 265.09375 339.027344 265.597656 337.445312 C 266.277344 337.695312 267.011719 337.765625 267.726562 337.640625 C 264.796875 340.046875 265.65625 342.117188 269.425781 343.074219 C 273.058594 343.976562 276.828125 344.195312 280.542969 343.722656 C 284.214844 343.386719 289.15625 343.605469 292.125 341.335938 C 295.097656 339.070312 298.105469 336.429688 298.476562 332.382812 C 298.847656 328.335938 298.261719 327.398438 298.847656 328.671875 C 300 331.132812 300.898438 333.734375 302.226562 336.058594 C 304.492188 339.96875 308.714844 342.234375 309.320312 346.847656 C 309.453125 347.664062 309.53125 348.484375 309.554688 349.3125 Z M 343.214844 339.96875 C 343.214844 339.96875 343.214844 339.851562 343.214844 339.96875 C 343.605469 340.691406 314.730469 343.054688 307.855469 340.945312 C 307.558594 340.59375 307.265625 340.242188 306.933594 339.890625 C 304.980469 333.378906 302.421875 315.710938 301.640625 309.75 C 316.691406 309.804688 331.734375 308.910156 346.671875 307.070312 C 346.457031 312.621094 344.308594 336.917969 343.234375 339.871094 Z M 349.074219 298.453125 C 349.847656 300.886719 349.847656 303.503906 349.074219 305.9375 C 348.253906 307.226562 302.851562 308.890625 299.394531 308.007812 C 298.445312 305.738281 298.089844 303.261719 298.359375 300.816406 C 298.359375 300.816406 299.257812 300.40625 300.195312 300.191406 C 309.945312 297.921875 348.136719 296.828125 349.171875 298.355469 Z M 321.019531 296.769531 C 315.765625 296.984375 304.316406 297.589844 299.375 298.863281 C 298.496094 299.097656 297.265625 299.449219 297.03125 300.25 C 296.445312 302.105469 297.128906 307.695312 298.4375 309.105469 C 298.847656 309.574219 300.019531 309.613281 300.878906 309.671875 C 301.601562 316.921875 303.28125 330.351562 304.785156 337.503906 C 301.5625 333.714844 300.878906 329.453125 298.203125 325.25 C 297.714844 322.023438 296.363281 318.992188 294.296875 316.472656 C 290.582031 312.40625 286.09375 309.128906 281.089844 306.835938 C 279.605469 306.230469 278.0625 305.761719 276.261719 305.214844 C 269.644531 302.917969 262.578125 302.203125 255.632812 303.121094 C 255.144531 301.167969 248.796875 278.082031 246.273438 269.015625 C 258.835938 262.796875 266.457031 251.558594 271.164062 238.347656 C 272.328125 241.34375 273.757812 244.230469 275.441406 246.964844 C 277.59375 250.484375 296.796875 270.226562 304.335938 273.589844 C 307.570312 274.925781 311.058594 275.527344 314.554688 275.347656 C 315.757812 275.3125 316.957031 275.207031 318.148438 275.035156 C 318.578125 276.871094 319.671875 282.070312 321.117188 296.671875 Z M 367.695312 246.125 C 359.488281 257.96875 352.199219 260.375 340.109375 266.375 C 333.800781 269.40625 327.203125 271.789062 320.414062 273.492188 C 322.269531 268.9375 327.527344 263.25 330.847656 259.808594 C 339.039062 251.496094 347.699219 243.664062 356.792969 236.351562 C 356.855469 236.304688 356.894531 236.234375 356.90625 236.160156 C 356.917969 236.082031 356.898438 236.003906 356.851562 235.941406 C 356.804688 235.878906 356.734375 235.839844 356.660156 235.828125 C 356.582031 235.816406 356.503906 235.835938 356.441406 235.882812 C 337.667969 248.628906 323.230469 265.203125 319.808594 271.574219 C 319.855469 269.183594 319.71875 266.792969 319.398438 264.421875 C 320.167969 260.84375 321.410156 257.386719 323.09375 254.140625 C 325.054688 250.734375 327.324219 247.515625 329.871094 244.523438 C 336.6875 235.082031 350.363281 222.023438 361.5 225.757812 C 370.585938 228.710938 373.164062 238.269531 367.792969 246.027344 Z M 367.695312 246.125 " fill-opacity="1" fill-rule="nonzero"/><path fill="#ffffff" d="M 86.039062 243.449219 C 86.195312 243.445312 86.347656 243.40625 86.484375 243.328125 C 86.621094 243.253906 86.734375 243.144531 86.820312 243.011719 C 86.902344 242.878906 86.949219 242.726562 86.960938 242.570312 C 86.972656 242.417969 86.941406 242.261719 86.878906 242.117188 C 86.507812 241.296875 86.3125 240.515625 85.785156 239.558594 C 85.664062 239.347656 85.46875 239.1875 85.234375 239.117188 C 85 239.050781 84.75 239.074219 84.535156 239.1875 C 84.425781 239.246094 84.332031 239.320312 84.257812 239.417969 C 84.179688 239.511719 84.121094 239.617188 84.085938 239.734375 C 84.054688 239.851562 84.042969 239.972656 84.054688 240.09375 C 84.066406 240.214844 84.105469 240.332031 84.164062 240.4375 C 85.023438 242.019531 85.003906 243.449219 86.039062 243.449219 Z M 68.652344 245.539062 C 68.664062 245.78125 68.773438 246.007812 68.953125 246.171875 C 69.132812 246.335938 69.367188 246.425781 69.609375 246.417969 C 69.730469 246.414062 69.847656 246.382812 69.957031 246.332031 C 70.066406 246.28125 70.164062 246.210938 70.246094 246.121094 C 70.328125 246.035156 70.390625 245.929688 70.433594 245.816406 C 70.472656 245.703125 70.492188 245.582031 70.488281 245.460938 C 70.488281 243.507812 70.917969 241.941406 69.453125 241.84375 C 69.207031 241.871094 68.980469 241.992188 68.824219 242.179688 C 68.664062 242.371094 68.589844 242.613281 68.613281 242.859375 C 68.710938 243.800781 68.613281 244.523438 68.652344 245.539062 Z M 102.957031 240.4375 C 102.96875 240.558594 103 240.675781 103.054688 240.785156 C 103.113281 240.890625 103.1875 240.984375 103.28125 241.0625 C 103.375 241.140625 103.480469 241.203125 103.59375 241.238281 C 103.710938 241.273438 103.832031 241.289062 103.953125 241.277344 C 104.074219 241.269531 104.191406 241.234375 104.296875 241.179688 C 104.40625 241.121094 104.5 241.046875 104.578125 240.953125 C 104.65625 240.859375 104.714844 240.753906 104.753906 240.640625 C 104.789062 240.523438 104.804688 240.402344 104.792969 240.28125 C 104.792969 239.363281 104.792969 238.542969 104.636719 237.484375 C 104.570312 237.269531 104.429688 237.082031 104.238281 236.960938 C 104.042969 236.835938 103.816406 236.789062 103.589844 236.828125 C 103.363281 236.863281 103.160156 236.980469 103.015625 237.152344 C 102.871094 237.328125 102.792969 237.550781 102.800781 237.777344 C 102.9375 238.660156 102.878906 239.480469 102.957031 240.4375 Z M 102.957031 240.4375 " fill-opacity="1" fill-rule="nonzero"/></svg>