<svg xmlns="http://www.w3.org/2000/svg" xmlns:xlink="http://www.w3.org/1999/xlink" width="500" zoomAndPan="magnify" viewBox="0 0 375 374.999991" height="500" preserveAspectRatio="xMidYMid meet" version="1.0"><path fill="#000000" d="M 177.800781 59.917969 C 178.25 59.546875 178.289062 58.511719 178.367188 57.496094 C 178.992188 45.847656 179.03125 34.175781 178.484375 22.527344 C 178.230469 19.925781 178.132812 19.828125 175.359375 19.613281 C 167.855469 18.96875 135.699219 19.613281 134.214844 20.980469 C 133.199219 21.957031 133.707031 56.402344 134.625 59.507812 C 134.691406 59.652344 134.796875 59.773438 134.925781 59.867188 C 135.058594 59.960938 135.210938 60.019531 135.367188 60.035156 C 137.847656 60.445312 175.671875 61.675781 177.800781 59.917969 Z M 134.644531 21.410156 C 136.304688 20.335938 172.976562 20.140625 176.863281 21.214844 C 177.859375 25.984375 177.273438 55.894531 176.707031 58.84375 C 169.808594 59.78125 139.703125 59.15625 135.816406 58.746094 C 134.753906 46.332031 134.363281 33.867188 134.644531 21.410156 Z M 179.597656 71.035156 C 179.566406 70.824219 179.480469 70.625 179.347656 70.460938 C 179.210938 70.292969 179.035156 70.167969 178.835938 70.097656 C 175.476562 68.886719 137.125 69.6875 135.601562 71.152344 C 134.644531 72.050781 134.996094 106.316406 135.992188 109.675781 C 136.0625 109.820312 136.164062 109.945312 136.296875 110.035156 C 136.425781 110.128906 136.578125 110.1875 136.734375 110.203125 C 139.9375 110.730469 174.011719 111.550781 178.503906 110.378906 C 179.167969 110.203125 179.382812 109.949219 179.5 109.519531 C 180.28125 106.570312 180.613281 75.019531 179.597656 71.035156 Z M 178.074219 108.992188 C 171.15625 109.929688 141.207031 109.34375 137.183594 108.992188 C 136.265625 104.402344 135.523438 74.511719 136.011719 71.660156 C 137.75 70.488281 174.65625 70.46875 178.230469 71.445312 C 179.148438 75.78125 178.660156 105.691406 178.074219 108.992188 Z M 230.234375 59.488281 C 230.664062 59.136719 230.703125 58.082031 230.800781 57.066406 C 231.386719 45.417969 231.386719 33.746094 230.800781 22.09375 C 230.546875 19.496094 230.429688 19.417969 227.695312 19.183594 C 220.175781 18.558594 188.039062 19.183594 186.550781 20.550781 C 185.535156 21.507812 186.023438 55.972656 186.960938 59.078125 C 187.019531 59.226562 187.117188 59.355469 187.246094 59.449219 C 187.375 59.542969 187.527344 59.597656 187.6875 59.605469 C 190.382812 60.035156 228.085938 61.246094 230.234375 59.488281 Z M 187.078125 20.980469 C 190.988281 19.789062 225.800781 19.808594 229.277344 20.785156 C 230.195312 25.164062 229.785156 54.996094 229.121094 58.414062 C 222.207031 59.351562 192.238281 58.746094 188.234375 58.414062 C 187.167969 45.964844 186.785156 33.472656 187.078125 20.980469 Z M 61.832031 135.855469 C 62.105469 136.617188 63.121094 136.949219 63.960938 137.144531 C 71.113281 138.882812 97.367188 137.945312 105.476562 136.402344 C 106.335938 136.246094 108.054688 135.933594 108.523438 135.210938 C 110.320312 132.320312 109.597656 85.84375 107.449219 83.265625 C 105.300781 80.683594 67.539062 81.132812 64.214844 83.675781 C 61.714844 85.609375 61.128906 133.824219 61.832031 135.855469 Z M 65.054688 84.671875 C 68.222656 82.460938 105.476562 81.816406 106.980469 83.636719 C 108.933594 85.980469 108.699219 131.675781 107.351562 134.429688 C 103.699219 136.382812 67.890625 137.613281 63.257812 135.367188 C 62.632812 134.996094 63.21875 88.675781 65.054688 84.671875 Z M 14.085938 149.707031 C 14.242188 149.9375 14.449219 150.132812 14.695312 150.269531 C 14.9375 150.40625 15.210938 150.480469 15.492188 150.488281 C 22.511719 151.0625 29.574219 150.945312 36.570312 150.136719 C 37.210938 150.113281 37.828125 149.886719 38.332031 149.492188 C 39.386719 148.105469 38.839844 128.667969 37.648438 127.492188 C 36.453125 126.320312 17.386719 126.261719 15.472656 127.492188 C 15.179688 127.746094 14.988281 128.089844 14.925781 128.472656 C 14.042969 135.511719 13.761719 142.617188 14.085938 149.707031 Z M 37.195312 148.671875 C 33.726562 149.15625 30.230469 149.402344 26.726562 149.414062 C 26.988281 148.882812 27.28125 148.367188 27.605469 147.871094 C 28.765625 146.351562 30.273438 145.136719 32.007812 144.332031 C 33.738281 143.527344 35.640625 143.152344 37.550781 143.242188 C 37.539062 145.054688 37.421875 146.871094 37.195312 148.671875 Z M 16.3125 128.53125 C 18.65625 127.613281 36.648438 127.355469 37.234375 127.925781 C 37.414062 128.515625 37.519531 129.125 37.550781 129.742188 C 34.558594 130.132812 34.089844 135.777344 34.011719 138.785156 C 32.800781 136.820312 31.457031 134.941406 29.988281 133.160156 C 29.472656 132.75 28.863281 132.472656 28.214844 132.359375 C 27.566406 132.246094 26.898438 132.300781 26.277344 132.515625 C 24.851562 133.140625 25.125 134.898438 25.320312 136.285156 C 25.820312 138.0625 26.527344 139.773438 27.429688 141.382812 C 26.257812 140.445312 21.566406 136.65625 20.238281 136.421875 C 18.910156 136.1875 17.621094 136.265625 16.957031 137.4375 C 15.003906 140.875 19.710938 146.582031 22.507812 149.375 C 20.15625 149.40625 17.804688 149.273438 15.472656 148.984375 C 15.238281 142.152344 15.519531 135.316406 16.3125 128.53125 Z M 16.3125 128.53125 " fill-opacity="1" fill-rule="nonzero"/><path fill="#000000" d="M 7.128906 156.894531 C 7.402344 157.542969 8.304688 157.777344 9.085938 157.914062 C 14.945312 159.125 36.042969 158.441406 42.589844 157.382812 C 43.332031 157.246094 44.738281 157.03125 45.148438 156.484375 C 46.671875 154.414062 46.027344 122.0625 44.25 120.1875 C 42.746094 118.625 12.074219 118.488281 9.203125 120.363281 C 8.824219 120.726562 8.582031 121.210938 8.519531 121.730469 C 7.011719 127.632812 6.542969 155.449219 7.128906 156.894531 Z M 9.945312 121.4375 C 12.640625 119.972656 42.550781 119.484375 43.742188 120.617188 C 44.933594 121.75 45.109375 152.324219 43.976562 155.605469 C 40.207031 156.816406 16.996094 157.796875 8.519531 156.308594 C 8.128906 154.980469 8.480469 125.617188 9.945312 121.4375 Z M 304.726562 117.023438 C 305.484375 117.890625 306.292969 118.710938 307.148438 119.484375 C 307.167969 119.515625 307.195312 119.546875 307.226562 119.566406 C 307.257812 119.589844 307.296875 119.605469 307.332031 119.613281 C 307.371094 119.621094 307.410156 119.617188 307.449219 119.609375 C 307.484375 119.601562 307.519531 119.582031 307.550781 119.558594 C 307.582031 119.535156 307.609375 119.507812 307.625 119.472656 C 307.644531 119.4375 307.65625 119.402344 307.65625 119.363281 C 307.660156 119.324219 307.65625 119.285156 307.640625 119.25 C 307.628906 119.210938 307.609375 119.179688 307.582031 119.152344 C 306.074219 116.199219 303.949219 113.609375 301.347656 111.550781 C 301.296875 111.496094 301.230469 111.464844 301.15625 111.460938 C 301.082031 111.457031 301.011719 111.484375 300.957031 111.53125 C 300.902344 111.582031 300.871094 111.652344 300.867188 111.722656 C 300.863281 111.796875 300.886719 111.867188 300.9375 111.921875 C 302.035156 113.742188 303.300781 115.449219 304.726562 117.023438 Z M 284.898438 124.347656 C 285.675781 121.382812 285.800781 118.285156 285.269531 115.265625 C 285.269531 115.191406 285.242188 115.121094 285.191406 115.070312 C 285.136719 115.019531 285.066406 114.992188 284.996094 114.992188 C 284.921875 114.992188 284.851562 115.019531 284.800781 115.070312 C 284.75 115.121094 284.722656 115.191406 284.722656 115.265625 C 284.472656 116.398438 284.3125 117.546875 284.234375 118.703125 C 284.03125 120.570312 284.070312 122.453125 284.351562 124.308594 C 284.3125 124.679688 284.859375 124.71875 284.898438 124.347656 Z M 259.441406 122.140625 C 260.324219 120.871094 261.0625 119.507812 261.648438 118.078125 C 262.320312 116.671875 262.8125 115.1875 263.117188 113.664062 C 263.105469 113.613281 263.085938 113.570312 263.054688 113.535156 C 263.023438 113.496094 262.980469 113.46875 262.9375 113.453125 C 262.890625 113.4375 262.839844 113.433594 262.792969 113.445312 C 262.746094 113.453125 262.703125 113.472656 262.667969 113.507812 C 262.46875 113.820312 261.863281 114.71875 261.492188 115.460938 C 260.34375 117.519531 259.503906 119.738281 258.992188 122.042969 C 258.957031 122.078125 258.933594 122.121094 258.921875 122.167969 C 258.910156 122.214844 258.910156 122.265625 258.925781 122.3125 C 258.9375 122.359375 258.964844 122.402344 259 122.4375 C 259.035156 122.46875 259.082031 122.492188 259.128906 122.503906 C 259.175781 122.515625 259.226562 122.511719 259.273438 122.496094 C 259.320312 122.480469 259.359375 122.453125 259.394531 122.414062 C 259.425781 122.378906 259.445312 122.332031 259.457031 122.285156 C 259.464844 122.238281 259.460938 122.1875 259.441406 122.140625 Z M 138.453125 256.902344 C 148.789062 257.566406 148.925781 246.390625 138.453125 248.171875 C 131.773438 248.523438 133.824219 256.550781 138.453125 256.902344 Z M 138.453125 248.757812 C 147.1875 248.308594 146.484375 255.90625 138.453125 255.417969 C 135.679688 255.28125 133.238281 249.636719 138.53125 248.757812 Z M 176.238281 250.847656 C 186.609375 251.511719 186.707031 240.335938 176.238281 242.113281 C 169.632812 242.445312 171.625 250.496094 176.238281 250.847656 Z M 176.238281 242.699219 C 184.96875 242.25 184.285156 249.851562 176.238281 249.363281 C 173.503906 249.226562 171.039062 243.578125 176.316406 242.699219 Z M 198.429688 255.613281 C 208.785156 256.277344 208.902344 245.101562 198.429688 246.859375 C 191.808594 247.230469 193.800781 255.261719 198.429688 255.613281 Z M 198.429688 247.464844 C 207.164062 247.015625 206.480469 254.617188 198.429688 254.128906 C 195.695312 253.992188 193.214844 248.308594 198.507812 247.464844 Z M 204.46875 239.632812 C 214.800781 240.296875 214.957031 229.121094 204.46875 230.898438 C 197.84375 231.25 199.855469 239.300781 204.46875 239.632812 Z M 204.46875 231.503906 C 213.199219 231.054688 212.496094 238.636719 204.46875 238.167969 C 201.730469 238.011719 199.25 232.363281 204.546875 231.503906 Z M 126.554688 215.40625 C 129.234375 216.054688 132.058594 215.738281 134.527344 214.507812 C 138.433594 212.398438 138.609375 207.59375 136.304688 203.84375 C 132.730469 197.980469 125.285156 198.585938 122.628906 202.789062 C 121.492188 204.808594 121.109375 207.171875 121.554688 209.449219 C 121.820312 210.785156 122.414062 212.027344 123.289062 213.070312 C 124.164062 214.113281 125.289062 214.917969 126.554688 215.40625 Z M 123.019531 209.234375 C 122.621094 207.300781 122.890625 205.289062 123.78125 203.53125 C 124.71875 202.183594 126.09375 201.203125 127.671875 200.757812 C 129.246094 200.308594 130.929688 200.417969 132.4375 201.066406 C 136.460938 203.335938 138.589844 210.953125 133.84375 213.277344 C 131.726562 214.289062 129.335938 214.566406 127.042969 214.058594 C 126.027344 213.648438 125.128906 212.996094 124.425781 212.152344 C 123.722656 211.3125 123.242188 210.308594 123.019531 209.234375 Z M 123.019531 209.234375 " fill-opacity="1" fill-rule="nonzero"/><path fill="#000000" d="M 127.121094 204.332031 C 126.886719 203.941406 125.636719 203.589844 125.734375 204.78125 C 125.832031 205.972656 127.867188 205.523438 127.121094 204.332031 Z M 131.480469 204.371094 C 131.910156 203.6875 130.210938 202.414062 130.035156 204.039062 C 129.976562 204.566406 130.71875 205.523438 131.480469 204.371094 Z M 126.613281 209.234375 C 125.890625 209.722656 128.140625 211.96875 130.914062 210.71875 C 131.339844 210.542969 131.710938 210.253906 131.984375 209.882812 C 132.253906 209.507812 132.417969 209.070312 132.457031 208.609375 C 132.46875 208.570312 132.472656 208.53125 132.46875 208.492188 C 132.464844 208.453125 132.453125 208.417969 132.4375 208.382812 C 132.417969 208.347656 132.394531 208.316406 132.363281 208.292969 C 132.332031 208.269531 132.296875 208.25 132.261719 208.238281 C 132.222656 208.226562 132.183594 208.222656 132.144531 208.226562 C 132.105469 208.230469 132.070312 208.242188 132.035156 208.257812 C 132 208.277344 131.96875 208.300781 131.945312 208.332031 C 131.921875 208.363281 131.902344 208.394531 131.890625 208.433594 C 131.222656 208.976562 130.429688 209.34375 129.582031 209.5 C 128.734375 209.65625 127.863281 209.601562 127.042969 209.332031 C 126.996094 209.265625 126.925781 209.21875 126.847656 209.199219 C 126.769531 209.183594 126.6875 209.195312 126.613281 209.234375 Z M 150.195312 219.277344 C 151.972656 220.019531 160.394531 219.804688 161.78125 218.046875 C 162.132812 217.617188 161.898438 217.183594 161.644531 216.695312 C 160.785156 215.054688 155.996094 207.046875 154.277344 207.339844 C 152.558594 207.632812 150.839844 212.222656 150.371094 213.726562 C 149.902344 215.230469 148.769531 218.671875 150.195312 219.277344 Z M 152.148438 211.8125 C 152.402344 211.050781 153.496094 208.082031 154.277344 207.90625 C 155.058594 207.730469 160.140625 217.085938 160.257812 217.28125 C 157.167969 218.097656 153.953125 218.324219 150.78125 217.949219 C 150.96875 215.84375 151.457031 213.777344 152.226562 211.8125 Z M 200.910156 117.609375 C 200.882812 117.429688 200.792969 117.269531 200.652344 117.152344 C 200.515625 117.03125 200.339844 116.96875 200.160156 116.96875 C 199.980469 116.96875 199.804688 117.03125 199.664062 117.152344 C 199.527344 117.269531 199.4375 117.429688 199.40625 117.609375 C 199.425781 118.066406 199.503906 118.519531 199.640625 118.957031 C 199.65625 119.066406 199.695312 119.167969 199.757812 119.257812 C 199.816406 119.351562 199.894531 119.429688 199.984375 119.488281 C 200.078125 119.546875 200.179688 119.585938 200.289062 119.601562 C 200.398438 119.617188 200.507812 119.605469 200.613281 119.574219 C 200.71875 119.546875 200.8125 119.492188 200.898438 119.417969 C 200.980469 119.347656 201.042969 119.257812 201.089844 119.160156 C 201.132812 119.058594 201.15625 118.953125 201.15625 118.84375 C 201.15625 118.734375 201.132812 118.625 201.085938 118.527344 C 201 118.226562 200.941406 117.917969 200.910156 117.609375 Z M 205.09375 124.230469 C 205.59375 124.007812 206.050781 123.699219 206.441406 123.3125 C 206.753906 123.019531 206.617188 122.6875 206.167969 122.765625 L 204.859375 123.039062 C 204.597656 122.089844 204.433594 121.113281 204.371094 120.128906 C 204.371094 119.386719 204.039062 117.003906 203.648438 116.847656 C 203.257812 116.691406 203.160156 117.453125 203.042969 118.117188 C 202.691406 120.34375 202.984375 125.050781 205.09375 124.230469 Z M 208.316406 117.082031 C 208.34375 117.261719 208.4375 117.421875 208.574219 117.539062 C 208.710938 117.65625 208.886719 117.722656 209.066406 117.722656 C 209.25 117.722656 209.425781 117.65625 209.5625 117.539062 C 209.699219 117.421875 209.789062 117.261719 209.820312 117.082031 L 209.820312 116.007812 C 209.796875 115.808594 209.699219 115.625 209.546875 115.496094 C 209.394531 115.367188 209.199219 115.296875 209 115.304688 C 208.800781 115.324219 208.613281 115.417969 208.484375 115.570312 C 208.351562 115.726562 208.285156 115.921875 208.296875 116.125 C 208.21875 116.261719 208.316406 117.082031 208.316406 117.082031 Z M 209.078125 125.460938 C 208.804688 125.460938 209.078125 125.460938 207.613281 126.613281 C 207.472656 126.730469 207.320312 126.835938 207.164062 126.925781 C 205.71875 127.769531 205.054688 127.296875 204.917969 127.730469 C 204.78125 128.160156 205.933594 128.84375 207.203125 128.53125 C 209.273438 128.023438 209.605469 125.617188 209.078125 125.460938 Z M 67.636719 129.410156 C 67.851562 130.074219 68.671875 130.367188 69.355469 130.523438 C 74.921875 131.929688 94.886719 131.128906 100.828125 129.957031 C 101.570312 129.800781 102.78125 129.546875 103.230469 128.941406 C 104.636719 126.613281 103.953125 90.53125 102.332031 88.5 C 100.710938 86.46875 72.109375 86.722656 69.492188 88.753906 C 67.539062 90.316406 67.085938 127.808594 67.636719 129.410156 Z M 99.089844 111.824219 C 99.671875 111.617188 100.292969 111.542969 100.90625 111.605469 C 101.523438 111.671875 102.117188 111.871094 102.644531 112.195312 C 102.726562 117.53125 102.523438 122.867188 102.039062 128.179688 L 101.648438 128.316406 C 100.316406 123.339844 97.605469 118.84375 93.832031 115.34375 C 95.445312 113.957031 97.207031 112.757812 99.089844 111.765625 Z M 91.917969 96.195312 C 95.140625 98.269531 95.042969 103.582031 89.417969 103.640625 C 86 103.640625 84.535156 102 84.535156 100.046875 C 84.511719 99.179688 84.734375 98.324219 85.171875 97.574219 C 85.613281 96.824219 86.25 96.214844 87.019531 95.808594 C 87.785156 95.402344 88.648438 95.21875 89.515625 95.277344 C 90.378906 95.335938 91.214844 95.632812 91.917969 96.136719 Z M 72.65625 112.609375 C 78.378906 109.1875 82.621094 108.992188 88.285156 112.609375 C 93.34375 115.871094 98.894531 122.375 100.222656 128.648438 C 94.359375 129.703125 71.855469 130.601562 68.964844 129.019531 C 68.710938 127.964844 68.613281 116.90625 68.613281 115.695312 C 69.855469 114.515625 71.207031 113.464844 72.65625 112.550781 Z M 259.617188 330.789062 C 258.710938 330.859375 257.816406 331.015625 256.941406 331.257812 C 256.023438 331.609375 255.222656 332.175781 255.671875 333.054688 C 256.238281 334.3125 257.101562 335.414062 258.191406 336.257812 C 258.464844 336.550781 258.894531 336.121094 258.621094 335.828125 C 258.347656 335.535156 258.308594 334.929688 257.214844 332.761719 C 258.144531 332.359375 259.039062 331.882812 259.890625 331.335938 C 259.949219 331.292969 259.988281 331.230469 260.003906 331.160156 C 260.019531 331.089844 260.007812 331.015625 259.976562 330.953125 C 259.945312 330.886719 259.890625 330.835938 259.828125 330.808594 C 259.761719 330.777344 259.6875 330.773438 259.617188 330.789062 Z M 255.652344 325.183594 C 255.28125 325.148438 254.90625 325.222656 254.574219 325.398438 C 254.242188 325.570312 253.96875 325.835938 253.78125 326.160156 C 253.597656 326.488281 253.507812 326.859375 253.527344 327.230469 C 253.550781 327.605469 253.675781 327.964844 253.894531 328.269531 C 253.910156 328.335938 253.949219 328.394531 254.003906 328.4375 C 254.058594 328.480469 254.128906 328.503906 254.195312 328.503906 C 254.265625 328.503906 254.332031 328.480469 254.386719 328.4375 C 254.441406 328.394531 254.480469 328.335938 254.5 328.269531 C 254.5 327.773438 254.632812 327.285156 254.878906 326.851562 C 255.125 326.421875 255.480469 326.0625 255.90625 325.808594 C 256.199219 325.59375 256.140625 325.085938 255.652344 325.183594 Z M 205.386719 130.933594 C 205.179688 130.925781 204.980469 130.984375 204.8125 131.105469 C 204.648438 131.222656 204.523438 131.390625 204.460938 131.585938 C 204.402344 131.78125 204.402344 131.988281 204.472656 132.183594 C 204.539062 132.375 204.667969 132.539062 204.839844 132.652344 C 205.042969 132.78125 205.289062 132.828125 205.523438 132.777344 C 205.761719 132.730469 205.96875 132.59375 206.109375 132.398438 C 206.195312 132.257812 206.246094 132.101562 206.253906 131.9375 C 206.261719 131.773438 206.230469 131.609375 206.15625 131.460938 C 206.085938 131.316406 205.976562 131.1875 205.839844 131.097656 C 205.707031 131.003906 205.546875 130.945312 205.386719 130.933594 Z M 208.824219 132.222656 C 208.578125 132.246094 208.351562 132.359375 208.179688 132.539062 C 208.011719 132.71875 207.914062 132.953125 207.90625 133.199219 C 207.902344 133.378906 207.957031 133.558594 208.054688 133.710938 C 208.15625 133.863281 208.296875 133.984375 208.464844 134.054688 C 208.632812 134.125 208.816406 134.144531 208.996094 134.109375 C 209.175781 134.078125 209.339844 133.992188 209.46875 133.863281 C 209.613281 133.734375 209.714844 133.566406 209.761719 133.378906 C 209.804688 133.191406 209.792969 132.996094 209.722656 132.816406 C 209.652344 132.636719 209.527344 132.484375 209.367188 132.378906 C 209.207031 132.269531 209.015625 132.21875 208.824219 132.222656 Z M 208.765625 129.273438 C 208.726562 129.410156 208.71875 129.558594 208.746094 129.699219 C 208.773438 129.839844 208.832031 129.976562 208.917969 130.089844 C 209.007812 130.207031 209.117188 130.300781 209.246094 130.363281 C 209.375 130.429688 209.519531 130.460938 209.664062 130.464844 C 209.800781 130.457031 209.9375 130.425781 210.0625 130.367188 C 210.1875 130.308594 210.296875 130.222656 210.386719 130.117188 C 210.476562 130.011719 210.546875 129.890625 210.585938 129.757812 C 210.625 129.625 210.636719 129.488281 210.621094 129.351562 C 210.578125 129.140625 210.46875 128.953125 210.304688 128.8125 C 210.140625 128.675781 209.9375 128.59375 209.722656 128.585938 C 209.511719 128.578125 209.300781 128.640625 209.125 128.765625 C 208.953125 128.886719 208.824219 129.066406 208.765625 129.273438 Z M 214.078125 133.296875 C 214.28125 133.300781 214.480469 133.242188 214.644531 133.121094 C 214.808594 133.003906 214.925781 132.835938 214.984375 132.640625 C 215.042969 132.449219 215.035156 132.242188 214.964844 132.050781 C 214.890625 131.863281 214.757812 131.703125 214.585938 131.597656 C 214.445312 131.511719 214.285156 131.464844 214.121094 131.460938 C 213.957031 131.457031 213.792969 131.496094 213.648438 131.574219 C 213.503906 131.65625 213.382812 131.769531 213.296875 131.910156 C 213.210938 132.050781 213.164062 132.214844 213.160156 132.378906 C 213.164062 132.621094 213.265625 132.851562 213.433594 133.023438 C 213.605469 133.191406 213.835938 133.292969 214.078125 133.296875 Z M 215.777344 128.941406 C 215.910156 128.914062 216.03125 128.859375 216.140625 128.78125 C 216.25 128.703125 216.339844 128.601562 216.40625 128.484375 C 216.472656 128.371094 216.511719 128.242188 216.523438 128.109375 C 216.535156 127.976562 216.519531 127.84375 216.476562 127.714844 C 216.433594 127.589844 216.363281 127.472656 216.273438 127.375 C 216.179688 127.28125 216.070312 127.203125 215.945312 127.152344 C 215.824219 127.101562 215.691406 127.078125 215.558594 127.082031 C 215.421875 127.089844 215.292969 127.121094 215.171875 127.179688 C 214.96875 127.28125 214.808594 127.453125 214.722656 127.667969 C 214.636719 127.875 214.628906 128.113281 214.703125 128.328125 C 214.777344 128.542969 214.929688 128.722656 215.125 128.835938 C 215.324219 128.949219 215.554688 128.984375 215.777344 128.941406 Z M 215.777344 128.941406 " fill-opacity="1" fill-rule="nonzero"/><path fill="#000000" d="M 362.046875 224.21875 C 358.324219 223.09375 354.324219 223.324219 350.753906 224.863281 C 358.824219 214.507812 363.160156 204.15625 363.160156 190.207031 C 363.160156 182.292969 362.378906 174.851562 354.898438 172.367188 C 350.285156 170.824219 342.21875 173.230469 337.84375 175.457031 C 337.84375 167.171875 338.527344 57.984375 335.554688 50.089844 C 335.320312 49.40625 333.992188 49.113281 333.210938 48.917969 C 324.792969 46.867188 284.371094 43.195312 282.417969 44.894531 C 281.148438 45.988281 281.578125 54.253906 281.65625 55.894531 C 279.019531 55.894531 266.457031 55.71875 264.777344 57.730469 C 262.175781 60.796875 248.347656 96.46875 249.148438 100.4375 C 249.183594 100.660156 249.296875 100.867188 249.460938 101.023438 C 257.742188 109.089844 312.523438 107.625 315.023438 102.605469 C 316.644531 99.675781 305.644531 61.011719 303.691406 58.804688 C 301.738281 56.597656 285.464844 56.011719 282.359375 55.972656 C 282.152344 52.710938 282.273438 49.441406 282.710938 46.203125 C 282.90625 45.382812 283.042969 45.460938 283.355469 45.402344 C 288.589844 44.445312 331.316406 48.664062 334.519531 50.675781 C 335.964844 55.132812 335.984375 83.558594 336.628906 176.238281 C 331.0625 179.421875 326.652344 184.304688 324.050781 190.167969 C 321.46875 189.777344 317.953125 192.707031 316.117188 194.542969 C 313.613281 197.097656 311.4375 199.953125 309.632812 203.042969 C 309.296875 197.390625 308.359375 191.789062 306.835938 186.335938 C 302.402344 174.402344 289.039062 153.125 279.722656 162.113281 C 276.1875 166.097656 273.785156 170.953125 272.765625 176.179688 C 269.367188 172.949219 265.625 170.101562 261.609375 167.679688 C 259.246094 159.375 254.023438 152.171875 246.859375 147.34375 C 243.949219 145.296875 240.863281 143.511719 237.640625 142.007812 C 237.613281 141.945312 237.582031 141.886719 237.542969 141.832031 C 235.589844 139.625 230.566406 138.960938 227.578125 138.84375 C 227.851562 136.597656 225.917969 126.828125 225.449219 124.445312 C 226.03125 124.457031 226.605469 124.308594 227.109375 124.015625 C 229.0625 123.898438 236.722656 123.527344 238.109375 122.296875 C 238.363281 122.007812 238.527344 121.644531 238.578125 121.261719 C 238.902344 119.25 239.113281 117.222656 239.203125 115.1875 C 240.160156 100.75 239.515625 101.511719 239.964844 101.511719 C 246.136719 103.796875 248.171875 97.839844 239.964844 94.945312 L 239.964844 94.359375 C 242.367188 93.832031 245.160156 92.71875 244.046875 90.453125 C 243.59375 89.816406 242.988281 89.300781 242.285156 88.960938 C 241.582031 88.621094 240.804688 88.460938 240.023438 88.5 C 240.023438 83.539062 241.332031 14.085938 238.207031 10.355469 C 234.710938 6.191406 127.867188 8.246094 124.210938 12.113281 C 122.003906 14.339844 123.371094 112.449219 125.910156 121.789062 C 126.046875 122.277344 126.574219 122.375 127.082031 122.453125 C 135.542969 123.820312 185.691406 124.40625 197.414062 124.523438 C 197.664062 125.785156 197.980469 127.03125 198.371094 128.257812 C 199.269531 130.492188 200.597656 132.53125 202.277344 134.253906 C 203.75 135.285156 205.484375 135.871094 207.28125 135.953125 C 206.695312 137.28125 205.5625 139.742188 204.976562 140.972656 C 199.464844 142.597656 194.203125 144.976562 189.347656 148.046875 C 176.21875 157.089844 166.507812 173.933594 159.125 187.746094 C 157.742188 190.480469 156.546875 193.304688 155.546875 196.203125 C 147.421875 195.988281 114.015625 197.160156 113.136719 198.15625 C 112.6875 198.585938 113.136719 199.484375 113.253906 200.285156 C 114.777344 205.933594 120.460938 224.335938 122.804688 230.9375 C 119.269531 231.503906 115.734375 232.226562 112.195312 232.894531 C 112.101562 232.632812 111.992188 232.375 111.863281 232.128906 C 111.816406 232.015625 111.746094 231.914062 111.65625 231.828125 C 111.566406 231.742188 111.460938 231.675781 111.347656 231.632812 C 111.230469 231.589844 111.109375 231.570312 110.984375 231.574219 C 110.863281 231.578125 110.742188 231.609375 110.628906 231.660156 C 110.519531 231.714844 110.417969 231.789062 110.335938 231.878906 C 110.253906 231.972656 110.191406 232.078125 110.152344 232.195312 C 110.113281 232.3125 110.097656 232.4375 110.105469 232.558594 C 110.113281 232.683594 110.148438 232.804688 110.203125 232.914062 C 110.242188 232.996094 110.273438 233.078125 110.300781 233.167969 C 106.121094 233.734375 103.640625 233.675781 94.417969 234.984375 C 94.355469 234.773438 94.21875 234.59375 94.035156 234.472656 C 93.851562 234.355469 93.628906 234.308594 93.410156 234.339844 C 93.195312 234.371094 92.996094 234.476562 92.851562 234.640625 C 92.707031 234.804688 92.625 235.015625 92.621094 235.238281 C 87.269531 236.039062 82.484375 236.878906 76.796875 237.933594 C 76.71875 237.6875 76.628906 237.445312 76.523438 237.210938 C 76.425781 236.988281 76.242188 236.8125 76.015625 236.722656 C 75.792969 236.628906 75.539062 236.628906 75.3125 236.722656 C 75.199219 236.769531 75.097656 236.835938 75.011719 236.925781 C 74.929688 237.011719 74.859375 237.113281 74.816406 237.226562 C 74.769531 237.339844 74.746094 237.457031 74.75 237.582031 C 74.75 237.703125 74.777344 237.820312 74.824219 237.933594 C 74.824219 238.050781 74.824219 238.148438 74.960938 238.265625 C 70.117188 239.164062 65.191406 240.101562 60.445312 240.980469 L 60.445312 240.160156 C 60.40625 239.921875 60.28125 239.707031 60.09375 239.554688 C 59.90625 239.402344 59.671875 239.328125 59.429688 239.339844 C 59.308594 239.351562 59.191406 239.386719 59.085938 239.445312 C 58.976562 239.503906 58.882812 239.582031 58.808594 239.675781 C 58.730469 239.769531 58.675781 239.878906 58.640625 239.996094 C 58.605469 240.113281 58.59375 240.234375 58.609375 240.355469 C 58.628906 240.675781 58.628906 240.996094 58.609375 241.3125 C 56.207031 241.742188 53.785156 242.132812 51.359375 242.523438 C 51.289062 242.324219 51.148438 242.160156 50.964844 242.050781 C 50.785156 241.945312 50.570312 241.902344 50.359375 241.9375 C 50.152344 241.96875 49.960938 242.070312 49.820312 242.226562 C 49.675781 242.386719 49.59375 242.585938 49.582031 242.796875 C 33.523438 245.277344 36.882812 244.476562 32.390625 235.53125 C 31.628906 233.480469 30.335938 231.671875 28.640625 230.292969 C 28.371094 230.140625 28.074219 230.039062 27.765625 230 C 27.460938 229.960938 27.148438 229.984375 26.847656 230.070312 C 26.550781 230.152344 26.273438 230.296875 26.027344 230.488281 C 25.785156 230.679688 25.585938 230.921875 25.4375 231.191406 C 24.1875 232.953125 25.066406 238.871094 25.4375 241.136719 C 25.808594 243.402344 27.800781 253.914062 29.167969 255.28125 C 29.675781 255.789062 31.335938 255.828125 32.820312 255.90625 L 32.820312 256.355469 C 19.261719 257.625 2.070312 262.410156 0.859375 276.046875 C -0.0390625 286.265625 8.246094 290.308594 18.226562 292.476562 C 17.601562 295.898438 9.242188 340.539062 9.691406 343.136719 C 10.238281 346.085938 17.308594 347.804688 18.5 344.621094 C 20.335938 339.640625 27.039062 299.160156 27.917969 293.828125 C 37.910156 294.734375 47.972656 294.539062 57.925781 293.242188 C 58.824219 298.554688 65.484375 338.800781 67.324219 343.78125 C 68.496094 346.945312 75.585938 345.226562 76.113281 342.296875 C 76.582031 339.699219 68.300781 295.527344 67.5 291.148438 C 78.613281 287.828125 89.945312 281.03125 88.402344 269.484375 C 102.625 268.839844 118.898438 267.082031 132.964844 265.246094 C 132.949219 267.761719 133.539062 270.25 134.683594 272.492188 C 136.070312 275.089844 141.050781 276.867188 143.847656 277.769531 C 143.339844 280.484375 133.824219 331.0625 134.3125 333.816406 C 134.800781 336.570312 141.929688 338.46875 143.105469 335.300781 C 145.058594 330.125 152.167969 286.695312 153.28125 280.210938 C 174.929688 284.683594 184.96875 283.375 192.726562 282.496094 C 192.921875 284.820312 196.632812 332.878906 197.863281 335.242188 C 199.152344 337.941406 206.441406 337.746094 206.753906 334.382812 C 207.242188 328.972656 202.847656 286.519531 202.433594 281.226562 C 214.34375 279.710938 226.042969 276.855469 237.308594 272.707031 C 239.652344 281.636719 245.609375 303.964844 246.117188 305.78125 C 240.449219 308.007812 235.648438 312.011719 232.441406 317.191406 C 229 318.726562 225.648438 320.453125 222.402344 322.367188 C 220.609375 323.15625 218.882812 324.089844 217.242188 325.164062 C 215.695312 326.144531 214.363281 327.433594 213.335938 328.953125 C 213.222656 329.203125 213.164062 329.476562 213.164062 329.753906 C 213.164062 330.03125 213.222656 330.304688 213.335938 330.554688 C 213.8125 331.523438 214.476562 332.386719 215.289062 333.09375 C 218.867188 336.199219 220.683594 334.734375 227.480469 344.445312 C 230.957031 349.386719 232.226562 355.699219 236.585938 361.03125 C 239.652344 364.78125 241.175781 368.847656 248.308594 367.027344 C 252.214844 366.050781 254.363281 364.351562 259.695312 362.90625 C 262.410156 362.183594 265.207031 361.65625 267.921875 360.835938 C 284.761719 355.796875 280.796875 357.164062 292.320312 355.523438 C 294.277344 355.230469 296.367188 354.78125 298.378906 354.46875 C 301.90625 354.179688 305.449219 354.074219 308.988281 354.15625 C 309.433594 354.039062 309.832031 353.789062 310.132812 353.441406 C 310.429688 353.089844 310.617188 352.660156 310.667969 352.199219 C 310.835938 351.175781 310.882812 350.132812 310.804688 349.09375 C 311.003906 346.71875 310.414062 344.339844 309.125 342.335938 C 318.148438 343.898438 341.925781 342.023438 343.917969 340.851562 C 344.101562 340.753906 344.253906 340.605469 344.347656 340.421875 C 345.519531 337.902344 347.179688 315.355469 347.199219 306.71875 C 347.855469 306.617188 348.503906 306.492188 349.152344 306.347656 C 350.519531 306.015625 350.714844 299.628906 349.855469 297.890625 C 349.785156 297.71875 349.679688 297.566406 349.546875 297.441406 C 349.410156 297.316406 349.25 297.222656 349.074219 297.167969 C 343.488281 295.898438 328.191406 296.210938 322.171875 296.445312 C 321.953125 289.164062 321.164062 281.914062 319.808594 274.757812 C 327.054688 273.09375 334.09375 270.652344 340.8125 267.472656 C 353.335938 261.277344 360.601562 258.835938 368.984375 246.742188 C 374.980469 238.148438 371.953125 227.5 362.046875 224.21875 Z M 303.222656 59.117188 C 305.175781 61.070312 314.300781 96.234375 314.144531 101.667969 C 314.027344 106.160156 258.640625 107.527344 250.652344 100.125 C 250.75 94.007812 263.78125 60.796875 265.714844 58.453125 C 267.648438 56.109375 300.683594 56.382812 303.222656 59.117188 Z M 342.570312 175.027344 C 345.832031 173.953125 351.164062 172.683594 354.429688 173.777344 C 361.1875 176.023438 361.65625 183.113281 361.65625 190.207031 C 361.65625 204.9375 356.695312 215.445312 347.765625 226.210938 C 343.664062 228.472656 339.921875 231.339844 336.667969 234.710938 C 338.425781 227.394531 338.855469 219.824219 337.941406 212.359375 C 337.789062 211.035156 337.507812 209.722656 337.097656 208.453125 C 338.460938 204.332031 340.144531 200.328125 342.140625 196.476562 C 345.285156 190.617188 346.554688 190.714844 346.046875 190.226562 C 346.023438 190.195312 345.988281 190.171875 345.953125 190.15625 C 345.917969 190.140625 345.882812 190.132812 345.84375 190.132812 C 345.804688 190.132812 345.765625 190.140625 345.730469 190.15625 C 345.695312 190.171875 345.664062 190.195312 345.636719 190.226562 C 341.503906 194.890625 338.347656 200.339844 336.355469 206.246094 C 334.539062 201.398438 329.851562 192.707031 325.261719 190.617188 C 326.902344 186.957031 329.289062 183.679688 332.269531 180.996094 C 335.25 178.3125 338.757812 176.277344 342.570312 175.027344 Z M 317.054688 195.558594 C 318.714844 193.683594 320.878906 192.328125 323.289062 191.652344 C 327 191.066406 335.710938 204.625 336.433594 212.632812 C 337.46875 220.832031 336.804688 229.160156 334.480469 237.09375 C 332.527344 239.222656 330.707031 241.476562 329.03125 243.832031 C 325.339844 249.070312 323.367188 250.125 320.277344 258.503906 C 320.804688 237.757812 322.445312 211.109375 322.445312 210.230469 C 322.464844 210.1875 322.472656 210.136719 322.46875 210.089844 C 322.464844 210.039062 322.449219 209.992188 322.421875 209.949219 C 322.394531 209.910156 322.359375 209.875 322.3125 209.851562 C 322.269531 209.832031 322.222656 209.820312 322.171875 209.820312 C 321.839844 209.820312 321.839844 210.230469 321.800781 210.542969 C 321.273438 215.523438 319.320312 248.308594 318.929688 261.023438 C 315.472656 244.359375 307.207031 238.070312 304.414062 234.027344 C 303.339844 220.566406 307.402344 205.074219 317.054688 195.558594 Z M 277.984375 210.542969 C 279.9375 215.914062 283.433594 223.554688 287.75 227.246094 C 283.292969 226.308594 278.671875 226.539062 274.328125 227.910156 C 275.324219 224.414062 277.453125 214.742188 278.023438 210.484375 Z M 271.632812 232.679688 C 271.597656 232.148438 271.726562 231.625 272.003906 231.171875 C 275.910156 226.015625 296.992188 225.878906 309.125 242.152344 C 314.992188 250.441406 318.230469 260.304688 318.421875 270.460938 C 313.011719 261.316406 294.257812 243.382812 282.164062 239.203125 C 282.125 239.191406 282.085938 239.183594 282.046875 239.1875 C 282.007812 239.1875 281.96875 239.199219 281.933594 239.214844 C 281.898438 239.234375 281.867188 239.257812 281.839844 239.289062 C 281.816406 239.316406 281.796875 239.351562 281.78125 239.386719 C 281.769531 239.425781 281.765625 239.464844 281.765625 239.503906 C 281.769531 239.542969 281.78125 239.582031 281.796875 239.617188 C 281.8125 239.652344 281.839844 239.683594 281.867188 239.710938 C 281.898438 239.734375 281.929688 239.757812 281.96875 239.769531 C 296.210938 244.984375 318.597656 269.25 318.304688 274.191406 C 317.097656 274.167969 315.886719 274.246094 314.691406 274.425781 C 312.996094 274.425781 311.304688 274.296875 309.632812 274.035156 C 304.277344 273.117188 300.839844 270.65625 292.695312 263 C 286.960938 257.753906 281.636719 252.078125 276.769531 246.019531 C 274.914062 242.796875 271.574219 236.449219 271.632812 232.679688 Z M 273.976562 176.941406 C 274.878906 171.789062 277.191406 166.984375 280.660156 163.070312 C 288.746094 155.253906 301.464844 176.296875 305.351562 186.765625 C 307 192.882812 307.984375 199.15625 308.285156 205.484375 C 304.496094 213.691406 302.730469 222.691406 303.144531 231.71875 C 297.558594 223.28125 289.78125 204.9375 286.949219 190.695312 C 286.421875 188.175781 284.292969 174.871094 284.292969 173.328125 C 284.527344 172.9375 283.707031 172.484375 283.667969 173.328125 C 284.140625 181.953125 285.402344 190.519531 287.4375 198.917969 C 290.425781 209.386719 294.609375 219.476562 299.902344 228.984375 C 304.121094 236.800781 304.960938 233.792969 295.644531 229.511719 C 293.753906 228.6875 291.789062 228.03125 289.78125 227.558594 C 288.738281 226.792969 287.769531 225.929688 286.890625 224.980469 C 279.175781 216.050781 272.101562 191.183594 273.976562 176.960938 Z M 127.082031 237.503906 C 129.957031 237.660156 133.160156 236.859375 134.351562 234.28125 L 148.320312 234.632812 C 148.191406 235.890625 148.554688 237.152344 149.332031 238.148438 C 150.113281 239.144531 151.246094 239.804688 152.5 239.984375 C 153.644531 240.136719 154.808594 240.046875 155.917969 239.726562 C 157.027344 239.410156 158.058594 238.863281 158.949219 238.128906 C 159.410156 237.722656 159.769531 237.210938 160 236.636719 C 160.226562 236.0625 160.316406 235.441406 160.257812 234.828125 L 169.457031 234.964844 C 169.945312 235.667969 197.277344 232.480469 199.71875 231.328125 C 200.929688 230.761719 200.578125 228.769531 199.875 227.636719 C 200.109375 227.636719 199.992188 227.636719 200.265625 228.085938 C 200.433594 228.492188 200.710938 228.847656 201.066406 229.101562 C 204.414062 229.511719 207.808594 229.117188 210.972656 227.949219 C 211.597656 227.519531 211.519531 227.011719 211.382812 226.210938 C 228.730469 223.75 227.285156 224.257812 237.132812 221.992188 C 237.679688 221.875 230.292969 224.433594 225.898438 226.796875 C 223.777344 227.914062 221.808594 229.300781 220.039062 230.917969 C 215.582031 235.199219 205.777344 265.929688 197.941406 267.414062 C 188.375 269.015625 178.632812 269.292969 168.988281 268.234375 C 169.265625 267.550781 169.335938 266.800781 169.191406 266.078125 C 169.046875 265.355469 168.6875 264.691406 168.167969 264.171875 C 167.355469 263.421875 166.398438 262.84375 165.359375 262.464844 C 164.320312 262.085938 163.21875 261.914062 162.113281 261.960938 C 158.714844 261.960938 157.011719 264.054688 157.621094 266.769531 C 148.675781 265.324219 139.851562 263.242188 131.207031 260.535156 C 130.347656 258.074219 127.535156 240.492188 127.082031 237.503906 Z M 126.769531 233.988281 L 132.632812 234.242188 C 131.925781 234.933594 131.074219 235.457031 130.136719 235.777344 C 129.199219 236.09375 128.203125 236.195312 127.21875 236.078125 C 127.140625 235.863281 126.984375 235.003906 126.769531 233.988281 Z M 158.8125 234.808594 C 158.820312 234.9375 158.820312 235.066406 158.8125 235.199219 C 158.753906 235.675781 158.585938 236.136719 158.316406 236.535156 C 158.050781 236.9375 157.6875 237.269531 157.265625 237.503906 C 155.832031 238.332031 154.167969 238.679688 152.519531 238.5 C 151.722656 238.335938 151 237.929688 150.445312 237.332031 C 149.890625 236.738281 149.539062 235.984375 149.433594 235.179688 C 149.421875 235.003906 149.421875 234.828125 149.433594 234.652344 Z M 176.960938 220.390625 L 172.25 220.976562 C 186.609375 201.75 178.464844 210.425781 176.960938 220.390625 Z M 171.3125 222.34375 L 177.175781 221.679688 C 177.664062 222.539062 182.351562 224.0625 183.25 224.355469 C 183.078125 224.679688 182.933594 225.019531 182.820312 225.371094 C 178.621094 225.058594 174.207031 224.765625 169.632812 224.609375 Z M 210.015625 226.816406 C 207.355469 227.574219 204.59375 227.902344 201.828125 227.792969 C 199.726562 222.949219 197.921875 217.976562 196.4375 212.90625 C 198.675781 210.949219 201.359375 209.566406 204.253906 208.882812 C 205.113281 210.933594 209.917969 224.746094 210.015625 226.816406 Z M 199.445312 226.289062 C 188.46875 226.972656 185.769531 227.363281 184.03125 226.933594 C 183.914062 222.1875 192.0625 219.726562 196.789062 218.964844 C 197.726562 221.835938 198.703125 224.453125 199.445312 226.269531 Z M 176.882812 230.566406 C 179.109375 230.253906 196.417969 227.949219 198.644531 228.476562 C 198.917969 228.945312 199.046875 229.480469 199.015625 230.019531 C 196.320312 230.839844 170.238281 234.320312 170.003906 234.339844 C 169.757812 233.582031 169.625 232.792969 169.613281 231.992188 L 169.613281 231.835938 C 170.589844 231.816406 166.9375 231.933594 176.882812 230.546875 Z M 168.5 225.917969 C 172.40625 226.074219 176.492188 226.289062 182.566406 226.777344 C 182.566406 227.304688 182.566406 227.792969 183.113281 228.183594 C 183.660156 228.574219 185.066406 228.007812 176.433594 229.628906 C 173.996094 229.960938 171.597656 230.542969 169.28125 231.367188 C 168.109375 225.449219 168.050781 226.445312 168.5 225.898438 Z M 167.640625 267.628906 C 157.582031 266.574219 158.265625 266.925781 158.246094 266.496094 C 158.1875 265.980469 158.269531 265.457031 158.488281 264.984375 C 158.703125 264.515625 159.046875 264.109375 159.476562 263.820312 C 161.664062 262.390625 168.890625 264.113281 167.640625 267.609375 Z M 236.214844 142.085938 C 235.6875 142.496094 217.515625 156.308594 214.839844 157.992188 C 213.488281 155.878906 211.992188 153.863281 210.367188 151.953125 C 212.554688 149.53125 227.285156 139.390625 227.285156 139.390625 C 227.910156 139.390625 233.910156 140.035156 236.214844 142.066406 Z M 197.570312 144.765625 C 199.960938 143.796875 202.414062 143.003906 204.917969 142.378906 C 208.824219 151.855469 207.808594 149.785156 208.472656 151.464844 C 205.621094 152.746094 202.839844 154.191406 200.148438 155.78125 C 198.957031 152.949219 197.179688 147.753906 197.570312 144.765625 Z M 238.597656 86.273438 L 238.597656 88.734375 C 232.738281 89.496094 232.738281 90.6875 232.738281 89.925781 C 235.921875 88.109375 237.972656 87.621094 238.617188 86.15625 Z M 230.9375 101.433594 C 230.539062 101.078125 230.09375 100.78125 229.609375 100.554688 C 229.316406 100.398438 229.609375 100.554688 229.609375 100.105469 C 229.683594 99.742188 229.683594 99.371094 229.609375 99.011719 C 230.097656 99.136719 230.59375 99.214844 231.09375 99.246094 C 230.996094 99.832031 230.976562 100.652344 230.957031 101.355469 Z M 224.570312 90.941406 C 223.945312 91.78125 223.203125 92.640625 222.617188 93.519531 C 223.480469 90.09375 225.28125 86.976562 227.8125 84.515625 C 228.648438 83.976562 229.445312 83.382812 230.195312 82.738281 C 232.621094 79.941406 228.242188 77.089844 224.6875 80.273438 C 222.046875 82.542969 220.238281 85.632812 219.550781 89.046875 C 219.042969 91.644531 219.804688 91.332031 218.867188 91.097656 C 218.007812 90.789062 217.066406 90.789062 216.207031 91.097656 C 215.582031 89.261719 211.480469 89.28125 210.09375 90.277344 C 209.527344 90.6875 209.917969 90.609375 209.46875 90.277344 C 208.59375 90.03125 207.675781 89.984375 206.78125 90.136719 C 205.886719 90.285156 205.035156 90.636719 204.292969 91.15625 C 204.117188 91.273438 203.492188 92.054688 203.140625 92.425781 C 202.371094 92.386719 201.601562 92.523438 200.890625 92.816406 C 200.15625 93.152344 199.582031 93.761719 199.289062 94.515625 L 199.289062 94.964844 C 198.941406 94.902344 198.582031 94.902344 198.234375 94.964844 C 196.917969 95.515625 195.875 96.5625 195.324219 97.878906 C 195.003906 98.476562 194.914062 99.171875 195.070312 99.832031 C 193.371094 100.75 191.59375 102.078125 191.886719 103.992188 C 192.050781 104.472656 192.292969 104.921875 192.609375 105.320312 C 192.121094 105.671875 190.792969 105.828125 191.066406 108.796875 L 189.601562 108.679688 C 188.585938 103.542969 187.960938 71.679688 188.46875 71.328125 C 190.792969 70.253906 226.914062 70.117188 230.644531 71.152344 C 231.085938 75.566406 231.269531 80 231.191406 84.4375 C 228.570312 86.097656 226.324219 88.285156 224.589844 90.863281 Z M 236.9375 121.222656 C 234.535156 121.863281 232.074219 122.238281 229.589844 122.335938 C 229.933594 122.085938 230.195312 121.738281 230.34375 121.339844 C 230.488281 120.9375 230.511719 120.503906 230.410156 120.089844 C 230.792969 120.015625 231.15625 119.851562 231.460938 119.613281 C 231.765625 119.371094 232.007812 119.058594 232.167969 118.703125 C 232.386719 118.125 232.386719 117.484375 232.167969 116.90625 C 232.050781 116.632812 231.933594 116.90625 232.539062 116.574219 C 232.90625 116.402344 233.226562 116.152344 233.488281 115.847656 C 233.746094 115.539062 233.9375 115.179688 234.046875 114.792969 C 234.15625 114.40625 234.179688 114 234.121094 113.605469 C 234.058594 113.207031 233.914062 112.828125 233.695312 112.488281 C 233.996094 112.144531 234.1875 111.71875 234.25 111.261719 C 234.3125 110.808594 234.242188 110.347656 234.046875 109.929688 C 233.726562 109.363281 233.230469 108.914062 232.640625 108.640625 C 232.929688 108.152344 233.054688 107.582031 232.988281 107.019531 C 232.925781 106.453125 232.679688 105.925781 232.285156 105.515625 C 232.285156 103.835938 232.441406 101.726562 232.519531 99.363281 C 234.535156 99.378906 236.511719 99.910156 238.265625 100.90625 C 238.148438 104.089844 237.71875 118.253906 236.957031 121.144531 Z M 127.160156 121.222656 C 124.542969 109.988281 122.941406 14.378906 124.621094 12.660156 C 127.867188 9.105469 230.019531 7.796875 237.269531 11.332031 C 237.625 12.609375 237.855469 13.917969 237.953125 15.238281 C 239.359375 29.597656 238.949219 69.941406 238.695312 84.730469 C 237.777344 82.5625 234.886719 82.777344 232.699219 83.617188 C 232.746094 79.296875 232.53125 74.976562 232.050781 70.683594 C 232.03125 70.46875 231.949219 70.265625 231.8125 70.097656 C 231.675781 69.933594 231.496094 69.808594 231.289062 69.746094 C 227.871094 68.515625 189.582031 69.335938 188.058594 70.78125 C 187.117188 71.699219 187.449219 105.945312 188.46875 109.324219 C 188.527344 109.46875 188.628906 109.59375 188.757812 109.683594 C 188.882812 109.773438 189.035156 109.824219 189.191406 109.832031 C 189.738281 109.832031 191.007812 110.007812 191.4375 110.027344 C 191.769531 110.632812 192.296875 110.75 192.589844 111.003906 C 192.417969 111.148438 192.28125 111.332031 192.195312 111.539062 C 192.109375 111.746094 192.078125 111.972656 192.101562 112.195312 C 192.207031 113.210938 192.601562 114.171875 193.234375 114.972656 C 194.171875 116.085938 195.03125 115.753906 195.988281 115.753906 C 196.183594 117.375 196.59375 120.050781 197.199219 123.019531 C 183.210938 123.039062 133.492188 122.296875 127.179688 121.085938 Z M 208.960938 134.898438 C 208.742188 134.714844 208.464844 134.621094 208.179688 134.625 C 206.484375 134.59375 204.828125 134.121094 203.375 133.257812 C 201.824219 131.6875 200.585938 129.835938 199.71875 127.808594 C 198.203125 122.648438 197.246094 117.34375 196.867188 111.980469 C 197.042969 109.558594 199.484375 106.570312 203.902344 105.652344 C 207.382812 105.039062 210.96875 105.484375 214.195312 106.921875 C 216.792969 107.957031 220.390625 112.097656 221.835938 114.347656 C 221.902344 114.4375 222.003906 114.503906 222.113281 114.523438 C 222.226562 114.546875 222.34375 114.523438 222.441406 114.464844 C 223.054688 114.066406 223.710938 113.738281 224.394531 113.488281 C 224.976562 113.351562 225.589844 113.449219 226.101562 113.757812 C 226.613281 114.070312 226.980469 114.566406 227.128906 115.148438 C 228.144531 117.453125 224.335938 121.300781 223.808594 122.042969 C 223.734375 122.238281 223.734375 122.453125 223.808594 122.648438 C 224.886719 127.90625 225.65625 133.222656 226.113281 138.570312 C 225.46875 138.941406 224.667969 139.546875 218.007812 144.550781 C 215.140625 146.378906 212.398438 148.394531 209.800781 150.585938 C 209.078125 148.28125 207.242188 144.21875 206.304688 142.164062 C 209.390625 135.25 209.429688 135.289062 208.980469 134.839844 Z M 160.414062 188.429688 C 168.226562 173.621094 180.457031 151.933594 196.867188 145.273438 C 196.792969 149.429688 197.632812 153.550781 199.328125 157.34375 C 199.394531 157.4375 199.480469 157.511719 199.582031 157.566406 C 199.679688 157.617188 199.792969 157.644531 199.90625 157.644531 C 200.019531 157.644531 200.128906 157.617188 200.230469 157.566406 C 200.332031 157.511719 200.417969 157.4375 200.480469 157.34375 C 201.234375 156.703125 202.066406 156.164062 202.964844 155.742188 C 203.328125 157.148438 203.949219 158.472656 204.800781 159.652344 C 204.371094 162.113281 196.535156 194.347656 196.984375 196.242188 C 198.371094 199.832031 200.203125 203.230469 202.433594 206.363281 C 202.867188 206.949219 203.335938 207.398438 203.941406 206.910156 C 206.886719 203.925781 209.339844 200.488281 211.207031 196.730469 C 211.324219 196.320312 211.363281 196.59375 210.015625 160.355469 C 210.660156 159.613281 211.96875 158.050781 212.574219 157.148438 C 214.175781 159.398438 213.277344 159.105469 213.84375 159.554688 C 214.410156 160.003906 214.742188 159.75 215.230469 159.554688 C 218.4375 157.71875 234.769531 145.097656 237.328125 142.65625 C 240.507812 144.105469 243.546875 145.84375 246.410156 147.851562 C 259.246094 156.054688 262.039062 170.414062 263.390625 185.535156 C 264.289062 196.164062 262.941406 205.191406 255.085938 211.949219 C 249.898438 216.152344 243.796875 219.078125 237.269531 220.488281 C 233.011719 221.542969 214.488281 224.257812 210.972656 224.746094 C 209.429688 219.910156 207.644531 215.160156 205.621094 210.503906 C 212.007812 207.730469 223.476562 203.648438 230 201.4375 C 230.113281 201.40625 230.214844 201.339844 230.28125 201.242188 C 230.347656 201.144531 230.382812 201.027344 230.371094 200.910156 C 229.941406 195.441406 229.375 181.160156 231.484375 176.082031 C 231.640625 175.730469 231.074219 175.496094 230.917969 175.847656 C 228.652344 181.023438 228.964844 194.914062 229.277344 200.558594 C 222.578125 202.710938 211.5 206.421875 205.054688 209.214844 C 204.78125 208.628906 204.761719 208.355469 204.214844 208.296875 C 202.554688 208.160156 196.164062 210.875 195.285156 212.535156 C 194.894531 213.257812 196.085938 216.910156 196.496094 218.222656 C 192.433594 218.574219 186.726562 219.921875 184.03125 223.046875 C 182.074219 222.488281 180.175781 221.738281 178.367188 220.800781 C 179.226562 214.9375 183.953125 205.621094 186.921875 200.675781 C 188.058594 198.722656 189.484375 186.042969 189.621094 183.953125 C 189.726562 182.085938 189.726562 180.214844 189.621094 178.347656 C 189.601562 178.28125 189.5625 178.21875 189.507812 178.179688 C 189.453125 178.136719 189.386719 178.113281 189.316406 178.113281 C 189.246094 178.113281 189.179688 178.136719 189.125 178.179688 C 189.070312 178.21875 189.03125 178.28125 189.015625 178.347656 C 188.898438 179.558594 188.683594 180.964844 188.429688 182.566406 C 188.3125 183.445312 186.921875 197.726562 185.496094 200.148438 C 180.964844 206.578125 172.585938 218.339844 167.738281 224.550781 C 167.5625 223.769531 161.742188 197.707031 160.609375 197.003906 C 159.445312 196.636719 158.234375 196.457031 157.011719 196.476562 C 157.96875 193.722656 159.105469 191.03125 160.414062 188.429688 Z M 114.601562 199.25 C 120.714844 198.625 157.582031 196.769531 159.984375 197.960938 C 160.101562 198.878906 162.660156 205.621094 164.867188 216.109375 C 166.527344 223.925781 168.773438 231.738281 169.203125 234.339844 C 168.1875 234.339844 126.847656 232.699219 124.933594 232.382812 C 123.449219 229.042969 115.597656 203.160156 114.601562 199.25 Z M 30.183594 254.03125 C 29.011719 252.078125 24.988281 234.300781 26.6875 231.914062 C 28.875 228.867188 32.546875 239.925781 33.757812 242.09375 C 36.101562 246.683594 40.167969 245.628906 50.109375 244.046875 C 50.460938 245.082031 50.578125 246 51.476562 246 C 51.628906 246 51.777344 245.960938 51.910156 245.886719 C 52.039062 245.816406 52.152344 245.714844 52.238281 245.589844 C 52.320312 245.464844 52.375 245.324219 52.390625 245.171875 C 52.410156 245.023438 52.390625 244.871094 52.339844 244.730469 C 52.183594 244.339844 52.0625 243.96875 51.964844 243.65625 C 59.449219 242.464844 58.648438 242.40625 58.667969 242.71875 C 58.667969 242.960938 58.765625 243.195312 58.9375 243.367188 C 59.109375 243.539062 59.34375 243.636719 59.585938 243.636719 C 59.828125 243.636719 60.0625 243.539062 60.234375 243.367188 C 60.40625 243.195312 60.503906 242.960938 60.503906 242.71875 L 60.503906 242.269531 C 65.503906 241.371094 70.488281 240.316406 75.488281 239.476562 C 75.488281 239.75 75.625 240.003906 75.722656 240.257812 C 75.804688 240.488281 75.972656 240.679688 76.191406 240.785156 C 76.410156 240.890625 76.664062 240.90625 76.894531 240.824219 C 77.125 240.746094 77.316406 240.574219 77.421875 240.355469 C 77.527344 240.136719 77.542969 239.882812 77.460938 239.652344 C 77.460938 239.476562 77.460938 239.300781 77.304688 239.144531 C 82.757812 238.128906 87.484375 237.191406 92.796875 236.488281 L 92.796875 237.816406 C 92.808594 237.9375 92.84375 238.054688 92.898438 238.160156 C 92.953125 238.269531 93.03125 238.363281 93.121094 238.441406 C 93.214844 238.519531 93.320312 238.578125 93.4375 238.617188 C 93.550781 238.652344 93.671875 238.667969 93.792969 238.65625 C 93.914062 238.644531 94.03125 238.613281 94.140625 238.554688 C 94.246094 238.5 94.34375 238.425781 94.421875 238.332031 C 94.5 238.238281 94.558594 238.132812 94.59375 238.015625 C 94.628906 237.902344 94.644531 237.78125 94.632812 237.660156 L 94.632812 236.234375 C 104.402344 234.808594 106.179688 234.984375 110.886719 234.28125 L 111.21875 235.199219 C 111.335938 235.394531 111.515625 235.542969 111.730469 235.613281 C 111.941406 235.6875 112.175781 235.679688 112.386719 235.59375 C 112.597656 235.507812 112.765625 235.351562 112.867188 235.148438 C 112.96875 234.945312 112.996094 234.714844 112.941406 234.496094 C 112.867188 234.328125 112.800781 234.160156 112.746094 233.988281 C 116.28125 233.402344 119.796875 232.660156 123.351562 232.03125 C 123.976562 233.675781 123.898438 233.65625 125.8125 233.8125 C 126.027344 233.8125 126.730469 241.800781 129.3125 256.140625 C 107.351562 257.351562 65.25 258.09375 44.523438 254.8125 C 43.273438 254.617188 41.320312 254.539062 41.515625 254.539062 C 39.269531 251.550781 35.144531 245.863281 33.386719 249.109375 C 32.574219 250.660156 32.304688 252.445312 32.625 254.167969 C 31.808594 254.179688 30.992188 254.136719 30.183594 254.03125 Z M 51.925781 257.234375 C 49.644531 257.800781 47.398438 258.511719 45.207031 259.363281 C 44.28125 258.332031 43.414062 257.25 42.609375 256.121094 C 44.640625 256.316406 45.910156 256.6875 51.886719 257.234375 Z M 17.171875 344.035156 C 16.742188 345.207031 13.578125 344.855469 11.996094 343.722656 C 10.765625 342.824219 10.355469 346.90625 19.066406 292.597656 C 21.773438 293.136719 24.503906 293.53125 27.253906 293.769531 C 21.527344 323.035156 18.109375 341.4375 17.171875 344.035156 Z M 74.667969 341.105469 C 74.667969 341.984375 74.921875 342.277344 74.023438 342.941406 C 72.480469 344.054688 69.277344 344.464844 68.828125 343.273438 C 67.851562 340.65625 64.039062 320.140625 58.785156 293.144531 C 61.503906 292.703125 64.199219 292.109375 66.851562 291.363281 C 69.082031 305.292969 74.53125 339.582031 74.667969 341.007812 Z M 43.410156 284.019531 C 32.234375 284.019531 8.441406 283.609375 2.8125 273.898438 C 5.703125 262.546875 21.585938 258.875 33.230469 257.683594 C 34.210938 261.464844 35.410156 265.179688 36.824219 268.820312 C 37.515625 270.523438 38.808594 271.914062 40.460938 272.726562 C 41.789062 273.074219 43.179688 273.125 44.527344 272.875 C 45.878906 272.628906 47.160156 272.082031 48.273438 271.28125 C 75.449219 268.46875 65.113281 270.34375 85.003906 269.660156 C 77.792969 280.816406 56.910156 283.941406 43.429688 283.921875 Z M 61.207031 268.644531 C 60.71875 268.644531 48 269.679688 47.53125 269.953125 C 46.59375 270.632812 45.523438 271.109375 44.386719 271.347656 C 43.253906 271.585938 42.082031 271.582031 40.949219 271.339844 C 39.679688 270.679688 38.6875 269.582031 38.15625 268.253906 C 36.960938 265.265625 31.960938 251.589844 34.734375 249.871094 C 36.824219 250.144531 43.078125 260.242188 44.601562 260.964844 C 44.726562 261.03125 44.863281 261.0625 45.003906 261.0625 C 45.140625 261.0625 45.277344 261.03125 45.402344 260.964844 C 48.953125 259.578125 52.613281 258.476562 56.34375 257.683594 C 80.660156 258.953125 105.035156 258.757812 129.332031 257.097656 C 129.554688 258.484375 129.867188 259.855469 130.269531 261.199219 C 130.300781 261.28125 130.351562 261.351562 130.414062 261.410156 C 130.480469 261.46875 130.554688 261.507812 130.640625 261.53125 C 132.59375 262.15625 134.996094 262.941406 137.984375 263.78125 C 86.332031 270.167969 75.273438 267.492188 61.226562 268.546875 Z M 141.773438 334.792969 C 141.34375 335.964844 138.160156 335.59375 136.597656 334.460938 C 135.386719 333.601562 134.78125 338.644531 144.53125 277.984375 C 146.992188 278.746094 149.765625 279.46875 152.714844 280.09375 C 146.054688 314.144531 142.773438 332.097656 141.792969 334.695312 Z M 205.328125 334.304688 C 205.210938 335.535156 202.0625 336.023438 200.246094 335.339844 C 198.800781 334.792969 199.503906 339.035156 193.527344 282.4375 C 196.261719 282.125 199.015625 281.773438 201.789062 281.382812 C 204.058594 313.578125 205.601562 331.511719 205.347656 334.265625 Z M 238.089844 272.492188 C 240.6875 271.476562 243.265625 270.382812 245.765625 269.191406 L 254.382812 303.242188 C 252.039062 303.664062 249.738281 304.316406 247.523438 305.195312 C 245.082031 296.484375 240.53125 280.835938 238.109375 272.394531 Z M 262.195312 304.042969 C 266.898438 304.21875 271.554688 305.046875 276.027344 306.503906 C 277.617188 306.945312 279.183594 307.46875 280.71875 308.070312 C 285.507812 310.253906 289.8125 313.378906 293.378906 317.25 C 296.855469 321.351562 297.636719 326.6875 297.285156 332.097656 C 297.03125 335.359375 294.921875 337.488281 292.359375 339.5625 C 292.085938 337.351562 288.453125 335.652344 286.34375 335.320312 C 286.03125 335.320312 285.992188 335.4375 286.832031 334.96875 C 288.335938 334.136719 289.539062 332.851562 290.269531 331.296875 C 290.542969 331.003906 290.09375 330.59375 289.839844 330.886719 C 287.710938 332.351562 286.578125 333.523438 283.707031 335.320312 C 283.511719 335.320312 283.550781 335.789062 282.300781 335.730469 C 280.558594 335.320312 278.773438 335.125 276.984375 335.144531 C 276.101562 332.921875 275.769531 330.515625 276.015625 328.136719 C 276.257812 325.753906 277.074219 323.46875 278.394531 321.46875 C 281.753906 316.957031 283.023438 318.597656 283.023438 317.757812 C 283.023438 316.449219 274.464844 318.8125 274.5625 329.246094 C 274.636719 331.308594 275.210938 333.320312 276.242188 335.105469 C 273.921875 335.222656 271.632812 335.738281 269.484375 336.628906 C 269.035156 336.21875 267.160156 337.195312 265.949219 336.628906 C 266.980469 333.136719 267.367188 329.480469 267.082031 325.847656 C 266.789062 323.679688 265.871094 321.640625 264.445312 319.984375 C 262.847656 318.167969 260.839844 316.757812 258.582031 315.882812 C 253.933594 314.203125 252.351562 316.566406 249.597656 317.445312 C 249.140625 317.597656 248.644531 317.597656 248.191406 317.445312 C 246.429688 316.878906 241.683594 315.492188 240.648438 317.074219 C 239.847656 318.265625 241.019531 320.023438 241.78125 321.351562 C 242.542969 322.683594 242.796875 322.761719 241.527344 325.984375 C 241.148438 327.050781 240.652344 328.074219 240.042969 329.03125 C 239.046875 330.066406 235.707031 330.828125 235.082031 332.039062 C 233.8125 334.382812 238.636719 336.746094 239.535156 337.902344 C 240.433594 339.054688 241.996094 341.183594 242.835938 342.082031 C 246.019531 345.558594 253.816406 346.359375 257.859375 345.070312 C 259.8125 344.457031 261.574219 343.351562 262.980469 341.867188 C 264.210938 342.902344 263.976562 344.523438 263.644531 346.144531 C 263.449219 347.082031 262.449219 347.628906 261.6875 348.097656 C 259.179688 349.71875 256.210938 350.472656 253.230469 350.246094 C 252.453125 349.996094 251.703125 349.675781 250.984375 349.289062 C 249.035156 348.824219 247.171875 348.046875 245.472656 346.984375 C 244 345.492188 242.273438 344.269531 240.375 343.371094 C 231.132812 341.007812 229.375 329.910156 232.285156 321.195312 C 235.882812 310.140625 250.28125 303.730469 262.214844 303.945312 Z M 255.828125 344.542969 C 257.78125 341.183594 256.667969 336.726562 254.558594 333.601562 C 252.019531 329.695312 249.753906 331.0625 248.015625 330.164062 C 245.550781 328.875 245.179688 327.429688 244.203125 326.726562 C 243.734375 326.417969 243.222656 326.1875 242.679688 326.042969 C 243.136719 325.046875 243.421875 323.984375 243.519531 322.898438 C 243.382812 321.566406 241.234375 318.714844 241.566406 318.070312 C 242.601562 317.582031 246.449219 318.65625 247.542969 319.027344 C 249.636719 319.730469 252.039062 317.757812 253.875 317.074219 C 256.902344 316.078125 261.140625 318.636719 263.195312 320.980469 C 266.535156 324.890625 265.792969 329.675781 264.796875 334.65625 C 264.53125 337.023438 263.519531 339.246094 261.914062 341.003906 C 260.304688 342.765625 258.183594 343.96875 255.847656 344.445312 Z M 252.039062 338.488281 C 252.195312 338.761719 251.824219 339.132812 251.492188 338.78125 C 251.238281 338.527344 251.050781 338.21875 250.941406 337.878906 C 250.835938 337.539062 250.816406 337.175781 250.886719 336.824219 C 250.917969 336.476562 251.050781 336.144531 251.269531 335.871094 C 251.488281 335.597656 251.785156 335.390625 252.117188 335.28125 C 252.644531 335.105469 252.703125 335.59375 252.507812 335.75 C 252.234375 336.125 252.050781 336.558594 251.972656 337.015625 C 251.894531 337.472656 251.925781 337.945312 252.058594 338.390625 Z M 309.515625 349.230469 C 309.515625 350.324219 309.75 352.042969 309.027344 352.75 C 308.65625 353.121094 303.535156 352.316406 298.300781 353.082031 C 296.347656 353.375 294.257812 353.824219 292.242188 354.097656 C 280.972656 355.699219 284.429688 354.390625 267.609375 359.46875 C 264.914062 360.269531 262.15625 360.796875 259.441406 361.519531 C 254.167969 362.945312 251.882812 364.683594 248.074219 365.621094 C 241.996094 367.144531 240.941406 363.824219 237.914062 360.152344 C 233.65625 354.957031 232.421875 348.742188 228.847656 343.683594 C 221.816406 333.738281 219.980469 335.222656 216.363281 332.136719 C 215.652344 331.550781 215.070312 330.828125 214.644531 330.007812 C 214.585938 329.902344 214.550781 329.785156 214.550781 329.664062 C 214.550781 329.546875 214.585938 329.425781 214.644531 329.324219 C 215.597656 328.144531 216.71875 327.113281 217.96875 326.257812 C 219.550781 325.207031 221.214844 324.285156 222.949219 323.503906 C 225.644531 322.035156 229.257812 319.789062 231.601562 318.773438 C 227.167969 328.152344 228.75 342.21875 239.808594 344.875 C 240.515625 345.113281 241.175781 345.472656 241.761719 345.929688 C 243.132812 347.195312 244.640625 348.300781 246.253906 349.230469 C 247.585938 349.816406 249.089844 350.128906 250.417969 350.617188 C 251.5 351.257812 252.71875 351.636719 253.972656 351.722656 C 255.230469 351.804688 256.484375 351.597656 257.644531 351.105469 C 259.792969 350.460938 261.785156 349.382812 263.507812 347.941406 C 263.867188 347.566406 264.117188 347.101562 264.230469 346.59375 C 264.582031 344.640625 264.738281 342.824219 263.253906 341.613281 C 264.300781 340.328125 265.09375 338.855469 265.597656 337.273438 C 266.277344 337.523438 267.011719 337.59375 267.726562 337.46875 C 264.796875 339.875 265.65625 341.945312 269.425781 342.902344 C 273.058594 343.800781 276.828125 344.019531 280.542969 343.546875 C 284.214844 343.214844 289.15625 343.429688 292.125 341.164062 C 295.097656 338.898438 298.105469 336.257812 298.476562 332.214844 C 298.847656 328.171875 298.261719 327.234375 298.847656 328.503906 C 300 330.964844 300.898438 333.5625 302.226562 335.886719 C 304.492188 339.796875 308.714844 342.0625 309.320312 346.671875 C 309.453125 347.488281 309.53125 348.308594 309.554688 349.132812 Z M 343.214844 339.796875 C 343.214844 339.796875 343.214844 339.679688 343.214844 339.796875 C 343.605469 340.519531 314.730469 342.882812 307.855469 340.773438 C 307.558594 340.421875 307.265625 340.070312 306.933594 339.71875 C 304.980469 333.210938 302.421875 315.550781 301.640625 309.59375 C 316.691406 309.648438 331.734375 308.753906 346.671875 306.914062 C 346.457031 312.464844 344.308594 336.746094 343.234375 339.699219 Z M 349.074219 298.300781 C 349.847656 300.734375 349.847656 303.347656 349.074219 305.78125 C 348.253906 307.070312 302.851562 308.734375 299.394531 307.855469 C 298.445312 305.582031 298.089844 303.109375 298.359375 300.664062 C 298.359375 300.664062 299.257812 300.253906 300.195312 300.039062 C 309.945312 297.773438 348.136719 296.679688 349.171875 298.203125 Z M 321.019531 296.621094 C 315.765625 296.835938 304.316406 297.441406 299.375 298.710938 C 298.496094 298.945312 297.265625 299.296875 297.03125 300.097656 C 296.445312 301.953125 297.128906 307.542969 298.4375 308.949219 C 298.847656 309.417969 300.019531 309.457031 300.878906 309.515625 C 301.601562 316.761719 303.28125 330.183594 304.785156 337.332031 C 301.5625 333.542969 300.878906 329.285156 298.203125 325.085938 C 297.714844 321.863281 296.363281 318.832031 294.296875 316.3125 C 290.582031 312.25 286.09375 308.972656 281.089844 306.679688 C 279.605469 306.074219 278.0625 305.605469 276.261719 305.058594 C 269.644531 302.765625 262.578125 302.046875 255.632812 302.96875 C 255.144531 301.015625 248.796875 277.945312 246.273438 268.878906 C 258.835938 262.667969 266.457031 251.433594 271.164062 238.226562 C 272.328125 241.222656 273.757812 244.105469 275.441406 246.839844 C 277.59375 250.359375 296.796875 270.089844 304.335938 273.449219 C 307.570312 274.789062 311.058594 275.386719 314.554688 275.207031 C 315.757812 275.171875 316.957031 275.070312 318.148438 274.894531 C 318.578125 276.730469 319.671875 281.929688 321.117188 296.523438 Z M 367.695312 246 C 359.488281 257.839844 352.199219 260.242188 340.109375 266.242188 C 333.800781 269.269531 327.203125 271.652344 320.414062 273.351562 C 322.269531 268.800781 327.527344 263.117188 330.847656 259.675781 C 339.039062 251.371094 347.699219 243.542969 356.792969 236.234375 C 356.855469 236.1875 356.894531 236.117188 356.90625 236.039062 C 356.917969 235.964844 356.898438 235.886719 356.851562 235.824219 C 356.804688 235.761719 356.734375 235.71875 356.660156 235.707031 C 356.582031 235.699219 356.503906 235.71875 356.441406 235.765625 C 337.667969 248.503906 323.230469 265.070312 319.808594 271.4375 C 319.855469 269.046875 319.71875 266.65625 319.398438 264.289062 C 320.167969 260.714844 321.410156 257.257812 323.09375 254.011719 C 325.054688 250.605469 327.324219 247.390625 329.871094 244.398438 C 336.6875 234.964844 350.363281 221.914062 361.5 225.644531 C 370.585938 228.59375 373.164062 238.148438 367.792969 245.902344 Z M 367.695312 246 " fill-opacity="1" fill-rule="nonzero"/><path fill="#000000" d="M 86.039062 243.324219 C 86.195312 243.324219 86.347656 243.28125 86.484375 243.207031 C 86.621094 243.128906 86.734375 243.019531 86.820312 242.886719 C 86.902344 242.757812 86.949219 242.605469 86.960938 242.449219 C 86.972656 242.292969 86.941406 242.136719 86.878906 241.996094 C 86.507812 241.175781 86.3125 240.394531 85.785156 239.4375 C 85.664062 239.226562 85.46875 239.066406 85.234375 239 C 85 238.929688 84.75 238.953125 84.535156 239.066406 C 84.425781 239.125 84.332031 239.199219 84.257812 239.296875 C 84.179688 239.390625 84.121094 239.496094 84.085938 239.613281 C 84.054688 239.730469 84.042969 239.851562 84.054688 239.972656 C 84.066406 240.09375 84.105469 240.210938 84.164062 240.316406 C 85.023438 241.898438 85.003906 243.324219 86.039062 243.324219 Z M 68.652344 245.414062 C 68.664062 245.65625 68.773438 245.882812 68.953125 246.046875 C 69.132812 246.210938 69.367188 246.300781 69.609375 246.292969 C 69.730469 246.289062 69.847656 246.261719 69.957031 246.210938 C 70.066406 246.160156 70.164062 246.085938 70.246094 246 C 70.328125 245.910156 70.390625 245.804688 70.433594 245.691406 C 70.472656 245.578125 70.492188 245.457031 70.488281 245.335938 C 70.488281 243.382812 70.917969 241.820312 69.453125 241.722656 C 69.207031 241.746094 68.980469 241.867188 68.824219 242.058594 C 68.664062 242.25 68.589844 242.492188 68.613281 242.738281 C 68.710938 243.675781 68.613281 244.398438 68.652344 245.414062 Z M 102.957031 240.316406 C 102.96875 240.4375 103 240.554688 103.054688 240.664062 C 103.113281 240.769531 103.1875 240.863281 103.28125 240.941406 C 103.375 241.019531 103.480469 241.082031 103.59375 241.117188 C 103.710938 241.152344 103.832031 241.167969 103.953125 241.15625 C 104.074219 241.148438 104.191406 241.113281 104.296875 241.058594 C 104.40625 241 104.5 240.925781 104.578125 240.832031 C 104.65625 240.738281 104.714844 240.632812 104.753906 240.519531 C 104.789062 240.402344 104.804688 240.28125 104.792969 240.160156 C 104.792969 239.242188 104.792969 238.421875 104.636719 237.367188 C 104.570312 237.148438 104.429688 236.960938 104.238281 236.839844 C 104.042969 236.71875 103.816406 236.671875 103.589844 236.707031 C 103.363281 236.742188 103.160156 236.859375 103.015625 237.035156 C 102.871094 237.210938 102.792969 237.433594 102.800781 237.660156 C 102.9375 238.539062 102.878906 239.359375 102.957031 240.316406 Z M 102.957031 240.316406 " fill-opacity="1" fill-rule="nonzero"/></svg>