<svg xmlns="http://www.w3.org/2000/svg" xmlns:xlink="http://www.w3.org/1999/xlink" width="100" zoomAndPan="magnify" viewBox="0 0 75 74.999997" height="100" preserveAspectRatio="xMidYMid meet" version="1.0"><defs><g/></defs><g fill="#000000" fill-opacity="1"><g transform="translate(14.359709, 66.910443)"><g><path d="M 5.355469 -61.167969 C 5.1875 -61.167969 5.105469 -61.167969 5.019531 -61.253906 L 4.851562 -61.253906 C 4.851562 -61.253906 4.851562 -61.253906 4.769531 -61.253906 C 4.6875 -61.253906 4.601562 -61.167969 4.519531 -61.167969 C 4.519531 -61.167969 4.601562 -61.167969 4.6875 -61.253906 C 4.601562 -61.167969 4.519531 -61.167969 4.519531 -61.167969 L 4.351562 -61.167969 C 4.269531 -61.085938 4.183594 -61.003906 4.101562 -61.003906 C 3.933594 -60.917969 3.847656 -60.835938 3.847656 -60.75 C 3.683594 -60.582031 3.683594 -60.5 3.683594 -60.5 L 3.515625 -60.164062 C 3.429688 -34.058594 3.429688 -14.476562 3.429688 -1.507812 L 3.429688 -1.171875 L 3.597656 -0.835938 C 3.597656 -0.667969 3.683594 -0.585938 3.765625 -0.585938 L 4.015625 -0.335938 L 4.351562 -0.167969 C 4.269531 -0.167969 4.183594 -0.167969 4.183594 -0.25 C 4.101562 -0.25 4.101562 -0.25 4.183594 -0.25 C 4.183594 -0.25 4.269531 -0.167969 4.269531 -0.167969 C 4.269531 -0.0820312 4.351562 -0.0820312 4.433594 -0.0820312 C 4.519531 -0.0820312 4.601562 0 4.769531 0 L 5.105469 0 C 5.1875 0 5.273438 -0.0820312 5.4375 -0.0820312 L 5.773438 -0.25 L 6.023438 -0.503906 L 6.191406 -0.835938 C 12.050781 -13.472656 16.570312 -22.929688 19.582031 -29.289062 L 39.832031 -29.289062 L 39.832031 -1.085938 L 40 -0.753906 L 40.164062 -0.417969 C 40.25 -0.335938 40.332031 -0.25 40.417969 -0.25 L 40.75 -0.0820312 C 40.835938 0 40.917969 0 41.085938 0 L 41.421875 0 C 41.503906 0 41.589844 -0.0820312 41.757812 -0.0820312 C 41.839844 -0.0820312 41.921875 -0.167969 42.007812 -0.25 L 42.257812 -0.503906 C 42.339844 -0.585938 42.425781 -0.667969 42.425781 -0.835938 C 42.425781 -0.921875 42.507812 -1.003906 42.507812 -1.171875 C 42.507812 -1.253906 42.59375 -1.339844 42.59375 -1.507812 C 42.59375 -27.363281 42.59375 -46.777344 42.675781 -59.746094 C 42.675781 -59.746094 42.59375 -59.832031 42.59375 -59.914062 L 42.59375 -60.082031 C 42.507812 -60.164062 42.507812 -60.25 42.507812 -60.417969 C 42.425781 -60.5 42.339844 -60.582031 42.257812 -60.667969 C 42.175781 -60.75 42.089844 -60.835938 42.007812 -60.917969 C 41.921875 -60.917969 41.839844 -61.003906 41.757812 -61.085938 C 41.757812 -61.003906 41.839844 -61.003906 41.921875 -61.003906 L 41.839844 -60.917969 L 41.589844 -60.917969 L 41.839844 -60.917969 C 41.839844 -60.917969 41.921875 -60.917969 41.921875 -61.003906 C 41.921875 -61.003906 41.839844 -61.085938 41.839844 -61.085938 C 41.757812 -61.085938 41.671875 -61.085938 41.589844 -61.167969 C 41.589844 -61.085938 41.671875 -61.085938 41.757812 -61.085938 L 41.839844 -61.003906 C 41.757812 -61.003906 41.671875 -61.085938 41.671875 -61.085938 C 41.589844 -61.085938 41.503906 -61.167969 41.503906 -61.167969 L 41.171875 -61.167969 C 41.003906 -61.167969 40.917969 -61.167969 40.835938 -61.167969 C 40.835938 -61.167969 40.917969 -61.167969 41.003906 -61.253906 C 40.917969 -61.167969 40.835938 -61.167969 40.835938 -61.167969 L 40.667969 -61.167969 C 40.5 -61.085938 40.417969 -61.003906 40.417969 -61.003906 C 40.25 -60.917969 40.164062 -60.835938 40.082031 -60.75 C 40 -60.667969 39.914062 -60.582031 39.914062 -60.5 C 39.832031 -60.332031 39.832031 -60.25 39.832031 -60.164062 C 33.890625 -47.613281 29.453125 -38.242188 26.609375 -32.050781 L 6.191406 -32.050781 L 6.191406 -60.164062 C 6.109375 -60.25 6.109375 -60.332031 6.109375 -60.5 C 6.023438 -60.582031 5.941406 -60.667969 5.859375 -60.75 C 5.773438 -60.835938 5.691406 -60.917969 5.605469 -61.003906 C 5.523438 -61.003906 5.4375 -61.085938 5.355469 -61.167969 Z M 39.914062 -53.972656 L 39.914062 -49.871094 L 37.992188 -49.871094 C 38.828125 -51.714844 39.414062 -53.050781 39.914062 -53.972656 Z M 36.902344 -47.695312 L 39.914062 -47.695312 L 39.914062 -43.765625 L 35.144531 -43.765625 C 35.898438 -45.4375 36.484375 -46.777344 36.902344 -47.695312 Z M 39.914062 -41.589844 C 39.832031 -39.832031 39.832031 -38.492188 39.832031 -37.65625 L 32.214844 -37.65625 C 33.054688 -39.328125 33.640625 -40.667969 34.058594 -41.589844 Z M 39.832031 -35.480469 L 39.832031 -31.964844 C 35.230469 -31.964844 31.796875 -32.050781 29.621094 -32.050781 C 30.292969 -33.554688 30.792969 -34.644531 31.210938 -35.480469 Z M 6.191406 -29.289062 L 16.484375 -29.289062 C 15.730469 -27.699219 15.230469 -26.527344 14.894531 -25.773438 C 11.046875 -25.773438 8.117188 -25.691406 6.191406 -25.691406 Z M 13.808594 -23.597656 C 12.96875 -21.757812 12.382812 -20.5 11.964844 -19.664062 C 9.371094 -19.664062 7.449219 -19.582031 6.191406 -19.582031 L 6.191406 -23.515625 C 9.539062 -23.515625 12.132812 -23.515625 13.808594 -23.597656 Z M 10.960938 -17.488281 C 10.125 -15.648438 9.457031 -14.394531 9.121094 -13.554688 L 6.191406 -13.554688 L 6.191406 -17.40625 C 8.285156 -17.40625 9.875 -17.40625 10.960938 -17.488281 Z M 8.117188 -11.378906 C 7.195312 -9.539062 6.527344 -8.117188 6.191406 -7.195312 L 6.191406 -11.296875 C 7.027344 -11.296875 7.613281 -11.296875 8.117188 -11.378906 Z M 8.117188 -11.378906 "/></g></g></g></svg>